M48
;Layer_Color=9474304
;FILE_FORMAT=2:5
INCH
;TYPE=PLATED
T01F00S00C0.01181
T03F00S00C0.02953
T04F00S00C0.03150
T05F00S00C0.04528
T06F00S00C0.04724
T07F00S00C0.05315
T08F00S00C0.06496
T09F00S00C0.10236
T10F00S00C0.12441
T11F00S00C0.14331
%
T01
X0314567Y0161024
X0320472
X0326378
X0332283
X0338189
X0344094
X0350000
X0355905
X0361811
X0367716
X0370669Y0166929
X0364764
X0358858
X0352953
X0347047
X0341142
X0335236
X0329331
X0323425
X0317520
X0314567Y0172835
X0320472
X0326378
X0332283
X0329331Y0178740
X0323425
X0332283Y0184646
X0335236Y0190551
X0341142
X0347047
X0352953
X0358858
X0364764
X0370669
X0376575
X0382480
X0388386
X0394291
X0400197
X0397244Y0196457
X0403150
X0400197Y0202362
X0394291
X0391338Y0208268
X0397244
X0403150
X0385433
X0379527
X0373622
X0367716
X0361811
X0355905
X0350000
X0344094
X0338189
X0332283
X0326378
X0329331Y0214173
X0335236
X0341142
X0347047
X0352953
X0358858
X0364764
X0370669
X0376575
X0373622Y0220079
X0379527
X0376575Y0225984
X0370669
X0364764
X0358858
X0352953
X0350000Y0220079
X0355905
X0361811
X0367716
X0370669Y0202362
X0376575
X0373622Y0196457
X0379527
X0385433
X0391338
Y0184646
X0397244
X0403150
X0406102Y0178740
X0412008
X0417913
X0423819
X0429724
X0438583Y0184646
X0444488
X0441535Y0190551
X0435630
X0432677Y0196457
X0438583
X0444488
X0441535Y0214173
X0435630
X0429724
X0423819
X0420866Y0220079
X0414960
X0432677
X0438583
X0444488
X0441535Y0225984
X0435630
X0432677Y0231890
X0438583
X0444488
X0441535Y0237795
X0435630
X0429724
X0426771Y0231890
X0432677Y0243701
X0438583
X0444488
X0441535Y0249606
X0435630
Y0261417
X0441535
X0438583Y0267323
X0444488
X0441535Y0273228
X0435630
X0429724
X0432677Y0279134
X0438583
X0444488
X0441535Y0285039
X0435630
X0432677Y0290945
X0438583
X0444488
X0441535Y0296850
X0435630
X0429724
X0414960Y0302756
X0417913Y0308661
X0400197
X0394291
X0391338Y0302756
X0397244
X0403150
X0385433
X0379527
X0373622
X0367716
X0361811
X0355905
X0350000
X0344094
X0338189
X0332283
X0326378
X0329331Y0308661
X0335236
X0341142
X0347047
X0352953
X0358858
X0364764
X0370669
X0376575
Y0296850
X0370669
X0364764
X0358858
X0352953
X0347047
X0341142
X0335236
X0329331
X0323425
X0317520
X0338189Y0290945
X0344094
X0350000
X0355905
X0361811
X0367716
X0373622
X0379527
X0376575Y0285039
X0370669
X0364764
X0358858
X0352953
X0341142
X0379527Y0279134
Y0267323
Y0243701
Y0231890
X0364764Y0202362
X0358858
X0352953
X0347047
X0341142
X0335236
X0329331
X0332283Y0196457
X0338189
X0344094
X0350000
X0355905
X0361811
X0367716
Y0184646
X0373622
X0379527
X0385433
X0388386Y0178740
X0394291
X0391338Y0172835
X0382480Y0178740
X0376575
X0370669
X0364764
X0358858
X0355905Y0184646
X0361811
Y0172835
X0367716
X0355905
X0344094Y0220079
X0338189
X0341142Y0225984
X0323425Y0214173
X0317520Y0249606
Y0261417
X0412008
X0417913
X0423819
X0429724
X0432677Y0267323
X0417913Y0202362
X0414960Y0196457
X0444488Y0172835
Y0161024
X0438583
X0308661
X0302756
X0305709Y0166929
X0311614
X0308661Y0172835
X0302756
X0293898Y0178740
X0287992
X0282086
X0276181
X0270275
X0264370
X0258465
X0255512Y0184646
X0261417
X0267323
X0273228
X0279134
X0276181Y0190551
X0270275
X0264370
X0258465
X0252559
X0246654
X0240748
X0234842
X0228937
X0223031
X0217126
X0214173Y0196457
X0220079
X0225984
X0231890
X0237795
X0243701
X0249606
X0255512
X0261417
X0267323
X0273228
X0276181Y0214173
X0282086
X0287992
X0293898
X0299803
X0302756Y0231890
X0308661
X0311614Y0237795
X0305709
X0299803
X0296850Y0243701
X0302756
X0290945
Y0267323
X0296850
X0302756
X0305709Y0273228
X0311614
X0308661Y0279134
X0302756
X0305709Y0285039
X0311614
Y0261417
Y0249606
Y0225984
X0270275
X0255512Y0220079
X0243701
X0237795
X0231890
X0225984
X0220079
X0214173
X0217126Y0225984
X0214173Y0231890
X0220079
X0217126Y0237795
X0211220
X0205315
X0202362Y0243701
X0208268
X0214173
X0220079
X0217126Y0249606
X0211220
X0205315
X0199409
X0193504
X0187598
Y0261417
X0193504
X0199409
X0205315
X0211220
X0217126
X0214173Y0267323
X0220079
Y0279134
X0217126Y0285039
X0211220
X0205315
X0202362Y0279134
X0208268
X0211220Y0273228
X0205315
X0199409
X0193504
X0196457Y0267323
X0202362
X0208268
X0237795
X0243701
X0240748Y0261417
X0234842
X0240748Y0249606
X0231890Y0243701
Y0231890
X0237795
X0243701
X0240748Y0225984
X0234842
Y0202362
X0240748
X0228937
X0223031
X0217126
X0214173Y0184646
X0220079
X0225984
X0231890
X0228937Y0178740
X0223031
X0217126
X0211220
X0205315
X0199409
X0193504
X0187598
X0208268Y0184646
X0214173Y0172835
X0220079
X0225984
X0231890
X0234842Y0166929
X0240748
X0246654
X0252559
X0258465
X0264370
X0270275
X0276181
X0282086
X0279134Y0172835
X0285039
Y0161024
X0279134
X0273228
X0267323
X0261417
X0255512
X0249606
X0243701
X0237795
X0231890
X0225984
X0228937Y0166929
X0223031
X0217126
X0255512Y0172835
X0261417
X0267323
X0273228
X0255512Y0243701
Y0267323
X0261417
X0267323
X0273228
X0279134
X0285039
X0293898Y0273228
X0299803
X0293898Y0296850
X0287992
Y0308661
X0299803
X0305709
X0302756Y0302756
X0296850
X0276181Y0296850
X0270275
X0255512Y0290945
Y0279134
X0240748Y0285039
X0234842
X0231890Y0290945
X0237795
X0243701
X0225984
X0220079
X0214173
X0181693Y0261417
X0196457Y0243701
X0131496Y0255512
X0125591
X0128543Y0261417
X0125591Y0267323
X0131496
X0137401
X0128543Y0273228
X0125591Y0279134
X0128543Y0285039
Y0308661
X0134449
X0131496Y0314567
X0125591
X0128543Y0320472
X0134449
X0131496Y0326378
X0125591
X0128543Y0332283
X0134449
X0137401Y0338189
X0140354Y0344094
X0146260
X0152165
X0149213Y0350000
X0155118
X0143307
X0137401
X0161024
X0166929
X0172835
X0175787Y0344094
X0169882
X0163976
X0158071
X0172835Y0338189
X0190551
X0196457
X0202362
X0208268
X0211220Y0344094
X0205315
X0199409
X0193504
X0187598
X0190551Y0350000
X0196457
X0202362
X0208268
X0225984
X0231890
X0237795
X0243701
X0249606
X0255512
X0261417
X0267323
X0273228
X0279134
X0285039
X0282086Y0344094
X0276181
X0270275
X0264370
X0258465
X0252559
X0246654
X0240748
X0234842
X0228937
X0223031
X0225984Y0338189
X0231890
X0228937Y0332283
X0223031
X0220079Y0326378
X0225984
X0231890
X0214173
X0208268
X0211220Y0332283
X0205315
X0199409
X0193504
X0187598
X0258465
X0264370
X0270275
X0276181
X0273228Y0338189
X0279134
X0285039
X0267323
X0261417
X0255512
Y0326378
X0261417
X0267323
X0273228
X0308661
X0311614Y0320472
Y0344094
X0305709
X0302756Y0350000
X0308661
X0314567
X0320472
X0326378
X0332283
X0338189
X0344094
X0350000
X0355905
X0361811
X0367716
X0370669Y0344094
X0364764
X0358858
X0352953
X0347047
X0341142
X0335236
X0329331
X0323425
X0317520
X0320472Y0338189
X0326378
X0332283
X0329331Y0332283
X0323425
X0332283Y0326378
X0335236Y0320472
X0341142
X0347047
X0352953
X0358858
X0364764
X0370669
X0376575
X0382480
X0388386
X0394291
X0400197
X0397244Y0326378
X0403150
X0406102Y0332283
X0412008
X0417913
X0429724
X0435630
X0441535
X0438583Y0338189
X0444488
X0441535Y0344094
X0435630
X0438583Y0350000
X0444488
Y0326378
X0438583
X0432677
X0435630Y0320472
X0441535
X0429724
X0403150Y0314567
X0397244
X0391338
X0385433
X0379527
X0373622
X0367716
X0361811
X0355905
X0350000
X0344094
X0338189
X0332283
X0329331Y0320472
X0355905Y0326378
X0361811
X0367716
X0373622
X0379527
X0385433
X0391338
X0394291Y0332283
X0400197
X0388386
X0382480
X0376575
X0370669
X0364764
X0358858
X0355905Y0338189
X0361811
X0367716
X0391338Y0350000
T03
X0347638Y0225590
Y0239370
Y0272441
Y0286221
X0385039Y0295669
Y0309449
Y0216142
Y0202362
T04
X0188583Y0230709
Y0244488
Y0267323
Y0281102
X0216378Y0275039
X0226378
Y0285039
Y0265039
Y0246850
Y0236850
X0236378
X0226378Y0226850
T05
X0375039Y0162992
X0385039
X0399213
X0409213
X0419213
X0429213
Y0173228
X0419213
X0409213
X0399213
X0409842Y0186457
Y0196457
Y0206457
X0422835
Y0196457
Y0186457
Y0305748
X0409842
Y0315748
Y0325748
X0422835
Y0315748
X0419213Y0338189
X0429213
Y0348425
X0419213
X0409213
X0399213
Y0338189
X0409213
X0385039Y0348425
X0375039
T06
X0425197Y0224803
Y0244488
Y0267717
Y0287402
X0215591Y0300000
X0205748
X0194331
X0184488
X0140157Y0279134
Y0259449
Y0236221
Y0216535
T07
X0287008Y0187740
X0300394
X0307087Y0195614
X0293701
X0280315
Y0316197
X0293701
X0307087
X0300394Y0324071
X0287008
T08
X0164567Y0168071
X0182677
X0200787
Y0195276
X0182677
X0164567
T09
X0343701Y0178740
X0243701
X0243701Y0333071
X0343701
T10
X0158661Y0329134
T11
X0158661Y0305512
M30
