G04*
G04 #@! TF.GenerationSoftware,Altium Limited,Altium Designer,26.1.1 (7)*
G04*
G04 Layer_Physical_Order=1*
G04 Layer_Color=255*
%FSLAX25Y25*%
%MOIN*%
G70*
G04*
G04 #@! TF.SameCoordinates,A27177A8-F1D2-4F34-B952-3273C0BAAD6C*
G04*
G04*
G04 #@! TF.FilePolarity,Positive*
G04*
G01*
G75*
%ADD13C,0.01575*%
%ADD15R,0.05787X0.03819*%
%ADD16R,0.05906X0.15748*%
%ADD17R,0.12795X0.19488*%
%ADD18R,0.18898X0.11024*%
%ADD19R,0.08071X0.08858*%
%ADD20R,0.04724X0.04134*%
%ADD21R,0.03937X0.05512*%
%ADD22R,0.05512X0.03937*%
%ADD52C,0.03937*%
%ADD53C,0.01181*%
%ADD54C,0.06791*%
%ADD55R,0.06791X0.06791*%
%ADD56R,0.04724X0.04724*%
%ADD57C,0.04724*%
%ADD58C,0.04528*%
%ADD59R,0.04528X0.04528*%
%ADD60C,0.15118*%
%ADD61C,0.07874*%
%ADD62O,0.04331X0.08268*%
%ADD63O,0.04331X0.10236*%
%ADD64R,0.07972X0.07972*%
%ADD65C,0.07972*%
%ADD66C,0.05512*%
%ADD67R,0.05512X0.05512*%
%ADD68R,0.06791X0.06791*%
%ADD69C,0.07087*%
%ADD70R,0.07087X0.07087*%
%ADD71C,0.09744*%
%ADD72C,0.18661*%
%ADD73C,0.21496*%
%ADD74C,0.14173*%
%ADD75C,0.02362*%
G36*
X441946Y356012D02*
X443307Y355448D01*
X444532Y354629D01*
X445574Y353587D01*
X446393Y352362D01*
X446957Y351001D01*
X447244Y349556D01*
Y348819D01*
Y257480D01*
X178347Y257480D01*
Y272603D01*
X190157D01*
X190548Y272680D01*
X190878Y272901D01*
X208896Y290919D01*
X209117Y291249D01*
X209195Y291640D01*
X210155Y293094D01*
X221709D01*
X221709Y293094D01*
X223284Y293130D01*
X223674Y293208D01*
X224004Y293429D01*
X224044Y293469D01*
X244584D01*
X246106Y293342D01*
X246106Y292057D01*
Y291614D01*
X253894D01*
Y292484D01*
X253894Y293342D01*
X253894Y294917D01*
Y296282D01*
X255349Y297242D01*
X255739Y297320D01*
X256070Y297541D01*
X258296Y299768D01*
X276378Y299768D01*
X276768Y299845D01*
X277099Y300066D01*
X285367Y308334D01*
X285588Y308665D01*
X285665Y309055D01*
Y311211D01*
X285588Y311601D01*
X285367Y311932D01*
X285301Y311975D01*
Y318279D01*
X286351Y319085D01*
X287664D01*
X287815Y319125D01*
X288391Y318658D01*
X288969Y317804D01*
X288855Y317378D01*
X298546D01*
X298432Y317804D01*
X299010Y318658D01*
X299586Y319125D01*
X299737Y319085D01*
X301050D01*
X301201Y319125D01*
X301777Y318658D01*
X302355Y317804D01*
X302241Y317378D01*
X305906D01*
Y321445D01*
X305703Y321609D01*
X305125Y322464D01*
X305380Y323414D01*
Y324727D01*
X305040Y325995D01*
X304384Y327133D01*
X303796Y327721D01*
X304229Y329138D01*
X304342Y329295D01*
X310208Y329295D01*
X315122Y324381D01*
Y311052D01*
X297609Y293539D01*
X274803D01*
X274413Y293462D01*
X274082Y293241D01*
X273295Y292453D01*
X273074Y292123D01*
X272996Y291732D01*
Y283887D01*
X269656Y280547D01*
X259449Y280547D01*
X259059Y280469D01*
X258728Y280248D01*
X258515Y280035D01*
X258350D01*
Y279871D01*
X258334Y279855D01*
X258113Y279524D01*
X258035Y279134D01*
Y271097D01*
X258113Y270707D01*
X258334Y270376D01*
X258350Y270360D01*
Y269177D01*
X259533D01*
X259746Y268964D01*
X260077Y268743D01*
X260467Y268666D01*
X287008Y268666D01*
X287398Y268743D01*
X287729Y268964D01*
X325130Y306366D01*
X325351Y306696D01*
X325429Y307087D01*
X325429Y327559D01*
X325351Y327949D01*
X325130Y328280D01*
X315288Y338123D01*
X314957Y338344D01*
X314567Y338421D01*
X299459D01*
X298981Y339996D01*
X299249Y340175D01*
X300376Y341302D01*
X301261Y342626D01*
X301870Y344098D01*
X302181Y345660D01*
Y347253D01*
X301870Y348815D01*
X301261Y350287D01*
X300376Y351612D01*
X299249Y352738D01*
X297925Y353623D01*
X296453Y354233D01*
X294891Y354543D01*
X293298D01*
X291736Y354233D01*
X290264Y353623D01*
X288940Y352738D01*
X287813Y351612D01*
X286928Y350287D01*
X286319Y348815D01*
X286008Y347253D01*
Y345660D01*
X286319Y344098D01*
X286928Y342626D01*
X287813Y341302D01*
X288940Y340175D01*
X289208Y339996D01*
X288730Y338421D01*
X287795D01*
X287405Y338344D01*
X287074Y338123D01*
X279200Y330248D01*
X278979Y329918D01*
X278902Y329528D01*
X278902Y322002D01*
X278123Y321484D01*
X277514Y321183D01*
X276057D01*
X276050Y321193D01*
X275719Y321414D01*
X275329Y321492D01*
X207509D01*
X203871Y325130D01*
X203540Y325351D01*
X203150Y325429D01*
X181918D01*
X166469Y340878D01*
X166138Y341100D01*
X165748Y341177D01*
X163159D01*
X163060Y341158D01*
X162960D01*
X162867Y341119D01*
X162768Y341100D01*
X162685Y341044D01*
X162592Y341005D01*
X162521Y340934D01*
X162438Y340878D01*
X162382Y340795D01*
X162311Y340724D01*
X162273Y340631D01*
X162217Y340548D01*
X162212Y340523D01*
X162099Y340217D01*
X161634Y339076D01*
X159679Y339465D01*
X157644D01*
X155689Y339076D01*
X155224Y340217D01*
X155111Y340523D01*
X155106Y340548D01*
X155050Y340631D01*
X155012Y340724D01*
X154941Y340795D01*
X154885Y340878D01*
X154802Y340934D01*
X154731Y341005D01*
X154638Y341044D01*
X154554Y341100D01*
X154456Y341119D01*
X154363Y341158D01*
X154263D01*
X154164Y341177D01*
X144488D01*
X144098Y341100D01*
X143767Y340878D01*
X137468Y334579D01*
X137247Y334248D01*
X137169Y333858D01*
Y307174D01*
X136630Y305823D01*
X134449D01*
Y302756D01*
X132087D01*
Y305823D01*
X130724D01*
X129528Y305823D01*
X128331Y305823D01*
X122425D01*
Y299689D01*
X122505D01*
X122819Y298244D01*
X122819D01*
Y290732D01*
X128508D01*
X128756Y290732D01*
X130083Y290134D01*
Y285201D01*
X129921Y285039D01*
Y277953D01*
X142427Y265447D01*
X141824Y263992D01*
X141339D01*
Y259449D01*
Y254906D01*
X141431D01*
X142033Y253451D01*
X137402Y248819D01*
X117323D01*
Y348819D01*
Y349556D01*
X117610Y351001D01*
X118174Y352362D01*
X118993Y353587D01*
X120035Y354629D01*
X121260Y355448D01*
X122621Y356012D01*
X124066Y356299D01*
X178660D01*
X179370Y355533D01*
X179797Y354724D01*
X179729Y354201D01*
Y350264D01*
X179837Y349437D01*
X180156Y348668D01*
X180664Y348006D01*
X181325Y347499D01*
X182095Y347180D01*
X182921Y347071D01*
X183748Y347180D01*
X184518Y347499D01*
X185179Y348006D01*
X185686Y348668D01*
X186005Y349437D01*
X186114Y350264D01*
Y354201D01*
X186045Y354724D01*
X186473Y355533D01*
X187183Y356299D01*
X212660D01*
X213370Y355533D01*
X213797Y354724D01*
X213729Y354201D01*
Y350264D01*
X213837Y349437D01*
X214156Y348668D01*
X214664Y348006D01*
X215325Y347499D01*
X216095Y347180D01*
X216921Y347071D01*
X217748Y347180D01*
X218518Y347499D01*
X219179Y348006D01*
X219686Y348668D01*
X220005Y349437D01*
X220114Y350264D01*
Y354201D01*
X220045Y354724D01*
X220473Y355533D01*
X221183Y356299D01*
X440500D01*
X441946Y356012D01*
D02*
G37*
G36*
X181496Y324410D02*
X203150D01*
X207087Y320472D01*
X275329D01*
Y318165D01*
X280315D01*
Y316197D01*
X282283D01*
Y311211D01*
X284646D01*
Y309055D01*
X276378Y300787D01*
X257874Y300787D01*
X255349Y298262D01*
X253894Y298865D01*
Y299878D01*
X250500D01*
Y296969D01*
X250000D01*
Y296468D01*
X246106D01*
Y294488D01*
X223622D01*
X223284Y294150D01*
X221709Y294802D01*
Y297638D01*
X211260D01*
Y299606D01*
X209291D01*
Y306118D01*
X200842D01*
X200811Y306118D01*
X199268D01*
X199236Y306118D01*
X178370D01*
Y293094D01*
X199236D01*
X199268Y293094D01*
X200811D01*
X200842Y293094D01*
X207572D01*
X208175Y291640D01*
X190157Y273622D01*
X142847Y273622D01*
X142425Y275197D01*
X142947Y275498D01*
X143793Y276344D01*
X144267Y277165D01*
X140157D01*
X136048D01*
X136522Y276344D01*
X136563Y276303D01*
X136092Y274547D01*
X136085Y274545D01*
X131102Y279528D01*
Y290732D01*
X132768D01*
Y294488D01*
X133268D01*
Y294988D01*
X136236D01*
Y298244D01*
X136236Y298244D01*
X136236D01*
X137211Y299415D01*
X138189Y300394D01*
Y333858D01*
X144488Y340158D01*
X154164D01*
X154477Y338583D01*
X153768Y338289D01*
X152076Y337158D01*
X150637Y335719D01*
X149506Y334027D01*
X148728Y332147D01*
X148520Y331102D01*
X158661D01*
X168803D01*
X168595Y332147D01*
X167816Y334027D01*
X166686Y335719D01*
X165247Y337158D01*
X163555Y338289D01*
X162845Y338583D01*
X163159Y340158D01*
X165748D01*
X181496Y324410D01*
D02*
G37*
G36*
X126856Y300689D02*
X126756Y300654D01*
X126667Y300595D01*
X126591Y300512D01*
X126526Y300406D01*
X126472Y300276D01*
X126431Y300122D01*
X126402Y299945D01*
X126384Y299744D01*
X126378Y299520D01*
X125197D01*
X125191Y299744D01*
X125173Y299945D01*
X125144Y300122D01*
X125102Y300276D01*
X125049Y300406D01*
X124984Y300512D01*
X124908Y300595D01*
X124819Y300654D01*
X124718Y300689D01*
X124606Y300701D01*
X126969D01*
X126856Y300689D01*
D02*
G37*
G36*
X126384Y298189D02*
X126402Y297988D01*
X126431Y297811D01*
X126472Y297657D01*
X126526Y297527D01*
X126591Y297421D01*
X126667Y297338D01*
X126756Y297279D01*
X126856Y297244D01*
X126969Y297232D01*
X124606D01*
X124718Y297244D01*
X124819Y297279D01*
X124908Y297338D01*
X124984Y297421D01*
X125049Y297527D01*
X125102Y297657D01*
X125144Y297811D01*
X125173Y297988D01*
X125191Y298189D01*
X125197Y298413D01*
X126378D01*
X126384Y298189D01*
D02*
G37*
G36*
X324410Y327559D02*
X324409Y307087D01*
X287008Y269685D01*
X260467Y269685D01*
X259055Y271097D01*
Y279134D01*
X259449Y279528D01*
X270079Y279528D01*
X274016Y283465D01*
Y291732D01*
X274803Y292520D01*
X298031D01*
X316142Y310630D01*
Y324803D01*
X310630Y330315D01*
X299213Y330315D01*
X293569Y324671D01*
X293081Y324689D01*
X291868Y325198D01*
X291654Y325995D01*
X290998Y327133D01*
X290070Y328061D01*
X288976Y328692D01*
Y324071D01*
X287008D01*
Y322102D01*
X281559D01*
X281215Y321648D01*
X279921Y322002D01*
X279921Y329528D01*
X287795Y337402D01*
X314567D01*
X324410Y327559D01*
D02*
G37*
G36*
X210630Y216929D02*
X246106D01*
Y215342D01*
X250000D01*
Y214843D01*
X250500D01*
Y211933D01*
X253894D01*
Y213340D01*
X255349Y213943D01*
X259055Y210236D01*
X304724D01*
X311417Y203543D01*
Y200600D01*
X309055D01*
Y195614D01*
X307087D01*
Y193646D01*
X301693D01*
X300526Y193175D01*
X299213Y194488D01*
Y200000D01*
X297244Y201969D01*
X244882D01*
X241732Y205118D01*
X196457D01*
X189764Y198425D01*
Y197626D01*
X188189Y197313D01*
X187881Y198057D01*
X187238Y199019D01*
X186420Y199837D01*
X185459Y200479D01*
X184646Y200816D01*
Y195276D01*
X180709D01*
Y200816D01*
X179896Y200479D01*
X178934Y199837D01*
X178116Y199019D01*
X176231Y198964D01*
X175984Y199134D01*
Y225984D01*
X183646Y233646D01*
X185221Y232993D01*
Y232677D01*
D01*
X188583D01*
X191945D01*
D01*
X191945Y233739D01*
X193520Y234039D01*
X210630Y216929D01*
D02*
G37*
G36*
X140122Y232677D02*
X139611Y232674D01*
X138694Y232612D01*
X138289Y232554D01*
X137919Y232478D01*
X137584Y232385D01*
X137285Y232273D01*
X137022Y232143D01*
X136794Y231995D01*
X136601Y231829D01*
X135766Y232664D01*
X135932Y232857D01*
X136080Y233085D01*
X136210Y233348D01*
X136322Y233647D01*
X136416Y233982D01*
X136491Y234352D01*
X136549Y234757D01*
X136611Y235673D01*
X136614Y236185D01*
X140122Y232677D01*
D02*
G37*
G36*
X171653Y214567D02*
Y197626D01*
X170079Y197313D01*
X169771Y198057D01*
X169128Y199019D01*
X168310Y199837D01*
X167348Y200479D01*
X166535Y200816D01*
Y195276D01*
X162598D01*
Y200816D01*
X161785Y200479D01*
X160824Y199837D01*
X160006Y199019D01*
X158120Y198964D01*
X157874Y199134D01*
Y210630D01*
X138054Y230450D01*
X138869Y231862D01*
X139559Y231677D01*
X140756D01*
X141911Y231987D01*
X142947Y232585D01*
X143793Y233431D01*
X144267Y234252D01*
X140157D01*
Y238189D01*
X144267D01*
X143793Y239010D01*
X143187Y239616D01*
X143644Y241088D01*
X144986Y241234D01*
X171653Y214567D01*
D02*
G37*
G36*
X142126Y211992D02*
X144701D01*
X145276Y210655D01*
X145276Y183858D01*
X155512Y173622D01*
X159587D01*
X160239Y172047D01*
X160006Y171814D01*
X159363Y170852D01*
X159027Y170039D01*
X164567D01*
Y166102D01*
X159027D01*
X159363Y165289D01*
X160006Y164328D01*
X160554Y163779D01*
X160300Y162731D01*
X159946Y162205D01*
X154724D01*
X130709Y186221D01*
Y189847D01*
X132768D01*
Y192913D01*
X133268D01*
Y193413D01*
X136630D01*
Y195980D01*
X136630Y195980D01*
X136630Y195980D01*
X136236Y197392D01*
Y204543D01*
X136221D01*
Y211992D01*
X138189D01*
Y216535D01*
X142126D01*
Y211992D01*
D02*
G37*
G36*
X133864Y204488D02*
X133882Y204287D01*
X133911Y204110D01*
X133953Y203957D01*
X134006Y203827D01*
X134071Y203720D01*
X134148Y203638D01*
X134236Y203578D01*
X134337Y203543D01*
X134449Y203531D01*
X132087D01*
X132199Y203543D01*
X132299Y203578D01*
X132388Y203638D01*
X132465Y203720D01*
X132529Y203827D01*
X132583Y203957D01*
X132624Y204110D01*
X132653Y204287D01*
X132671Y204488D01*
X132677Y204712D01*
X133858D01*
X133864Y204488D01*
D02*
G37*
G36*
X126856Y198032D02*
X126756Y197996D01*
X126667Y197937D01*
X126591Y197854D01*
X126526Y197748D01*
X126472Y197618D01*
X126431Y197465D01*
X126402Y197288D01*
X126384Y197087D01*
X126378Y196862D01*
X125197D01*
X125191Y197087D01*
X125173Y197288D01*
X125144Y197465D01*
X125102Y197618D01*
X125049Y197748D01*
X124984Y197854D01*
X124908Y197937D01*
X124819Y197996D01*
X124718Y198032D01*
X124606Y198044D01*
X126969D01*
X126856Y198032D01*
D02*
G37*
G36*
X126384Y195925D02*
X126402Y195724D01*
X126431Y195547D01*
X126472Y195394D01*
X126526Y195264D01*
X126591Y195157D01*
X126667Y195075D01*
X126756Y195016D01*
X126856Y194980D01*
X126969Y194968D01*
X124606D01*
X124718Y194980D01*
X124819Y195016D01*
X124908Y195075D01*
X124984Y195157D01*
X125049Y195264D01*
X125102Y195394D01*
X125144Y195547D01*
X125173Y195724D01*
X125191Y195925D01*
X125197Y196149D01*
X126378D01*
X126384Y195925D01*
D02*
G37*
G36*
X287008Y242126D02*
X327150Y201984D01*
Y201928D01*
X327165Y201890D01*
X327165Y187008D01*
X317717Y177559D01*
X300787D01*
X296852Y181494D01*
X296753Y182226D01*
X296779Y182303D01*
X298425Y183073D01*
Y187740D01*
X302362D01*
Y183119D01*
X303455Y183750D01*
X304384Y184678D01*
X305040Y185816D01*
X305380Y187084D01*
Y187348D01*
X305512Y188189D01*
X313386D01*
X316142Y190945D01*
Y201181D01*
X298031Y219291D01*
X274803D01*
X274016Y220079D01*
Y228346D01*
X270079Y232283D01*
X259449Y232283D01*
X259055Y232677D01*
Y240714D01*
X260467Y242126D01*
X287008Y242126D01*
D02*
G37*
G36*
X447244Y162205D02*
X447244Y161468D01*
X446957Y160023D01*
X446393Y158661D01*
X445574Y157436D01*
X444532Y156394D01*
X443307Y155576D01*
X441946Y155012D01*
X440500Y154724D01*
X439764Y154724D01*
X227559D01*
X206693Y175591D01*
X190945D01*
X188976Y173622D01*
Y172047D01*
X187402Y171570D01*
X187238Y171814D01*
X186420Y172632D01*
X185459Y173275D01*
X184646Y173611D01*
Y168071D01*
X180709D01*
Y173611D01*
X179896Y173275D01*
X178934Y172632D01*
X178116Y171814D01*
X176231Y171760D01*
X175984Y171929D01*
Y175984D01*
X185433Y185433D01*
X206299D01*
X211024Y190157D01*
Y204099D01*
X241310D01*
X244161Y201248D01*
X244492Y201027D01*
X244882Y200949D01*
X276451D01*
X276829Y200316D01*
X277023Y199374D01*
X276325Y198676D01*
X275669Y197539D01*
X275469Y196795D01*
X280315D01*
Y195614D01*
X281496D01*
Y190366D01*
X281699Y190202D01*
X282276Y189347D01*
X282022Y188397D01*
Y187084D01*
X282362Y185816D01*
X283018Y184678D01*
X283946Y183750D01*
X285083Y183094D01*
X286351Y182754D01*
X287664D01*
X288932Y183094D01*
X290070Y183750D01*
X290998Y184678D01*
X291654Y185816D01*
X291994Y187084D01*
Y188397D01*
X291739Y189347D01*
X292317Y190202D01*
X292520Y190366D01*
Y195614D01*
X294882D01*
Y190366D01*
X295084Y190202D01*
X295662Y189347D01*
X295408Y188397D01*
Y187084D01*
X295747Y185816D01*
X296262Y184925D01*
X296301Y184134D01*
X296027Y182992D01*
X296016Y182979D01*
X295920Y182814D01*
X295821Y182650D01*
X295819Y182642D01*
X295816Y182636D01*
X295789Y182559D01*
X295784Y182520D01*
X295767Y182485D01*
X295757Y182325D01*
X295735Y182165D01*
X295735Y182165D01*
X295745Y182127D01*
X295743Y182088D01*
X295842Y181356D01*
X295885Y181232D01*
X295911Y181104D01*
X295949Y181046D01*
X295972Y180980D01*
X296059Y180882D01*
X296132Y180773D01*
X300066Y176838D01*
X300397Y176617D01*
X300787Y176540D01*
X317717D01*
X318107Y176617D01*
X318438Y176838D01*
X327886Y186287D01*
X328107Y186618D01*
X328185Y187008D01*
X328185Y201890D01*
X328169Y201970D01*
Y201984D01*
X328092Y202375D01*
X327870Y202705D01*
X287729Y242847D01*
X287398Y243068D01*
X287008Y243146D01*
X260467Y243146D01*
X260077Y243068D01*
X259746Y242847D01*
X259533Y242634D01*
X258350D01*
Y241452D01*
X258334Y241435D01*
X258113Y241104D01*
X258035Y240714D01*
Y232677D01*
X258113Y232287D01*
X258334Y231956D01*
X258350Y231940D01*
Y231776D01*
X258515D01*
X258728Y231562D01*
X259059Y231342D01*
X259449Y231264D01*
X269656Y231264D01*
X272996Y227924D01*
Y220079D01*
X273074Y219689D01*
X273295Y219358D01*
X274082Y218570D01*
X274413Y218349D01*
X274803Y218272D01*
X297609D01*
X303170Y212711D01*
X302568Y211256D01*
X259477D01*
X256070Y214664D01*
X255739Y214885D01*
X255349Y214962D01*
X253894Y215923D01*
X253894Y217752D01*
X253894Y219327D01*
Y220197D01*
X250000D01*
X246106D01*
Y219524D01*
X246106Y218468D01*
X244747Y217949D01*
X211052D01*
X211024Y217977D01*
Y228346D01*
X202756Y236614D01*
X182283D01*
X182283Y254331D01*
X447244D01*
X447244Y162205D01*
D02*
G37*
%LPC*%
G36*
X430394Y352660D02*
Y349606D01*
X433447D01*
X433309Y350122D01*
X432730Y351124D01*
X431912Y351943D01*
X430909Y352521D01*
X430394Y352660D01*
D02*
G37*
G36*
X398031Y352821D02*
X394817D01*
Y349606D01*
X398031D01*
Y352821D01*
D02*
G37*
G36*
X403608D02*
X400394D01*
Y348425D01*
X399213D01*
Y347244D01*
X394817D01*
Y344160D01*
X394817Y344029D01*
Y343452D01*
X393242Y342800D01*
X390015Y346027D01*
X389933Y346124D01*
X389805Y346294D01*
X389699Y346457D01*
X389615Y346611D01*
X389549Y346756D01*
X389501Y346893D01*
X389469Y347023D01*
X389450Y347147D01*
X389441Y347320D01*
X389435Y347345D01*
Y352821D01*
X380644D01*
Y350983D01*
X379213Y350198D01*
X379069Y350237D01*
X378557Y351124D01*
X377738Y351943D01*
X376736Y352521D01*
X375618Y352821D01*
X374461D01*
X373343Y352521D01*
X372340Y351943D01*
X371522Y351124D01*
X370943Y350122D01*
X370644Y349004D01*
Y347847D01*
X370943Y346728D01*
X371522Y345726D01*
X371877Y345372D01*
X371922Y345299D01*
X372542Y344645D01*
X372772Y344368D01*
X372969Y344103D01*
X373128Y343859D01*
X373250Y343639D01*
X373337Y343446D01*
X373391Y343282D01*
X373418Y343155D01*
Y341551D01*
X373350D01*
X373343Y340539D01*
X373350Y340501D01*
X373350Y339976D01*
Y334039D01*
X379256D01*
X379287Y334039D01*
X380831D01*
X380862Y334039D01*
X382618D01*
Y337795D01*
Y341551D01*
X380862D01*
X380831Y341551D01*
X379287D01*
X379256Y341551D01*
X376661D01*
Y343155D01*
X376688Y343282D01*
X376742Y343446D01*
X376829Y343639D01*
X376951Y343859D01*
X377110Y344103D01*
X377300Y344359D01*
X377825Y344963D01*
X378143Y345285D01*
X378195Y345365D01*
X378557Y345726D01*
X379069Y346613D01*
X379213Y346652D01*
X380644Y345868D01*
Y344029D01*
X386120D01*
X386145Y344023D01*
X386317Y344015D01*
X386442Y343996D01*
X386571Y343964D01*
X386708Y343916D01*
X386854Y343850D01*
X387008Y343765D01*
X387171Y343660D01*
X387341Y343532D01*
X387437Y343450D01*
X393089Y337799D01*
X393089Y337799D01*
X393680Y337404D01*
X394377Y337265D01*
X394721D01*
X394782Y337260D01*
X394817Y337255D01*
Y333793D01*
X402558Y333793D01*
X402596Y333786D01*
X403608Y333793D01*
X403608Y334679D01*
X403618Y334747D01*
X403718Y334813D01*
X403931Y334907D01*
X404255Y335002D01*
X404668Y335082D01*
X405469Y335154D01*
X405624Y335141D01*
X405818Y335113D01*
X405976Y335081D01*
X406084Y335051D01*
X406127Y335035D01*
X406146Y335020D01*
X406187Y334998D01*
X406514Y334672D01*
X407516Y334093D01*
X408634Y333793D01*
X409791D01*
X410909Y334093D01*
X411912Y334672D01*
X412238Y334998D01*
X412279Y335020D01*
X412298Y335035D01*
X412341Y335051D01*
X412449Y335081D01*
X412607Y335113D01*
X412792Y335140D01*
X413640Y335195D01*
X414666D01*
X415084Y335186D01*
X415624Y335141D01*
X415818Y335113D01*
X415976Y335081D01*
X416084Y335051D01*
X416127Y335035D01*
X416146Y335020D01*
X416187Y334998D01*
X416514Y334672D01*
X417516Y334093D01*
X418634Y333793D01*
X418704D01*
X419788Y332419D01*
X419825Y332232D01*
X419794Y331744D01*
X419731Y331219D01*
X419648Y330790D01*
X419553Y330466D01*
X419459Y330254D01*
X419392Y330154D01*
X419325Y330144D01*
X418439D01*
X418431Y329132D01*
X418439Y329094D01*
X418439Y328569D01*
X418439Y322403D01*
X418431Y322364D01*
X418439Y321352D01*
X419325Y321352D01*
X419392Y321342D01*
X419459Y321243D01*
X419553Y321030D01*
X419648Y320706D01*
X419728Y320292D01*
X419800Y319492D01*
X419787Y319336D01*
X419759Y319142D01*
X419727Y318984D01*
X419697Y318876D01*
X419681Y318833D01*
X419665Y318815D01*
X419644Y318773D01*
X419317Y318447D01*
X418739Y317445D01*
X418439Y316327D01*
Y315169D01*
X418739Y314051D01*
X419317Y313049D01*
X419643Y312723D01*
X419665Y312682D01*
X419681Y312663D01*
X419697Y312620D01*
X419727Y312512D01*
X419759Y312354D01*
X419786Y312168D01*
X419840Y311321D01*
Y310295D01*
X419831Y309877D01*
X419787Y309336D01*
X419759Y309142D01*
X419727Y308984D01*
X419697Y308876D01*
X419681Y308833D01*
X419665Y308815D01*
X419644Y308773D01*
X419317Y308447D01*
X418739Y307445D01*
X418439Y306327D01*
Y305169D01*
X418739Y304051D01*
X419317Y303049D01*
X420136Y302231D01*
X420132Y300571D01*
X419623Y299838D01*
X410856D01*
X410649Y301413D01*
X411539Y301652D01*
X412541Y302231D01*
X413360Y303049D01*
X413939Y304051D01*
X414077Y304567D01*
X409842D01*
X405608D01*
X405746Y304051D01*
X406325Y303049D01*
X407143Y302231D01*
X408146Y301652D01*
X409036Y301413D01*
X408829Y299838D01*
X388303D01*
X387913Y299761D01*
X387582Y299540D01*
X387361Y299209D01*
X387306Y298933D01*
X381776D01*
Y293402D01*
X381500Y293348D01*
X381169Y293127D01*
X380948Y292796D01*
X380870Y292406D01*
Y262205D01*
X380948Y261814D01*
X381169Y261484D01*
X381562Y261090D01*
X381893Y260869D01*
X382283Y260791D01*
X407480D01*
X407870Y260869D01*
X408201Y261090D01*
X427794Y280682D01*
X428015Y281013D01*
X428092Y281403D01*
X429053Y282858D01*
X429740D01*
Y291945D01*
X428884D01*
X428377Y292373D01*
X427699Y293400D01*
X427621Y293790D01*
X427400Y294121D01*
X426743Y294777D01*
Y302405D01*
X426751Y302999D01*
X427165Y303221D01*
X427419Y303334D01*
X427644Y303420D01*
X427827Y303473D01*
X427944Y303496D01*
X429906D01*
Y299787D01*
X435811D01*
X435843Y299787D01*
X437386D01*
X437417Y299787D01*
X443323D01*
Y307299D01*
X444110Y308350D01*
X444110D01*
Y314484D01*
X438205D01*
X437008Y314484D01*
X435811Y314484D01*
X434449D01*
Y311417D01*
X433268D01*
Y310236D01*
X429906D01*
Y308874D01*
X429906Y308350D01*
Y306740D01*
X428149D01*
X428025Y306767D01*
X427887Y306818D01*
X427731Y306898D01*
X427558Y307012D01*
X427370Y307166D01*
X427168Y307361D01*
X426955Y307598D01*
X426734Y307878D01*
X426492Y308221D01*
X426471Y308241D01*
X426352Y308447D01*
X426026Y308773D01*
X426004Y308815D01*
X425989Y308833D01*
X425972Y308876D01*
X425942Y308984D01*
X425910Y309142D01*
X425883Y309328D01*
X425829Y310175D01*
Y311201D01*
X425838Y311619D01*
X425882Y312160D01*
X425910Y312354D01*
X425942Y312512D01*
X425972Y312620D01*
X425989Y312663D01*
X426004Y312682D01*
X426026Y312723D01*
X426352Y313049D01*
X426931Y314051D01*
X427230Y315169D01*
Y316327D01*
X426931Y317445D01*
X426352Y318447D01*
X426026Y318773D01*
X426004Y318815D01*
X425989Y318833D01*
X425972Y318876D01*
X425942Y318984D01*
X425910Y319142D01*
X425883Y319328D01*
X425866Y319600D01*
X425876Y319752D01*
X425939Y320278D01*
X426021Y320706D01*
X426117Y321030D01*
X426210Y321243D01*
X426277Y321342D01*
X426344Y321352D01*
X427230D01*
X427238Y322364D01*
X427230Y322403D01*
X427230Y322927D01*
X427230Y329094D01*
X427238Y329132D01*
X427230Y330144D01*
X426344Y330144D01*
X426277Y330154D01*
X426210Y330254D01*
X426117Y330466D01*
X426021Y330790D01*
X425941Y331204D01*
X425836Y332376D01*
X425829Y332760D01*
Y333248D01*
X427404Y334158D01*
X427516Y334093D01*
X428634Y333793D01*
X429791D01*
X430909Y334093D01*
X431912Y334672D01*
X432730Y335490D01*
X433309Y336492D01*
X433608Y337610D01*
Y338768D01*
X433309Y339886D01*
X432730Y340888D01*
X431912Y341706D01*
X430909Y342285D01*
X429982Y342534D01*
X429957Y342727D01*
Y343887D01*
X429982Y344081D01*
X430909Y344329D01*
X431912Y344908D01*
X432730Y345726D01*
X433309Y346728D01*
X433447Y347244D01*
X429213D01*
Y348425D01*
X428031D01*
Y352660D01*
X427516Y352521D01*
X426514Y351943D01*
X425695Y351124D01*
X425116Y350122D01*
X425028Y349791D01*
X423397D01*
X423309Y350122D01*
X422730Y351124D01*
X421912Y351943D01*
X420909Y352521D01*
X420394Y352660D01*
Y348425D01*
X418032D01*
Y352660D01*
X417516Y352521D01*
X416514Y351943D01*
X415695Y351124D01*
X415117Y350122D01*
X415028Y349791D01*
X413397D01*
X413309Y350122D01*
X412730Y351124D01*
X411912Y351943D01*
X410909Y352521D01*
X410394Y352660D01*
Y348425D01*
X408032D01*
Y352660D01*
X407516Y352521D01*
X406514Y351943D01*
X405695Y351124D01*
X405183Y350237D01*
X405039Y350198D01*
X403608Y350983D01*
Y352821D01*
D02*
G37*
G36*
X384980Y341551D02*
Y338976D01*
X386768D01*
Y341551D01*
X384980D01*
D02*
G37*
G36*
X127962Y354150D02*
X126369D01*
X124807Y353839D01*
X123335Y353229D01*
X122010Y352344D01*
X120884Y351218D01*
X119999Y349893D01*
X119389Y348422D01*
X119079Y346860D01*
Y345267D01*
X119389Y343704D01*
X119999Y342232D01*
X120884Y340908D01*
X122010Y339782D01*
X123335Y338897D01*
X124807Y338287D01*
X126369Y337976D01*
X127962D01*
X129524Y338287D01*
X130996Y338897D01*
X132320Y339782D01*
X133447Y340908D01*
X134332Y342232D01*
X134941Y343704D01*
X135252Y345267D01*
Y346860D01*
X134941Y348422D01*
X134332Y349893D01*
X133447Y351218D01*
X132320Y352344D01*
X130996Y353229D01*
X129524Y353839D01*
X127962Y354150D01*
D02*
G37*
G36*
X386768Y336614D02*
X384980D01*
Y334039D01*
X386768D01*
Y336614D01*
D02*
G37*
G36*
X216929Y344728D02*
X216103Y344619D01*
X215333Y344300D01*
X214672Y343793D01*
X214164Y343132D01*
X213845Y342362D01*
X213737Y341535D01*
Y335630D01*
X213845Y334804D01*
X214164Y334034D01*
X214672Y333372D01*
X215333Y332865D01*
X216103Y332546D01*
X216929Y332437D01*
X217756Y332546D01*
X218526Y332865D01*
X219187Y333372D01*
X219694Y334034D01*
X220013Y334804D01*
X220122Y335630D01*
Y341535D01*
X220013Y342362D01*
X219694Y343132D01*
X219187Y343793D01*
X218526Y344300D01*
X217756Y344619D01*
X216929Y344728D01*
D02*
G37*
G36*
X182913D02*
X182087Y344619D01*
X181317Y344300D01*
X180656Y343793D01*
X180148Y343132D01*
X179830Y342362D01*
X179721Y341535D01*
Y335630D01*
X179830Y334804D01*
X180148Y334034D01*
X180656Y333372D01*
X181317Y332865D01*
X182087Y332546D01*
X182913Y332437D01*
X183740Y332546D01*
X184510Y332865D01*
X185171Y333372D01*
X185678Y334034D01*
X185997Y334804D01*
X186106Y335630D01*
Y341535D01*
X185997Y342362D01*
X185678Y343132D01*
X185171Y343793D01*
X184510Y344300D01*
X183740Y344619D01*
X182913Y344728D01*
D02*
G37*
G36*
X414238Y330144D02*
X411024D01*
Y326929D01*
X414238D01*
Y330144D01*
D02*
G37*
G36*
X408661D02*
X405447D01*
Y326929D01*
X408661D01*
Y330144D01*
D02*
G37*
G36*
X344544Y341630D02*
X342858D01*
X341204Y341301D01*
X339647Y340656D01*
X338245Y339719D01*
X337053Y338527D01*
X336116Y337125D01*
X335471Y335567D01*
X335142Y333914D01*
Y332228D01*
X335471Y330574D01*
X336116Y329017D01*
X337053Y327615D01*
X338245Y326423D01*
X339647Y325486D01*
X341204Y324841D01*
X342858Y324512D01*
X344544D01*
X346197Y324841D01*
X347755Y325486D01*
X349157Y326423D01*
X350349Y327615D01*
X351286Y329017D01*
X351931Y330574D01*
X352260Y332228D01*
Y333914D01*
X351931Y335567D01*
X351286Y337125D01*
X350349Y338527D01*
X349157Y339719D01*
X347755Y340656D01*
X346197Y341301D01*
X344544Y341630D01*
D02*
G37*
G36*
X244544D02*
X242858D01*
X241204Y341301D01*
X239647Y340656D01*
X238245Y339719D01*
X237053Y338527D01*
X236116Y337125D01*
X235471Y335567D01*
X235142Y333914D01*
Y332228D01*
X235471Y330574D01*
X236116Y329017D01*
X237053Y327615D01*
X238245Y326423D01*
X239647Y325486D01*
X241204Y324841D01*
X242858Y324512D01*
X244544D01*
X246197Y324841D01*
X247755Y325486D01*
X249157Y326423D01*
X250349Y327615D01*
X251286Y329017D01*
X251931Y330574D01*
X252260Y332228D01*
Y333914D01*
X251931Y335567D01*
X251286Y337125D01*
X250349Y338527D01*
X249157Y339719D01*
X247755Y340656D01*
X246197Y341301D01*
X244544Y341630D01*
D02*
G37*
G36*
X308268Y321042D02*
Y317378D01*
X311932D01*
X311733Y318122D01*
X311077Y319258D01*
X310148Y320187D01*
X309011Y320843D01*
X308268Y321042D01*
D02*
G37*
G36*
X414238Y324567D02*
X409842D01*
X405447D01*
Y321352D01*
X407285D01*
X408069Y319922D01*
X408031Y319778D01*
X407143Y319266D01*
X406325Y318447D01*
X405746Y317445D01*
X405608Y316929D01*
X409842D01*
X414077D01*
X413939Y317445D01*
X413360Y318447D01*
X412541Y319266D01*
X411655Y319778D01*
X411616Y319922D01*
X412400Y321352D01*
X414238D01*
Y324567D01*
D02*
G37*
G36*
X432087Y314484D02*
X429906D01*
Y312598D01*
X432087D01*
Y314484D01*
D02*
G37*
G36*
X311932Y315016D02*
X308268D01*
Y311351D01*
X309011Y311550D01*
X310148Y312207D01*
X311077Y313135D01*
X311733Y314272D01*
X311932Y315016D01*
D02*
G37*
G36*
X305906D02*
X302241D01*
X302440Y314272D01*
X303097Y313135D01*
X304025Y312207D01*
X305162Y311550D01*
X305906Y311351D01*
Y315016D01*
D02*
G37*
G36*
X298546D02*
X294882D01*
Y311351D01*
X295625Y311550D01*
X296762Y312207D01*
X297691Y313135D01*
X298347Y314272D01*
X298546Y315016D01*
D02*
G37*
G36*
X292520D02*
X288855D01*
X289054Y314272D01*
X289711Y313135D01*
X290639Y312207D01*
X291776Y311550D01*
X292520Y311351D01*
Y315016D01*
D02*
G37*
G36*
X386221Y312511D02*
Y310630D01*
X388102D01*
X388081Y310709D01*
X387651Y311453D01*
X387043Y312060D01*
X386299Y312490D01*
X386221Y312511D01*
D02*
G37*
G36*
X383858D02*
X383780Y312490D01*
X383035Y312060D01*
X382428Y311453D01*
X381998Y310709D01*
X381977Y310630D01*
X383858D01*
Y312511D01*
D02*
G37*
G36*
X414077Y314567D02*
X409842D01*
X405608D01*
X405746Y314051D01*
X406325Y313049D01*
X407143Y312231D01*
X408146Y311652D01*
X408477Y311563D01*
Y309933D01*
X408146Y309844D01*
X407143Y309265D01*
X406325Y308447D01*
X405746Y307445D01*
X405608Y306929D01*
X409842D01*
X414077D01*
X413939Y307445D01*
X413360Y308447D01*
X412541Y309265D01*
X411539Y309844D01*
X411208Y309933D01*
Y311563D01*
X411539Y311652D01*
X412541Y312231D01*
X413360Y313049D01*
X413939Y314051D01*
X414077Y314567D01*
D02*
G37*
G36*
X383858Y308268D02*
X381977D01*
X381998Y308189D01*
X382428Y307445D01*
X383035Y306837D01*
X383780Y306407D01*
X383858Y306386D01*
Y308268D01*
D02*
G37*
G36*
X388102D02*
X386221D01*
Y306386D01*
X386299Y306407D01*
X387043Y306837D01*
X387651Y307445D01*
X388081Y308189D01*
X388102Y308268D01*
D02*
G37*
G36*
X268421Y296965D02*
X264567D01*
Y292717D01*
X268421D01*
Y296965D01*
D02*
G37*
G36*
X262205D02*
X258350D01*
Y292717D01*
X262205D01*
Y296965D01*
D02*
G37*
G36*
X348819Y289283D02*
Y287402D01*
X350700D01*
X350679Y287480D01*
X350250Y288225D01*
X349642Y288832D01*
X348898Y289262D01*
X348819Y289283D01*
D02*
G37*
G36*
X346457D02*
X346378Y289262D01*
X345634Y288832D01*
X345026Y288225D01*
X344596Y287480D01*
X344575Y287402D01*
X346457D01*
Y289283D01*
D02*
G37*
G36*
X268421Y290354D02*
X264567D01*
Y286106D01*
X268421D01*
Y290354D01*
D02*
G37*
G36*
X262205D02*
X258350D01*
Y286106D01*
X262205D01*
Y290354D01*
D02*
G37*
G36*
X253894Y289252D02*
X246106D01*
Y288935D01*
X246106Y287524D01*
X246244Y286006D01*
Y285630D01*
X250000D01*
X253756D01*
Y286006D01*
X253894Y287524D01*
X253894Y288935D01*
Y289252D01*
D02*
G37*
G36*
X350700Y285039D02*
X348819D01*
Y283158D01*
X348898Y283179D01*
X349642Y283609D01*
X350250Y284216D01*
X350679Y284961D01*
X350700Y285039D01*
D02*
G37*
G36*
X346457D02*
X344575D01*
X344596Y284961D01*
X345026Y284216D01*
X345634Y283609D01*
X346378Y283179D01*
X346457Y283158D01*
Y285039D01*
D02*
G37*
G36*
X426378Y272104D02*
Y268898D01*
X429584D01*
X429430Y269470D01*
X428832Y270506D01*
X427986Y271352D01*
X426951Y271950D01*
X426378Y272104D01*
D02*
G37*
G36*
X424016Y272104D02*
X423443Y271950D01*
X422407Y271352D01*
X421561Y270506D01*
X420963Y269470D01*
X420810Y268898D01*
X424016D01*
Y272104D01*
D02*
G37*
G36*
X189764Y270487D02*
Y268504D01*
X191747D01*
X191716Y268621D01*
X191273Y269387D01*
X190647Y270013D01*
X189880Y270456D01*
X189764Y270487D01*
D02*
G37*
G36*
X187402D02*
X187285Y270456D01*
X186518Y270013D01*
X185892Y269387D01*
X185450Y268621D01*
X185418Y268504D01*
X187402D01*
Y270487D01*
D02*
G37*
G36*
X328346Y293539D02*
X314961D01*
X314570Y293462D01*
X314240Y293241D01*
X313452Y292453D01*
X313231Y292123D01*
X313154Y291732D01*
Y272140D01*
X305824Y264811D01*
X254382D01*
X253756Y266158D01*
Y267701D01*
X253756Y267732D01*
Y272425D01*
X253756Y273638D01*
X253756Y275213D01*
Y279906D01*
X253756Y279937D01*
Y281480D01*
X253756Y281512D01*
Y283268D01*
X250000D01*
X246244D01*
Y281512D01*
X246244Y281480D01*
Y280165D01*
X245923Y279248D01*
X245618Y278590D01*
X229235D01*
X228018Y279788D01*
X228000Y279828D01*
Y280807D01*
X228015Y280893D01*
X228052Y281017D01*
X228110Y281160D01*
X228193Y281321D01*
X228302Y281499D01*
X228430Y281680D01*
X228807Y282124D01*
X229036Y282358D01*
X229087Y282437D01*
X229383Y282733D01*
X229878Y283590D01*
X230134Y284545D01*
Y285534D01*
X229878Y286489D01*
X229383Y287346D01*
X228684Y288045D01*
X227828Y288539D01*
X226872Y288795D01*
X225884D01*
X224928Y288539D01*
X224072Y288045D01*
X223373Y287346D01*
X222878Y286489D01*
X222622Y285534D01*
Y284545D01*
X222878Y283590D01*
X223373Y282733D01*
X223660Y282445D01*
X223704Y282375D01*
X224160Y281888D01*
X224318Y281691D01*
X224454Y281499D01*
X224563Y281321D01*
X224645Y281160D01*
X224704Y281017D01*
X224741Y280893D01*
X224756Y280807D01*
Y279271D01*
X224741Y279186D01*
X224704Y279061D01*
X224645Y278918D01*
X224563Y278757D01*
X224454Y278580D01*
X224325Y278398D01*
X223949Y277955D01*
X223720Y277720D01*
X223716Y277715D01*
X223713Y277713D01*
X223226Y277257D01*
X223030Y277100D01*
X222837Y276963D01*
X222660Y276854D01*
X222499Y276772D01*
X222356Y276714D01*
X222231Y276677D01*
X222146Y276661D01*
X220610D01*
X220525Y276677D01*
X220400Y276714D01*
X220257Y276772D01*
X220096Y276854D01*
X219918Y276963D01*
X219737Y277092D01*
X219293Y277468D01*
X219059Y277697D01*
X218980Y277749D01*
X218684Y278045D01*
X217828Y278539D01*
X216872Y278795D01*
X215883D01*
X214928Y278539D01*
X214072Y278045D01*
X213372Y277346D01*
X212878Y276489D01*
X212622Y275534D01*
Y274545D01*
X212878Y273590D01*
X213372Y272733D01*
X214072Y272034D01*
X214928Y271539D01*
X215883Y271284D01*
X216872D01*
X217828Y271539D01*
X218684Y272034D01*
X218972Y272322D01*
X219043Y272366D01*
X219530Y272821D01*
X219726Y272979D01*
X219918Y273116D01*
X220096Y273224D01*
X220257Y273307D01*
X220400Y273365D01*
X220525Y273402D01*
X220610Y273418D01*
X222146D01*
X222231Y273402D01*
X222356Y273365D01*
X222499Y273307D01*
X222660Y273224D01*
X222837Y273116D01*
X223019Y272987D01*
X223463Y272610D01*
X223697Y272381D01*
X223776Y272330D01*
X224072Y272034D01*
X224928Y271539D01*
X225884Y271284D01*
X226872D01*
X227828Y271539D01*
X228684Y272034D01*
X229383Y272733D01*
X229878Y273590D01*
X230134Y274545D01*
Y275347D01*
X245130D01*
X246244Y274233D01*
Y273405D01*
X245130Y272291D01*
X232008D01*
X231387Y272167D01*
X230861Y271816D01*
X228210Y269164D01*
X228151Y269115D01*
X228036Y269029D01*
X227929Y268959D01*
X227831Y268905D01*
X227741Y268865D01*
X227660Y268836D01*
X227586Y268818D01*
X227517Y268807D01*
X227401Y268802D01*
X227376Y268795D01*
X222622D01*
Y261283D01*
X230134D01*
Y266037D01*
X230140Y266062D01*
X230146Y266179D01*
X230156Y266247D01*
X230175Y266321D01*
X230203Y266403D01*
X230244Y266493D01*
X230298Y266591D01*
X230367Y266698D01*
X230453Y266813D01*
X230503Y266871D01*
X232680Y269048D01*
X245618D01*
X246244Y267701D01*
Y266158D01*
X246244Y266126D01*
Y260221D01*
X253756D01*
Y261567D01*
X306496D01*
X307117Y261691D01*
X307643Y262042D01*
X314993Y269392D01*
X323295Y261090D01*
X323626Y260869D01*
X324016Y260791D01*
X375984D01*
X376374Y260869D01*
X376705Y261090D01*
X376820Y261205D01*
X377181D01*
Y261607D01*
X377320Y261814D01*
X377397Y262205D01*
Y277953D01*
X377320Y278343D01*
X377181Y278551D01*
Y278953D01*
X376820D01*
X376705Y279067D01*
X376374Y279288D01*
X375984Y279366D01*
X342942D01*
X329067Y293241D01*
X328737Y293462D01*
X328346Y293539D01*
D02*
G37*
G36*
X187402Y266142D02*
X185418D01*
X185450Y266025D01*
X185892Y265258D01*
X186518Y264632D01*
X187285Y264190D01*
X187402Y264159D01*
Y266142D01*
D02*
G37*
G36*
X191747D02*
X189764D01*
Y264159D01*
X189880Y264190D01*
X190647Y264632D01*
X191273Y265258D01*
X191716Y266025D01*
X191747Y266142D01*
D02*
G37*
G36*
X424016Y266535D02*
X420810D01*
X420963Y265963D01*
X421561Y264927D01*
X422407Y264081D01*
X423443Y263483D01*
X424016Y263329D01*
Y266535D01*
D02*
G37*
G36*
X429584D02*
X426378D01*
Y263329D01*
X426951Y263483D01*
X427986Y264081D01*
X428832Y264927D01*
X429430Y265963D01*
X429584Y266535D01*
D02*
G37*
G36*
X138976Y263992D02*
X135614D01*
Y260630D01*
X138976D01*
Y263992D01*
D02*
G37*
G36*
Y258268D02*
X135614D01*
Y254906D01*
X138976D01*
Y258268D01*
D02*
G37*
%LPD*%
G36*
X388434Y347046D02*
X388468Y346823D01*
X388523Y346601D01*
X388601Y346378D01*
X388701Y346155D01*
X388824Y345932D01*
X388969Y345710D01*
X389136Y345487D01*
X389325Y345264D01*
X389537Y345041D01*
X388423Y343928D01*
X388200Y344140D01*
X387978Y344329D01*
X387755Y344496D01*
X387532Y344641D01*
X387310Y344763D01*
X387087Y344863D01*
X386864Y344941D01*
X386641Y344997D01*
X386419Y345030D01*
X386196Y345041D01*
X388423Y347269D01*
X388434Y347046D01*
D02*
G37*
G36*
X377077Y345655D02*
X376505Y344999D01*
X376273Y344687D01*
X376077Y344386D01*
X375916Y344095D01*
X375791Y343816D01*
X375701Y343548D01*
X375648Y343290D01*
X375630Y343044D01*
X374449D01*
X374431Y343290D01*
X374377Y343548D01*
X374288Y343816D01*
X374163Y344095D01*
X374002Y344386D01*
X373806Y344687D01*
X373573Y344999D01*
X373306Y345322D01*
X372662Y346000D01*
X377416D01*
X377077Y345655D01*
D02*
G37*
G36*
X375636Y341496D02*
X375654Y341295D01*
X375683Y341118D01*
X375724Y340964D01*
X375778Y340834D01*
X375842Y340728D01*
X375919Y340646D01*
X376008Y340586D01*
X376108Y340551D01*
X376220Y340539D01*
X374362D01*
X374379Y340551D01*
X374394Y340586D01*
X374407Y340646D01*
X374418Y340728D01*
X374435Y340964D01*
X374449Y341720D01*
X375630D01*
X375636Y341496D01*
D02*
G37*
G36*
X395829Y337636D02*
X395814Y337762D01*
X395771Y337875D01*
X395698Y337974D01*
X395597Y338061D01*
X395466Y338134D01*
X395306Y338194D01*
X395118Y338240D01*
X394900Y338273D01*
X394653Y338293D01*
X394377Y338300D01*
Y339875D01*
X394653Y339881D01*
X394900Y339901D01*
X395118Y339934D01*
X395306Y339981D01*
X395466Y340041D01*
X395597Y340114D01*
X395698Y340200D01*
X395771Y340300D01*
X395814Y340413D01*
X395829Y340539D01*
Y337636D01*
D02*
G37*
G36*
X426788Y335812D02*
X426692Y335890D01*
X426564Y335959D01*
X426405Y336020D01*
X426215Y336073D01*
X425993Y336118D01*
X425739Y336155D01*
X425137Y336204D01*
X424408Y336221D01*
Y340158D01*
X424788Y340162D01*
X425739Y340223D01*
X425993Y340260D01*
X426215Y340304D01*
X426405Y340358D01*
X426564Y340419D01*
X426692Y340488D01*
X426788Y340566D01*
Y335812D01*
D02*
G37*
G36*
X416788D02*
X416692Y335890D01*
X416564Y335959D01*
X416405Y336020D01*
X416215Y336073D01*
X415993Y336118D01*
X415739Y336155D01*
X415137Y336204D01*
X414408Y336221D01*
Y340158D01*
X414788Y340162D01*
X415739Y340223D01*
X415993Y340260D01*
X416215Y340304D01*
X416405Y340358D01*
X416564Y340419D01*
X416692Y340488D01*
X416788Y340566D01*
Y335812D01*
D02*
G37*
G36*
X411733Y340488D02*
X411861Y340419D01*
X412020Y340358D01*
X412211Y340304D01*
X412433Y340260D01*
X412686Y340223D01*
X413288Y340174D01*
X414017Y340158D01*
Y336221D01*
X413637Y336216D01*
X412686Y336155D01*
X412433Y336118D01*
X412211Y336073D01*
X412020Y336020D01*
X411861Y335959D01*
X411733Y335890D01*
X411638Y335812D01*
Y340566D01*
X411733Y340488D01*
D02*
G37*
G36*
X402636Y341304D02*
X402754Y341063D01*
X402951Y340851D01*
X403226Y340667D01*
X403581Y340511D01*
X404014Y340384D01*
X404525Y340285D01*
X405116Y340214D01*
X405362Y340198D01*
X405739Y340223D01*
X405993Y340260D01*
X406215Y340304D01*
X406405Y340358D01*
X406564Y340419D01*
X406692Y340488D01*
X406788Y340566D01*
Y335812D01*
X406692Y335890D01*
X406564Y335959D01*
X406405Y336020D01*
X406215Y336073D01*
X405993Y336118D01*
X405739Y336155D01*
X405464Y336177D01*
X404525Y336093D01*
X404014Y335994D01*
X403581Y335867D01*
X403226Y335711D01*
X402951Y335527D01*
X402754Y335315D01*
X402636Y335074D01*
X402596Y334805D01*
Y341573D01*
X402636Y341304D01*
D02*
G37*
G36*
X424817Y332321D02*
X424930Y331061D01*
X425030Y330549D01*
X425157Y330116D01*
X425313Y329762D01*
X425497Y329486D01*
X425709Y329289D01*
X425949Y329171D01*
X426218Y329132D01*
X419451D01*
X419720Y329171D01*
X419960Y329289D01*
X420173Y329486D01*
X420357Y329762D01*
X420512Y330116D01*
X420640Y330549D01*
X420739Y331061D01*
X420810Y331651D01*
X420852Y332321D01*
X420866Y333069D01*
X424803D01*
X424817Y332321D01*
D02*
G37*
G36*
X425949Y322325D02*
X425709Y322207D01*
X425497Y322010D01*
X425313Y321734D01*
X425157Y321380D01*
X425030Y320947D01*
X424930Y320435D01*
X424860Y319845D01*
X424844Y319599D01*
X424868Y319222D01*
X424905Y318968D01*
X424950Y318746D01*
X425003Y318555D01*
X425065Y318396D01*
X425134Y318269D01*
X425212Y318173D01*
X420458D01*
X420535Y318269D01*
X420605Y318396D01*
X420666Y318555D01*
X420719Y318746D01*
X420764Y318968D01*
X420801Y319222D01*
X420823Y319496D01*
X420739Y320435D01*
X420640Y320947D01*
X420512Y321380D01*
X420357Y321734D01*
X420173Y322010D01*
X419960Y322207D01*
X419720Y322325D01*
X419451Y322364D01*
X426218D01*
X425949Y322325D01*
D02*
G37*
G36*
X425134Y313227D02*
X425065Y313100D01*
X425003Y312941D01*
X424950Y312750D01*
X424905Y312528D01*
X424868Y312274D01*
X424820Y311672D01*
X424803Y310944D01*
X420866D01*
X420862Y311324D01*
X420801Y312274D01*
X420764Y312528D01*
X420719Y312750D01*
X420666Y312941D01*
X420605Y313100D01*
X420535Y313227D01*
X420458Y313323D01*
X425212D01*
X425134Y313227D01*
D02*
G37*
G36*
X441423Y309351D02*
X441323Y309315D01*
X441234Y309256D01*
X441157Y309173D01*
X441092Y309067D01*
X441039Y308937D01*
X440998Y308784D01*
X440969Y308607D01*
X440951Y308406D01*
X440945Y308181D01*
X439764D01*
X439758Y308406D01*
X439740Y308607D01*
X439711Y308784D01*
X439669Y308937D01*
X439616Y309067D01*
X439551Y309173D01*
X439474Y309256D01*
X439386Y309315D01*
X439285Y309351D01*
X439173Y309362D01*
X441535D01*
X441423Y309351D01*
D02*
G37*
G36*
X424807Y310172D02*
X424868Y309222D01*
X424905Y308968D01*
X424950Y308746D01*
X425003Y308555D01*
X425065Y308396D01*
X425134Y308269D01*
X425212Y308173D01*
X420458D01*
X420535Y308269D01*
X420605Y308396D01*
X420666Y308555D01*
X420719Y308746D01*
X420764Y308968D01*
X420801Y309222D01*
X420850Y309824D01*
X420866Y310552D01*
X424803D01*
X424807Y310172D01*
D02*
G37*
G36*
X440951Y307244D02*
X440969Y307043D01*
X440998Y306866D01*
X441039Y306712D01*
X441092Y306582D01*
X441157Y306476D01*
X441234Y306394D01*
X441323Y306334D01*
X441423Y306299D01*
X441535Y306287D01*
X439173D01*
X439285Y306299D01*
X439386Y306334D01*
X439474Y306394D01*
X439551Y306476D01*
X439616Y306582D01*
X439669Y306712D01*
X439711Y306866D01*
X439740Y307043D01*
X439758Y307244D01*
X439764Y307468D01*
X440945D01*
X440951Y307244D01*
D02*
G37*
G36*
X430918Y303937D02*
X430906Y304049D01*
X430870Y304150D01*
X430811Y304238D01*
X430728Y304315D01*
X430622Y304380D01*
X430492Y304433D01*
X430339Y304474D01*
X430162Y304504D01*
X429961Y304522D01*
X429736Y304528D01*
Y305709D01*
X429961Y305714D01*
X430162Y305732D01*
X430339Y305761D01*
X430492Y305801D01*
X430622Y305853D01*
X430728Y305917D01*
X430811Y305992D01*
X430870Y306079D01*
X430906Y306177D01*
X430918Y306287D01*
Y303937D01*
D02*
G37*
G36*
X425916Y307268D02*
X426174Y306941D01*
X426433Y306652D01*
X426693Y306402D01*
X426954Y306190D01*
X427215Y306017D01*
X427477Y305882D01*
X427740Y305786D01*
X428003Y305728D01*
X428267Y305709D01*
X428041Y304528D01*
X427825Y304512D01*
X427584Y304465D01*
X427319Y304387D01*
X427029Y304277D01*
X426715Y304136D01*
X426013Y303761D01*
X425738Y303594D01*
X425718Y301917D01*
X421781Y300483D01*
X421775Y300860D01*
X421728Y301516D01*
X421688Y301795D01*
X421635Y302040D01*
X421571Y302252D01*
X421496Y302432D01*
X421408Y302578D01*
X421309Y302692D01*
X421199Y302772D01*
X424938Y303818D01*
X425659Y307634D01*
X425916Y307268D01*
D02*
G37*
G36*
X425209Y294870D02*
X425718D01*
X425732Y294347D01*
X426679Y293400D01*
X426181Y292198D01*
Y291988D01*
X426210Y291917D01*
X426427Y291563D01*
X426682Y291287D01*
X426978Y291090D01*
X427312Y290972D01*
X427686Y290933D01*
X426181D01*
Y287402D01*
Y282858D01*
X426470D01*
X427073Y281403D01*
X407480Y261811D01*
X382283D01*
X381890Y262205D01*
Y292406D01*
X383071D01*
Y295669D01*
X385039D01*
Y297638D01*
X388303D01*
Y298819D01*
X421260D01*
X425209Y294870D01*
D02*
G37*
%LPC*%
G36*
X388303Y293701D02*
X387008D01*
Y292406D01*
X388303D01*
Y293701D01*
D02*
G37*
G36*
X421744Y291945D02*
X420653D01*
Y288386D01*
X424213D01*
Y290933D01*
X421665D01*
X421687Y290972D01*
X421707Y291090D01*
X421724Y291287D01*
X421744Y291945D01*
D02*
G37*
G36*
X424213Y286417D02*
X420653D01*
Y282858D01*
X424213D01*
Y286417D01*
D02*
G37*
%LPD*%
G36*
X228053Y282811D02*
X227624Y282306D01*
X227450Y282061D01*
X227303Y281821D01*
X227183Y281586D01*
X227089Y281355D01*
X227022Y281130D01*
X226982Y280909D01*
X226969Y280694D01*
X225787D01*
X225774Y280909D01*
X225734Y281130D01*
X225667Y281355D01*
X225573Y281586D01*
X225453Y281821D01*
X225306Y282061D01*
X225132Y282306D01*
X224931Y282556D01*
X224449Y283071D01*
X228307D01*
X228053Y282811D01*
D02*
G37*
G36*
X247256Y275787D02*
X247244Y275900D01*
X247209Y276000D01*
X247150Y276089D01*
X247067Y276165D01*
X246961Y276230D01*
X246831Y276284D01*
X246677Y276325D01*
X246500Y276354D01*
X246299Y276372D01*
X246075Y276378D01*
Y277559D01*
X246299Y277565D01*
X246500Y277583D01*
X246677Y277612D01*
X246831Y277654D01*
X246961Y277707D01*
X247067Y277772D01*
X247150Y277848D01*
X247209Y277937D01*
X247244Y278037D01*
X247256Y278150D01*
Y275787D01*
D02*
G37*
G36*
X226982Y279169D02*
X227022Y278949D01*
X227089Y278723D01*
X227183Y278493D01*
X227303Y278258D01*
X227450Y278018D01*
X227624Y277772D01*
X227825Y277522D01*
X228236Y277083D01*
X228237Y277082D01*
X228281Y277068D01*
X228330Y277066D01*
X228385Y277076D01*
X228444Y277098D01*
X228508Y277132D01*
X228578Y277177D01*
X228653Y277235D01*
X228733Y277305D01*
X228818Y277386D01*
X229653Y276551D01*
X229530Y276426D01*
X229246Y276103D01*
X229179Y276013D01*
X229126Y275932D01*
X229087Y275859D01*
X229062Y275796D01*
X229051Y275742D01*
X229054Y275696D01*
X228259Y277008D01*
X224449D01*
X224703Y277267D01*
X225132Y277772D01*
X225306Y278018D01*
X225453Y278258D01*
X225573Y278493D01*
X225667Y278723D01*
X225734Y278949D01*
X225774Y279169D01*
X225787Y279385D01*
X226969D01*
X226982Y279169D01*
D02*
G37*
G36*
X224410Y273110D02*
X224150Y273365D01*
X223645Y273793D01*
X223400Y273967D01*
X223160Y274114D01*
X222924Y274235D01*
X222694Y274328D01*
X222468Y274395D01*
X222248Y274435D01*
X222032Y274449D01*
Y275630D01*
X222248Y275643D01*
X222468Y275683D01*
X222694Y275750D01*
X222924Y275844D01*
X223160Y275965D01*
X223400Y276112D01*
X223645Y276286D01*
X223895Y276487D01*
X224410Y276969D01*
Y273110D01*
D02*
G37*
G36*
X218606Y276714D02*
X219111Y276286D01*
X219356Y276112D01*
X219596Y275965D01*
X219832Y275844D01*
X220062Y275750D01*
X220287Y275683D01*
X220508Y275643D01*
X220723Y275630D01*
Y274449D01*
X220508Y274435D01*
X220287Y274395D01*
X220062Y274328D01*
X219832Y274235D01*
X219596Y274114D01*
X219356Y273967D01*
X219111Y273793D01*
X218861Y273592D01*
X218346Y273110D01*
Y276969D01*
X218606Y276714D01*
D02*
G37*
G36*
X247256Y269488D02*
X247244Y269600D01*
X247209Y269701D01*
X247150Y269789D01*
X247067Y269866D01*
X246961Y269931D01*
X246831Y269984D01*
X246677Y270026D01*
X246500Y270055D01*
X246299Y270073D01*
X246075Y270079D01*
Y271260D01*
X246299Y271266D01*
X246500Y271284D01*
X246677Y271313D01*
X246831Y271354D01*
X246961Y271408D01*
X247067Y271472D01*
X247150Y271549D01*
X247209Y271638D01*
X247244Y271738D01*
X247256Y271850D01*
Y269488D01*
D02*
G37*
G36*
X229957Y267783D02*
X229798Y267616D01*
X229656Y267449D01*
X229531Y267282D01*
X229422Y267115D01*
X229331Y266948D01*
X229256Y266781D01*
X229197Y266614D01*
X229155Y266447D01*
X229130Y266280D01*
X229122Y266113D01*
X227451Y267783D01*
X227619Y267792D01*
X227786Y267817D01*
X227953Y267858D01*
X228120Y267917D01*
X228287Y267992D01*
X228454Y268084D01*
X228621Y268193D01*
X228788Y268318D01*
X228955Y268460D01*
X229122Y268618D01*
X229957Y267783D01*
D02*
G37*
G36*
X252756Y264258D02*
X252791Y264158D01*
X252850Y264069D01*
X252933Y263992D01*
X253039Y263927D01*
X253169Y263874D01*
X253323Y263833D01*
X253500Y263803D01*
X253701Y263785D01*
X253925Y263779D01*
Y262598D01*
X253701Y262593D01*
X253500Y262575D01*
X253323Y262545D01*
X253169Y262504D01*
X253039Y262451D01*
X252933Y262386D01*
X252850Y262309D01*
X252791Y262221D01*
X252756Y262120D01*
X252744Y262008D01*
Y264370D01*
X252756Y264258D01*
D02*
G37*
G36*
X342520Y278346D02*
X375984D01*
X376378Y277953D01*
Y262205D01*
X375984Y261811D01*
X324016D01*
X314173Y271654D01*
Y291732D01*
X314961Y292520D01*
X328346D01*
X342520Y278346D01*
D02*
G37*
%LPC*%
G36*
X350902Y275705D02*
X349606D01*
Y274409D01*
X350902D01*
Y275705D01*
D02*
G37*
G36*
X345669D02*
X344374D01*
Y274409D01*
X345669D01*
Y275705D01*
D02*
G37*
G36*
X350902Y270472D02*
X349606D01*
Y269177D01*
X350902D01*
Y270472D01*
D02*
G37*
G36*
X345669D02*
X344374D01*
Y269177D01*
X345669D01*
Y270472D01*
D02*
G37*
G36*
X278346Y314228D02*
X275329D01*
Y311211D01*
X278346D01*
Y314228D01*
D02*
G37*
G36*
X213228Y306118D02*
Y301575D01*
X221709D01*
Y306118D01*
X213228D01*
D02*
G37*
G36*
X249500Y299878D02*
X246106D01*
Y297468D01*
X249500D01*
Y299878D01*
D02*
G37*
G36*
X168803Y327165D02*
X158661D01*
X148520D01*
X148728Y326120D01*
X149506Y324240D01*
X150637Y322548D01*
X152076Y321110D01*
X153768Y319979D01*
X155648Y319200D01*
X157644Y318803D01*
X157661D01*
X157737Y317260D01*
X155910Y316971D01*
X154152Y316399D01*
X152504Y315560D01*
X151008Y314473D01*
X149700Y313165D01*
X148614Y311669D01*
X147774Y310021D01*
X147203Y308263D01*
X146913Y306436D01*
Y304587D01*
X147203Y302761D01*
X147774Y301002D01*
X148614Y299355D01*
X149700Y297859D01*
X151008Y296551D01*
X152504Y295464D01*
X154152Y294624D01*
X155910Y294053D01*
X157737Y293764D01*
X159586D01*
X161412Y294053D01*
X163171Y294624D01*
X164819Y295464D01*
X166315Y296551D01*
X167622Y297859D01*
X168709Y299355D01*
X169549Y301002D01*
X170120Y302761D01*
X170409Y304587D01*
Y306436D01*
X170120Y308263D01*
X169549Y310021D01*
X168709Y311669D01*
X167622Y313165D01*
X166315Y314473D01*
X164819Y315560D01*
X163171Y316399D01*
X161412Y316971D01*
X159586Y317260D01*
X159662Y318803D01*
X159679D01*
X161675Y319200D01*
X163555Y319979D01*
X165247Y321110D01*
X166686Y322548D01*
X167816Y324240D01*
X168595Y326120D01*
X168803Y327165D01*
D02*
G37*
G36*
X136236Y293988D02*
X133768D01*
Y290732D01*
X136236D01*
Y293988D01*
D02*
G37*
G36*
X191945Y284465D02*
X190551D01*
Y283071D01*
X191945D01*
Y284465D01*
D02*
G37*
G36*
X186614D02*
X185221D01*
Y283071D01*
X186614D01*
Y284465D01*
D02*
G37*
G36*
X142126Y283243D02*
Y281102D01*
X144267D01*
X143793Y281924D01*
X142947Y282769D01*
X142126Y283243D01*
D02*
G37*
G36*
X138189D02*
X137368Y282769D01*
X136522Y281924D01*
X136048Y281102D01*
X138189D01*
Y283243D01*
D02*
G37*
G36*
X191945Y279134D02*
X190551D01*
Y277740D01*
X191945D01*
Y279134D01*
D02*
G37*
G36*
X186614D02*
X185221D01*
Y277740D01*
X186614D01*
Y279134D01*
D02*
G37*
G36*
X285039Y328692D02*
X283946Y328061D01*
X283018Y327133D01*
X282387Y326039D01*
X285039D01*
Y328692D01*
D02*
G37*
G36*
X191945Y228740D02*
X190551D01*
Y227346D01*
X191945D01*
Y228740D01*
D02*
G37*
G36*
X186614D02*
X185221D01*
Y227346D01*
X186614D01*
Y228740D01*
D02*
G37*
G36*
X249500Y214342D02*
X246106D01*
Y211933D01*
X249500D01*
Y214342D01*
D02*
G37*
G36*
X305118Y200600D02*
X302100D01*
Y197583D01*
X305118D01*
Y200600D01*
D02*
G37*
G36*
X136630Y192413D02*
X133768D01*
Y189847D01*
X136630D01*
Y192413D01*
D02*
G37*
G36*
X189764Y247653D02*
Y245669D01*
X191747D01*
X191716Y245786D01*
X191273Y246553D01*
X190647Y247179D01*
X189880Y247621D01*
X189764Y247653D01*
D02*
G37*
G36*
X187402D02*
X187285Y247621D01*
X186518Y247179D01*
X185892Y246553D01*
X185450Y245786D01*
X185418Y245669D01*
X187402D01*
Y247653D01*
D02*
G37*
G36*
X253756Y251591D02*
X246244D01*
Y245685D01*
X246244Y245654D01*
Y244110D01*
X245427Y242842D01*
X242128D01*
X236974Y247997D01*
X236447Y248349D01*
X235827Y248472D01*
X230134D01*
Y250606D01*
X222622D01*
Y243094D01*
X230134D01*
Y245229D01*
X235155D01*
X238744Y241640D01*
X237828Y240350D01*
X236872Y240606D01*
X235883D01*
X234928Y240350D01*
X234072Y239856D01*
X233784Y239568D01*
X233713Y239524D01*
X233226Y239068D01*
X233030Y238911D01*
X232838Y238774D01*
X232660Y238665D01*
X232499Y238583D01*
X232356Y238525D01*
X232231Y238488D01*
X232146Y238472D01*
X230610D01*
X230525Y238488D01*
X230400Y238525D01*
X230257Y238583D01*
X230096Y238665D01*
X229918Y238774D01*
X229737Y238903D01*
X229293Y239279D01*
X229059Y239508D01*
X228980Y239560D01*
X228684Y239856D01*
X227828Y240350D01*
X226872Y240606D01*
X225884D01*
X224928Y240350D01*
X224072Y239856D01*
X223373Y239157D01*
X222878Y238300D01*
X222622Y237345D01*
Y236356D01*
X222878Y235401D01*
X223373Y234544D01*
X223660Y234256D01*
X223704Y234186D01*
X224160Y233699D01*
X224318Y233502D01*
X224454Y233310D01*
X224563Y233132D01*
X224645Y232971D01*
X224704Y232828D01*
X224741Y232704D01*
X224756Y232618D01*
Y231082D01*
X224741Y230997D01*
X224704Y230872D01*
X224645Y230730D01*
X224563Y230568D01*
X224454Y230391D01*
X224325Y230209D01*
X223949Y229766D01*
X223720Y229532D01*
X223669Y229453D01*
X223373Y229157D01*
X222878Y228300D01*
X222622Y227345D01*
Y226356D01*
X222878Y225401D01*
X223373Y224544D01*
X224072Y223845D01*
X224928Y223351D01*
X225884Y223095D01*
X226872D01*
X227828Y223351D01*
X228684Y223845D01*
X229383Y224544D01*
X229878Y225401D01*
X230134Y226356D01*
Y227345D01*
X229878Y228300D01*
X229383Y229157D01*
X229095Y229445D01*
X229051Y229515D01*
X228596Y230002D01*
X228438Y230198D01*
X228302Y230391D01*
X228193Y230568D01*
X228110Y230729D01*
X228052Y230872D01*
X228015Y230997D01*
X228000Y231082D01*
Y232618D01*
X228015Y232704D01*
X228052Y232828D01*
X228110Y232971D01*
X228193Y233132D01*
X228302Y233310D01*
X228430Y233491D01*
X228807Y233935D01*
X229036Y234169D01*
X229040Y234175D01*
X229043Y234177D01*
X229530Y234632D01*
X229726Y234790D01*
X229918Y234927D01*
X230096Y235035D01*
X230257Y235118D01*
X230400Y235176D01*
X230525Y235213D01*
X230610Y235229D01*
X232146D01*
X232231Y235213D01*
X232356Y235176D01*
X232499Y235118D01*
X232660Y235035D01*
X232838Y234927D01*
X233019Y234798D01*
X233463Y234421D01*
X233697Y234192D01*
X233776Y234141D01*
X234072Y233845D01*
X234928Y233350D01*
X235883Y233095D01*
X236872D01*
X237828Y233350D01*
X238245Y233591D01*
X238615Y233344D01*
X239235Y233221D01*
X245618D01*
X246244Y231874D01*
Y230331D01*
X246244Y230299D01*
Y228543D01*
X253756D01*
Y230299D01*
X253756Y230331D01*
Y231874D01*
X253756Y231906D01*
Y236598D01*
X253756Y237811D01*
X253756Y239386D01*
Y244079D01*
X253756Y244110D01*
Y245654D01*
X254382Y247000D01*
X305824D01*
X313547Y239277D01*
Y220079D01*
X313625Y219689D01*
X313846Y219358D01*
X314633Y218570D01*
X314964Y218349D01*
X315354Y218272D01*
X328740D01*
X329130Y218349D01*
X329461Y218570D01*
X343336Y232445D01*
X376378D01*
X376768Y232523D01*
X377099Y232744D01*
X377493Y233137D01*
X377714Y233468D01*
X377791Y233858D01*
Y249606D01*
X377714Y249996D01*
X377493Y250327D01*
X377099Y250721D01*
X376768Y250942D01*
X376378Y251020D01*
X324410D01*
X324019Y250942D01*
X323689Y250721D01*
X315190Y242222D01*
X307643Y249769D01*
X307117Y250120D01*
X306496Y250244D01*
X253756D01*
Y251591D01*
D02*
G37*
G36*
X191747Y243307D02*
X189764D01*
Y241324D01*
X189880Y241355D01*
X190647Y241798D01*
X191273Y242424D01*
X191716Y243190D01*
X191747Y243307D01*
D02*
G37*
G36*
X187402D02*
X185418D01*
X185450Y243190D01*
X185892Y242424D01*
X186518Y241798D01*
X187285Y241355D01*
X187402Y241324D01*
Y243307D01*
D02*
G37*
G36*
X348819Y228653D02*
Y226772D01*
X350700D01*
X350679Y226850D01*
X350250Y227595D01*
X349642Y228202D01*
X348898Y228632D01*
X348819Y228653D01*
D02*
G37*
G36*
X346457D02*
X346378Y228632D01*
X345634Y228202D01*
X345026Y227595D01*
X344596Y226850D01*
X344575Y226772D01*
X346457D01*
Y228653D01*
D02*
G37*
G36*
X426378Y229190D02*
Y225984D01*
X429584D01*
X429430Y226557D01*
X428832Y227593D01*
X427986Y228439D01*
X426951Y229037D01*
X426378Y229190D01*
D02*
G37*
G36*
X424016Y229190D02*
X423443Y229037D01*
X422407Y228439D01*
X421561Y227593D01*
X420963Y226557D01*
X420810Y225984D01*
X424016D01*
Y229190D01*
D02*
G37*
G36*
X253756Y226181D02*
X246244D01*
Y225805D01*
X246106Y224287D01*
X246106Y222876D01*
Y222559D01*
X250000D01*
X253894D01*
Y222876D01*
X253894Y224287D01*
X253756Y225805D01*
Y226181D01*
D02*
G37*
G36*
X346457Y224410D02*
X344575D01*
X344596Y224331D01*
X345026Y223587D01*
X345634Y222979D01*
X346378Y222549D01*
X346457Y222528D01*
Y224410D01*
D02*
G37*
G36*
X350700D02*
X348819D01*
Y222528D01*
X348898Y222549D01*
X349642Y222979D01*
X350250Y223587D01*
X350679Y224331D01*
X350700Y224410D01*
D02*
G37*
G36*
X268421Y225705D02*
X264567D01*
Y221457D01*
X268421D01*
Y225705D01*
D02*
G37*
G36*
X262205D02*
X258350D01*
Y221457D01*
X262205D01*
Y225705D01*
D02*
G37*
G36*
X424016Y223622D02*
X420810D01*
X420963Y223049D01*
X421561Y222013D01*
X422407Y221168D01*
X423443Y220569D01*
X424016Y220416D01*
Y223622D01*
D02*
G37*
G36*
X429584D02*
X426378D01*
Y220416D01*
X426951Y220569D01*
X427986Y221168D01*
X428832Y222013D01*
X429430Y223049D01*
X429584Y223622D01*
D02*
G37*
G36*
X268421Y219094D02*
X264567D01*
Y214846D01*
X268421D01*
Y219094D01*
D02*
G37*
G36*
X262205D02*
X258350D01*
Y214846D01*
X262205D01*
Y219094D01*
D02*
G37*
G36*
X411024Y210691D02*
Y207638D01*
X414077D01*
X413939Y208153D01*
X413360Y209156D01*
X412541Y209974D01*
X411539Y210553D01*
X411024Y210691D01*
D02*
G37*
G36*
X408661Y210691D02*
X408146Y210553D01*
X407143Y209974D01*
X406325Y209156D01*
X405746Y208153D01*
X405608Y207638D01*
X408661D01*
Y210691D01*
D02*
G37*
G36*
X386221Y205425D02*
Y203543D01*
X388102D01*
X388081Y203622D01*
X387651Y204366D01*
X387043Y204974D01*
X386299Y205404D01*
X386221Y205425D01*
D02*
G37*
G36*
X383858D02*
X383780Y205404D01*
X383035Y204974D01*
X382428Y204366D01*
X381998Y203622D01*
X381977Y203543D01*
X383858D01*
Y205425D01*
D02*
G37*
G36*
Y201181D02*
X381977D01*
X381998Y201102D01*
X382428Y200358D01*
X383035Y199750D01*
X383780Y199321D01*
X383858Y199300D01*
Y201181D01*
D02*
G37*
G36*
X388102D02*
X386221D01*
Y199300D01*
X386299Y199321D01*
X387043Y199750D01*
X387651Y200358D01*
X388081Y201102D01*
X388102Y201181D01*
D02*
G37*
G36*
X432087Y199606D02*
X429906D01*
Y197721D01*
X432087D01*
Y199606D01*
D02*
G37*
G36*
X419480Y251020D02*
X383301D01*
X382911Y250942D01*
X382580Y250721D01*
X381169Y249309D01*
X380948Y248978D01*
X380870Y248588D01*
X380870Y219406D01*
X380948Y219015D01*
X381169Y218685D01*
X381500Y218463D01*
X381776Y218409D01*
Y212878D01*
X387253D01*
X387291Y212870D01*
X387307Y212874D01*
X387361Y212602D01*
X387582Y212271D01*
X387913Y212050D01*
X388303Y211972D01*
X401968D01*
X402359Y212050D01*
X402689Y212271D01*
X403566Y213148D01*
X411909D01*
X417502Y207555D01*
X417791Y207252D01*
X418143Y206839D01*
X418260Y206682D01*
X418349Y206548D01*
X418404Y206450D01*
X418423Y206408D01*
X418425Y206384D01*
X418439Y206339D01*
Y205878D01*
X418739Y204760D01*
X419317Y203758D01*
X419643Y203431D01*
X419665Y203390D01*
X419681Y203371D01*
X419697Y203329D01*
X419727Y203221D01*
X419759Y203062D01*
X419786Y202877D01*
X419840Y202030D01*
Y201004D01*
X419831Y200586D01*
X419787Y200045D01*
X419759Y199851D01*
X419727Y199693D01*
X419697Y199585D01*
X419681Y199542D01*
X419665Y199523D01*
X419644Y199482D01*
X419317Y199156D01*
X418739Y198153D01*
X418439Y197035D01*
Y195878D01*
X418739Y194760D01*
X419317Y193758D01*
X419643Y193431D01*
X419665Y193390D01*
X419681Y193371D01*
X419697Y193329D01*
X419727Y193220D01*
X419759Y193062D01*
X419786Y192877D01*
X419803Y192605D01*
X419794Y192453D01*
X419731Y191927D01*
X419648Y191499D01*
X419553Y191175D01*
X419459Y190962D01*
X419392Y190862D01*
X419325Y190852D01*
X418439D01*
X418431Y189840D01*
X418439Y189802D01*
X418439Y189278D01*
Y182061D01*
X426180Y182061D01*
X426218Y182053D01*
X427230Y182061D01*
X427230Y182947D01*
X427240Y183015D01*
X427340Y183081D01*
X427553Y183175D01*
X427877Y183270D01*
X428290Y183350D01*
X429463Y183455D01*
X429630Y183458D01*
X434801Y178287D01*
Y175908D01*
X434599Y175786D01*
X432730Y175927D01*
X431912Y176746D01*
X430909Y177324D01*
X430394Y177463D01*
Y173228D01*
X428031D01*
Y177463D01*
X427516Y177324D01*
X426514Y176746D01*
X425695Y175927D01*
X425116Y174925D01*
X425028Y174594D01*
X423397D01*
X423309Y174925D01*
X422730Y175927D01*
X421912Y176746D01*
X420909Y177324D01*
X420394Y177463D01*
Y173228D01*
X418032D01*
Y177463D01*
X417516Y177324D01*
X416514Y176746D01*
X415695Y175927D01*
X415117Y174925D01*
X415028Y174594D01*
X413397D01*
X413309Y174925D01*
X412730Y175927D01*
X411912Y176746D01*
X410909Y177324D01*
X410394Y177463D01*
Y173228D01*
X408032D01*
Y177463D01*
X407516Y177324D01*
X406514Y176746D01*
X405695Y175927D01*
X405183Y175040D01*
X405039Y175002D01*
X403608Y175786D01*
Y177624D01*
X400394D01*
Y173228D01*
X399213D01*
Y172047D01*
X394817D01*
Y168963D01*
X394817Y168833D01*
Y166502D01*
X394807Y166434D01*
X394707Y166368D01*
X394494Y166274D01*
X394170Y166179D01*
X393757Y166099D01*
X392585Y165993D01*
X392200Y165986D01*
X392052D01*
X391654Y165994D01*
X391036Y166033D01*
X390510Y166096D01*
X390082Y166179D01*
X389758Y166274D01*
X389545Y166368D01*
X389445Y166434D01*
X389435Y166502D01*
Y167388D01*
X388423Y167395D01*
X388385Y167388D01*
X387860Y167388D01*
X380644D01*
Y165550D01*
X379213Y164765D01*
X379069Y164804D01*
X378557Y165691D01*
X378202Y166046D01*
X378156Y166119D01*
X377536Y166773D01*
X377307Y167049D01*
X377110Y167314D01*
X376951Y167558D01*
X376829Y167778D01*
X376742Y167971D01*
X376688Y168135D01*
X376661Y168262D01*
Y169866D01*
X379256D01*
X379287Y169866D01*
X380831D01*
X380862Y169866D01*
X382618D01*
Y173622D01*
Y177378D01*
X380862D01*
X380831Y177378D01*
X379287D01*
X379256Y177378D01*
X373350D01*
Y171441D01*
X373350Y170916D01*
X373343Y170878D01*
X373350Y169866D01*
X373350D01*
X373418Y169799D01*
Y168262D01*
X373391Y168135D01*
X373337Y167971D01*
X373250Y167778D01*
X373128Y167558D01*
X372969Y167314D01*
X372779Y167059D01*
X372253Y166455D01*
X371936Y166132D01*
X371883Y166052D01*
X371522Y165691D01*
X370943Y164689D01*
X370644Y163571D01*
Y162413D01*
X370943Y161295D01*
X371522Y160293D01*
X372340Y159475D01*
X373343Y158896D01*
X374461Y158597D01*
X375618D01*
X376736Y158896D01*
X377738Y159475D01*
X378557Y160293D01*
X379069Y161180D01*
X379213Y161219D01*
X380644Y160435D01*
Y158597D01*
X388385Y158597D01*
X388423Y158589D01*
X389435Y158596D01*
X389435Y159482D01*
X389445Y159550D01*
X389545Y159617D01*
X389758Y159710D01*
X390082Y159805D01*
X390495Y159885D01*
X391667Y159991D01*
X392052Y159998D01*
X392200D01*
X392598Y159991D01*
X393216Y159951D01*
X393742Y159888D01*
X394170Y159805D01*
X394494Y159710D01*
X394707Y159617D01*
X394807Y159550D01*
X394817Y159482D01*
Y158596D01*
X395829Y158589D01*
X395867Y158596D01*
X396392Y158597D01*
X402558Y158597D01*
X402596Y158589D01*
X403608Y158596D01*
X403608Y159482D01*
X403618Y159550D01*
X403718Y159617D01*
X403931Y159710D01*
X404255Y159805D01*
X404668Y159885D01*
X405469Y159957D01*
X405624Y159945D01*
X405818Y159916D01*
X405976Y159885D01*
X406084Y159854D01*
X406127Y159838D01*
X406146Y159823D01*
X406187Y159801D01*
X406514Y159475D01*
X407516Y158896D01*
X408634Y158597D01*
X409791D01*
X410909Y158896D01*
X411912Y159475D01*
X412238Y159801D01*
X412279Y159823D01*
X412298Y159838D01*
X412341Y159854D01*
X412449Y159885D01*
X412607Y159916D01*
X412792Y159943D01*
X413640Y159998D01*
X414666D01*
X415084Y159989D01*
X415624Y159945D01*
X415818Y159916D01*
X415976Y159885D01*
X416084Y159854D01*
X416127Y159838D01*
X416146Y159823D01*
X416187Y159801D01*
X416514Y159475D01*
X417516Y158896D01*
X418634Y158597D01*
X419791D01*
X420909Y158896D01*
X421912Y159475D01*
X422238Y159801D01*
X422279Y159823D01*
X422298Y159838D01*
X422341Y159854D01*
X422449Y159885D01*
X422607Y159916D01*
X422792Y159943D01*
X423640Y159998D01*
X424666D01*
X425084Y159989D01*
X425624Y159945D01*
X425818Y159916D01*
X425977Y159885D01*
X426085Y159854D01*
X426127Y159838D01*
X426146Y159823D01*
X426187Y159801D01*
X426514Y159475D01*
X427516Y158896D01*
X428634Y158597D01*
X429791D01*
X430909Y158896D01*
X431912Y159475D01*
X432238Y159801D01*
X432279Y159823D01*
X432298Y159838D01*
X432341Y159854D01*
X432449Y159885D01*
X432607Y159916D01*
X432792Y159943D01*
X433640Y159998D01*
X434646D01*
X435421Y160100D01*
X436143Y160399D01*
X436763Y160875D01*
X439912Y164025D01*
X440388Y164645D01*
X440512Y164944D01*
X440687Y165367D01*
X440789Y166142D01*
Y179528D01*
X440687Y180303D01*
X440388Y181025D01*
X439912Y181645D01*
X432983Y188574D01*
X432363Y189050D01*
X431641Y189349D01*
X430866Y189451D01*
X429847D01*
X429449Y189458D01*
X428831Y189498D01*
X428305Y189560D01*
X427877Y189643D01*
X427553Y189739D01*
X427340Y189832D01*
X427240Y189899D01*
X427230Y189966D01*
Y190852D01*
X426344D01*
X426277Y190862D01*
X426210Y190962D01*
X426117Y191175D01*
X426021Y191499D01*
X425941Y191912D01*
X425870Y192713D01*
X425882Y192868D01*
X425910Y193062D01*
X425942Y193221D01*
X425972Y193329D01*
X425989Y193371D01*
X426004Y193390D01*
X426026Y193431D01*
X426352Y193758D01*
X426931Y194760D01*
X427230Y195878D01*
Y197035D01*
X426931Y198153D01*
X426352Y199156D01*
X426026Y199482D01*
X426004Y199523D01*
X425989Y199542D01*
X425972Y199585D01*
X425942Y199693D01*
X425910Y199851D01*
X425883Y200036D01*
X425829Y200884D01*
Y201910D01*
X425838Y202328D01*
X425882Y202869D01*
X425910Y203062D01*
X425942Y203221D01*
X425972Y203329D01*
X425989Y203371D01*
X426004Y203390D01*
X426026Y203431D01*
X426352Y203758D01*
X426931Y204760D01*
X427230Y205878D01*
Y207035D01*
X427234Y207040D01*
X429906D01*
X429906Y203854D01*
X429906Y203331D01*
Y201969D01*
X433268D01*
Y200787D01*
X434449D01*
Y197721D01*
X435811D01*
X437008Y197721D01*
X438205Y197721D01*
X444110D01*
Y203854D01*
X444110D01*
X443323Y204906D01*
Y212417D01*
X437417D01*
X437386Y212417D01*
X435843D01*
X435811Y212417D01*
X429906D01*
Y210283D01*
X426332D01*
X425711Y210160D01*
X425480Y210005D01*
X424531Y210553D01*
X423413Y210852D01*
X422952D01*
X422907Y210866D01*
X422883Y210869D01*
X422841Y210887D01*
X422744Y210942D01*
X422609Y211032D01*
X422459Y211144D01*
X421821Y211704D01*
X415267Y218259D01*
X414647Y218735D01*
X413925Y219034D01*
X413150Y219136D01*
X411612D01*
X411009Y220591D01*
X428067Y237649D01*
X428172Y237806D01*
X428280Y237961D01*
X428283Y237971D01*
X428288Y237980D01*
X428325Y238165D01*
X428366Y238350D01*
X428364Y238360D01*
X428366Y238370D01*
X428480Y238783D01*
X429253Y239945D01*
X429740D01*
Y249031D01*
X423217D01*
X421668Y249129D01*
X421625Y249273D01*
X421595Y249422D01*
X421568Y249463D01*
X421554Y249510D01*
X421458Y249627D01*
X421375Y249752D01*
X421334Y249780D01*
X421303Y249818D01*
X420129Y250786D01*
X419996Y250858D01*
X419870Y250942D01*
X419822Y250952D01*
X419778Y250975D01*
X419628Y250990D01*
X419480Y251020D01*
D02*
G37*
G36*
X414077Y205276D02*
X409842D01*
X405608D01*
X405746Y204760D01*
X406325Y203758D01*
X407143Y202939D01*
X408146Y202361D01*
X408477Y202272D01*
Y200641D01*
X408146Y200553D01*
X407143Y199974D01*
X406325Y199156D01*
X405746Y198153D01*
X405608Y197638D01*
X409842D01*
X414077D01*
X413939Y198153D01*
X413360Y199156D01*
X412541Y199974D01*
X411539Y200553D01*
X411208Y200641D01*
Y202272D01*
X411539Y202361D01*
X412541Y202939D01*
X413360Y203758D01*
X413939Y204760D01*
X414077Y205276D01*
D02*
G37*
G36*
X279134Y194433D02*
X275469D01*
X275669Y193690D01*
X276325Y192553D01*
X277253Y191624D01*
X278390Y190968D01*
X279134Y190769D01*
Y194433D01*
D02*
G37*
G36*
X414077Y195276D02*
X409842D01*
X405608D01*
X405746Y194760D01*
X406325Y193758D01*
X407143Y192939D01*
X408031Y192427D01*
X408069Y192283D01*
X407285Y190852D01*
X405447D01*
Y187638D01*
X409842D01*
X414238D01*
Y190852D01*
X412400D01*
X411616Y192283D01*
X411655Y192427D01*
X412541Y192939D01*
X413360Y193758D01*
X413939Y194760D01*
X414077Y195276D01*
D02*
G37*
G36*
X414238Y185276D02*
X411024D01*
Y182061D01*
X414238D01*
Y185276D01*
D02*
G37*
G36*
X408661D02*
X405447D01*
Y182061D01*
X408661D01*
Y185276D01*
D02*
G37*
G36*
X384980Y177378D02*
Y174803D01*
X386768D01*
Y177378D01*
X384980D01*
D02*
G37*
G36*
X398031Y177624D02*
X394817D01*
Y174409D01*
X398031D01*
Y177624D01*
D02*
G37*
G36*
X344544Y187299D02*
X342858D01*
X341204Y186970D01*
X339647Y186325D01*
X338245Y185388D01*
X337052Y184196D01*
X336116Y182794D01*
X335471Y181237D01*
X335142Y179583D01*
Y177897D01*
X335471Y176244D01*
X336116Y174686D01*
X337052Y173284D01*
X338245Y172092D01*
X339647Y171155D01*
X341204Y170510D01*
X342858Y170181D01*
X344544D01*
X346197Y170510D01*
X347755Y171155D01*
X349157Y172092D01*
X350349Y173284D01*
X351286Y174686D01*
X351931Y176244D01*
X352260Y177897D01*
Y179583D01*
X351931Y181237D01*
X351286Y182794D01*
X350349Y184196D01*
X349157Y185388D01*
X347755Y186325D01*
X346197Y186970D01*
X344544Y187299D01*
D02*
G37*
G36*
X244544D02*
X242858D01*
X241204Y186970D01*
X239647Y186325D01*
X238245Y185388D01*
X237052Y184196D01*
X236116Y182794D01*
X235471Y181237D01*
X235142Y179583D01*
Y177897D01*
X235471Y176244D01*
X236116Y174686D01*
X237052Y173284D01*
X238245Y172092D01*
X239647Y171155D01*
X241204Y170510D01*
X242858Y170181D01*
X244544D01*
X246197Y170510D01*
X247755Y171155D01*
X249157Y172092D01*
X250349Y173284D01*
X251286Y174686D01*
X251931Y176244D01*
X252260Y177897D01*
Y179583D01*
X251931Y181237D01*
X251286Y182794D01*
X250349Y184196D01*
X249157Y185388D01*
X247755Y186325D01*
X246197Y186970D01*
X244544Y187299D01*
D02*
G37*
G36*
X386768Y172441D02*
X384980D01*
Y169866D01*
X386768D01*
Y172441D01*
D02*
G37*
G36*
X294891Y173441D02*
X293298D01*
X291736Y173130D01*
X290264Y172521D01*
X288940Y171636D01*
X287813Y170509D01*
X286928Y169185D01*
X286319Y167713D01*
X286008Y166151D01*
Y164558D01*
X286319Y162996D01*
X286928Y161524D01*
X287813Y160199D01*
X288940Y159073D01*
X290264Y158188D01*
X291736Y157579D01*
X293298Y157268D01*
X294891D01*
X296453Y157579D01*
X297925Y158188D01*
X299249Y159073D01*
X300376Y160199D01*
X301261Y161524D01*
X301870Y162996D01*
X302181Y164558D01*
Y166151D01*
X301870Y167713D01*
X301261Y169185D01*
X300376Y170509D01*
X299249Y171636D01*
X297925Y172521D01*
X296453Y173130D01*
X294891Y173441D01*
D02*
G37*
%LPD*%
G36*
X252756Y249691D02*
X252791Y249591D01*
X252850Y249502D01*
X252933Y249425D01*
X253039Y249360D01*
X253169Y249307D01*
X253323Y249266D01*
X253500Y249236D01*
X253701Y249219D01*
X253925Y249213D01*
Y248031D01*
X253701Y248026D01*
X253500Y248008D01*
X253323Y247978D01*
X253169Y247937D01*
X253039Y247884D01*
X252933Y247819D01*
X252850Y247742D01*
X252791Y247654D01*
X252756Y247553D01*
X252744Y247441D01*
Y249803D01*
X252756Y249691D01*
D02*
G37*
G36*
X229134Y247919D02*
X229169Y247819D01*
X229228Y247730D01*
X229311Y247654D01*
X229417Y247589D01*
X229547Y247535D01*
X229701Y247494D01*
X229878Y247465D01*
X230079Y247447D01*
X230303Y247441D01*
Y246260D01*
X230079Y246254D01*
X229878Y246236D01*
X229701Y246207D01*
X229547Y246165D01*
X229417Y246112D01*
X229311Y246047D01*
X229228Y245971D01*
X229169Y245882D01*
X229134Y245781D01*
X229122Y245669D01*
Y248031D01*
X229134Y247919D01*
D02*
G37*
G36*
X376772Y249606D02*
Y233858D01*
X376378Y233465D01*
X342913D01*
X328740Y219291D01*
X315354D01*
X314567Y220079D01*
Y239709D01*
X314433Y239850D01*
X314567Y240081D01*
Y240158D01*
X314674Y240264D01*
X315047Y240906D01*
X315184Y240774D01*
X324410Y250000D01*
X376378D01*
X376772Y249606D01*
D02*
G37*
G36*
X247256Y240039D02*
X247244Y240152D01*
X247209Y240252D01*
X247150Y240340D01*
X247067Y240417D01*
X246961Y240482D01*
X246831Y240535D01*
X246677Y240577D01*
X246500Y240606D01*
X246299Y240624D01*
X246075Y240630D01*
Y241811D01*
X246299Y241817D01*
X246500Y241835D01*
X246677Y241864D01*
X246831Y241905D01*
X246961Y241959D01*
X247067Y242024D01*
X247150Y242100D01*
X247209Y242189D01*
X247244Y242289D01*
X247256Y242402D01*
Y240039D01*
D02*
G37*
G36*
X234410Y234921D02*
X234150Y235176D01*
X233645Y235604D01*
X233400Y235778D01*
X233159Y235925D01*
X232924Y236046D01*
X232694Y236139D01*
X232469Y236206D01*
X232248Y236246D01*
X232032Y236260D01*
Y237441D01*
X232248Y237454D01*
X232469Y237494D01*
X232694Y237561D01*
X232924Y237655D01*
X233159Y237776D01*
X233400Y237923D01*
X233645Y238097D01*
X233895Y238298D01*
X234410Y238779D01*
Y234921D01*
D02*
G37*
G36*
X228606Y238525D02*
X229111Y238097D01*
X229356Y237923D01*
X229596Y237776D01*
X229832Y237655D01*
X230062Y237561D01*
X230287Y237494D01*
X230508Y237454D01*
X230723Y237441D01*
Y236260D01*
X230508Y236246D01*
X230287Y236206D01*
X230062Y236139D01*
X229832Y236046D01*
X229596Y235925D01*
X229356Y235778D01*
X229111Y235604D01*
X228861Y235403D01*
X228346Y234921D01*
Y238779D01*
X228606Y238525D01*
D02*
G37*
G36*
X239048Y236132D02*
X239056Y236067D01*
X239080Y235994D01*
X239118Y235914D01*
X239171Y235825D01*
X239238Y235728D01*
X239320Y235623D01*
X239527Y235389D01*
X239653Y235260D01*
X238818Y234425D01*
X238725Y234513D01*
X238638Y234588D01*
X238556Y234649D01*
X238478Y234698D01*
X238406Y234733D01*
X238338Y234755D01*
X238275Y234763D01*
X238216Y234759D01*
X238163Y234741D01*
X238115Y234711D01*
X239053Y236189D01*
X239048Y236132D01*
D02*
G37*
G36*
X247256Y233661D02*
X247244Y233774D01*
X247209Y233874D01*
X247150Y233963D01*
X247067Y234039D01*
X246961Y234104D01*
X246831Y234157D01*
X246677Y234199D01*
X246500Y234228D01*
X246299Y234246D01*
X246075Y234252D01*
Y235433D01*
X246299Y235439D01*
X246500Y235457D01*
X246677Y235486D01*
X246831Y235528D01*
X246961Y235581D01*
X247067Y235646D01*
X247150Y235722D01*
X247209Y235811D01*
X247244Y235911D01*
X247256Y236024D01*
Y233661D01*
D02*
G37*
G36*
X228053Y234622D02*
X227624Y234117D01*
X227450Y233872D01*
X227303Y233632D01*
X227183Y233397D01*
X227089Y233166D01*
X227022Y232941D01*
X226982Y232720D01*
X226969Y232505D01*
X225787D01*
X225774Y232720D01*
X225734Y232941D01*
X225667Y233166D01*
X225573Y233397D01*
X225453Y233632D01*
X225306Y233872D01*
X225132Y234117D01*
X224931Y234367D01*
X224449Y234882D01*
X228307D01*
X228053Y234622D01*
D02*
G37*
G36*
X226982Y230980D02*
X227022Y230760D01*
X227089Y230535D01*
X227183Y230304D01*
X227303Y230069D01*
X227450Y229829D01*
X227624Y229584D01*
X227825Y229333D01*
X228307Y228818D01*
X224449D01*
X224703Y229079D01*
X225132Y229584D01*
X225306Y229829D01*
X225453Y230069D01*
X225573Y230304D01*
X225667Y230535D01*
X225734Y230760D01*
X225774Y230980D01*
X225787Y231196D01*
X226969D01*
X226982Y230980D01*
D02*
G37*
%LPC*%
G36*
X350902Y242634D02*
X349606D01*
Y241339D01*
X350902D01*
Y242634D01*
D02*
G37*
G36*
X345669D02*
X344374D01*
Y241339D01*
X345669D01*
Y242634D01*
D02*
G37*
G36*
X350902Y237402D02*
X349606D01*
Y236106D01*
X350902D01*
Y237402D01*
D02*
G37*
G36*
X345669D02*
X344374D01*
Y236106D01*
X345669D01*
Y237402D01*
D02*
G37*
%LPD*%
G36*
X420653Y249031D02*
Y245472D01*
X425197D01*
Y244488D01*
X426181D01*
Y239945D01*
X426679D01*
X426752Y239889D01*
X427347Y238370D01*
X401968Y212992D01*
X388303D01*
Y214042D01*
X387449Y213992D01*
X387331Y213944D01*
X387291Y213890D01*
Y214173D01*
X385039D01*
Y216142D01*
X383071D01*
Y219406D01*
X381890D01*
X381890Y248588D01*
X383301Y250000D01*
X419480D01*
X420653Y249031D01*
D02*
G37*
G36*
X426749Y208244D02*
X426619Y208110D01*
X426319Y207760D01*
X426249Y207661D01*
X426194Y207570D01*
X426154Y207487D01*
X426130Y207413D01*
X426120Y207348D01*
X426126Y207291D01*
X425254Y208839D01*
X425299Y208803D01*
X425347Y208781D01*
X425401Y208772D01*
X425460Y208776D01*
X425523Y208793D01*
X425592Y208824D01*
X425665Y208868D01*
X425743Y208925D01*
X425826Y208995D01*
X425914Y209079D01*
X426749Y208244D01*
D02*
G37*
G36*
X430918Y207480D02*
X430906Y207593D01*
X430870Y207693D01*
X430811Y207782D01*
X430728Y207858D01*
X430622Y207923D01*
X430492Y207976D01*
X430339Y208018D01*
X430162Y208047D01*
X429961Y208065D01*
X429736Y208071D01*
Y209252D01*
X429961Y209258D01*
X430162Y209276D01*
X430339Y209305D01*
X430492Y209347D01*
X430622Y209400D01*
X430728Y209465D01*
X430811Y209541D01*
X430870Y209630D01*
X430906Y209730D01*
X430918Y209842D01*
Y207480D01*
D02*
G37*
G36*
X421101Y210980D02*
X421816Y210351D01*
X422022Y210198D01*
X422211Y210072D01*
X422383Y209975D01*
X422539Y209906D01*
X422678Y209865D01*
X422801Y209852D01*
X419439Y206491D01*
X419426Y206613D01*
X419385Y206752D01*
X419316Y206908D01*
X419219Y207081D01*
X419094Y207269D01*
X418940Y207475D01*
X418549Y207935D01*
X418046Y208462D01*
X420829Y211246D01*
X421101Y210980D01*
D02*
G37*
G36*
X441423Y205906D02*
X441323Y205870D01*
X441234Y205811D01*
X441157Y205729D01*
X441092Y205622D01*
X441039Y205492D01*
X440998Y205339D01*
X440969Y205162D01*
X440951Y204961D01*
X440945Y204736D01*
X439764D01*
X439758Y204961D01*
X439740Y205162D01*
X439711Y205339D01*
X439669Y205492D01*
X439616Y205622D01*
X439551Y205729D01*
X439474Y205811D01*
X439386Y205870D01*
X439285Y205906D01*
X439173Y205918D01*
X441535D01*
X441423Y205906D01*
D02*
G37*
G36*
X440951Y203799D02*
X440969Y203598D01*
X440998Y203421D01*
X441039Y203268D01*
X441092Y203138D01*
X441157Y203031D01*
X441234Y202949D01*
X441323Y202890D01*
X441423Y202854D01*
X441535Y202842D01*
X439173D01*
X439285Y202854D01*
X439386Y202890D01*
X439474Y202949D01*
X439551Y203031D01*
X439616Y203138D01*
X439669Y203268D01*
X439711Y203421D01*
X439740Y203598D01*
X439758Y203799D01*
X439764Y204023D01*
X440945D01*
X440951Y203799D01*
D02*
G37*
G36*
X425134Y203936D02*
X425065Y203808D01*
X425003Y203649D01*
X424950Y203459D01*
X424905Y203237D01*
X424868Y202983D01*
X424820Y202381D01*
X424803Y201652D01*
X420866D01*
X420862Y202032D01*
X420801Y202983D01*
X420764Y203237D01*
X420719Y203459D01*
X420666Y203649D01*
X420605Y203808D01*
X420535Y203936D01*
X420458Y204032D01*
X425212D01*
X425134Y203936D01*
D02*
G37*
G36*
X424807Y200881D02*
X424868Y199930D01*
X424905Y199677D01*
X424950Y199454D01*
X425003Y199264D01*
X425065Y199105D01*
X425134Y198977D01*
X425212Y198882D01*
X420458D01*
X420535Y198977D01*
X420605Y199105D01*
X420666Y199264D01*
X420719Y199454D01*
X420764Y199677D01*
X420801Y199930D01*
X420850Y200533D01*
X420866Y201261D01*
X424803D01*
X424807Y200881D01*
D02*
G37*
G36*
X425134Y193936D02*
X425065Y193808D01*
X425003Y193649D01*
X424950Y193459D01*
X424905Y193237D01*
X424868Y192983D01*
X424846Y192708D01*
X424930Y191770D01*
X425030Y191258D01*
X425157Y190825D01*
X425313Y190470D01*
X425497Y190195D01*
X425709Y189998D01*
X425949Y189880D01*
X426218Y189840D01*
X419451D01*
X419720Y189880D01*
X419960Y189998D01*
X420173Y190195D01*
X420357Y190470D01*
X420512Y190825D01*
X420640Y191258D01*
X420739Y191770D01*
X420810Y192360D01*
X420825Y192606D01*
X420801Y192983D01*
X420764Y193237D01*
X420719Y193459D01*
X420666Y193649D01*
X420605Y193808D01*
X420535Y193936D01*
X420458Y194032D01*
X425212D01*
X425134Y193936D01*
D02*
G37*
G36*
X426258Y189571D02*
X426376Y189331D01*
X426573Y189119D01*
X426848Y188935D01*
X427203Y188779D01*
X427636Y188652D01*
X428148Y188553D01*
X428738Y188482D01*
X429407Y188439D01*
X430155Y188425D01*
Y184488D01*
X429407Y184474D01*
X428148Y184361D01*
X427636Y184262D01*
X427203Y184134D01*
X426848Y183979D01*
X426573Y183795D01*
X426376Y183582D01*
X426258Y183342D01*
X426218Y183073D01*
Y189840D01*
X426258Y189571D01*
D02*
G37*
G36*
X376108Y170866D02*
X376008Y170831D01*
X375919Y170772D01*
X375842Y170689D01*
X375778Y170583D01*
X375724Y170453D01*
X375683Y170299D01*
X375654Y170122D01*
X375636Y169922D01*
X375630Y169697D01*
X374449D01*
X374448Y169922D01*
X374394Y170831D01*
X374379Y170866D01*
X374362Y170878D01*
X376220D01*
X376108Y170866D01*
D02*
G37*
G36*
X375648Y168127D02*
X375701Y167869D01*
X375791Y167601D01*
X375916Y167322D01*
X376077Y167032D01*
X376273Y166731D01*
X376505Y166419D01*
X376773Y166096D01*
X377416Y165417D01*
X372662D01*
X373002Y165762D01*
X373573Y166419D01*
X373806Y166731D01*
X374002Y167032D01*
X374163Y167322D01*
X374288Y167601D01*
X374377Y167869D01*
X374431Y168127D01*
X374449Y168374D01*
X375630D01*
X375648Y168127D01*
D02*
G37*
G36*
X395829Y159608D02*
X395790Y159877D01*
X395672Y160118D01*
X395475Y160330D01*
X395199Y160514D01*
X394845Y160670D01*
X394412Y160797D01*
X393900Y160896D01*
X393309Y160967D01*
X392640Y161010D01*
X392126Y161019D01*
X391612Y161010D01*
X390352Y160896D01*
X389840Y160797D01*
X389407Y160670D01*
X389053Y160514D01*
X388777Y160330D01*
X388580Y160118D01*
X388462Y159877D01*
X388423Y159608D01*
Y166376D01*
X388462Y166107D01*
X388580Y165866D01*
X388777Y165654D01*
X389053Y165470D01*
X389407Y165314D01*
X389840Y165187D01*
X390352Y165088D01*
X390943Y165017D01*
X391612Y164975D01*
X392126Y164965D01*
X392640Y164975D01*
X393900Y165088D01*
X394412Y165187D01*
X394845Y165314D01*
X395199Y165470D01*
X395475Y165654D01*
X395672Y165866D01*
X395790Y166107D01*
X395829Y166376D01*
Y159608D01*
D02*
G37*
G36*
X431734Y165292D02*
X431861Y165222D01*
X432020Y165161D01*
X432210Y165108D01*
X432433Y165063D01*
X432686Y165026D01*
X433288Y164977D01*
X434017Y164961D01*
Y161024D01*
X433637Y161020D01*
X432686Y160958D01*
X432433Y160922D01*
X432210Y160877D01*
X432020Y160824D01*
X431861Y160762D01*
X431734Y160693D01*
X431638Y160615D01*
Y165369D01*
X431734Y165292D01*
D02*
G37*
G36*
X426788Y160615D02*
X426692Y160693D01*
X426564Y160762D01*
X426405Y160824D01*
X426215Y160877D01*
X425993Y160922D01*
X425739Y160958D01*
X425137Y161007D01*
X424408Y161024D01*
Y164961D01*
X424788Y164965D01*
X425739Y165026D01*
X425993Y165063D01*
X426215Y165108D01*
X426405Y165161D01*
X426564Y165222D01*
X426692Y165292D01*
X426788Y165369D01*
Y160615D01*
D02*
G37*
G36*
X421733Y165292D02*
X421861Y165222D01*
X422020Y165161D01*
X422211Y165108D01*
X422433Y165063D01*
X422686Y165026D01*
X423288Y164977D01*
X424017Y164961D01*
Y161024D01*
X423637Y161020D01*
X422686Y160958D01*
X422433Y160922D01*
X422211Y160877D01*
X422020Y160824D01*
X421861Y160762D01*
X421733Y160693D01*
X421638Y160615D01*
Y165369D01*
X421733Y165292D01*
D02*
G37*
G36*
X416788Y160615D02*
X416692Y160693D01*
X416564Y160762D01*
X416405Y160824D01*
X416215Y160877D01*
X415993Y160922D01*
X415739Y160958D01*
X415137Y161007D01*
X414408Y161024D01*
Y164961D01*
X414788Y164965D01*
X415739Y165026D01*
X415993Y165063D01*
X416215Y165108D01*
X416405Y165161D01*
X416564Y165222D01*
X416692Y165292D01*
X416788Y165369D01*
Y160615D01*
D02*
G37*
G36*
X411733Y165292D02*
X411861Y165222D01*
X412020Y165161D01*
X412211Y165108D01*
X412433Y165063D01*
X412686Y165026D01*
X413288Y164977D01*
X414017Y164961D01*
Y161024D01*
X413637Y161020D01*
X412686Y160958D01*
X412433Y160922D01*
X412211Y160877D01*
X412020Y160824D01*
X411861Y160762D01*
X411733Y160693D01*
X411638Y160615D01*
Y165369D01*
X411733Y165292D01*
D02*
G37*
G36*
X402636Y166107D02*
X402754Y165866D01*
X402951Y165654D01*
X403226Y165470D01*
X403581Y165314D01*
X404014Y165187D01*
X404525Y165088D01*
X405116Y165017D01*
X405362Y165002D01*
X405739Y165026D01*
X405993Y165063D01*
X406215Y165108D01*
X406405Y165161D01*
X406564Y165222D01*
X406692Y165292D01*
X406788Y165369D01*
Y160615D01*
X406692Y160693D01*
X406564Y160762D01*
X406405Y160824D01*
X406215Y160877D01*
X405993Y160922D01*
X405739Y160958D01*
X405464Y160981D01*
X404525Y160896D01*
X404014Y160797D01*
X403581Y160670D01*
X403226Y160514D01*
X402951Y160330D01*
X402754Y160118D01*
X402636Y159877D01*
X402596Y159608D01*
Y166376D01*
X402636Y166107D01*
D02*
G37*
%LPC*%
G36*
X424213Y243504D02*
X420653D01*
Y239945D01*
X424213D01*
Y243504D01*
D02*
G37*
G36*
X388303Y219406D02*
X387008D01*
Y218110D01*
X387291D01*
Y218393D01*
X387331Y218340D01*
X387449Y218291D01*
X387646Y218249D01*
X387921Y218212D01*
X388303Y218185D01*
Y219406D01*
D02*
G37*
%LPD*%
D13*
X398314Y339087D02*
X399213Y338189D01*
X394377Y339087D02*
X398314D01*
X385039Y348425D02*
X394377Y339087D01*
D15*
X250000Y214843D02*
D03*
Y221378D02*
D03*
Y290433D02*
D03*
Y296969D02*
D03*
D16*
X387402Y241732D02*
D03*
X373228D02*
D03*
Y270079D02*
D03*
X387402D02*
D03*
D17*
X281496Y229921D02*
D03*
X321654D02*
D03*
Y281890D02*
D03*
X281496D02*
D03*
D18*
X211260Y299606D02*
D03*
X188819D02*
D03*
D19*
X263386Y291535D02*
D03*
Y274606D02*
D03*
Y237205D02*
D03*
Y220276D02*
D03*
D20*
X125787Y192913D02*
D03*
X133268D02*
D03*
X433268Y311417D02*
D03*
X133268Y302756D02*
D03*
X125787D02*
D03*
X440748Y200787D02*
D03*
X433268D02*
D03*
X440748Y311417D02*
D03*
D21*
X125787Y200787D02*
D03*
X133268D02*
D03*
X383799Y337795D02*
D03*
X432874Y208661D02*
D03*
X440354D02*
D03*
X125787Y294488D02*
D03*
X133268D02*
D03*
X376319Y337795D02*
D03*
Y173622D02*
D03*
X383799D02*
D03*
X440354Y303543D02*
D03*
X432874D02*
D03*
D22*
X250000Y263189D02*
D03*
Y284449D02*
D03*
Y276969D02*
D03*
Y234842D02*
D03*
Y227362D02*
D03*
Y241142D02*
D03*
Y248622D02*
D03*
Y270669D02*
D03*
D52*
X423749Y288849D02*
Y304061D01*
X422835Y304976D02*
Y305748D01*
X423749Y288849D02*
X425197Y287402D01*
X422835Y304976D02*
X423749Y304061D01*
X422835Y315748D02*
Y325748D01*
Y305748D02*
Y315748D01*
X413150Y216142D02*
X422835Y206457D01*
X385039Y216142D02*
X413150D01*
X429213Y162992D02*
X434646D01*
X437795Y166142D01*
Y179528D01*
X430866Y186457D02*
X437795Y179528D01*
X422835Y186457D02*
X430866D01*
X419213Y162992D02*
X429213D01*
X409213D02*
X419213D01*
X399213D02*
X409213D01*
X422835Y196457D02*
Y206457D01*
Y186457D02*
Y196457D01*
X385039Y162992D02*
X399213D01*
X422835Y337795D02*
X423228Y338189D01*
X422835Y325748D02*
Y337795D01*
X423228Y338189D02*
X429213D01*
X419213D02*
X423228D01*
X409213D02*
X419213D01*
X399213D02*
X409213D01*
D53*
X423465Y305118D02*
X431496D01*
X125787Y294488D02*
Y302756D01*
Y192913D02*
Y200787D01*
X432874Y303543D02*
Y303740D01*
X431496Y305118D02*
X432874Y303740D01*
X422835Y305748D02*
X423465Y305118D01*
X440354Y311024D02*
X440748Y311417D01*
X440354Y303543D02*
Y311024D01*
Y201181D02*
X440748Y200787D01*
X440354Y201181D02*
Y208661D01*
X426332D02*
X432874D01*
X424127Y206457D02*
X426332Y208661D01*
X422835Y206457D02*
X424127D01*
X375039Y339075D02*
X376319Y337795D01*
X375039Y339075D02*
Y348425D01*
Y172343D02*
X376319Y173622D01*
X375039Y162992D02*
Y172343D01*
X315846Y276083D02*
X321654Y281890D01*
X306496Y263189D02*
X315846Y272539D01*
Y276083D01*
X250000Y263189D02*
X306496D01*
X315846Y235728D02*
Y239272D01*
Y235728D02*
X321654Y229921D01*
X250000Y248622D02*
X306496D01*
X315846Y239272D01*
X133268Y200787D02*
Y229331D01*
X140157Y236221D01*
X226378Y246850D02*
X235827D01*
X241457Y241220D01*
X250000D01*
X239235Y234842D02*
X250000D01*
X237227Y236850D02*
X239235Y234842D01*
X236378Y236850D02*
X237227D01*
X226378D02*
X236378D01*
X226378Y226850D02*
Y236850D01*
Y275039D02*
X227306D01*
X229235Y276969D01*
X250000D01*
X226378Y275039D02*
Y285039D01*
X216378Y275039D02*
X226378D01*
X232008Y270669D02*
X250000D01*
X226378Y265039D02*
X232008Y270669D01*
D54*
X429213Y338189D02*
D03*
X419213D02*
D03*
X409213D02*
D03*
X429213Y348425D02*
D03*
X419213D02*
D03*
X409213D02*
D03*
X409842Y305748D02*
D03*
Y315748D02*
D03*
X375039Y162992D02*
D03*
Y348425D02*
D03*
X422835Y315748D02*
D03*
Y305748D02*
D03*
X409213Y173228D02*
D03*
X419213D02*
D03*
X429213D02*
D03*
X409842Y196457D02*
D03*
Y206457D02*
D03*
X422835D02*
D03*
Y196457D02*
D03*
X429213Y162992D02*
D03*
X419213D02*
D03*
X409213D02*
D03*
D55*
X399213Y338189D02*
D03*
Y348425D02*
D03*
X385039Y162992D02*
D03*
Y348425D02*
D03*
X399213Y173228D02*
D03*
Y162992D02*
D03*
D56*
X188583Y230709D02*
D03*
Y281102D02*
D03*
D57*
Y244488D02*
D03*
Y267323D02*
D03*
D58*
X385039Y202362D02*
D03*
Y309449D02*
D03*
X347638Y286221D02*
D03*
Y225590D02*
D03*
D59*
X385039Y216142D02*
D03*
X347638Y272441D02*
D03*
X385039Y295669D02*
D03*
X347638Y239370D02*
D03*
D60*
X243701Y178740D02*
D03*
X343701D02*
D03*
X343701Y333071D02*
D03*
X243701D02*
D03*
D61*
X215591Y300000D02*
D03*
X205748D02*
D03*
X184488D02*
D03*
X194331D02*
D03*
D62*
X182921Y352232D02*
D03*
X216921D02*
D03*
D63*
X216929Y338583D02*
D03*
X182913D02*
D03*
D64*
X307087Y195614D02*
D03*
X280315Y316197D02*
D03*
D65*
X293701Y195614D02*
D03*
X280315D02*
D03*
X300394Y187740D02*
D03*
X287008D02*
D03*
Y324071D02*
D03*
X293701Y316197D02*
D03*
X307087D02*
D03*
X300394Y324071D02*
D03*
D66*
X226378Y236850D02*
D03*
X236378D02*
D03*
X226378Y226850D02*
D03*
Y285039D02*
D03*
X216378Y275039D02*
D03*
X226378D02*
D03*
D67*
Y246850D02*
D03*
Y265039D02*
D03*
D68*
X409842Y325748D02*
D03*
X422835D02*
D03*
X409842Y186457D02*
D03*
X422835D02*
D03*
D69*
X425197Y224803D02*
D03*
Y267717D02*
D03*
X140157Y236221D02*
D03*
Y279134D02*
D03*
D70*
X425197Y244488D02*
D03*
X140157Y259449D02*
D03*
Y216535D02*
D03*
X425197Y287402D02*
D03*
D71*
X200787Y195276D02*
D03*
X182677D02*
D03*
X164567D02*
D03*
Y168071D02*
D03*
X182677D02*
D03*
X200787D02*
D03*
D72*
X158661Y329134D02*
D03*
D73*
Y305512D02*
D03*
D74*
X294094Y346457D02*
D03*
X127165Y346063D02*
D03*
X127559Y164961D02*
D03*
X294094Y165354D02*
D03*
D75*
X444488Y243701D02*
D03*
Y231890D02*
D03*
Y220079D02*
D03*
Y196457D02*
D03*
Y184646D02*
D03*
Y172835D02*
D03*
Y161024D02*
D03*
X441535Y249606D02*
D03*
X438583Y243701D02*
D03*
X441535Y237795D02*
D03*
X438583Y231890D02*
D03*
X441535Y225984D02*
D03*
X438583Y220079D02*
D03*
X441535Y214173D02*
D03*
X438583Y196457D02*
D03*
X441535Y190551D02*
D03*
X438583Y184646D02*
D03*
Y161024D02*
D03*
X435630Y249606D02*
D03*
X432677Y243701D02*
D03*
X435630Y237795D02*
D03*
X432677Y231890D02*
D03*
X435630Y225984D02*
D03*
X432677Y220079D02*
D03*
X435630Y214173D02*
D03*
X432677Y196457D02*
D03*
X435630Y190551D02*
D03*
X429724Y237795D02*
D03*
X426771Y231890D02*
D03*
X429724Y214173D02*
D03*
Y178740D02*
D03*
X420866Y220079D02*
D03*
X423819Y214173D02*
D03*
Y178740D02*
D03*
X414960Y220079D02*
D03*
X417913Y202362D02*
D03*
X414960Y196457D02*
D03*
X417913Y178740D02*
D03*
X412008D02*
D03*
X403150Y208268D02*
D03*
Y196457D02*
D03*
Y184646D02*
D03*
X406102Y178740D02*
D03*
X397244Y208268D02*
D03*
X400197Y202362D02*
D03*
X397244Y196457D02*
D03*
X400197Y190551D02*
D03*
X397244Y184646D02*
D03*
X391338Y208268D02*
D03*
X394291Y202362D02*
D03*
X391338Y196457D02*
D03*
X394291Y190551D02*
D03*
X391338Y184646D02*
D03*
X394291Y178740D02*
D03*
X391338Y172835D02*
D03*
X385433Y208268D02*
D03*
Y196457D02*
D03*
X388386Y190551D02*
D03*
X385433Y184646D02*
D03*
X388386Y178740D02*
D03*
X379527Y243701D02*
D03*
Y231890D02*
D03*
Y220079D02*
D03*
Y208268D02*
D03*
Y196457D02*
D03*
X382480Y190551D02*
D03*
X379527Y184646D02*
D03*
X382480Y178740D02*
D03*
X376575Y225984D02*
D03*
X373622Y220079D02*
D03*
X376575Y214173D02*
D03*
X373622Y208268D02*
D03*
X376575Y202362D02*
D03*
X373622Y196457D02*
D03*
X376575Y190551D02*
D03*
X373622Y184646D02*
D03*
X376575Y178740D02*
D03*
X370669Y225984D02*
D03*
X367716Y220079D02*
D03*
X370669Y214173D02*
D03*
X367716Y208268D02*
D03*
X370669Y202362D02*
D03*
X367716Y196457D02*
D03*
X370669Y190551D02*
D03*
X367716Y184646D02*
D03*
X370669Y178740D02*
D03*
X367716Y172835D02*
D03*
X370669Y166929D02*
D03*
X367716Y161024D02*
D03*
X364764Y225984D02*
D03*
X361811Y220079D02*
D03*
X364764Y214173D02*
D03*
X361811Y208268D02*
D03*
X364764Y202362D02*
D03*
X361811Y196457D02*
D03*
X364764Y190551D02*
D03*
X361811Y184646D02*
D03*
X364764Y178740D02*
D03*
X361811Y172835D02*
D03*
X364764Y166929D02*
D03*
X361811Y161024D02*
D03*
X358858Y225984D02*
D03*
X355905Y220079D02*
D03*
X358858Y214173D02*
D03*
X355905Y208268D02*
D03*
X358858Y202362D02*
D03*
X355905Y196457D02*
D03*
X358858Y190551D02*
D03*
X355905Y184646D02*
D03*
X358858Y178740D02*
D03*
X355905Y172835D02*
D03*
X358858Y166929D02*
D03*
X355905Y161024D02*
D03*
X352953Y225984D02*
D03*
X350000Y220079D02*
D03*
X352953Y214173D02*
D03*
X350000Y208268D02*
D03*
X352953Y202362D02*
D03*
X350000Y196457D02*
D03*
X352953Y190551D02*
D03*
Y166929D02*
D03*
X350000Y161024D02*
D03*
X344094Y220079D02*
D03*
X347047Y214173D02*
D03*
X344094Y208268D02*
D03*
X347047Y202362D02*
D03*
X344094Y196457D02*
D03*
X347047Y190551D02*
D03*
Y166929D02*
D03*
X344094Y161024D02*
D03*
X341142Y225984D02*
D03*
X338189Y220079D02*
D03*
X341142Y214173D02*
D03*
X338189Y208268D02*
D03*
X341142Y202362D02*
D03*
X338189Y196457D02*
D03*
X341142Y190551D02*
D03*
Y166929D02*
D03*
X338189Y161024D02*
D03*
X335236Y214173D02*
D03*
X332283Y208268D02*
D03*
X335236Y202362D02*
D03*
X332283Y196457D02*
D03*
X335236Y190551D02*
D03*
X332283Y184646D02*
D03*
Y172835D02*
D03*
X335236Y166929D02*
D03*
X332283Y161024D02*
D03*
X329331Y214173D02*
D03*
X326378Y208268D02*
D03*
X329331Y202362D02*
D03*
Y178740D02*
D03*
X326378Y172835D02*
D03*
X329331Y166929D02*
D03*
X326378Y161024D02*
D03*
X323425Y214173D02*
D03*
Y178740D02*
D03*
X320472Y172835D02*
D03*
X323425Y166929D02*
D03*
X320472Y161024D02*
D03*
X317520Y249606D02*
D03*
X314567Y172835D02*
D03*
X317520Y166929D02*
D03*
X314567Y161024D02*
D03*
X311614Y249606D02*
D03*
Y237795D02*
D03*
X308661Y231890D02*
D03*
X311614Y225984D02*
D03*
X308661Y172835D02*
D03*
X311614Y166929D02*
D03*
X308661Y161024D02*
D03*
X302756Y243701D02*
D03*
X305709Y237795D02*
D03*
X302756Y231890D02*
D03*
Y172835D02*
D03*
X305709Y166929D02*
D03*
X302756Y161024D02*
D03*
X296850Y243701D02*
D03*
X299803Y237795D02*
D03*
Y214173D02*
D03*
X290945Y243701D02*
D03*
X293898Y214173D02*
D03*
Y178740D02*
D03*
X287992Y214173D02*
D03*
Y178740D02*
D03*
X285039Y172835D02*
D03*
Y161024D02*
D03*
X282086Y214173D02*
D03*
X279134Y184646D02*
D03*
X282086Y178740D02*
D03*
X279134Y172835D02*
D03*
X282086Y166929D02*
D03*
X279134Y161024D02*
D03*
X276181Y214173D02*
D03*
X273228Y196457D02*
D03*
X276181Y190551D02*
D03*
X273228Y184646D02*
D03*
X276181Y178740D02*
D03*
X273228Y172835D02*
D03*
X276181Y166929D02*
D03*
X273228Y161024D02*
D03*
X270275Y225984D02*
D03*
X267323Y196457D02*
D03*
X270275Y190551D02*
D03*
X267323Y184646D02*
D03*
X270275Y178740D02*
D03*
X267323Y172835D02*
D03*
X270275Y166929D02*
D03*
X267323Y161024D02*
D03*
X261417Y196457D02*
D03*
X264370Y190551D02*
D03*
X261417Y184646D02*
D03*
X264370Y178740D02*
D03*
X261417Y172835D02*
D03*
X264370Y166929D02*
D03*
X261417Y161024D02*
D03*
X255512Y243701D02*
D03*
Y220079D02*
D03*
Y196457D02*
D03*
X258465Y190551D02*
D03*
X255512Y184646D02*
D03*
X258465Y178740D02*
D03*
X255512Y172835D02*
D03*
X258465Y166929D02*
D03*
X255512Y161024D02*
D03*
X249606Y196457D02*
D03*
X252559Y190551D02*
D03*
Y166929D02*
D03*
X249606Y161024D02*
D03*
X243701Y231890D02*
D03*
Y220079D02*
D03*
Y196457D02*
D03*
X246654Y190551D02*
D03*
Y166929D02*
D03*
X243701Y161024D02*
D03*
X240748Y249606D02*
D03*
X237795Y231890D02*
D03*
X240748Y225984D02*
D03*
X237795Y220079D02*
D03*
X240748Y202362D02*
D03*
X237795Y196457D02*
D03*
X240748Y190551D02*
D03*
Y166929D02*
D03*
X237795Y161024D02*
D03*
X231890Y243701D02*
D03*
Y231890D02*
D03*
X234842Y225984D02*
D03*
X231890Y220079D02*
D03*
X234842Y202362D02*
D03*
X231890Y196457D02*
D03*
X234842Y190551D02*
D03*
X231890Y184646D02*
D03*
Y172835D02*
D03*
X234842Y166929D02*
D03*
X231890Y161024D02*
D03*
X225984Y220079D02*
D03*
X228937Y202362D02*
D03*
X225984Y196457D02*
D03*
X228937Y190551D02*
D03*
X225984Y184646D02*
D03*
X228937Y178740D02*
D03*
X225984Y172835D02*
D03*
X228937Y166929D02*
D03*
X225984Y161024D02*
D03*
X220079Y243701D02*
D03*
Y231890D02*
D03*
Y220079D02*
D03*
X223031Y202362D02*
D03*
X220079Y196457D02*
D03*
X223031Y190551D02*
D03*
X220079Y184646D02*
D03*
X223031Y178740D02*
D03*
X220079Y172835D02*
D03*
X223031Y166929D02*
D03*
X217126Y249606D02*
D03*
X214173Y243701D02*
D03*
X217126Y237795D02*
D03*
X214173Y231890D02*
D03*
X217126Y225984D02*
D03*
X214173Y220079D02*
D03*
X217126Y202362D02*
D03*
X214173Y196457D02*
D03*
X217126Y190551D02*
D03*
X214173Y184646D02*
D03*
X217126Y178740D02*
D03*
X214173Y172835D02*
D03*
X217126Y166929D02*
D03*
X211220Y249606D02*
D03*
X208268Y243701D02*
D03*
X211220Y237795D02*
D03*
X208268Y184646D02*
D03*
X211220Y178740D02*
D03*
X205315Y249606D02*
D03*
X202362Y243701D02*
D03*
X205315Y237795D02*
D03*
Y178740D02*
D03*
X199409Y249606D02*
D03*
X196457Y243701D02*
D03*
X199409Y178740D02*
D03*
X193504Y249606D02*
D03*
Y178740D02*
D03*
X187598Y249606D02*
D03*
Y178740D02*
D03*
X444488Y350000D02*
D03*
Y338189D02*
D03*
Y326378D02*
D03*
Y290945D02*
D03*
Y279134D02*
D03*
Y267323D02*
D03*
X438583Y350000D02*
D03*
X441535Y344094D02*
D03*
X438583Y338189D02*
D03*
X441535Y332283D02*
D03*
X438583Y326378D02*
D03*
X441535Y320472D02*
D03*
Y296850D02*
D03*
X438583Y290945D02*
D03*
X441535Y285039D02*
D03*
X438583Y279134D02*
D03*
X441535Y273228D02*
D03*
X438583Y267323D02*
D03*
X441535Y261417D02*
D03*
X435630Y344094D02*
D03*
Y332283D02*
D03*
X432677Y326378D02*
D03*
X435630Y320472D02*
D03*
Y296850D02*
D03*
X432677Y290945D02*
D03*
X435630Y285039D02*
D03*
X432677Y279134D02*
D03*
X435630Y273228D02*
D03*
X432677Y267323D02*
D03*
X435630Y261417D02*
D03*
X429724Y332283D02*
D03*
Y320472D02*
D03*
Y296850D02*
D03*
Y273228D02*
D03*
Y261417D02*
D03*
X423819D02*
D03*
X417913Y332283D02*
D03*
Y308661D02*
D03*
X414960Y302756D02*
D03*
X417913Y261417D02*
D03*
X412008Y332283D02*
D03*
Y261417D02*
D03*
X406102Y332283D02*
D03*
X403150Y326378D02*
D03*
Y314567D02*
D03*
Y302756D02*
D03*
X400197Y332283D02*
D03*
X397244Y326378D02*
D03*
X400197Y320472D02*
D03*
X397244Y314567D02*
D03*
X400197Y308661D02*
D03*
X397244Y302756D02*
D03*
X391338Y350000D02*
D03*
X394291Y332283D02*
D03*
X391338Y326378D02*
D03*
X394291Y320472D02*
D03*
X391338Y314567D02*
D03*
X394291Y308661D02*
D03*
X391338Y302756D02*
D03*
X388386Y332283D02*
D03*
X385433Y326378D02*
D03*
X388386Y320472D02*
D03*
X385433Y314567D02*
D03*
Y302756D02*
D03*
X382480Y332283D02*
D03*
X379527Y326378D02*
D03*
X382480Y320472D02*
D03*
X379527Y314567D02*
D03*
Y302756D02*
D03*
Y290945D02*
D03*
Y279134D02*
D03*
Y267323D02*
D03*
X376575Y332283D02*
D03*
X373622Y326378D02*
D03*
X376575Y320472D02*
D03*
X373622Y314567D02*
D03*
X376575Y308661D02*
D03*
X373622Y302756D02*
D03*
X376575Y296850D02*
D03*
X373622Y290945D02*
D03*
X376575Y285039D02*
D03*
X367716Y350000D02*
D03*
X370669Y344094D02*
D03*
X367716Y338189D02*
D03*
X370669Y332283D02*
D03*
X367716Y326378D02*
D03*
X370669Y320472D02*
D03*
X367716Y314567D02*
D03*
X370669Y308661D02*
D03*
X367716Y302756D02*
D03*
X370669Y296850D02*
D03*
X367716Y290945D02*
D03*
X370669Y285039D02*
D03*
X361811Y350000D02*
D03*
X364764Y344094D02*
D03*
X361811Y338189D02*
D03*
X364764Y332283D02*
D03*
X361811Y326378D02*
D03*
X364764Y320472D02*
D03*
X361811Y314567D02*
D03*
X364764Y308661D02*
D03*
X361811Y302756D02*
D03*
X364764Y296850D02*
D03*
X361811Y290945D02*
D03*
X364764Y285039D02*
D03*
X355905Y350000D02*
D03*
X358858Y344094D02*
D03*
X355905Y338189D02*
D03*
X358858Y332283D02*
D03*
X355905Y326378D02*
D03*
X358858Y320472D02*
D03*
X355905Y314567D02*
D03*
X358858Y308661D02*
D03*
X355905Y302756D02*
D03*
X358858Y296850D02*
D03*
X355905Y290945D02*
D03*
X358858Y285039D02*
D03*
X350000Y350000D02*
D03*
X352953Y344094D02*
D03*
Y320472D02*
D03*
X350000Y314567D02*
D03*
X352953Y308661D02*
D03*
X350000Y302756D02*
D03*
X352953Y296850D02*
D03*
X350000Y290945D02*
D03*
X352953Y285039D02*
D03*
X344094Y350000D02*
D03*
X347047Y344094D02*
D03*
Y320472D02*
D03*
X344094Y314567D02*
D03*
X347047Y308661D02*
D03*
X344094Y302756D02*
D03*
X347047Y296850D02*
D03*
X344094Y290945D02*
D03*
X338189Y350000D02*
D03*
X341142Y344094D02*
D03*
Y320472D02*
D03*
X338189Y314567D02*
D03*
X341142Y308661D02*
D03*
X338189Y302756D02*
D03*
X341142Y296850D02*
D03*
X338189Y290945D02*
D03*
X341142Y285039D02*
D03*
X332283Y350000D02*
D03*
X335236Y344094D02*
D03*
X332283Y338189D02*
D03*
Y326378D02*
D03*
X335236Y320472D02*
D03*
X332283Y314567D02*
D03*
X335236Y308661D02*
D03*
X332283Y302756D02*
D03*
X335236Y296850D02*
D03*
X326378Y350000D02*
D03*
X329331Y344094D02*
D03*
X326378Y338189D02*
D03*
X329331Y332283D02*
D03*
Y320472D02*
D03*
Y308661D02*
D03*
X326378Y302756D02*
D03*
X329331Y296850D02*
D03*
X320472Y350000D02*
D03*
X323425Y344094D02*
D03*
X320472Y338189D02*
D03*
X323425Y332283D02*
D03*
Y296850D02*
D03*
X314567Y350000D02*
D03*
X317520Y344094D02*
D03*
Y296850D02*
D03*
Y261417D02*
D03*
X308661Y350000D02*
D03*
X311614Y344094D02*
D03*
X308661Y326378D02*
D03*
X311614Y320472D02*
D03*
Y285039D02*
D03*
X308661Y279134D02*
D03*
X311614Y273228D02*
D03*
Y261417D02*
D03*
X302756Y350000D02*
D03*
X305709Y344094D02*
D03*
Y308661D02*
D03*
X302756Y302756D02*
D03*
X305709Y285039D02*
D03*
X302756Y279134D02*
D03*
X305709Y273228D02*
D03*
X302756Y267323D02*
D03*
X299803Y308661D02*
D03*
X296850Y302756D02*
D03*
X299803Y273228D02*
D03*
X296850Y267323D02*
D03*
X293898Y296850D02*
D03*
Y273228D02*
D03*
X290945Y267323D02*
D03*
X285039Y350000D02*
D03*
Y338189D02*
D03*
X287992Y308661D02*
D03*
Y296850D02*
D03*
X285039Y267323D02*
D03*
X279134Y350000D02*
D03*
X282086Y344094D02*
D03*
X279134Y338189D02*
D03*
Y267323D02*
D03*
X273228Y350000D02*
D03*
X276181Y344094D02*
D03*
X273228Y338189D02*
D03*
X276181Y332283D02*
D03*
X273228Y326378D02*
D03*
X276181Y296850D02*
D03*
X273228Y267323D02*
D03*
X267323Y350000D02*
D03*
X270275Y344094D02*
D03*
X267323Y338189D02*
D03*
X270275Y332283D02*
D03*
X267323Y326378D02*
D03*
X270275Y296850D02*
D03*
X267323Y267323D02*
D03*
X261417Y350000D02*
D03*
X264370Y344094D02*
D03*
X261417Y338189D02*
D03*
X264370Y332283D02*
D03*
X261417Y326378D02*
D03*
Y267323D02*
D03*
X255512Y350000D02*
D03*
X258465Y344094D02*
D03*
X255512Y338189D02*
D03*
X258465Y332283D02*
D03*
X255512Y326378D02*
D03*
Y290945D02*
D03*
Y279134D02*
D03*
Y267323D02*
D03*
X249606Y350000D02*
D03*
X252559Y344094D02*
D03*
X243701Y350000D02*
D03*
X246654Y344094D02*
D03*
X243701Y290945D02*
D03*
Y267323D02*
D03*
X237795Y350000D02*
D03*
X240748Y344094D02*
D03*
X237795Y290945D02*
D03*
X240748Y285039D02*
D03*
X237795Y267323D02*
D03*
X240748Y261417D02*
D03*
X231890Y350000D02*
D03*
X234842Y344094D02*
D03*
X231890Y338189D02*
D03*
Y326378D02*
D03*
Y290945D02*
D03*
X234842Y285039D02*
D03*
Y261417D02*
D03*
X225984Y350000D02*
D03*
X228937Y344094D02*
D03*
X225984Y338189D02*
D03*
X228937Y332283D02*
D03*
X225984Y326378D02*
D03*
Y290945D02*
D03*
X223031Y344094D02*
D03*
Y332283D02*
D03*
X220079Y326378D02*
D03*
Y290945D02*
D03*
Y279134D02*
D03*
Y267323D02*
D03*
X214173Y326378D02*
D03*
Y290945D02*
D03*
X217126Y285039D02*
D03*
X214173Y267323D02*
D03*
X217126Y261417D02*
D03*
X208268Y350000D02*
D03*
X211220Y344094D02*
D03*
X208268Y338189D02*
D03*
X211220Y332283D02*
D03*
X208268Y326378D02*
D03*
X211220Y285039D02*
D03*
X208268Y279134D02*
D03*
X211220Y273228D02*
D03*
X208268Y267323D02*
D03*
X211220Y261417D02*
D03*
X202362Y350000D02*
D03*
X205315Y344094D02*
D03*
X202362Y338189D02*
D03*
X205315Y332283D02*
D03*
Y285039D02*
D03*
X202362Y279134D02*
D03*
X205315Y273228D02*
D03*
X202362Y267323D02*
D03*
X205315Y261417D02*
D03*
X196457Y350000D02*
D03*
X199409Y344094D02*
D03*
X196457Y338189D02*
D03*
X199409Y332283D02*
D03*
Y273228D02*
D03*
X196457Y267323D02*
D03*
X199409Y261417D02*
D03*
X190551Y350000D02*
D03*
X193504Y344094D02*
D03*
X190551Y338189D02*
D03*
X193504Y332283D02*
D03*
Y273228D02*
D03*
Y261417D02*
D03*
X187598Y344094D02*
D03*
Y332283D02*
D03*
Y261417D02*
D03*
X181693D02*
D03*
X172835Y350000D02*
D03*
X175787Y344094D02*
D03*
X172835Y338189D02*
D03*
X166929Y350000D02*
D03*
X169882Y344094D02*
D03*
X161024Y350000D02*
D03*
X163976Y344094D02*
D03*
X155118Y350000D02*
D03*
X158071Y344094D02*
D03*
X149213Y350000D02*
D03*
X152165Y344094D02*
D03*
X143307Y350000D02*
D03*
X146260Y344094D02*
D03*
X137401Y350000D02*
D03*
X140354Y344094D02*
D03*
X137401Y338189D02*
D03*
Y267323D02*
D03*
X134449Y332283D02*
D03*
X131496Y326378D02*
D03*
X134449Y320472D02*
D03*
X131496Y314567D02*
D03*
X134449Y308661D02*
D03*
X131496Y267323D02*
D03*
Y255512D02*
D03*
X128543Y332283D02*
D03*
X125591Y326378D02*
D03*
X128543Y320472D02*
D03*
X125591Y314567D02*
D03*
X128543Y308661D02*
D03*
Y285039D02*
D03*
X125591Y279134D02*
D03*
X128543Y273228D02*
D03*
X125591Y267323D02*
D03*
X128543Y261417D02*
D03*
X125591Y255512D02*
D03*
M02*
