G04*
G04 #@! TF.GenerationSoftware,Altium Limited,Altium Designer,26.1.1 (7)*
G04*
G04 Layer_Color=65535*
%FSLAX25Y25*%
%MOIN*%
G70*
G04*
G04 #@! TF.SameCoordinates,A27177A8-F1D2-4F34-B952-3273C0BAAD6C*
G04*
G04*
G04 #@! TF.FilePolarity,Positive*
G04*
G01*
G75*
%ADD10C,0.00787*%
%ADD11C,0.00394*%
%ADD12C,0.01000*%
%ADD13C,0.01575*%
%ADD14C,0.00709*%
G36*
X129787Y334123D02*
X129838D01*
X129894Y334118D01*
X129964Y334109D01*
X130033Y334095D01*
X130112Y334081D01*
X132474Y333608D01*
Y332926D01*
X130098Y333399D01*
X130089D01*
X130070Y333404D01*
X130038Y333408D01*
X129996Y333413D01*
X129945Y333422D01*
X129894Y333427D01*
X129792Y333432D01*
X129787D01*
X129773D01*
X129750D01*
X129727Y333427D01*
X129662Y333418D01*
X129592Y333404D01*
X129588D01*
X129578Y333399D01*
X129560Y333390D01*
X129541Y333381D01*
X129495Y333358D01*
X129444Y333320D01*
Y333316D01*
X129435Y333311D01*
X129425Y333297D01*
X129411Y333279D01*
X129384Y333227D01*
X129360Y333163D01*
Y333158D01*
X129356Y333144D01*
X129351Y333121D01*
X129346Y333093D01*
X129342Y333061D01*
X129337Y333019D01*
X129332Y332972D01*
Y332893D01*
X129337Y332861D01*
Y332819D01*
X129342Y332778D01*
X129351Y332726D01*
X129374Y332624D01*
Y332620D01*
X129384Y332601D01*
X129393Y332578D01*
X129407Y332545D01*
X129425Y332508D01*
X129448Y332471D01*
X129481Y332430D01*
X129513Y332392D01*
X129518Y332388D01*
X129532Y332374D01*
X129551Y332355D01*
X129583Y332332D01*
X129615Y332309D01*
X129657Y332276D01*
X129708Y332253D01*
X129759Y332225D01*
X129764Y332221D01*
X129787Y332211D01*
X129820Y332202D01*
X129861Y332184D01*
X129912Y332170D01*
X129973Y332151D01*
X130042Y332133D01*
X130121Y332114D01*
X132474Y331641D01*
Y330954D01*
X130112Y331432D01*
X130107D01*
X130098Y331436D01*
X130079Y331441D01*
X130052Y331446D01*
X130024Y331450D01*
X129987Y331460D01*
X129908Y331483D01*
X129810Y331511D01*
X129713Y331548D01*
X129606Y331590D01*
X129509Y331636D01*
X129504D01*
X129499Y331641D01*
X129486Y331650D01*
X129467Y331659D01*
X129421Y331687D01*
X129360Y331724D01*
X129295Y331775D01*
X129221Y331831D01*
X129151Y331896D01*
X129087Y331965D01*
X129077Y331975D01*
X129059Y332003D01*
X129031Y332044D01*
X128994Y332100D01*
X128957Y332165D01*
X128915Y332244D01*
X128878Y332332D01*
X128845Y332430D01*
Y332434D01*
X128841Y332443D01*
X128836Y332457D01*
X128831Y332476D01*
X128827Y332499D01*
X128822Y332527D01*
X128808Y332601D01*
X128790Y332685D01*
X128780Y332782D01*
X128771Y332893D01*
X128766Y333010D01*
Y333084D01*
X128771Y333112D01*
X128776Y333181D01*
X128780Y333265D01*
X128794Y333348D01*
X128808Y333436D01*
X128831Y333520D01*
X128836Y333529D01*
X128845Y333557D01*
X128859Y333594D01*
X128878Y333645D01*
X128906Y333701D01*
X128938Y333756D01*
X128980Y333817D01*
X129022Y333873D01*
X129026Y333877D01*
X129045Y333896D01*
X129073Y333919D01*
X129105Y333951D01*
X129151Y333984D01*
X129202Y334016D01*
X129258Y334044D01*
X129323Y334072D01*
X129332D01*
X129356Y334081D01*
X129393Y334091D01*
X129439Y334100D01*
X129495Y334109D01*
X129564Y334118D01*
X129639Y334123D01*
X129718Y334128D01*
X129727D01*
X129750D01*
X129787Y334123D01*
D02*
G37*
G36*
X128038Y334671D02*
Y332481D01*
X127458Y332601D01*
Y334095D01*
X126553Y334276D01*
Y332852D01*
X125987Y332963D01*
Y334387D01*
X124976Y334592D01*
Y333098D01*
X124396Y333214D01*
Y335399D01*
X128038Y334671D01*
D02*
G37*
G36*
X120461Y333738D02*
Y333733D01*
X120456Y333719D01*
X120447Y333696D01*
X120438Y333664D01*
X120424Y333627D01*
X120410Y333585D01*
X120382Y333492D01*
Y333487D01*
X120377Y333469D01*
X120368Y333441D01*
X120359Y333408D01*
X120349Y333367D01*
X120340Y333325D01*
X120317Y333227D01*
Y333223D01*
X120312Y333204D01*
X120308Y333176D01*
X120303Y333144D01*
X120298Y333102D01*
X120294Y333056D01*
X120280Y332958D01*
Y332935D01*
X120275Y332907D01*
Y332838D01*
X120271Y332791D01*
Y332620D01*
X120275Y332569D01*
X120280Y332513D01*
X120284Y332448D01*
X120294Y332383D01*
X120308Y332323D01*
Y332313D01*
X120317Y332295D01*
X120326Y332267D01*
X120335Y332230D01*
X120354Y332188D01*
X120373Y332146D01*
X120396Y332105D01*
X120419Y332063D01*
X120424Y332058D01*
X120433Y332044D01*
X120447Y332026D01*
X120465Y332007D01*
X120517Y331956D01*
X120544Y331933D01*
X120577Y331914D01*
X120581Y331910D01*
X120595Y331905D01*
X120614Y331896D01*
X120637Y331887D01*
X120665Y331877D01*
X120697Y331873D01*
X120735Y331863D01*
X120772D01*
X120776D01*
X120790D01*
X120813Y331868D01*
X120841Y331873D01*
X120906Y331891D01*
X120939Y331905D01*
X120971Y331928D01*
X120976Y331933D01*
X120985Y331942D01*
X121004Y331956D01*
X121022Y331975D01*
X121045Y331998D01*
X121073Y332026D01*
X121124Y332100D01*
X121129Y332105D01*
X121138Y332119D01*
X121148Y332137D01*
X121166Y332170D01*
X121185Y332202D01*
X121208Y332244D01*
X121231Y332286D01*
X121254Y332337D01*
X121259Y332341D01*
X121264Y332360D01*
X121277Y332383D01*
X121296Y332420D01*
X121315Y332457D01*
X121338Y332504D01*
X121384Y332606D01*
X121389Y332610D01*
X121393Y332629D01*
X121407Y332657D01*
X121426Y332689D01*
X121449Y332731D01*
X121472Y332773D01*
X121523Y332870D01*
X121528Y332875D01*
X121537Y332893D01*
X121556Y332917D01*
X121574Y332949D01*
X121602Y332986D01*
X121635Y333023D01*
X121704Y333107D01*
X121709Y333112D01*
X121723Y333125D01*
X121746Y333144D01*
X121774Y333167D01*
X121811Y333190D01*
X121853Y333218D01*
X121899Y333246D01*
X121950Y333274D01*
X121955Y333279D01*
X121973Y333283D01*
X122006Y333293D01*
X122043Y333302D01*
X122089Y333316D01*
X122145Y333325D01*
X122210Y333330D01*
X122275Y333334D01*
X122280D01*
X122284D01*
X122312D01*
X122359Y333330D01*
X122414Y333320D01*
X122479Y333311D01*
X122549Y333297D01*
X122623Y333274D01*
X122702Y333242D01*
X122706D01*
X122711Y333237D01*
X122739Y333223D01*
X122776Y333200D01*
X122827Y333172D01*
X122883Y333130D01*
X122948Y333084D01*
X123013Y333023D01*
X123073Y332958D01*
X123082Y332949D01*
X123101Y332921D01*
X123129Y332879D01*
X123166Y332824D01*
X123208Y332754D01*
X123249Y332671D01*
X123296Y332573D01*
X123333Y332467D01*
Y332462D01*
X123338Y332453D01*
X123342Y332434D01*
X123347Y332411D01*
X123356Y332383D01*
X123365Y332351D01*
X123375Y332309D01*
X123384Y332262D01*
X123389Y332216D01*
X123398Y332160D01*
X123416Y332040D01*
X123426Y331901D01*
X123430Y331752D01*
Y331678D01*
X123426Y331641D01*
Y331599D01*
X123416Y331511D01*
Y331492D01*
X123412Y331464D01*
Y331436D01*
X123407Y331399D01*
X123403Y331358D01*
X123393Y331274D01*
Y331270D01*
X123389Y331256D01*
Y331232D01*
X123384Y331205D01*
X123379Y331172D01*
X123370Y331135D01*
X123356Y331056D01*
Y331051D01*
X123352Y331037D01*
X123347Y331019D01*
X123342Y330996D01*
X123328Y330931D01*
X123314Y330866D01*
X122711Y330986D01*
Y330991D01*
X122716Y331000D01*
X122721Y331019D01*
X122725Y331042D01*
X122734Y331070D01*
X122739Y331098D01*
X122758Y331172D01*
Y331177D01*
X122762Y331191D01*
X122767Y331209D01*
X122772Y331237D01*
X122781Y331270D01*
X122785Y331307D01*
X122799Y331385D01*
Y331390D01*
X122804Y331404D01*
Y331427D01*
X122809Y331450D01*
X122813Y331487D01*
X122818Y331520D01*
X122827Y331604D01*
Y331608D01*
X122832Y331622D01*
Y331645D01*
X122836Y331673D01*
Y331706D01*
X122841Y331738D01*
Y331887D01*
X122836Y331933D01*
X122832Y331984D01*
X122827Y332040D01*
X122818Y332100D01*
X122804Y332156D01*
Y332160D01*
X122799Y332179D01*
X122790Y332207D01*
X122781Y332235D01*
X122753Y332313D01*
X122711Y332388D01*
X122706Y332392D01*
X122702Y332402D01*
X122688Y332420D01*
X122669Y332439D01*
X122623Y332485D01*
X122600Y332504D01*
X122567Y332522D01*
X122563D01*
X122553Y332527D01*
X122535Y332536D01*
X122516Y332541D01*
X122461Y332559D01*
X122396Y332564D01*
X122391D01*
X122377D01*
X122359Y332559D01*
X122331Y332555D01*
X122270Y332536D01*
X122243Y332522D01*
X122210Y332504D01*
X122205Y332499D01*
X122196Y332490D01*
X122182Y332476D01*
X122164Y332457D01*
X122141Y332434D01*
X122113Y332406D01*
X122062Y332337D01*
X122057Y332332D01*
X122052Y332318D01*
X122038Y332295D01*
X122020Y332267D01*
X122001Y332230D01*
X121978Y332193D01*
X121932Y332100D01*
X121927Y332095D01*
X121922Y332077D01*
X121908Y332049D01*
X121895Y332016D01*
X121871Y331975D01*
X121853Y331928D01*
X121802Y331826D01*
X121797Y331822D01*
X121792Y331803D01*
X121779Y331775D01*
X121760Y331738D01*
X121737Y331701D01*
X121714Y331655D01*
X121653Y331557D01*
X121649Y331553D01*
X121639Y331534D01*
X121621Y331511D01*
X121602Y331478D01*
X121574Y331441D01*
X121542Y331399D01*
X121468Y331321D01*
X121463Y331316D01*
X121449Y331302D01*
X121426Y331283D01*
X121398Y331260D01*
X121361Y331232D01*
X121319Y331205D01*
X121268Y331177D01*
X121217Y331149D01*
X121212Y331144D01*
X121194Y331139D01*
X121161Y331130D01*
X121124Y331116D01*
X121078Y331102D01*
X121022Y331093D01*
X120962Y331088D01*
X120897Y331084D01*
X120892D01*
X120883D01*
X120869D01*
X120851D01*
X120823Y331088D01*
X120795D01*
X120725Y331098D01*
X120646Y331112D01*
X120558Y331135D01*
X120470Y331163D01*
X120382Y331205D01*
X120377D01*
X120373Y331209D01*
X120345Y331228D01*
X120303Y331256D01*
X120247Y331293D01*
X120187Y331339D01*
X120122Y331399D01*
X120057Y331469D01*
X119992Y331548D01*
Y331553D01*
X119987Y331557D01*
X119978Y331571D01*
X119964Y331590D01*
X119937Y331636D01*
X119904Y331696D01*
X119862Y331775D01*
X119820Y331868D01*
X119783Y331970D01*
X119746Y332086D01*
Y332091D01*
X119742Y332100D01*
X119737Y332119D01*
X119732Y332142D01*
X119728Y332170D01*
X119718Y332207D01*
X119714Y332244D01*
X119704Y332290D01*
X119691Y332392D01*
X119677Y332513D01*
X119667Y332643D01*
X119663Y332787D01*
Y332898D01*
X119667Y332972D01*
X119672Y333061D01*
X119677Y333158D01*
X119700Y333362D01*
Y333376D01*
X119704Y333390D01*
X119709Y333408D01*
X119714Y333459D01*
X119728Y333524D01*
X119746Y333603D01*
X119765Y333687D01*
X119816Y333868D01*
X120461Y333738D01*
D02*
G37*
G36*
X120684Y330564D02*
X120735D01*
X120790Y330559D01*
X120860Y330550D01*
X120929Y330536D01*
X121008Y330522D01*
X123370Y330049D01*
Y329367D01*
X120994Y329840D01*
X120985D01*
X120967Y329845D01*
X120934Y329850D01*
X120892Y329854D01*
X120841Y329864D01*
X120790Y329868D01*
X120688Y329873D01*
X120684D01*
X120670D01*
X120646D01*
X120623Y329868D01*
X120558Y329859D01*
X120489Y329845D01*
X120484D01*
X120475Y329840D01*
X120456Y329831D01*
X120438Y329822D01*
X120391Y329799D01*
X120340Y329762D01*
Y329757D01*
X120331Y329752D01*
X120322Y329738D01*
X120308Y329720D01*
X120280Y329669D01*
X120257Y329604D01*
Y329599D01*
X120252Y329585D01*
X120247Y329562D01*
X120243Y329534D01*
X120238Y329502D01*
X120233Y329460D01*
X120229Y329414D01*
Y329335D01*
X120233Y329302D01*
Y329260D01*
X120238Y329219D01*
X120247Y329168D01*
X120271Y329065D01*
Y329061D01*
X120280Y329042D01*
X120289Y329019D01*
X120303Y328987D01*
X120322Y328949D01*
X120345Y328912D01*
X120377Y328871D01*
X120410Y328834D01*
X120414Y328829D01*
X120428Y328815D01*
X120447Y328796D01*
X120479Y328773D01*
X120512Y328750D01*
X120554Y328717D01*
X120605Y328694D01*
X120656Y328666D01*
X120660Y328662D01*
X120684Y328653D01*
X120716Y328643D01*
X120758Y328625D01*
X120809Y328611D01*
X120869Y328592D01*
X120939Y328574D01*
X121018Y328555D01*
X123370Y328082D01*
Y327395D01*
X121008Y327873D01*
X121004D01*
X120994Y327878D01*
X120976Y327882D01*
X120948Y327887D01*
X120920Y327891D01*
X120883Y327901D01*
X120804Y327924D01*
X120707Y327952D01*
X120609Y327989D01*
X120502Y328031D01*
X120405Y328077D01*
X120401D01*
X120396Y328082D01*
X120382Y328091D01*
X120363Y328100D01*
X120317Y328128D01*
X120257Y328165D01*
X120192Y328216D01*
X120117Y328272D01*
X120048Y328337D01*
X119983Y328407D01*
X119974Y328416D01*
X119955Y328444D01*
X119927Y328485D01*
X119890Y328541D01*
X119853Y328606D01*
X119811Y328685D01*
X119774Y328773D01*
X119742Y328871D01*
Y328875D01*
X119737Y328885D01*
X119732Y328898D01*
X119728Y328917D01*
X119723Y328940D01*
X119718Y328968D01*
X119704Y329042D01*
X119686Y329126D01*
X119677Y329223D01*
X119667Y329335D01*
X119663Y329451D01*
Y329525D01*
X119667Y329553D01*
X119672Y329622D01*
X119677Y329706D01*
X119691Y329789D01*
X119704Y329877D01*
X119728Y329961D01*
X119732Y329970D01*
X119742Y329998D01*
X119755Y330035D01*
X119774Y330086D01*
X119802Y330142D01*
X119834Y330198D01*
X119876Y330258D01*
X119918Y330314D01*
X119923Y330318D01*
X119941Y330337D01*
X119969Y330360D01*
X120001Y330393D01*
X120048Y330425D01*
X120099Y330457D01*
X120155Y330485D01*
X120220Y330513D01*
X120229D01*
X120252Y330522D01*
X120289Y330532D01*
X120335Y330541D01*
X120391Y330550D01*
X120461Y330559D01*
X120535Y330564D01*
X120614Y330569D01*
X120623D01*
X120646D01*
X120684Y330564D01*
D02*
G37*
G36*
X126256Y331330D02*
X128038Y331951D01*
Y331186D01*
X126767Y330778D01*
X128038Y329877D01*
Y329042D01*
X126261Y330379D01*
X124396Y329655D01*
Y330495D01*
X125727Y330935D01*
X124396Y331891D01*
Y332750D01*
X126256Y331330D01*
D02*
G37*
G36*
X129564Y331024D02*
Y331019D01*
X129560Y331005D01*
X129551Y330982D01*
X129541Y330949D01*
X129527Y330912D01*
X129513Y330870D01*
X129486Y330778D01*
Y330773D01*
X129481Y330754D01*
X129472Y330727D01*
X129462Y330694D01*
X129453Y330652D01*
X129444Y330611D01*
X129421Y330513D01*
Y330508D01*
X129416Y330490D01*
X129411Y330462D01*
X129407Y330430D01*
X129402Y330388D01*
X129397Y330342D01*
X129384Y330244D01*
Y330221D01*
X129379Y330193D01*
Y330123D01*
X129374Y330077D01*
Y329905D01*
X129379Y329854D01*
X129384Y329799D01*
X129388Y329734D01*
X129397Y329669D01*
X129411Y329608D01*
Y329599D01*
X129421Y329580D01*
X129430Y329553D01*
X129439Y329516D01*
X129458Y329474D01*
X129476Y329432D01*
X129499Y329390D01*
X129523Y329348D01*
X129527Y329344D01*
X129537Y329330D01*
X129551Y329311D01*
X129569Y329293D01*
X129620Y329242D01*
X129648Y329219D01*
X129681Y329200D01*
X129685Y329195D01*
X129699Y329191D01*
X129718Y329182D01*
X129741Y329172D01*
X129769Y329163D01*
X129801Y329158D01*
X129838Y329149D01*
X129875D01*
X129880D01*
X129894D01*
X129917Y329154D01*
X129945Y329158D01*
X130010Y329177D01*
X130042Y329191D01*
X130075Y329214D01*
X130079Y329219D01*
X130089Y329228D01*
X130107Y329242D01*
X130126Y329260D01*
X130149Y329283D01*
X130177Y329311D01*
X130228Y329386D01*
X130233Y329390D01*
X130242Y329404D01*
X130251Y329423D01*
X130270Y329455D01*
X130288Y329488D01*
X130312Y329530D01*
X130335Y329571D01*
X130358Y329622D01*
X130363Y329627D01*
X130367Y329645D01*
X130381Y329669D01*
X130400Y329706D01*
X130418Y329743D01*
X130441Y329789D01*
X130488Y329891D01*
X130492Y329896D01*
X130497Y329915D01*
X130511Y329942D01*
X130530Y329975D01*
X130553Y330017D01*
X130576Y330058D01*
X130627Y330156D01*
X130632Y330160D01*
X130641Y330179D01*
X130659Y330202D01*
X130678Y330235D01*
X130706Y330272D01*
X130738Y330309D01*
X130808Y330393D01*
X130813Y330397D01*
X130826Y330411D01*
X130850Y330430D01*
X130878Y330453D01*
X130915Y330476D01*
X130956Y330504D01*
X131003Y330532D01*
X131054Y330559D01*
X131059Y330564D01*
X131077Y330569D01*
X131110Y330578D01*
X131147Y330587D01*
X131193Y330601D01*
X131249Y330611D01*
X131314Y330615D01*
X131379Y330620D01*
X131383D01*
X131388D01*
X131416D01*
X131462Y330615D01*
X131518Y330606D01*
X131583Y330597D01*
X131652Y330583D01*
X131727Y330559D01*
X131806Y330527D01*
X131810D01*
X131815Y330522D01*
X131843Y330508D01*
X131880Y330485D01*
X131931Y330457D01*
X131987Y330416D01*
X132052Y330369D01*
X132116Y330309D01*
X132177Y330244D01*
X132186Y330235D01*
X132205Y330207D01*
X132232Y330165D01*
X132270Y330110D01*
X132311Y330040D01*
X132353Y329956D01*
X132399Y329859D01*
X132437Y329752D01*
Y329748D01*
X132441Y329738D01*
X132446Y329720D01*
X132450Y329696D01*
X132460Y329669D01*
X132469Y329636D01*
X132478Y329594D01*
X132488Y329548D01*
X132492Y329502D01*
X132502Y329446D01*
X132520Y329325D01*
X132529Y329186D01*
X132534Y329038D01*
Y328963D01*
X132529Y328926D01*
Y328885D01*
X132520Y328796D01*
Y328778D01*
X132516Y328750D01*
Y328722D01*
X132511Y328685D01*
X132506Y328643D01*
X132497Y328560D01*
Y328555D01*
X132492Y328541D01*
Y328518D01*
X132488Y328490D01*
X132483Y328458D01*
X132474Y328420D01*
X132460Y328342D01*
Y328337D01*
X132455Y328323D01*
X132450Y328305D01*
X132446Y328281D01*
X132432Y328216D01*
X132418Y328151D01*
X131815Y328272D01*
Y328277D01*
X131819Y328286D01*
X131824Y328305D01*
X131829Y328328D01*
X131838Y328356D01*
X131843Y328383D01*
X131861Y328458D01*
Y328462D01*
X131866Y328476D01*
X131871Y328495D01*
X131875Y328523D01*
X131885Y328555D01*
X131889Y328592D01*
X131903Y328671D01*
Y328676D01*
X131908Y328690D01*
Y328713D01*
X131912Y328736D01*
X131917Y328773D01*
X131922Y328806D01*
X131931Y328889D01*
Y328894D01*
X131936Y328908D01*
Y328931D01*
X131940Y328959D01*
Y328991D01*
X131945Y329024D01*
Y329172D01*
X131940Y329219D01*
X131936Y329270D01*
X131931Y329325D01*
X131922Y329386D01*
X131908Y329441D01*
Y329446D01*
X131903Y329465D01*
X131894Y329492D01*
X131885Y329520D01*
X131857Y329599D01*
X131815Y329673D01*
X131810Y329678D01*
X131806Y329687D01*
X131792Y329706D01*
X131773Y329724D01*
X131727Y329771D01*
X131703Y329789D01*
X131671Y329808D01*
X131666D01*
X131657Y329813D01*
X131639Y329822D01*
X131620Y329826D01*
X131564Y329845D01*
X131499Y329850D01*
X131495D01*
X131481D01*
X131462Y329845D01*
X131434Y329840D01*
X131374Y329822D01*
X131346Y329808D01*
X131314Y329789D01*
X131309Y329785D01*
X131300Y329775D01*
X131286Y329762D01*
X131267Y329743D01*
X131244Y329720D01*
X131216Y329692D01*
X131165Y329622D01*
X131161Y329618D01*
X131156Y329604D01*
X131142Y329580D01*
X131123Y329553D01*
X131105Y329516D01*
X131082Y329478D01*
X131035Y329386D01*
X131031Y329381D01*
X131026Y329362D01*
X131012Y329335D01*
X130998Y329302D01*
X130975Y329260D01*
X130956Y329214D01*
X130905Y329112D01*
X130901Y329107D01*
X130896Y329089D01*
X130882Y329061D01*
X130864Y329024D01*
X130841Y328987D01*
X130817Y328940D01*
X130757Y328843D01*
X130752Y328838D01*
X130743Y328819D01*
X130725Y328796D01*
X130706Y328764D01*
X130678Y328727D01*
X130646Y328685D01*
X130571Y328606D01*
X130567Y328602D01*
X130553Y328588D01*
X130530Y328569D01*
X130502Y328546D01*
X130465Y328518D01*
X130423Y328490D01*
X130372Y328462D01*
X130321Y328434D01*
X130316Y328430D01*
X130298Y328425D01*
X130265Y328416D01*
X130228Y328402D01*
X130182Y328388D01*
X130126Y328379D01*
X130066Y328374D01*
X130001Y328369D01*
X129996D01*
X129987D01*
X129973D01*
X129954D01*
X129926Y328374D01*
X129899D01*
X129829Y328383D01*
X129750Y328397D01*
X129662Y328420D01*
X129574Y328448D01*
X129486Y328490D01*
X129481D01*
X129476Y328495D01*
X129448Y328513D01*
X129407Y328541D01*
X129351Y328578D01*
X129291Y328625D01*
X129226Y328685D01*
X129161Y328755D01*
X129096Y328834D01*
Y328838D01*
X129091Y328843D01*
X129082Y328857D01*
X129068Y328875D01*
X129040Y328922D01*
X129008Y328982D01*
X128966Y329061D01*
X128924Y329154D01*
X128887Y329256D01*
X128850Y329372D01*
Y329376D01*
X128845Y329386D01*
X128841Y329404D01*
X128836Y329427D01*
X128831Y329455D01*
X128822Y329492D01*
X128817Y329530D01*
X128808Y329576D01*
X128794Y329678D01*
X128780Y329799D01*
X128771Y329928D01*
X128766Y330072D01*
Y330184D01*
X128771Y330258D01*
X128776Y330346D01*
X128780Y330444D01*
X128804Y330648D01*
Y330662D01*
X128808Y330676D01*
X128813Y330694D01*
X128817Y330745D01*
X128831Y330810D01*
X128850Y330889D01*
X128868Y330973D01*
X128919Y331153D01*
X129564Y331024D01*
D02*
G37*
G36*
X128038Y328690D02*
Y325989D01*
X127467Y326110D01*
Y327112D01*
X124396Y327720D01*
Y328420D01*
X127467Y327813D01*
Y328806D01*
X128038Y328690D01*
D02*
G37*
G36*
X134590Y329645D02*
X134664D01*
X134752Y329641D01*
X134849Y329631D01*
X134951Y329618D01*
X135063Y329604D01*
X135067D01*
X135077Y329599D01*
X135091D01*
X135114Y329594D01*
X135142Y329590D01*
X135170Y329585D01*
X135248Y329567D01*
X135337Y329548D01*
X135434Y329525D01*
X135536Y329492D01*
X135643Y329460D01*
X135647D01*
X135657Y329455D01*
X135671Y329451D01*
X135689Y329441D01*
X135717Y329432D01*
X135745Y329423D01*
X135815Y329390D01*
X135898Y329358D01*
X135986Y329316D01*
X136084Y329265D01*
X136177Y329214D01*
X136181D01*
X136186Y329205D01*
X136200Y329200D01*
X136218Y329186D01*
X136265Y329154D01*
X136325Y329112D01*
X136395Y329056D01*
X136464Y328996D01*
X136543Y328926D01*
X136613Y328852D01*
Y328847D01*
X136622Y328843D01*
X136645Y328815D01*
X136678Y328773D01*
X136724Y328713D01*
X136770Y328643D01*
X136821Y328564D01*
X136868Y328471D01*
X136914Y328374D01*
Y328369D01*
X136919Y328360D01*
X136924Y328346D01*
X136933Y328328D01*
X136942Y328300D01*
X136951Y328272D01*
X136975Y328198D01*
X136993Y328110D01*
X137012Y328008D01*
X137026Y327891D01*
X137030Y327771D01*
Y327715D01*
X137026Y327678D01*
X137021Y327627D01*
X137012Y327576D01*
X137002Y327511D01*
X136993Y327446D01*
X136951Y327307D01*
X136928Y327233D01*
X136896Y327158D01*
X136863Y327089D01*
X136817Y327019D01*
X136770Y326954D01*
X136715Y326894D01*
X136710Y326889D01*
X136701Y326880D01*
X136682Y326866D01*
X136654Y326848D01*
X136622Y326824D01*
X136585Y326797D01*
X136538Y326769D01*
X136483Y326741D01*
X136422Y326713D01*
X136353Y326685D01*
X136278Y326657D01*
X136195Y326634D01*
X136107Y326616D01*
X136014Y326602D01*
X135912Y326592D01*
X135801Y326588D01*
X135796D01*
X135787D01*
X135773D01*
X135754D01*
X135726D01*
X135699Y326592D01*
X135624D01*
X135536Y326602D01*
X135439Y326611D01*
X135337Y326620D01*
X135225Y326639D01*
X135221D01*
X135211D01*
X135197Y326643D01*
X135174Y326648D01*
X135146Y326653D01*
X135119Y326657D01*
X135040Y326676D01*
X134951Y326694D01*
X134854Y326718D01*
X134752Y326750D01*
X134645Y326783D01*
X134641D01*
X134631Y326787D01*
X134617Y326792D01*
X134599Y326801D01*
X134571Y326810D01*
X134543Y326820D01*
X134474Y326852D01*
X134390Y326885D01*
X134302Y326931D01*
X134204Y326977D01*
X134112Y327033D01*
X134107D01*
X134102Y327038D01*
X134089Y327047D01*
X134070Y327061D01*
X134023Y327089D01*
X133963Y327135D01*
X133894Y327186D01*
X133819Y327247D01*
X133745Y327316D01*
X133671Y327390D01*
X133662Y327400D01*
X133638Y327428D01*
X133606Y327469D01*
X133564Y327530D01*
X133518Y327599D01*
X133467Y327678D01*
X133420Y327771D01*
X133374Y327868D01*
Y327873D01*
X133369Y327882D01*
X133365Y327896D01*
X133355Y327915D01*
X133346Y327943D01*
X133337Y327970D01*
X133318Y328045D01*
X133300Y328133D01*
X133281Y328235D01*
X133267Y328351D01*
X133263Y328471D01*
Y328527D01*
X133267Y328564D01*
X133272Y328615D01*
X133281Y328666D01*
X133290Y328731D01*
X133300Y328796D01*
X133337Y328936D01*
X133365Y329010D01*
X133393Y329084D01*
X133430Y329154D01*
X133471Y329223D01*
X133518Y329288D01*
X133573Y329348D01*
X133578Y329353D01*
X133587Y329362D01*
X133606Y329376D01*
X133634Y329395D01*
X133666Y329418D01*
X133703Y329446D01*
X133750Y329469D01*
X133805Y329497D01*
X133866Y329530D01*
X133935Y329553D01*
X134010Y329580D01*
X134093Y329604D01*
X134181Y329622D01*
X134279Y329636D01*
X134381Y329645D01*
X134487Y329650D01*
X134492D01*
X134501D01*
X134515D01*
X134534D01*
X134562D01*
X134590Y329645D01*
D02*
G37*
G36*
X132474Y327066D02*
Y324875D01*
X131894Y324996D01*
Y326490D01*
X130989Y326671D01*
Y325247D01*
X130423Y325358D01*
Y326783D01*
X129411Y326987D01*
Y325493D01*
X128831Y325609D01*
Y327794D01*
X132474Y327066D01*
D02*
G37*
G36*
X123370Y326778D02*
Y325660D01*
X123365Y325623D01*
X123361Y325539D01*
X123352Y325446D01*
X123338Y325344D01*
X123319Y325242D01*
X123291Y325149D01*
Y325145D01*
X123287Y325140D01*
X123282Y325126D01*
X123277Y325108D01*
X123259Y325066D01*
X123235Y325006D01*
X123208Y324945D01*
X123171Y324880D01*
X123129Y324815D01*
X123082Y324755D01*
X123078Y324750D01*
X123059Y324732D01*
X123036Y324704D01*
X122999Y324671D01*
X122957Y324634D01*
X122906Y324597D01*
X122846Y324565D01*
X122785Y324537D01*
X122776Y324532D01*
X122758Y324528D01*
X122725Y324514D01*
X122679Y324500D01*
X122628Y324490D01*
X122572Y324477D01*
X122507Y324472D01*
X122442Y324467D01*
X122437D01*
X122428D01*
X122414D01*
X122391D01*
X122363Y324472D01*
X122331D01*
X122257Y324481D01*
X122168Y324495D01*
X122066Y324514D01*
X121964Y324537D01*
X121857Y324574D01*
X121853D01*
X121844Y324579D01*
X121830Y324583D01*
X121811Y324592D01*
X121760Y324620D01*
X121690Y324653D01*
X121616Y324699D01*
X121533Y324755D01*
X121449Y324820D01*
X121366Y324894D01*
Y324899D01*
X121356Y324903D01*
X121347Y324917D01*
X121328Y324931D01*
X121291Y324978D01*
X121245Y325043D01*
X121189Y325121D01*
X121129Y325214D01*
X121073Y325321D01*
X121022Y325437D01*
Y325442D01*
X121018Y325451D01*
X121013Y325469D01*
X121004Y325493D01*
X120994Y325525D01*
X120981Y325562D01*
X120971Y325604D01*
X120962Y325655D01*
X120948Y325711D01*
X120939Y325766D01*
X120915Y325901D01*
X120902Y326045D01*
X120897Y326207D01*
Y326592D01*
X119728Y326824D01*
Y327506D01*
X123370Y326778D01*
D02*
G37*
G36*
X136970Y325906D02*
Y325103D01*
X134780Y324546D01*
X134353Y324458D01*
X135963Y324138D01*
X136970Y323929D01*
Y323303D01*
X133327Y324036D01*
Y324838D01*
X135499Y325381D01*
X135968Y325488D01*
X134455Y325794D01*
X133327Y326017D01*
Y326634D01*
X136970Y325906D01*
D02*
G37*
G36*
X128038Y325261D02*
Y323071D01*
X127458Y323191D01*
Y324685D01*
X126553Y324866D01*
Y323442D01*
X125987Y323553D01*
Y324978D01*
X124976Y325182D01*
Y323688D01*
X124396Y323804D01*
Y325989D01*
X128038Y325261D01*
D02*
G37*
G36*
X136970Y322500D02*
Y321804D01*
X133917Y322416D01*
Y320881D01*
X133327Y320996D01*
Y323228D01*
X136970Y322500D01*
D02*
G37*
G36*
X123370Y323641D02*
Y322523D01*
X123365Y322486D01*
X123361Y322402D01*
X123352Y322310D01*
X123338Y322207D01*
X123319Y322106D01*
X123291Y322013D01*
Y322008D01*
X123287Y322003D01*
X123282Y321989D01*
X123277Y321971D01*
X123259Y321929D01*
X123235Y321869D01*
X123208Y321809D01*
X123171Y321743D01*
X123129Y321679D01*
X123082Y321618D01*
X123078Y321614D01*
X123059Y321595D01*
X123036Y321567D01*
X122999Y321535D01*
X122957Y321498D01*
X122906Y321461D01*
X122846Y321428D01*
X122785Y321400D01*
X122776Y321395D01*
X122758Y321391D01*
X122725Y321377D01*
X122679Y321363D01*
X122628Y321354D01*
X122572Y321340D01*
X122507Y321335D01*
X122442Y321331D01*
X122437D01*
X122428D01*
X122414D01*
X122391D01*
X122363Y321335D01*
X122331D01*
X122257Y321344D01*
X122168Y321358D01*
X122066Y321377D01*
X121964Y321400D01*
X121857Y321437D01*
X121853D01*
X121844Y321442D01*
X121830Y321447D01*
X121811Y321456D01*
X121760Y321484D01*
X121690Y321516D01*
X121616Y321563D01*
X121533Y321618D01*
X121449Y321683D01*
X121366Y321758D01*
Y321762D01*
X121356Y321767D01*
X121347Y321781D01*
X121328Y321795D01*
X121291Y321841D01*
X121245Y321906D01*
X121189Y321985D01*
X121129Y322078D01*
X121073Y322184D01*
X121022Y322300D01*
Y322305D01*
X121018Y322314D01*
X121013Y322333D01*
X121004Y322356D01*
X120994Y322389D01*
X120981Y322426D01*
X120971Y322467D01*
X120962Y322518D01*
X120948Y322574D01*
X120939Y322630D01*
X120915Y322764D01*
X120902Y322908D01*
X120897Y323071D01*
Y323456D01*
X119728Y323688D01*
Y324370D01*
X123370Y323641D01*
D02*
G37*
G36*
X128038Y322277D02*
Y321140D01*
X128033Y321075D01*
X128029Y321006D01*
X128019Y320927D01*
X128005Y320843D01*
X127991Y320764D01*
Y320755D01*
X127982Y320727D01*
X127973Y320690D01*
X127959Y320639D01*
X127940Y320584D01*
X127917Y320523D01*
X127885Y320463D01*
X127852Y320403D01*
X127848Y320398D01*
X127834Y320379D01*
X127815Y320352D01*
X127787Y320314D01*
X127750Y320277D01*
X127708Y320240D01*
X127662Y320203D01*
X127606Y320171D01*
X127602Y320166D01*
X127578Y320157D01*
X127546Y320143D01*
X127504Y320129D01*
X127453Y320115D01*
X127388Y320101D01*
X127319Y320092D01*
X127240Y320087D01*
X127235D01*
X127231D01*
X127203D01*
X127161Y320092D01*
X127105Y320096D01*
X127045Y320106D01*
X126975Y320115D01*
X126901Y320133D01*
X126827Y320157D01*
X126818Y320161D01*
X126794Y320171D01*
X126757Y320184D01*
X126711Y320203D01*
X126660Y320231D01*
X126604Y320268D01*
X126544Y320305D01*
X126484Y320352D01*
X126479Y320356D01*
X126460Y320375D01*
X126428Y320403D01*
X126395Y320440D01*
X126354Y320486D01*
X126312Y320537D01*
X126270Y320598D01*
X126228Y320662D01*
X126224Y320672D01*
X126214Y320695D01*
X126196Y320732D01*
X126173Y320783D01*
X126149Y320843D01*
X126131Y320913D01*
X126108Y320992D01*
X126089Y321075D01*
Y321071D01*
X126080Y321061D01*
X126061Y321034D01*
X126029Y320992D01*
X125987Y320950D01*
X125982Y320946D01*
X125978Y320941D01*
X125964Y320927D01*
X125945Y320913D01*
X125899Y320876D01*
X125834Y320839D01*
X125829Y320834D01*
X125815Y320830D01*
X125797Y320820D01*
X125769Y320806D01*
X125736Y320792D01*
X125699Y320774D01*
X125653Y320760D01*
X125607Y320741D01*
X125602Y320737D01*
X125583Y320732D01*
X125556Y320723D01*
X125518Y320709D01*
X125472Y320695D01*
X125421Y320676D01*
X125361Y320653D01*
X125296Y320635D01*
X124396Y320384D01*
Y321159D01*
X125300Y321382D01*
X125310D01*
X125333Y321391D01*
X125365Y321395D01*
X125407Y321410D01*
X125453Y321423D01*
X125500Y321437D01*
X125551Y321456D01*
X125597Y321474D01*
X125602D01*
X125616Y321484D01*
X125639Y321493D01*
X125667Y321507D01*
X125727Y321544D01*
X125755Y321567D01*
X125783Y321590D01*
X125787Y321595D01*
X125792Y321600D01*
X125806Y321614D01*
X125820Y321632D01*
X125853Y321679D01*
X125876Y321734D01*
Y321739D01*
X125880Y321748D01*
X125885Y321767D01*
X125890Y321785D01*
X125894Y321813D01*
X125899Y321846D01*
X125903Y321915D01*
Y322022D01*
X124396Y322323D01*
Y323006D01*
X128038Y322277D01*
D02*
G37*
G36*
X123370Y320333D02*
Y319637D01*
X120317Y320250D01*
Y318714D01*
X119728Y318830D01*
Y321061D01*
X123370Y320333D01*
D02*
G37*
G36*
X136970Y319168D02*
X135842Y318848D01*
X135290Y318714D01*
X135856Y318347D01*
X136970Y317577D01*
Y316807D01*
X134617Y318482D01*
X133327Y318732D01*
Y319428D01*
X134608Y319168D01*
X136970Y319883D01*
Y319168D01*
D02*
G37*
G36*
X130093Y321627D02*
X130168D01*
X130256Y321623D01*
X130353Y321614D01*
X130455Y321600D01*
X130567Y321586D01*
X130571D01*
X130581Y321581D01*
X130595D01*
X130618Y321576D01*
X130646Y321572D01*
X130673Y321567D01*
X130752Y321549D01*
X130841Y321530D01*
X130938Y321507D01*
X131040Y321474D01*
X131147Y321442D01*
X131151D01*
X131161Y321437D01*
X131175Y321433D01*
X131193Y321423D01*
X131221Y321414D01*
X131249Y321405D01*
X131318Y321372D01*
X131402Y321340D01*
X131490Y321298D01*
X131588Y321247D01*
X131680Y321196D01*
X131685D01*
X131690Y321187D01*
X131703Y321182D01*
X131722Y321168D01*
X131769Y321136D01*
X131829Y321094D01*
X131898Y321038D01*
X131968Y320978D01*
X132047Y320908D01*
X132116Y320834D01*
Y320830D01*
X132126Y320825D01*
X132149Y320797D01*
X132181Y320755D01*
X132228Y320695D01*
X132274Y320625D01*
X132325Y320546D01*
X132372Y320454D01*
X132418Y320356D01*
Y320352D01*
X132423Y320342D01*
X132427Y320328D01*
X132437Y320310D01*
X132446Y320282D01*
X132455Y320254D01*
X132478Y320180D01*
X132497Y320092D01*
X132516Y319990D01*
X132529Y319874D01*
X132534Y319753D01*
Y319697D01*
X132529Y319660D01*
X132525Y319609D01*
X132516Y319558D01*
X132506Y319493D01*
X132497Y319428D01*
X132455Y319289D01*
X132432Y319215D01*
X132399Y319141D01*
X132367Y319071D01*
X132321Y319001D01*
X132274Y318936D01*
X132219Y318876D01*
X132214Y318871D01*
X132205Y318862D01*
X132186Y318848D01*
X132158Y318830D01*
X132126Y318806D01*
X132089Y318779D01*
X132042Y318751D01*
X131987Y318723D01*
X131926Y318695D01*
X131857Y318667D01*
X131782Y318639D01*
X131699Y318616D01*
X131611Y318598D01*
X131518Y318584D01*
X131416Y318574D01*
X131305Y318570D01*
X131300D01*
X131291D01*
X131277D01*
X131258D01*
X131230D01*
X131202Y318574D01*
X131128D01*
X131040Y318584D01*
X130943Y318593D01*
X130841Y318602D01*
X130729Y318621D01*
X130725D01*
X130715D01*
X130701Y318625D01*
X130678Y318630D01*
X130650Y318635D01*
X130622Y318639D01*
X130543Y318658D01*
X130455Y318676D01*
X130358Y318700D01*
X130256Y318732D01*
X130149Y318765D01*
X130145D01*
X130135Y318769D01*
X130121Y318774D01*
X130103Y318783D01*
X130075Y318793D01*
X130047Y318802D01*
X129977Y318834D01*
X129894Y318867D01*
X129806Y318913D01*
X129708Y318959D01*
X129615Y319015D01*
X129611D01*
X129606Y319020D01*
X129592Y319029D01*
X129574Y319043D01*
X129527Y319071D01*
X129467Y319117D01*
X129397Y319168D01*
X129323Y319229D01*
X129249Y319298D01*
X129175Y319373D01*
X129165Y319382D01*
X129142Y319410D01*
X129110Y319451D01*
X129068Y319512D01*
X129022Y319581D01*
X128971Y319660D01*
X128924Y319753D01*
X128878Y319850D01*
Y319855D01*
X128873Y319864D01*
X128868Y319878D01*
X128859Y319897D01*
X128850Y319925D01*
X128841Y319953D01*
X128822Y320027D01*
X128804Y320115D01*
X128785Y320217D01*
X128771Y320333D01*
X128766Y320454D01*
Y320509D01*
X128771Y320546D01*
X128776Y320598D01*
X128785Y320649D01*
X128794Y320713D01*
X128804Y320778D01*
X128841Y320918D01*
X128868Y320992D01*
X128896Y321066D01*
X128933Y321136D01*
X128975Y321205D01*
X129022Y321270D01*
X129077Y321331D01*
X129082Y321335D01*
X129091Y321344D01*
X129110Y321358D01*
X129138Y321377D01*
X129170Y321400D01*
X129207Y321428D01*
X129254Y321451D01*
X129309Y321479D01*
X129370Y321512D01*
X129439Y321535D01*
X129513Y321563D01*
X129597Y321586D01*
X129685Y321604D01*
X129782Y321618D01*
X129885Y321627D01*
X129991Y321632D01*
X129996D01*
X130005D01*
X130019D01*
X130038D01*
X130066D01*
X130093Y321627D01*
D02*
G37*
G36*
X123370Y317002D02*
X122243Y316681D01*
X121690Y316547D01*
X122257Y316180D01*
X123370Y315410D01*
Y314640D01*
X121018Y316315D01*
X119728Y316565D01*
Y317261D01*
X121008Y317002D01*
X123370Y317716D01*
Y317002D01*
D02*
G37*
G36*
X128038Y319219D02*
Y318417D01*
X125848Y317860D01*
X125421Y317772D01*
X127031Y317452D01*
X128038Y317243D01*
Y316616D01*
X124396Y317350D01*
Y318152D01*
X126567Y318695D01*
X127036Y318802D01*
X125523Y319108D01*
X124396Y319331D01*
Y319948D01*
X128038Y319219D01*
D02*
G37*
G36*
X132474Y317888D02*
Y317085D01*
X130284Y316528D01*
X129857Y316440D01*
X131467Y316120D01*
X132474Y315911D01*
Y315285D01*
X128831Y316018D01*
Y316821D01*
X131003Y317363D01*
X131472Y317470D01*
X129959Y317776D01*
X128831Y317999D01*
Y318616D01*
X132474Y317888D01*
D02*
G37*
G36*
X128038Y315275D02*
Y314315D01*
X124396Y313967D01*
Y314691D01*
X125115Y314746D01*
Y316022D01*
X124396Y316370D01*
Y317080D01*
X128038Y315275D01*
D02*
G37*
G36*
X120145Y314139D02*
X120206Y314129D01*
X120271Y314106D01*
X120275D01*
X120284Y314097D01*
X120303Y314088D01*
X120322Y314078D01*
X120373Y314041D01*
X120419Y313999D01*
X120424Y313995D01*
X120428Y313985D01*
X120442Y313971D01*
X120456Y313953D01*
X120489Y313907D01*
X120517Y313846D01*
Y313842D01*
X120521Y313832D01*
X120530Y313814D01*
X120535Y313791D01*
X120549Y313730D01*
X120554Y313661D01*
Y313628D01*
X120549Y313605D01*
X120540Y313549D01*
X120517Y313489D01*
Y313484D01*
X120512Y313475D01*
X120502Y313461D01*
X120493Y313443D01*
X120465Y313401D01*
X120424Y313354D01*
X120419Y313350D01*
X120414Y313345D01*
X120387Y313322D01*
X120345Y313294D01*
X120289Y313266D01*
X120284D01*
X120275Y313262D01*
X120261Y313257D01*
X120243Y313248D01*
X120192Y313238D01*
X120127Y313234D01*
X120122D01*
X120108D01*
X120090D01*
X120066Y313238D01*
X120006Y313252D01*
X119941Y313276D01*
X119937D01*
X119927Y313285D01*
X119913Y313294D01*
X119890Y313303D01*
X119844Y313340D01*
X119793Y313387D01*
X119788Y313391D01*
X119783Y313401D01*
X119774Y313415D01*
X119760Y313433D01*
X119728Y313484D01*
X119700Y313545D01*
Y313549D01*
X119695Y313559D01*
X119691Y313577D01*
X119681Y313600D01*
X119667Y313656D01*
X119663Y313726D01*
Y313758D01*
X119667Y313781D01*
X119677Y313837D01*
X119695Y313897D01*
Y313902D01*
X119700Y313911D01*
X119709Y313925D01*
X119718Y313939D01*
X119746Y313985D01*
X119783Y314027D01*
X119788D01*
X119793Y314036D01*
X119825Y314060D01*
X119867Y314088D01*
X119918Y314115D01*
X119923D01*
X119932Y314120D01*
X119946Y314125D01*
X119969Y314129D01*
X120020Y314139D01*
X120085Y314143D01*
X120090D01*
X120104D01*
X120122D01*
X120145Y314139D01*
D02*
G37*
G36*
X123667Y313373D02*
Y312589D01*
X120855Y313257D01*
Y313837D01*
X123667Y313373D01*
D02*
G37*
G36*
X132474Y314519D02*
Y312329D01*
X131894Y312450D01*
Y313944D01*
X130989Y314125D01*
Y312700D01*
X130423Y312811D01*
Y314236D01*
X129411Y314440D01*
Y312946D01*
X128831Y313062D01*
Y315248D01*
X132474Y314519D01*
D02*
G37*
G36*
X128038Y312677D02*
Y311981D01*
X124985Y312594D01*
Y311058D01*
X124396Y311174D01*
Y313405D01*
X128038Y312677D01*
D02*
G37*
G36*
X409107Y296337D02*
X409329Y296115D01*
X409449Y295826D01*
Y295669D01*
Y258661D01*
Y258505D01*
X409329Y258215D01*
X409107Y257994D01*
X408818Y257874D01*
X402206D01*
X401916Y257994D01*
X401695Y258215D01*
X401575Y258505D01*
Y258661D01*
Y295669D01*
Y295826D01*
X401695Y296115D01*
X401916Y296337D01*
X402206Y296457D01*
X408818D01*
X409107Y296337D01*
D02*
G37*
G36*
X164619Y288857D02*
X164841Y288635D01*
X164961Y288346D01*
Y288189D01*
Y251181D01*
Y251025D01*
X164841Y250735D01*
X164619Y250514D01*
X164330Y250394D01*
X157717D01*
X157428Y250514D01*
X157206Y250735D01*
X157087Y251025D01*
Y251181D01*
Y288189D01*
Y288346D01*
X157206Y288635D01*
X157428Y288857D01*
X157717Y288976D01*
X164330D01*
X164619Y288857D01*
D02*
G37*
G36*
X409107Y253423D02*
X409329Y253202D01*
X409449Y252912D01*
Y252756D01*
Y215748D01*
Y215591D01*
X409329Y215302D01*
X409107Y215080D01*
X408818Y214961D01*
X402206D01*
X401916Y215080D01*
X401695Y215302D01*
X401575Y215591D01*
Y215748D01*
Y252756D01*
Y252912D01*
X401695Y253202D01*
X401916Y253423D01*
X402206Y253543D01*
X408818D01*
X409107Y253423D01*
D02*
G37*
G36*
X164619Y245943D02*
X164841Y245722D01*
X164961Y245432D01*
Y245276D01*
Y208268D01*
Y208111D01*
X164841Y207822D01*
X164619Y207600D01*
X164330Y207480D01*
X157717D01*
X157428Y207600D01*
X157206Y207822D01*
X157087Y208111D01*
Y208268D01*
Y245276D01*
Y245432D01*
X157206Y245722D01*
X157428Y245943D01*
X157717Y246063D01*
X164330D01*
X164619Y245943D01*
D02*
G37*
G36*
X139780Y202482D02*
Y201579D01*
X142598Y201008D01*
Y201911D01*
X143226Y201786D01*
Y199202D01*
X142598Y199331D01*
Y200235D01*
X139780Y200800D01*
Y199902D01*
X139152Y200027D01*
Y202601D01*
X139780Y202482D01*
D02*
G37*
G36*
X143226Y198428D02*
Y197531D01*
X140776Y196908D01*
X140299Y196809D01*
X142100Y196451D01*
X143226Y196218D01*
Y195517D01*
X139152Y196337D01*
Y197235D01*
X141581Y197842D01*
X142105Y197961D01*
X140413Y198304D01*
X139152Y198553D01*
Y199243D01*
X143226Y198428D01*
D02*
G37*
G36*
Y194811D02*
Y193560D01*
X143221Y193519D01*
X143216Y193425D01*
X143205Y193322D01*
X143190Y193207D01*
X143169Y193093D01*
X143138Y192989D01*
Y192984D01*
X143132Y192979D01*
X143127Y192963D01*
X143122Y192943D01*
X143101Y192896D01*
X143075Y192828D01*
X143044Y192761D01*
X143003Y192688D01*
X142956Y192616D01*
X142904Y192548D01*
X142899Y192543D01*
X142878Y192522D01*
X142852Y192491D01*
X142811Y192455D01*
X142764Y192413D01*
X142707Y192372D01*
X142640Y192335D01*
X142572Y192304D01*
X142562Y192299D01*
X142541Y192294D01*
X142505Y192278D01*
X142453Y192263D01*
X142395Y192252D01*
X142333Y192237D01*
X142261Y192232D01*
X142188Y192226D01*
X142183D01*
X142172D01*
X142157D01*
X142131D01*
X142100Y192232D01*
X142063D01*
X141980Y192242D01*
X141882Y192257D01*
X141768Y192278D01*
X141653Y192304D01*
X141534Y192346D01*
X141529D01*
X141518Y192351D01*
X141503Y192356D01*
X141482Y192367D01*
X141425Y192398D01*
X141347Y192434D01*
X141264Y192486D01*
X141171Y192548D01*
X141077Y192621D01*
X140984Y192704D01*
Y192709D01*
X140973Y192714D01*
X140963Y192730D01*
X140942Y192745D01*
X140901Y192797D01*
X140849Y192870D01*
X140787Y192958D01*
X140719Y193062D01*
X140657Y193181D01*
X140600Y193311D01*
Y193316D01*
X140595Y193327D01*
X140589Y193347D01*
X140579Y193373D01*
X140569Y193410D01*
X140553Y193451D01*
X140543Y193498D01*
X140532Y193555D01*
X140517Y193617D01*
X140506Y193680D01*
X140480Y193830D01*
X140465Y193991D01*
X140460Y194173D01*
Y194603D01*
X139152Y194863D01*
Y195626D01*
X143226Y194811D01*
D02*
G37*
G36*
X145001Y195340D02*
Y195335D01*
X144996Y195320D01*
X144985Y195294D01*
X144975Y195257D01*
X144959Y195216D01*
X144944Y195169D01*
X144913Y195065D01*
Y195060D01*
X144907Y195039D01*
X144897Y195008D01*
X144887Y194972D01*
X144876Y194925D01*
X144866Y194878D01*
X144840Y194770D01*
Y194764D01*
X144835Y194744D01*
X144830Y194712D01*
X144824Y194676D01*
X144819Y194629D01*
X144814Y194578D01*
X144799Y194468D01*
Y194442D01*
X144793Y194411D01*
Y194334D01*
X144788Y194282D01*
Y194090D01*
X144793Y194033D01*
X144799Y193970D01*
X144804Y193898D01*
X144814Y193825D01*
X144830Y193757D01*
Y193747D01*
X144840Y193726D01*
X144850Y193695D01*
X144861Y193654D01*
X144881Y193607D01*
X144902Y193560D01*
X144928Y193514D01*
X144954Y193467D01*
X144959Y193462D01*
X144970Y193446D01*
X144985Y193425D01*
X145006Y193404D01*
X145063Y193347D01*
X145094Y193322D01*
X145131Y193301D01*
X145136Y193296D01*
X145151Y193290D01*
X145172Y193280D01*
X145198Y193270D01*
X145229Y193259D01*
X145266Y193254D01*
X145307Y193244D01*
X145349D01*
X145354D01*
X145369D01*
X145395Y193249D01*
X145426Y193254D01*
X145499Y193275D01*
X145536Y193290D01*
X145572Y193316D01*
X145577Y193322D01*
X145587Y193332D01*
X145608Y193347D01*
X145629Y193368D01*
X145655Y193394D01*
X145686Y193425D01*
X145743Y193508D01*
X145748Y193514D01*
X145759Y193529D01*
X145769Y193550D01*
X145790Y193586D01*
X145810Y193623D01*
X145836Y193669D01*
X145862Y193716D01*
X145888Y193773D01*
X145894Y193778D01*
X145899Y193799D01*
X145914Y193825D01*
X145935Y193866D01*
X145956Y193908D01*
X145982Y193960D01*
X146034Y194074D01*
X146039Y194079D01*
X146044Y194100D01*
X146060Y194131D01*
X146080Y194167D01*
X146106Y194214D01*
X146132Y194261D01*
X146189Y194370D01*
X146195Y194375D01*
X146205Y194396D01*
X146226Y194422D01*
X146247Y194458D01*
X146278Y194500D01*
X146314Y194541D01*
X146392Y194634D01*
X146397Y194640D01*
X146413Y194655D01*
X146439Y194676D01*
X146470Y194702D01*
X146511Y194728D01*
X146558Y194759D01*
X146610Y194790D01*
X146667Y194821D01*
X146672Y194827D01*
X146693Y194832D01*
X146729Y194842D01*
X146771Y194852D01*
X146823Y194868D01*
X146885Y194878D01*
X146958Y194884D01*
X147030Y194889D01*
X147035D01*
X147041D01*
X147072D01*
X147124Y194884D01*
X147186Y194873D01*
X147258Y194863D01*
X147336Y194847D01*
X147419Y194821D01*
X147508Y194785D01*
X147513D01*
X147518Y194780D01*
X147549Y194764D01*
X147591Y194738D01*
X147648Y194707D01*
X147710Y194660D01*
X147783Y194609D01*
X147855Y194541D01*
X147923Y194468D01*
X147933Y194458D01*
X147954Y194427D01*
X147985Y194380D01*
X148027Y194318D01*
X148073Y194240D01*
X148120Y194147D01*
X148172Y194038D01*
X148214Y193918D01*
Y193913D01*
X148219Y193903D01*
X148224Y193882D01*
X148229Y193856D01*
X148240Y193825D01*
X148250Y193789D01*
X148260Y193742D01*
X148271Y193690D01*
X148276Y193638D01*
X148286Y193576D01*
X148307Y193441D01*
X148317Y193285D01*
X148322Y193119D01*
Y193036D01*
X148317Y192994D01*
Y192948D01*
X148307Y192849D01*
Y192828D01*
X148302Y192797D01*
Y192766D01*
X148297Y192725D01*
X148291Y192678D01*
X148281Y192585D01*
Y192579D01*
X148276Y192564D01*
Y192538D01*
X148271Y192507D01*
X148265Y192470D01*
X148255Y192429D01*
X148240Y192341D01*
Y192335D01*
X148234Y192320D01*
X148229Y192299D01*
X148224Y192273D01*
X148208Y192200D01*
X148193Y192128D01*
X147518Y192263D01*
Y192268D01*
X147523Y192278D01*
X147528Y192299D01*
X147534Y192325D01*
X147544Y192356D01*
X147549Y192387D01*
X147570Y192470D01*
Y192475D01*
X147575Y192491D01*
X147580Y192512D01*
X147585Y192543D01*
X147596Y192579D01*
X147601Y192621D01*
X147617Y192709D01*
Y192714D01*
X147622Y192730D01*
Y192756D01*
X147627Y192782D01*
X147632Y192823D01*
X147637Y192860D01*
X147648Y192953D01*
Y192958D01*
X147653Y192974D01*
Y193000D01*
X147658Y193031D01*
Y193067D01*
X147663Y193104D01*
Y193270D01*
X147658Y193322D01*
X147653Y193379D01*
X147648Y193441D01*
X147637Y193508D01*
X147622Y193571D01*
Y193576D01*
X147617Y193597D01*
X147606Y193628D01*
X147596Y193659D01*
X147565Y193747D01*
X147518Y193830D01*
X147513Y193835D01*
X147508Y193846D01*
X147492Y193866D01*
X147471Y193887D01*
X147419Y193939D01*
X147394Y193960D01*
X147357Y193981D01*
X147352D01*
X147342Y193986D01*
X147321Y193996D01*
X147300Y194001D01*
X147238Y194022D01*
X147165Y194027D01*
X147160D01*
X147144D01*
X147124Y194022D01*
X147092Y194017D01*
X147025Y193996D01*
X146994Y193981D01*
X146958Y193960D01*
X146952Y193955D01*
X146942Y193944D01*
X146926Y193929D01*
X146906Y193908D01*
X146880Y193882D01*
X146848Y193851D01*
X146792Y193773D01*
X146786Y193768D01*
X146781Y193752D01*
X146765Y193726D01*
X146745Y193695D01*
X146724Y193654D01*
X146698Y193612D01*
X146646Y193508D01*
X146641Y193503D01*
X146636Y193482D01*
X146620Y193451D01*
X146605Y193415D01*
X146579Y193368D01*
X146558Y193316D01*
X146501Y193202D01*
X146496Y193197D01*
X146490Y193176D01*
X146475Y193145D01*
X146454Y193104D01*
X146428Y193062D01*
X146402Y193010D01*
X146335Y192901D01*
X146329Y192896D01*
X146319Y192875D01*
X146298Y192849D01*
X146278Y192813D01*
X146247Y192771D01*
X146210Y192725D01*
X146127Y192636D01*
X146122Y192631D01*
X146106Y192616D01*
X146080Y192595D01*
X146049Y192569D01*
X146008Y192538D01*
X145961Y192507D01*
X145904Y192475D01*
X145847Y192444D01*
X145842Y192439D01*
X145821Y192434D01*
X145785Y192424D01*
X145743Y192408D01*
X145691Y192393D01*
X145629Y192382D01*
X145561Y192377D01*
X145489Y192372D01*
X145484D01*
X145473D01*
X145458D01*
X145437D01*
X145406Y192377D01*
X145375D01*
X145297Y192387D01*
X145209Y192403D01*
X145110Y192429D01*
X145011Y192460D01*
X144913Y192507D01*
X144907D01*
X144902Y192512D01*
X144871Y192533D01*
X144824Y192564D01*
X144762Y192605D01*
X144695Y192657D01*
X144622Y192725D01*
X144549Y192803D01*
X144477Y192891D01*
Y192896D01*
X144472Y192901D01*
X144461Y192917D01*
X144446Y192937D01*
X144414Y192989D01*
X144378Y193057D01*
X144331Y193145D01*
X144285Y193249D01*
X144243Y193363D01*
X144202Y193493D01*
Y193498D01*
X144196Y193508D01*
X144191Y193529D01*
X144186Y193555D01*
X144181Y193586D01*
X144170Y193628D01*
X144165Y193669D01*
X144155Y193721D01*
X144139Y193835D01*
X144124Y193970D01*
X144113Y194116D01*
X144108Y194276D01*
Y194401D01*
X144113Y194484D01*
X144119Y194583D01*
X144124Y194692D01*
X144150Y194920D01*
Y194936D01*
X144155Y194951D01*
X144160Y194972D01*
X144165Y195029D01*
X144181Y195102D01*
X144202Y195190D01*
X144222Y195283D01*
X144280Y195486D01*
X145001Y195340D01*
D02*
G37*
G36*
X140221Y192029D02*
X140278D01*
X140340Y192024D01*
X140418Y192014D01*
X140496Y191998D01*
X140584Y191982D01*
X143226Y191453D01*
Y190690D01*
X140569Y191219D01*
X140558D01*
X140538Y191225D01*
X140501Y191230D01*
X140454Y191235D01*
X140397Y191245D01*
X140340Y191251D01*
X140226Y191256D01*
X140221D01*
X140205D01*
X140179D01*
X140153Y191251D01*
X140081Y191240D01*
X140003Y191225D01*
X139998D01*
X139987Y191219D01*
X139967Y191209D01*
X139946Y191199D01*
X139894Y191173D01*
X139837Y191131D01*
Y191126D01*
X139827Y191121D01*
X139816Y191105D01*
X139801Y191085D01*
X139769Y191027D01*
X139743Y190955D01*
Y190950D01*
X139738Y190934D01*
X139733Y190908D01*
X139728Y190877D01*
X139723Y190841D01*
X139717Y190794D01*
X139712Y190742D01*
Y190654D01*
X139717Y190618D01*
Y190571D01*
X139723Y190524D01*
X139733Y190467D01*
X139759Y190353D01*
Y190348D01*
X139769Y190327D01*
X139780Y190301D01*
X139795Y190265D01*
X139816Y190223D01*
X139842Y190182D01*
X139878Y190135D01*
X139915Y190093D01*
X139920Y190088D01*
X139936Y190073D01*
X139956Y190052D01*
X139993Y190026D01*
X140029Y190000D01*
X140076Y189964D01*
X140133Y189938D01*
X140190Y189907D01*
X140195Y189901D01*
X140221Y189891D01*
X140257Y189881D01*
X140304Y189860D01*
X140361Y189844D01*
X140428Y189823D01*
X140506Y189803D01*
X140595Y189782D01*
X143226Y189252D01*
Y188484D01*
X140584Y189019D01*
X140579D01*
X140569Y189024D01*
X140548Y189029D01*
X140517Y189034D01*
X140486Y189040D01*
X140444Y189050D01*
X140356Y189076D01*
X140247Y189107D01*
X140138Y189149D01*
X140018Y189195D01*
X139910Y189247D01*
X139904D01*
X139899Y189252D01*
X139884Y189263D01*
X139863Y189273D01*
X139811Y189304D01*
X139743Y189346D01*
X139671Y189403D01*
X139588Y189465D01*
X139510Y189538D01*
X139437Y189616D01*
X139427Y189626D01*
X139406Y189657D01*
X139375Y189704D01*
X139333Y189766D01*
X139292Y189839D01*
X139245Y189927D01*
X139204Y190026D01*
X139167Y190135D01*
Y190140D01*
X139162Y190150D01*
X139157Y190166D01*
X139152Y190187D01*
X139147Y190213D01*
X139141Y190244D01*
X139126Y190327D01*
X139105Y190420D01*
X139095Y190529D01*
X139084Y190654D01*
X139079Y190784D01*
Y190867D01*
X139084Y190898D01*
X139090Y190976D01*
X139095Y191069D01*
X139110Y191162D01*
X139126Y191261D01*
X139152Y191355D01*
X139157Y191365D01*
X139167Y191396D01*
X139183Y191437D01*
X139204Y191495D01*
X139235Y191557D01*
X139271Y191619D01*
X139318Y191687D01*
X139365Y191749D01*
X139370Y191754D01*
X139391Y191775D01*
X139422Y191801D01*
X139458Y191837D01*
X139510Y191874D01*
X139567Y191910D01*
X139629Y191941D01*
X139702Y191972D01*
X139712D01*
X139738Y191982D01*
X139780Y191993D01*
X139832Y192003D01*
X139894Y192014D01*
X139972Y192024D01*
X140055Y192029D01*
X140143Y192034D01*
X140153D01*
X140179D01*
X140221Y192029D01*
D02*
G37*
G36*
X145250Y191790D02*
X145307D01*
X145369Y191785D01*
X145447Y191775D01*
X145525Y191759D01*
X145613Y191744D01*
X148255Y191214D01*
Y190451D01*
X145598Y190981D01*
X145587D01*
X145567Y190986D01*
X145530Y190991D01*
X145484Y190996D01*
X145426Y191007D01*
X145369Y191012D01*
X145255Y191017D01*
X145250D01*
X145234D01*
X145209D01*
X145183Y191012D01*
X145110Y191001D01*
X145032Y190986D01*
X145027D01*
X145017Y190981D01*
X144996Y190970D01*
X144975Y190960D01*
X144923Y190934D01*
X144866Y190893D01*
Y190887D01*
X144856Y190882D01*
X144845Y190867D01*
X144830Y190846D01*
X144799Y190789D01*
X144773Y190716D01*
Y190711D01*
X144767Y190695D01*
X144762Y190669D01*
X144757Y190638D01*
X144752Y190602D01*
X144747Y190555D01*
X144741Y190503D01*
Y190415D01*
X144747Y190379D01*
Y190332D01*
X144752Y190285D01*
X144762Y190228D01*
X144788Y190114D01*
Y190109D01*
X144799Y190088D01*
X144809Y190062D01*
X144824Y190026D01*
X144845Y189984D01*
X144871Y189943D01*
X144907Y189896D01*
X144944Y189855D01*
X144949Y189849D01*
X144965Y189834D01*
X144985Y189813D01*
X145022Y189787D01*
X145058Y189761D01*
X145105Y189725D01*
X145162Y189699D01*
X145219Y189668D01*
X145224Y189663D01*
X145250Y189652D01*
X145286Y189642D01*
X145333Y189621D01*
X145390Y189605D01*
X145458Y189585D01*
X145536Y189564D01*
X145624Y189543D01*
X148255Y189014D01*
Y188246D01*
X145613Y188780D01*
X145608D01*
X145598Y188785D01*
X145577Y188791D01*
X145546Y188796D01*
X145515Y188801D01*
X145473Y188811D01*
X145385Y188837D01*
X145276Y188868D01*
X145167Y188910D01*
X145048Y188957D01*
X144939Y189009D01*
X144933D01*
X144928Y189014D01*
X144913Y189024D01*
X144892Y189034D01*
X144840Y189066D01*
X144773Y189107D01*
X144700Y189164D01*
X144617Y189227D01*
X144539Y189299D01*
X144466Y189377D01*
X144456Y189388D01*
X144435Y189419D01*
X144404Y189465D01*
X144362Y189528D01*
X144321Y189600D01*
X144274Y189689D01*
X144233Y189787D01*
X144196Y189896D01*
Y189901D01*
X144191Y189912D01*
X144186Y189927D01*
X144181Y189948D01*
X144176Y189974D01*
X144170Y190005D01*
X144155Y190088D01*
X144134Y190182D01*
X144124Y190290D01*
X144113Y190415D01*
X144108Y190545D01*
Y190628D01*
X144113Y190659D01*
X144119Y190737D01*
X144124Y190830D01*
X144139Y190924D01*
X144155Y191022D01*
X144181Y191116D01*
X144186Y191126D01*
X144196Y191157D01*
X144212Y191199D01*
X144233Y191256D01*
X144264Y191318D01*
X144300Y191380D01*
X144347Y191448D01*
X144394Y191510D01*
X144399Y191515D01*
X144420Y191536D01*
X144451Y191562D01*
X144487Y191598D01*
X144539Y191635D01*
X144596Y191671D01*
X144658Y191702D01*
X144731Y191733D01*
X144741D01*
X144767Y191744D01*
X144809Y191754D01*
X144861Y191764D01*
X144923Y191775D01*
X145001Y191785D01*
X145084Y191790D01*
X145172Y191796D01*
X145183D01*
X145209D01*
X145250Y191790D01*
D02*
G37*
G36*
X143226Y187971D02*
Y184950D01*
X142588Y185085D01*
Y186206D01*
X139152Y186886D01*
Y187670D01*
X142588Y186990D01*
Y188100D01*
X143226Y187971D01*
D02*
G37*
G36*
X148255Y187555D02*
Y186305D01*
X148250Y186263D01*
X148245Y186170D01*
X148234Y186066D01*
X148219Y185952D01*
X148198Y185837D01*
X148167Y185734D01*
Y185729D01*
X148162Y185723D01*
X148156Y185708D01*
X148151Y185687D01*
X148131Y185640D01*
X148105Y185573D01*
X148073Y185505D01*
X148032Y185433D01*
X147985Y185360D01*
X147933Y185293D01*
X147928Y185287D01*
X147907Y185267D01*
X147881Y185236D01*
X147840Y185199D01*
X147793Y185158D01*
X147736Y185116D01*
X147669Y185080D01*
X147601Y185049D01*
X147591Y185043D01*
X147570Y185038D01*
X147534Y185023D01*
X147482Y185007D01*
X147425Y184997D01*
X147362Y184981D01*
X147290Y184976D01*
X147217Y184971D01*
X147212D01*
X147202D01*
X147186D01*
X147160D01*
X147129Y184976D01*
X147092D01*
X147009Y184986D01*
X146911Y185002D01*
X146797Y185023D01*
X146683Y185049D01*
X146563Y185090D01*
X146558D01*
X146547Y185095D01*
X146532Y185100D01*
X146511Y185111D01*
X146454Y185142D01*
X146376Y185178D01*
X146293Y185230D01*
X146200Y185293D01*
X146106Y185365D01*
X146013Y185448D01*
Y185453D01*
X146003Y185459D01*
X145992Y185474D01*
X145971Y185490D01*
X145930Y185542D01*
X145878Y185614D01*
X145816Y185703D01*
X145748Y185806D01*
X145686Y185926D01*
X145629Y186056D01*
Y186061D01*
X145624Y186071D01*
X145618Y186092D01*
X145608Y186118D01*
X145598Y186154D01*
X145582Y186196D01*
X145572Y186242D01*
X145561Y186299D01*
X145546Y186362D01*
X145536Y186424D01*
X145510Y186574D01*
X145494Y186735D01*
X145489Y186917D01*
Y187348D01*
X144181Y187607D01*
Y188370D01*
X148255Y187555D01*
D02*
G37*
G36*
Y184047D02*
Y182796D01*
X148250Y182755D01*
X148245Y182661D01*
X148234Y182557D01*
X148219Y182443D01*
X148198Y182329D01*
X148167Y182225D01*
Y182220D01*
X148162Y182215D01*
X148156Y182199D01*
X148151Y182178D01*
X148131Y182132D01*
X148105Y182064D01*
X148073Y181997D01*
X148032Y181924D01*
X147985Y181852D01*
X147933Y181784D01*
X147928Y181779D01*
X147907Y181758D01*
X147881Y181727D01*
X147840Y181691D01*
X147793Y181649D01*
X147736Y181608D01*
X147669Y181571D01*
X147601Y181540D01*
X147591Y181535D01*
X147570Y181530D01*
X147534Y181514D01*
X147482Y181499D01*
X147425Y181488D01*
X147362Y181473D01*
X147290Y181467D01*
X147217Y181462D01*
X147212D01*
X147202D01*
X147186D01*
X147160D01*
X147129Y181467D01*
X147092D01*
X147009Y181478D01*
X146911Y181493D01*
X146797Y181514D01*
X146683Y181540D01*
X146563Y181582D01*
X146558D01*
X146547Y181587D01*
X146532Y181592D01*
X146511Y181603D01*
X146454Y181634D01*
X146376Y181670D01*
X146293Y181722D01*
X146200Y181784D01*
X146106Y181857D01*
X146013Y181940D01*
Y181945D01*
X146003Y181950D01*
X145992Y181966D01*
X145971Y181981D01*
X145930Y182033D01*
X145878Y182106D01*
X145816Y182194D01*
X145748Y182298D01*
X145686Y182417D01*
X145629Y182547D01*
Y182552D01*
X145624Y182563D01*
X145618Y182583D01*
X145608Y182609D01*
X145598Y182646D01*
X145582Y182687D01*
X145572Y182734D01*
X145561Y182791D01*
X145546Y182853D01*
X145536Y182915D01*
X145510Y183066D01*
X145494Y183227D01*
X145489Y183409D01*
Y183839D01*
X144181Y184099D01*
Y184862D01*
X148255Y184047D01*
D02*
G37*
G36*
Y180347D02*
Y179568D01*
X144840Y180253D01*
Y178535D01*
X144181Y178665D01*
Y181161D01*
X148255Y180347D01*
D02*
G37*
G36*
X139972Y181545D02*
Y181540D01*
X139967Y181525D01*
X139956Y181499D01*
X139946Y181462D01*
X139930Y181421D01*
X139915Y181374D01*
X139884Y181270D01*
Y181265D01*
X139878Y181244D01*
X139868Y181213D01*
X139858Y181177D01*
X139847Y181130D01*
X139837Y181084D01*
X139811Y180974D01*
Y180969D01*
X139806Y180948D01*
X139801Y180917D01*
X139795Y180881D01*
X139790Y180834D01*
X139785Y180782D01*
X139769Y180674D01*
Y180648D01*
X139764Y180616D01*
Y180538D01*
X139759Y180487D01*
Y180295D01*
X139764Y180237D01*
X139769Y180175D01*
X139775Y180103D01*
X139785Y180030D01*
X139801Y179962D01*
Y179952D01*
X139811Y179931D01*
X139821Y179900D01*
X139832Y179859D01*
X139852Y179812D01*
X139873Y179765D01*
X139899Y179718D01*
X139925Y179672D01*
X139930Y179667D01*
X139941Y179651D01*
X139956Y179630D01*
X139977Y179610D01*
X140034Y179552D01*
X140065Y179526D01*
X140102Y179506D01*
X140107Y179500D01*
X140122Y179495D01*
X140143Y179485D01*
X140169Y179475D01*
X140200Y179464D01*
X140236Y179459D01*
X140278Y179449D01*
X140320D01*
X140325D01*
X140340D01*
X140366Y179454D01*
X140397Y179459D01*
X140470Y179480D01*
X140506Y179495D01*
X140543Y179521D01*
X140548Y179526D01*
X140558Y179537D01*
X140579Y179552D01*
X140600Y179573D01*
X140626Y179599D01*
X140657Y179630D01*
X140714Y179713D01*
X140719Y179718D01*
X140729Y179734D01*
X140740Y179755D01*
X140761Y179791D01*
X140781Y179827D01*
X140807Y179874D01*
X140833Y179921D01*
X140859Y179978D01*
X140865Y179983D01*
X140870Y180004D01*
X140885Y180030D01*
X140906Y180071D01*
X140927Y180113D01*
X140953Y180165D01*
X141005Y180279D01*
X141010Y180284D01*
X141015Y180305D01*
X141031Y180336D01*
X141051Y180372D01*
X141077Y180419D01*
X141103Y180466D01*
X141160Y180575D01*
X141165Y180580D01*
X141176Y180601D01*
X141197Y180627D01*
X141217Y180663D01*
X141249Y180705D01*
X141285Y180746D01*
X141363Y180840D01*
X141368Y180845D01*
X141384Y180860D01*
X141409Y180881D01*
X141441Y180907D01*
X141482Y180933D01*
X141529Y180964D01*
X141581Y180995D01*
X141638Y181026D01*
X141643Y181032D01*
X141664Y181037D01*
X141700Y181047D01*
X141742Y181058D01*
X141794Y181073D01*
X141856Y181084D01*
X141928Y181089D01*
X142001Y181094D01*
X142006D01*
X142011D01*
X142043D01*
X142095Y181089D01*
X142157Y181078D01*
X142229Y181068D01*
X142307Y181052D01*
X142390Y181026D01*
X142479Y180990D01*
X142484D01*
X142489Y180985D01*
X142520Y180969D01*
X142562Y180943D01*
X142619Y180912D01*
X142681Y180866D01*
X142754Y180814D01*
X142826Y180746D01*
X142894Y180674D01*
X142904Y180663D01*
X142925Y180632D01*
X142956Y180585D01*
X142998Y180523D01*
X143044Y180445D01*
X143091Y180352D01*
X143143Y180243D01*
X143184Y180123D01*
Y180118D01*
X143190Y180108D01*
X143195Y180087D01*
X143200Y180061D01*
X143210Y180030D01*
X143221Y179994D01*
X143231Y179947D01*
X143242Y179895D01*
X143247Y179843D01*
X143257Y179781D01*
X143278Y179646D01*
X143288Y179490D01*
X143293Y179324D01*
Y179241D01*
X143288Y179200D01*
Y179153D01*
X143278Y179054D01*
Y179033D01*
X143273Y179002D01*
Y178971D01*
X143267Y178930D01*
X143262Y178883D01*
X143252Y178789D01*
Y178784D01*
X143247Y178769D01*
Y178743D01*
X143242Y178712D01*
X143236Y178675D01*
X143226Y178634D01*
X143210Y178546D01*
Y178540D01*
X143205Y178525D01*
X143200Y178504D01*
X143195Y178478D01*
X143179Y178405D01*
X143164Y178333D01*
X142489Y178468D01*
Y178473D01*
X142494Y178483D01*
X142499Y178504D01*
X142505Y178530D01*
X142515Y178561D01*
X142520Y178592D01*
X142541Y178675D01*
Y178681D01*
X142546Y178696D01*
X142551Y178717D01*
X142556Y178748D01*
X142567Y178784D01*
X142572Y178826D01*
X142588Y178914D01*
Y178919D01*
X142593Y178935D01*
Y178961D01*
X142598Y178987D01*
X142603Y179028D01*
X142608Y179065D01*
X142619Y179158D01*
Y179163D01*
X142624Y179179D01*
Y179205D01*
X142629Y179236D01*
Y179272D01*
X142634Y179308D01*
Y179475D01*
X142629Y179526D01*
X142624Y179584D01*
X142619Y179646D01*
X142608Y179713D01*
X142593Y179776D01*
Y179781D01*
X142588Y179801D01*
X142577Y179833D01*
X142567Y179864D01*
X142536Y179952D01*
X142489Y180035D01*
X142484Y180040D01*
X142479Y180051D01*
X142463Y180071D01*
X142442Y180092D01*
X142390Y180144D01*
X142364Y180165D01*
X142328Y180186D01*
X142323D01*
X142313Y180191D01*
X142292Y180201D01*
X142271Y180206D01*
X142209Y180227D01*
X142136Y180232D01*
X142131D01*
X142115D01*
X142095Y180227D01*
X142063Y180222D01*
X141996Y180201D01*
X141965Y180186D01*
X141928Y180165D01*
X141923Y180160D01*
X141913Y180149D01*
X141897Y180134D01*
X141876Y180113D01*
X141851Y180087D01*
X141819Y180056D01*
X141762Y179978D01*
X141757Y179973D01*
X141752Y179957D01*
X141736Y179931D01*
X141716Y179900D01*
X141695Y179859D01*
X141669Y179817D01*
X141617Y179713D01*
X141612Y179708D01*
X141607Y179687D01*
X141591Y179656D01*
X141576Y179620D01*
X141550Y179573D01*
X141529Y179521D01*
X141472Y179407D01*
X141466Y179402D01*
X141461Y179381D01*
X141446Y179350D01*
X141425Y179308D01*
X141399Y179267D01*
X141373Y179215D01*
X141306Y179106D01*
X141300Y179101D01*
X141290Y179080D01*
X141269Y179054D01*
X141249Y179018D01*
X141217Y178976D01*
X141181Y178930D01*
X141098Y178841D01*
X141093Y178836D01*
X141077Y178821D01*
X141051Y178800D01*
X141020Y178774D01*
X140979Y178743D01*
X140932Y178712D01*
X140875Y178681D01*
X140818Y178649D01*
X140813Y178644D01*
X140792Y178639D01*
X140755Y178629D01*
X140714Y178613D01*
X140662Y178597D01*
X140600Y178587D01*
X140532Y178582D01*
X140460Y178577D01*
X140454D01*
X140444D01*
X140428D01*
X140408D01*
X140377Y178582D01*
X140346D01*
X140268Y178592D01*
X140179Y178608D01*
X140081Y178634D01*
X139982Y178665D01*
X139884Y178712D01*
X139878D01*
X139873Y178717D01*
X139842Y178738D01*
X139795Y178769D01*
X139733Y178810D01*
X139666Y178862D01*
X139593Y178930D01*
X139520Y179007D01*
X139448Y179096D01*
Y179101D01*
X139442Y179106D01*
X139432Y179122D01*
X139417Y179142D01*
X139385Y179194D01*
X139349Y179262D01*
X139302Y179350D01*
X139256Y179454D01*
X139214Y179568D01*
X139172Y179698D01*
Y179703D01*
X139167Y179713D01*
X139162Y179734D01*
X139157Y179760D01*
X139152Y179791D01*
X139141Y179833D01*
X139136Y179874D01*
X139126Y179926D01*
X139110Y180040D01*
X139095Y180175D01*
X139084Y180321D01*
X139079Y180481D01*
Y180606D01*
X139084Y180689D01*
X139090Y180788D01*
X139095Y180897D01*
X139121Y181125D01*
Y181141D01*
X139126Y181156D01*
X139131Y181177D01*
X139136Y181234D01*
X139152Y181307D01*
X139172Y181395D01*
X139193Y181488D01*
X139250Y181691D01*
X139972Y181545D01*
D02*
G37*
G36*
X148255Y176620D02*
X146994Y176262D01*
X146376Y176111D01*
X147009Y175701D01*
X148255Y174840D01*
Y173978D01*
X145624Y175852D01*
X144181Y176132D01*
Y176911D01*
X145613Y176620D01*
X148255Y177419D01*
Y176620D01*
D02*
G37*
G36*
X143226Y177118D02*
Y174669D01*
X142577Y174804D01*
Y176475D01*
X141565Y176677D01*
Y175084D01*
X140932Y175208D01*
Y176802D01*
X139801Y177030D01*
Y175359D01*
X139152Y175489D01*
Y177933D01*
X143226Y177118D01*
D02*
G37*
G36*
Y173568D02*
Y172790D01*
X139811Y173475D01*
Y171757D01*
X139152Y171887D01*
Y174383D01*
X143226Y173568D01*
D02*
G37*
G36*
Y170101D02*
Y167652D01*
X142577Y167787D01*
Y169458D01*
X141565Y169660D01*
Y168067D01*
X140932Y168192D01*
Y169785D01*
X139801Y170013D01*
Y168342D01*
X139152Y168472D01*
Y170916D01*
X143226Y170101D01*
D02*
G37*
G36*
X148255Y170029D02*
Y168669D01*
X148250Y168633D01*
X148245Y168555D01*
X148240Y168461D01*
X148229Y168363D01*
X148208Y168269D01*
X148188Y168176D01*
Y168171D01*
X148182Y168166D01*
X148177Y168134D01*
X148162Y168093D01*
X148141Y168036D01*
X148120Y167979D01*
X148089Y167911D01*
X148053Y167849D01*
X148016Y167792D01*
X148011Y167787D01*
X147995Y167766D01*
X147975Y167740D01*
X147944Y167709D01*
X147907Y167673D01*
X147866Y167636D01*
X147814Y167605D01*
X147762Y167574D01*
X147757Y167569D01*
X147736Y167563D01*
X147705Y167553D01*
X147669Y167538D01*
X147622Y167527D01*
X147570Y167517D01*
X147513Y167512D01*
X147451Y167506D01*
X147440D01*
X147414D01*
X147378Y167512D01*
X147326D01*
X147269Y167522D01*
X147202Y167532D01*
X147134Y167548D01*
X147066Y167569D01*
X147056Y167574D01*
X147035Y167579D01*
X146999Y167595D01*
X146958Y167615D01*
X146906Y167636D01*
X146848Y167667D01*
X146734Y167740D01*
X146729Y167745D01*
X146708Y167761D01*
X146683Y167781D01*
X146646Y167813D01*
X146610Y167849D01*
X146563Y167891D01*
X146516Y167942D01*
X146475Y167994D01*
X146470Y167999D01*
X146459Y168020D01*
X146439Y168051D01*
X146413Y168088D01*
X146387Y168134D01*
X146361Y168192D01*
X146335Y168254D01*
X146309Y168316D01*
Y168311D01*
X146304Y168290D01*
X146298Y168264D01*
X146288Y168233D01*
X146257Y168150D01*
X146215Y168067D01*
X146210Y168062D01*
X146205Y168046D01*
X146189Y168025D01*
X146174Y167999D01*
X146122Y167937D01*
X146054Y167880D01*
X146049Y167875D01*
X146039Y167865D01*
X146018Y167854D01*
X145992Y167833D01*
X145961Y167818D01*
X145925Y167797D01*
X145842Y167761D01*
X145836D01*
X145821Y167755D01*
X145795Y167745D01*
X145769Y167740D01*
X145728Y167730D01*
X145691Y167724D01*
X145598Y167719D01*
X145593D01*
X145577D01*
X145551D01*
X145520Y167724D01*
X145478D01*
X145432Y167730D01*
X145328Y167745D01*
X145323D01*
X145302Y167750D01*
X145271Y167755D01*
X145234Y167766D01*
X145188Y167781D01*
X145131Y167797D01*
X145017Y167844D01*
X145011Y167849D01*
X144991Y167859D01*
X144959Y167875D01*
X144918Y167896D01*
X144871Y167927D01*
X144819Y167958D01*
X144767Y167999D01*
X144710Y168046D01*
X144705Y168051D01*
X144684Y168067D01*
X144658Y168098D01*
X144622Y168134D01*
X144580Y168186D01*
X144534Y168243D01*
X144487Y168311D01*
X144440Y168384D01*
X144435Y168394D01*
X144420Y168420D01*
X144399Y168467D01*
X144373Y168524D01*
X144342Y168596D01*
X144311Y168684D01*
X144280Y168778D01*
X144248Y168887D01*
Y168892D01*
X144243Y168903D01*
Y168918D01*
X144238Y168939D01*
X144233Y168970D01*
X144228Y169001D01*
X144222Y169043D01*
X144217Y169084D01*
X144202Y169188D01*
X144191Y169307D01*
X144186Y169442D01*
X144181Y169588D01*
Y170849D01*
X148255Y170029D01*
D02*
G37*
G36*
X140683Y167377D02*
X140735D01*
X140787Y167371D01*
X140849Y167366D01*
X140859D01*
X140880Y167361D01*
X140916D01*
X140963Y167351D01*
X141020Y167345D01*
X141088Y167335D01*
X141160Y167325D01*
X141238Y167309D01*
X141249D01*
X141274Y167299D01*
X141316Y167288D01*
X141373Y167278D01*
X141441Y167257D01*
X141518Y167236D01*
X141596Y167216D01*
X141684Y167190D01*
X141690D01*
X141695Y167185D01*
X141726Y167174D01*
X141773Y167159D01*
X141830Y167138D01*
X141897Y167107D01*
X141975Y167076D01*
X142141Y166993D01*
X142146D01*
X142152Y166987D01*
X142183Y166972D01*
X142224Y166946D01*
X142281Y166910D01*
X142349Y166868D01*
X142421Y166816D01*
X142494Y166759D01*
X142572Y166697D01*
X142582Y166686D01*
X142608Y166666D01*
X142645Y166629D01*
X142696Y166577D01*
X142754Y166520D01*
X142811Y166453D01*
X142873Y166375D01*
X142935Y166292D01*
Y166287D01*
X142940Y166282D01*
X142961Y166250D01*
X142992Y166204D01*
X143029Y166136D01*
X143070Y166058D01*
X143112Y165970D01*
X143153Y165866D01*
X143190Y165757D01*
Y165752D01*
X143195Y165742D01*
X143200Y165726D01*
X143205Y165706D01*
X143210Y165674D01*
X143221Y165643D01*
X143236Y165560D01*
X143252Y165456D01*
X143267Y165342D01*
X143278Y165212D01*
X143283Y165072D01*
Y164969D01*
X143278Y164901D01*
X143273Y164818D01*
X143267Y164730D01*
X143242Y164538D01*
Y164527D01*
X143236Y164512D01*
Y164491D01*
X143226Y164444D01*
X143216Y164382D01*
X143200Y164304D01*
X143184Y164226D01*
X143138Y164055D01*
X142432Y164206D01*
X142437Y164216D01*
X142442Y164237D01*
X142458Y164278D01*
X142473Y164330D01*
X142489Y164392D01*
X142510Y164465D01*
X142531Y164543D01*
X142551Y164626D01*
X142556Y164636D01*
X142562Y164667D01*
X142572Y164709D01*
X142582Y164771D01*
X142593Y164844D01*
X142598Y164922D01*
X142608Y165010D01*
Y165150D01*
X142603Y165207D01*
X142593Y165275D01*
X142582Y165358D01*
X142562Y165446D01*
X142531Y165534D01*
X142494Y165622D01*
X142489Y165633D01*
X142473Y165659D01*
X142447Y165700D01*
X142416Y165752D01*
X142375Y165814D01*
X142323Y165877D01*
X142266Y165944D01*
X142203Y166007D01*
X142193Y166012D01*
X142172Y166033D01*
X142136Y166064D01*
X142089Y166100D01*
X142027Y166141D01*
X141960Y166188D01*
X141887Y166230D01*
X141804Y166271D01*
X141794Y166276D01*
X141768Y166287D01*
X141726Y166307D01*
X141669Y166328D01*
X141601Y166359D01*
X141529Y166385D01*
X141368Y166437D01*
X141358D01*
X141332Y166448D01*
X141290Y166458D01*
X141233Y166474D01*
X141171Y166484D01*
X141103Y166500D01*
X140953Y166525D01*
X140942D01*
X140922Y166531D01*
X140885D01*
X140844Y166536D01*
X140792Y166541D01*
X140740D01*
X140688Y166546D01*
X140636D01*
X140631D01*
X140615D01*
X140584D01*
X140548Y166541D01*
X140506D01*
X140460Y166536D01*
X140351Y166525D01*
X140346D01*
X140325Y166520D01*
X140299Y166515D01*
X140257Y166500D01*
X140216Y166489D01*
X140169Y166468D01*
X140122Y166443D01*
X140070Y166417D01*
X140065Y166411D01*
X140050Y166401D01*
X140029Y166380D01*
X139998Y166349D01*
X139967Y166318D01*
X139930Y166271D01*
X139894Y166219D01*
X139863Y166162D01*
X139858Y166152D01*
X139852Y166131D01*
X139837Y166095D01*
X139827Y166043D01*
X139811Y165975D01*
X139795Y165898D01*
X139790Y165809D01*
X139785Y165706D01*
Y165638D01*
X139790Y165607D01*
Y165565D01*
X139801Y165482D01*
Y165477D01*
X139806Y165462D01*
Y165436D01*
X139811Y165404D01*
X139821Y165368D01*
X139827Y165327D01*
X139847Y165238D01*
Y165233D01*
X139852Y165218D01*
X139858Y165192D01*
X139868Y165161D01*
X139878Y165124D01*
X139889Y165083D01*
X139915Y164989D01*
Y164984D01*
X139920Y164969D01*
X139930Y164943D01*
X139941Y164911D01*
X139956Y164875D01*
X139972Y164834D01*
X140008Y164751D01*
X139318D01*
Y164756D01*
X139313Y164766D01*
X139307Y164782D01*
X139297Y164802D01*
X139281Y164859D01*
X139256Y164932D01*
X139230Y165020D01*
X139199Y165114D01*
X139172Y165212D01*
X139152Y165316D01*
Y165327D01*
X139147Y165342D01*
X139141Y165363D01*
X139136Y165415D01*
X139126Y165482D01*
X139115Y165565D01*
X139105Y165654D01*
X139100Y165752D01*
X139095Y165856D01*
Y165929D01*
X139100Y165965D01*
Y166012D01*
X139110Y166115D01*
X139126Y166230D01*
X139147Y166354D01*
X139178Y166479D01*
X139219Y166593D01*
Y166598D01*
X139224Y166603D01*
X139235Y166619D01*
X139240Y166640D01*
X139271Y166692D01*
X139307Y166759D01*
X139354Y166837D01*
X139411Y166915D01*
X139474Y166987D01*
X139546Y167060D01*
X139557Y167065D01*
X139583Y167086D01*
X139624Y167117D01*
X139681Y167159D01*
X139754Y167200D01*
X139832Y167242D01*
X139920Y167278D01*
X140018Y167309D01*
X140024D01*
X140029Y167314D01*
X140044D01*
X140065Y167320D01*
X140117Y167330D01*
X140190Y167345D01*
X140273Y167361D01*
X140366Y167371D01*
X140465Y167377D01*
X140569Y167382D01*
X140574D01*
X140589D01*
X140610D01*
X140647D01*
X140683Y167377D01*
D02*
G37*
G36*
X143226Y163411D02*
Y160391D01*
X142588Y160526D01*
Y161647D01*
X139152Y162327D01*
Y163110D01*
X142588Y162431D01*
Y163541D01*
X143226Y163411D01*
D02*
G37*
G36*
X390476Y329522D02*
Y327485D01*
X389767Y327633D01*
Y329675D01*
X390476Y329522D01*
D02*
G37*
G36*
X391907Y325061D02*
Y323991D01*
X387621Y323543D01*
Y324406D01*
X390203Y324630D01*
X391050Y324695D01*
X390154Y325121D01*
X387621Y326333D01*
Y327234D01*
X391907Y325061D01*
D02*
G37*
G36*
X398717Y330101D02*
Y328878D01*
X399989Y328627D01*
Y327889D01*
X398717Y328141D01*
Y326918D01*
X398056Y327049D01*
Y328272D01*
X396789Y328528D01*
Y329265D01*
X398056Y329009D01*
Y330237D01*
X398717Y330101D01*
D02*
G37*
G36*
X400175Y325061D02*
Y323991D01*
X395888Y323543D01*
Y324406D01*
X398471Y324630D01*
X399317Y324695D01*
X398422Y325121D01*
X395888Y326333D01*
Y327234D01*
X400175Y325061D01*
D02*
G37*
G36*
X398717Y189235D02*
Y188012D01*
X399989Y187760D01*
Y187023D01*
X398717Y187275D01*
Y186051D01*
X398056Y186182D01*
Y187406D01*
X396789Y187662D01*
Y188399D01*
X398056Y188143D01*
Y189371D01*
X398717Y189235D01*
D02*
G37*
G36*
X400175Y184195D02*
Y183125D01*
X395888Y182677D01*
Y183540D01*
X398471Y183764D01*
X399317Y183829D01*
X398422Y184255D01*
X395888Y185467D01*
Y186368D01*
X400175Y184195D01*
D02*
G37*
G36*
X390476Y188656D02*
Y186619D01*
X389767Y186767D01*
Y188809D01*
X390476Y188656D01*
D02*
G37*
G36*
X391907Y184195D02*
Y183125D01*
X387621Y182677D01*
Y183540D01*
X390203Y183764D01*
X391050Y183829D01*
X390154Y184255D01*
X387621Y185467D01*
Y186368D01*
X391907Y184195D01*
D02*
G37*
G36*
X445020Y325779D02*
X442478Y325582D01*
Y321072D01*
X445020Y319842D01*
Y317333D01*
X432146Y323712D01*
Y327107D01*
X445020Y328337D01*
Y325779D01*
D02*
G37*
G36*
X445988Y227322D02*
Y225286D01*
X445278Y225433D01*
Y227475D01*
X445988Y227322D01*
D02*
G37*
G36*
X447419Y222862D02*
Y221791D01*
X443132Y221344D01*
Y222206D01*
X445715Y222430D01*
X446561Y222496D01*
X445666Y222922D01*
X443132Y224134D01*
Y225035D01*
X447419Y222862D01*
D02*
G37*
G36*
X445961Y247699D02*
Y246476D01*
X447233Y246224D01*
Y245487D01*
X445961Y245739D01*
Y244515D01*
X445300Y244647D01*
Y245870D01*
X444033Y246126D01*
Y246863D01*
X445300Y246607D01*
Y247835D01*
X445961Y247699D01*
D02*
G37*
G36*
X447419Y242659D02*
Y241589D01*
X443132Y241141D01*
Y242004D01*
X445715Y242228D01*
X446561Y242293D01*
X445666Y242719D01*
X443132Y243931D01*
Y244832D01*
X447419Y242659D01*
D02*
G37*
G36*
X445988Y270236D02*
Y268199D01*
X445278Y268347D01*
Y270389D01*
X445988Y270236D01*
D02*
G37*
G36*
X447419Y265775D02*
Y264705D01*
X443132Y264257D01*
Y265120D01*
X445715Y265344D01*
X446561Y265409D01*
X445666Y265835D01*
X443132Y267047D01*
Y267948D01*
X447419Y265775D01*
D02*
G37*
G36*
X445961Y290612D02*
Y289389D01*
X447233Y289138D01*
Y288401D01*
X445961Y288652D01*
Y287429D01*
X445300Y287560D01*
Y288783D01*
X444033Y289040D01*
Y289777D01*
X445300Y289520D01*
Y290749D01*
X445961Y290612D01*
D02*
G37*
G36*
X447419Y285573D02*
Y284502D01*
X443132Y284055D01*
Y284917D01*
X445715Y285141D01*
X446561Y285207D01*
X445666Y285632D01*
X443132Y286845D01*
Y287746D01*
X447419Y285573D01*
D02*
G37*
G36*
X443380Y172516D02*
X441344D01*
X441491Y173226D01*
X443533D01*
X443380Y172516D01*
D02*
G37*
G36*
X438919Y171085D02*
X437849D01*
X437402Y175371D01*
X438264D01*
X438488Y172789D01*
X438554Y171942D01*
X438979Y172838D01*
X440192Y175371D01*
X441092D01*
X438919Y171085D01*
D02*
G37*
G36*
Y160455D02*
X437849D01*
X437402Y164742D01*
X438264D01*
X438488Y162159D01*
X438554Y161313D01*
X438979Y162208D01*
X440192Y164742D01*
X441092D01*
X438919Y160455D01*
D02*
G37*
G36*
X442867Y162574D02*
X444096D01*
X443959Y161913D01*
X442736D01*
X442485Y160641D01*
X441748D01*
X441999Y161913D01*
X440776D01*
X440907Y162574D01*
X442130D01*
X442386Y163841D01*
X443124D01*
X442867Y162574D01*
D02*
G37*
G36*
X438919Y335652D02*
X437849D01*
X437402Y339938D01*
X438264D01*
X438488Y337356D01*
X438554Y336509D01*
X438979Y337405D01*
X440192Y339938D01*
X441092D01*
X438919Y335652D01*
D02*
G37*
G36*
X442867Y337771D02*
X444096D01*
X443959Y337110D01*
X442736D01*
X442485Y335838D01*
X441748D01*
X441999Y337110D01*
X440776D01*
X440907Y337771D01*
X442130D01*
X442387Y339037D01*
X443124D01*
X442867Y337771D01*
D02*
G37*
G36*
X443380Y347713D02*
X441344D01*
X441491Y348423D01*
X443533D01*
X443380Y347713D01*
D02*
G37*
G36*
X438919Y346282D02*
X437849D01*
X437402Y350568D01*
X438264D01*
X438488Y347986D01*
X438554Y347139D01*
X438979Y348035D01*
X440192Y350568D01*
X441092D01*
X438919Y346282D01*
D02*
G37*
G36*
X162783Y159692D02*
X162832D01*
X162936Y159681D01*
X162958D01*
X162991Y159675D01*
X163023D01*
X163067Y159670D01*
X163116Y159664D01*
X163215Y159653D01*
X163220D01*
X163236Y159648D01*
X163264D01*
X163296Y159643D01*
X163335Y159637D01*
X163378Y159626D01*
X163471Y159610D01*
X163477D01*
X163493Y159604D01*
X163515Y159599D01*
X163542Y159593D01*
X163619Y159577D01*
X163695Y159561D01*
X163553Y158851D01*
X163548D01*
X163537Y158856D01*
X163515Y158862D01*
X163488Y158867D01*
X163455Y158878D01*
X163422Y158884D01*
X163335Y158905D01*
X163329D01*
X163313Y158911D01*
X163291Y158916D01*
X163258Y158922D01*
X163220Y158933D01*
X163176Y158938D01*
X163084Y158955D01*
X163078D01*
X163062Y158960D01*
X163034D01*
X163007Y158965D01*
X162963Y158971D01*
X162925Y158976D01*
X162827Y158987D01*
X162821D01*
X162805Y158993D01*
X162778D01*
X162745Y158998D01*
X162707D01*
X162669Y159004D01*
X162494D01*
X162439Y158998D01*
X162379Y158993D01*
X162314Y158987D01*
X162243Y158976D01*
X162177Y158960D01*
X162172D01*
X162150Y158955D01*
X162117Y158944D01*
X162084Y158933D01*
X161992Y158900D01*
X161904Y158851D01*
X161899Y158845D01*
X161888Y158840D01*
X161866Y158824D01*
X161844Y158802D01*
X161790Y158747D01*
X161768Y158720D01*
X161746Y158681D01*
Y158676D01*
X161740Y158665D01*
X161729Y158643D01*
X161724Y158621D01*
X161702Y158556D01*
X161697Y158479D01*
Y158474D01*
Y158458D01*
X161702Y158436D01*
X161708Y158403D01*
X161729Y158332D01*
X161746Y158299D01*
X161768Y158261D01*
X161773Y158256D01*
X161784Y158245D01*
X161800Y158228D01*
X161822Y158206D01*
X161850Y158179D01*
X161882Y158146D01*
X161964Y158086D01*
X161970Y158081D01*
X161986Y158075D01*
X162013Y158059D01*
X162046Y158037D01*
X162090Y158015D01*
X162134Y157988D01*
X162243Y157933D01*
X162248Y157928D01*
X162270Y157923D01*
X162303Y157906D01*
X162341Y157890D01*
X162390Y157862D01*
X162445Y157841D01*
X162565Y157781D01*
X162570Y157775D01*
X162592Y157770D01*
X162625Y157753D01*
X162669Y157731D01*
X162712Y157704D01*
X162767Y157677D01*
X162882Y157606D01*
X162887Y157600D01*
X162909Y157589D01*
X162936Y157568D01*
X162974Y157546D01*
X163018Y157513D01*
X163067Y157475D01*
X163160Y157387D01*
X163165Y157382D01*
X163182Y157366D01*
X163204Y157338D01*
X163231Y157306D01*
X163264Y157262D01*
X163296Y157213D01*
X163329Y157153D01*
X163362Y157093D01*
X163367Y157087D01*
X163373Y157065D01*
X163384Y157027D01*
X163400Y156983D01*
X163417Y156929D01*
X163427Y156863D01*
X163433Y156792D01*
X163438Y156716D01*
Y156710D01*
Y156700D01*
Y156683D01*
Y156661D01*
X163433Y156629D01*
Y156596D01*
X163422Y156514D01*
X163406Y156421D01*
X163378Y156317D01*
X163346Y156214D01*
X163296Y156110D01*
Y156104D01*
X163291Y156099D01*
X163269Y156066D01*
X163236Y156017D01*
X163193Y155951D01*
X163138Y155880D01*
X163067Y155804D01*
X162985Y155728D01*
X162892Y155651D01*
X162887D01*
X162882Y155646D01*
X162865Y155635D01*
X162843Y155618D01*
X162789Y155586D01*
X162718Y155547D01*
X162625Y155498D01*
X162516Y155449D01*
X162396Y155405D01*
X162259Y155362D01*
X162254D01*
X162243Y155356D01*
X162221Y155351D01*
X162194Y155345D01*
X162161Y155340D01*
X162117Y155329D01*
X162073Y155324D01*
X162019Y155313D01*
X161899Y155296D01*
X161757Y155280D01*
X161604Y155269D01*
X161435Y155263D01*
X161304D01*
X161216Y155269D01*
X161112Y155274D01*
X160998Y155280D01*
X160758Y155307D01*
X160741D01*
X160725Y155313D01*
X160703Y155318D01*
X160643Y155324D01*
X160566Y155340D01*
X160474Y155362D01*
X160375Y155384D01*
X160162Y155444D01*
X160315Y156203D01*
X160321D01*
X160337Y156197D01*
X160364Y156186D01*
X160403Y156175D01*
X160446Y156159D01*
X160495Y156143D01*
X160605Y156110D01*
X160610D01*
X160632Y156104D01*
X160665Y156094D01*
X160703Y156082D01*
X160752Y156072D01*
X160801Y156061D01*
X160916Y156033D01*
X160921D01*
X160943Y156028D01*
X160976Y156023D01*
X161014Y156017D01*
X161063Y156012D01*
X161118Y156006D01*
X161233Y155990D01*
X161260D01*
X161293Y155984D01*
X161374D01*
X161429Y155979D01*
X161631D01*
X161691Y155984D01*
X161757Y155990D01*
X161833Y155995D01*
X161910Y156006D01*
X161981Y156023D01*
X161992D01*
X162013Y156033D01*
X162046Y156044D01*
X162090Y156055D01*
X162139Y156077D01*
X162188Y156099D01*
X162237Y156126D01*
X162286Y156154D01*
X162292Y156159D01*
X162308Y156170D01*
X162330Y156186D01*
X162352Y156208D01*
X162412Y156268D01*
X162439Y156301D01*
X162461Y156339D01*
X162467Y156345D01*
X162472Y156361D01*
X162483Y156383D01*
X162494Y156410D01*
X162505Y156443D01*
X162510Y156481D01*
X162521Y156525D01*
Y156569D01*
Y156574D01*
Y156590D01*
X162516Y156618D01*
X162510Y156650D01*
X162488Y156727D01*
X162472Y156765D01*
X162445Y156803D01*
X162439Y156809D01*
X162428Y156820D01*
X162412Y156842D01*
X162390Y156863D01*
X162363Y156891D01*
X162330Y156923D01*
X162243Y156983D01*
X162237Y156989D01*
X162221Y157000D01*
X162199Y157011D01*
X162161Y157033D01*
X162123Y157054D01*
X162073Y157082D01*
X162024Y157109D01*
X161964Y157136D01*
X161959Y157142D01*
X161937Y157147D01*
X161910Y157164D01*
X161866Y157185D01*
X161822Y157207D01*
X161768Y157235D01*
X161648Y157289D01*
X161642Y157295D01*
X161620Y157300D01*
X161588Y157317D01*
X161549Y157338D01*
X161500Y157366D01*
X161451Y157393D01*
X161336Y157453D01*
X161331Y157458D01*
X161309Y157469D01*
X161282Y157491D01*
X161243Y157513D01*
X161200Y157546D01*
X161156Y157584D01*
X161058Y157666D01*
X161052Y157671D01*
X161036Y157688D01*
X161014Y157715D01*
X160987Y157748D01*
X160960Y157791D01*
X160927Y157841D01*
X160894Y157895D01*
X160861Y157955D01*
X160856Y157961D01*
X160850Y157983D01*
X160839Y158021D01*
X160828Y158064D01*
X160812Y158119D01*
X160801Y158185D01*
X160796Y158261D01*
X160790Y158337D01*
Y158343D01*
Y158348D01*
Y158381D01*
X160796Y158436D01*
X160807Y158501D01*
X160818Y158578D01*
X160834Y158660D01*
X160861Y158747D01*
X160899Y158840D01*
Y158845D01*
X160905Y158851D01*
X160921Y158884D01*
X160949Y158927D01*
X160981Y158987D01*
X161031Y159053D01*
X161085Y159129D01*
X161156Y159206D01*
X161233Y159277D01*
X161243Y159288D01*
X161276Y159309D01*
X161325Y159342D01*
X161391Y159386D01*
X161473Y159435D01*
X161571Y159484D01*
X161686Y159539D01*
X161811Y159582D01*
X161817D01*
X161828Y159588D01*
X161850Y159593D01*
X161877Y159599D01*
X161910Y159610D01*
X161948Y159621D01*
X161997Y159632D01*
X162052Y159643D01*
X162106Y159648D01*
X162172Y159659D01*
X162314Y159681D01*
X162478Y159692D01*
X162652Y159697D01*
X162740D01*
X162783Y159692D01*
D02*
G37*
G36*
X170444Y159681D02*
X170531Y159675D01*
X170624Y159670D01*
X170826Y159643D01*
X170837D01*
X170853Y159637D01*
X170875D01*
X170924Y159626D01*
X170990Y159615D01*
X171072Y159599D01*
X171153Y159582D01*
X171334Y159533D01*
X171175Y158791D01*
X171164Y158796D01*
X171142Y158802D01*
X171099Y158818D01*
X171044Y158834D01*
X170979Y158851D01*
X170902Y158873D01*
X170820Y158894D01*
X170733Y158916D01*
X170722Y158922D01*
X170689Y158927D01*
X170646Y158938D01*
X170580Y158949D01*
X170504Y158960D01*
X170422Y158965D01*
X170329Y158976D01*
X170182D01*
X170122Y158971D01*
X170051Y158960D01*
X169963Y158949D01*
X169870Y158927D01*
X169778Y158894D01*
X169685Y158856D01*
X169674Y158851D01*
X169647Y158834D01*
X169603Y158807D01*
X169548Y158774D01*
X169483Y158731D01*
X169417Y158676D01*
X169346Y158616D01*
X169281Y158551D01*
X169275Y158539D01*
X169253Y158518D01*
X169221Y158479D01*
X169182Y158430D01*
X169139Y158365D01*
X169089Y158294D01*
X169046Y158217D01*
X169002Y158130D01*
X168997Y158119D01*
X168986Y158092D01*
X168964Y158048D01*
X168942Y157988D01*
X168909Y157917D01*
X168882Y157841D01*
X168827Y157671D01*
Y157660D01*
X168816Y157633D01*
X168806Y157589D01*
X168789Y157529D01*
X168778Y157464D01*
X168762Y157393D01*
X168735Y157235D01*
Y157224D01*
X168729Y157202D01*
Y157164D01*
X168724Y157120D01*
X168718Y157065D01*
Y157011D01*
X168713Y156956D01*
Y156902D01*
Y156896D01*
Y156880D01*
Y156847D01*
X168718Y156809D01*
Y156765D01*
X168724Y156716D01*
X168735Y156601D01*
Y156596D01*
X168740Y156574D01*
X168746Y156547D01*
X168762Y156503D01*
X168773Y156459D01*
X168795Y156410D01*
X168822Y156361D01*
X168849Y156306D01*
X168855Y156301D01*
X168866Y156285D01*
X168887Y156263D01*
X168920Y156230D01*
X168953Y156197D01*
X169002Y156159D01*
X169057Y156121D01*
X169117Y156088D01*
X169128Y156082D01*
X169150Y156077D01*
X169188Y156061D01*
X169242Y156050D01*
X169313Y156033D01*
X169395Y156017D01*
X169488Y156012D01*
X169597Y156006D01*
X169668D01*
X169701Y156012D01*
X169745D01*
X169832Y156023D01*
X169838D01*
X169854Y156028D01*
X169881D01*
X169914Y156033D01*
X169952Y156044D01*
X169996Y156050D01*
X170089Y156072D01*
X170094D01*
X170110Y156077D01*
X170138Y156082D01*
X170171Y156094D01*
X170209Y156104D01*
X170253Y156115D01*
X170351Y156143D01*
X170356D01*
X170373Y156148D01*
X170400Y156159D01*
X170433Y156170D01*
X170471Y156186D01*
X170515Y156203D01*
X170602Y156241D01*
Y155515D01*
X170597D01*
X170586Y155509D01*
X170569Y155504D01*
X170547Y155493D01*
X170487Y155476D01*
X170411Y155449D01*
X170318Y155422D01*
X170220Y155389D01*
X170116Y155362D01*
X170007Y155340D01*
X169996D01*
X169980Y155334D01*
X169958Y155329D01*
X169903Y155324D01*
X169832Y155313D01*
X169745Y155302D01*
X169652Y155291D01*
X169548Y155285D01*
X169439Y155280D01*
X169362D01*
X169324Y155285D01*
X169275D01*
X169166Y155296D01*
X169046Y155313D01*
X168915Y155334D01*
X168784Y155367D01*
X168664Y155411D01*
X168658D01*
X168653Y155416D01*
X168636Y155427D01*
X168614Y155433D01*
X168560Y155466D01*
X168489Y155504D01*
X168407Y155553D01*
X168325Y155613D01*
X168249Y155678D01*
X168172Y155755D01*
X168167Y155766D01*
X168145Y155793D01*
X168112Y155837D01*
X168069Y155897D01*
X168025Y155973D01*
X167981Y156055D01*
X167943Y156148D01*
X167910Y156252D01*
Y156257D01*
X167905Y156263D01*
Y156279D01*
X167899Y156301D01*
X167888Y156356D01*
X167872Y156432D01*
X167856Y156519D01*
X167845Y156618D01*
X167839Y156721D01*
X167834Y156831D01*
Y156836D01*
Y156852D01*
Y156874D01*
Y156913D01*
X167839Y156951D01*
Y157005D01*
X167845Y157060D01*
X167850Y157125D01*
Y157136D01*
X167856Y157158D01*
Y157196D01*
X167867Y157246D01*
X167872Y157306D01*
X167883Y157377D01*
X167894Y157453D01*
X167910Y157535D01*
Y157546D01*
X167921Y157573D01*
X167932Y157617D01*
X167943Y157677D01*
X167965Y157748D01*
X167987Y157830D01*
X168008Y157912D01*
X168036Y158004D01*
Y158010D01*
X168041Y158015D01*
X168052Y158048D01*
X168069Y158097D01*
X168090Y158157D01*
X168123Y158228D01*
X168156Y158310D01*
X168243Y158485D01*
Y158490D01*
X168249Y158496D01*
X168265Y158529D01*
X168292Y158572D01*
X168331Y158632D01*
X168374Y158703D01*
X168429Y158780D01*
X168489Y158856D01*
X168554Y158938D01*
X168565Y158949D01*
X168587Y158976D01*
X168625Y159015D01*
X168680Y159069D01*
X168740Y159129D01*
X168811Y159189D01*
X168893Y159255D01*
X168980Y159320D01*
X168986D01*
X168991Y159326D01*
X169024Y159348D01*
X169073Y159380D01*
X169144Y159419D01*
X169226Y159462D01*
X169319Y159506D01*
X169428Y159550D01*
X169543Y159588D01*
X169548D01*
X169559Y159593D01*
X169576Y159599D01*
X169597Y159604D01*
X169630Y159610D01*
X169663Y159621D01*
X169750Y159637D01*
X169859Y159653D01*
X169980Y159670D01*
X170116Y159681D01*
X170263Y159686D01*
X170373D01*
X170444Y159681D01*
D02*
G37*
G36*
X167408Y158944D02*
X165650D01*
X165437Y157879D01*
X167113D01*
X166982Y157213D01*
X165306D01*
X165066Y156023D01*
X166824D01*
X166687Y155340D01*
X164116D01*
X164973Y159626D01*
X167550D01*
X167408Y158944D01*
D02*
G37*
G36*
X205758Y158963D02*
X204808D01*
X204213Y155998D01*
X205157D01*
X205027Y155337D01*
X202318D01*
X202444Y155998D01*
X203394D01*
X203995Y158963D01*
X203045D01*
X203176Y159623D01*
X205895D01*
X205758Y158963D01*
D02*
G37*
G36*
X200833Y159618D02*
X200915Y159612D01*
X201008Y159601D01*
X201106Y159585D01*
X201199Y159569D01*
X201210D01*
X201243Y159558D01*
X201286Y159547D01*
X201346Y159530D01*
X201412Y159509D01*
X201483Y159481D01*
X201554Y159443D01*
X201625Y159405D01*
X201630Y159399D01*
X201652Y159383D01*
X201685Y159361D01*
X201729Y159328D01*
X201772Y159285D01*
X201816Y159236D01*
X201860Y159181D01*
X201898Y159116D01*
X201903Y159110D01*
X201914Y159083D01*
X201931Y159045D01*
X201947Y158995D01*
X201963Y158935D01*
X201980Y158859D01*
X201991Y158777D01*
X201996Y158684D01*
Y158679D01*
Y158673D01*
Y158641D01*
X201991Y158591D01*
X201985Y158526D01*
X201974Y158455D01*
X201963Y158373D01*
X201942Y158286D01*
X201914Y158198D01*
X201909Y158187D01*
X201898Y158160D01*
X201882Y158116D01*
X201860Y158062D01*
X201827Y158002D01*
X201783Y157936D01*
X201740Y157865D01*
X201685Y157794D01*
X201679Y157789D01*
X201658Y157767D01*
X201625Y157729D01*
X201581Y157691D01*
X201527Y157641D01*
X201467Y157592D01*
X201396Y157543D01*
X201319Y157494D01*
X201308Y157489D01*
X201281Y157478D01*
X201237Y157456D01*
X201177Y157428D01*
X201106Y157401D01*
X201024Y157379D01*
X200932Y157352D01*
X200833Y157330D01*
X200839D01*
X200850Y157319D01*
X200882Y157297D01*
X200932Y157259D01*
X200981Y157210D01*
X200986Y157205D01*
X200992Y157199D01*
X201008Y157183D01*
X201024Y157161D01*
X201068Y157106D01*
X201112Y157030D01*
X201117Y157024D01*
X201123Y157008D01*
X201133Y156986D01*
X201150Y156953D01*
X201166Y156915D01*
X201188Y156871D01*
X201204Y156817D01*
X201226Y156762D01*
X201232Y156757D01*
X201237Y156735D01*
X201248Y156702D01*
X201265Y156659D01*
X201281Y156604D01*
X201303Y156544D01*
X201330Y156473D01*
X201352Y156396D01*
X201647Y155337D01*
X200735D01*
X200473Y156402D01*
Y156413D01*
X200462Y156440D01*
X200457Y156478D01*
X200440Y156527D01*
X200424Y156582D01*
X200407Y156637D01*
X200385Y156697D01*
X200364Y156751D01*
Y156757D01*
X200353Y156773D01*
X200342Y156800D01*
X200325Y156833D01*
X200282Y156904D01*
X200255Y156937D01*
X200227Y156970D01*
X200222Y156975D01*
X200216Y156981D01*
X200200Y156997D01*
X200178Y157013D01*
X200123Y157052D01*
X200058Y157079D01*
X200052D01*
X200042Y157084D01*
X200020Y157090D01*
X199998Y157095D01*
X199965Y157101D01*
X199927Y157106D01*
X199845Y157112D01*
X199719D01*
X199364Y155337D01*
X198562D01*
X199419Y159623D01*
X200757D01*
X200833Y159618D01*
D02*
G37*
G36*
X197109D02*
X197208Y159612D01*
X197317Y159601D01*
X197437Y159585D01*
X197557Y159563D01*
X197666Y159530D01*
X197672D01*
X197677Y159525D01*
X197694Y159520D01*
X197716Y159514D01*
X197765Y159492D01*
X197836Y159465D01*
X197907Y159432D01*
X197983Y159389D01*
X198059Y159339D01*
X198131Y159285D01*
X198136Y159279D01*
X198158Y159257D01*
X198191Y159230D01*
X198229Y159187D01*
X198273Y159137D01*
X198316Y159077D01*
X198354Y159006D01*
X198387Y158935D01*
X198393Y158924D01*
X198398Y158903D01*
X198414Y158864D01*
X198431Y158810D01*
X198442Y158750D01*
X198458Y158684D01*
X198464Y158608D01*
X198469Y158531D01*
Y158526D01*
Y158515D01*
Y158499D01*
Y158471D01*
X198464Y158439D01*
Y158400D01*
X198453Y158313D01*
X198436Y158209D01*
X198414Y158089D01*
X198387Y157969D01*
X198344Y157843D01*
Y157838D01*
X198338Y157827D01*
X198333Y157811D01*
X198322Y157789D01*
X198289Y157729D01*
X198251Y157647D01*
X198196Y157560D01*
X198131Y157461D01*
X198054Y157363D01*
X197967Y157265D01*
X197961D01*
X197956Y157254D01*
X197939Y157243D01*
X197923Y157221D01*
X197868Y157177D01*
X197792Y157123D01*
X197699Y157057D01*
X197590Y156986D01*
X197464Y156921D01*
X197328Y156861D01*
X197322D01*
X197311Y156855D01*
X197290Y156850D01*
X197262Y156839D01*
X197224Y156828D01*
X197180Y156811D01*
X197131Y156800D01*
X197071Y156790D01*
X197006Y156773D01*
X196940Y156762D01*
X196782Y156735D01*
X196613Y156719D01*
X196422Y156713D01*
X195968D01*
X195695Y155337D01*
X194893D01*
X195750Y159623D01*
X197066D01*
X197109Y159618D01*
D02*
G37*
G36*
X122222Y218739D02*
X119639Y218515D01*
X118793Y218449D01*
X119688Y218023D01*
X122222Y216811D01*
Y215910D01*
X117936Y218083D01*
Y219153D01*
X122222Y219601D01*
Y218739D01*
D02*
G37*
G36*
X120076Y215512D02*
Y213470D01*
X119366Y213622D01*
Y215659D01*
X120076Y215512D01*
D02*
G37*
G36*
X122222Y239099D02*
X119639Y238875D01*
X118793Y238809D01*
X119688Y238383D01*
X122222Y237171D01*
Y236270D01*
X117936Y238443D01*
Y239513D01*
X122222Y239961D01*
Y239099D01*
D02*
G37*
G36*
X120054Y236456D02*
Y235233D01*
X121321Y234976D01*
Y234239D01*
X120054Y234496D01*
Y233267D01*
X119394Y233404D01*
Y234627D01*
X118121Y234878D01*
Y235615D01*
X119394Y235364D01*
Y236587D01*
X120054Y236456D01*
D02*
G37*
G36*
X122222Y282012D02*
X119639Y281788D01*
X118793Y281722D01*
X119688Y281297D01*
X122222Y280084D01*
Y279184D01*
X117936Y281357D01*
Y282427D01*
X122222Y282874D01*
Y282012D01*
D02*
G37*
G36*
X120054Y279369D02*
Y278146D01*
X121321Y277890D01*
Y277152D01*
X120054Y277409D01*
Y276181D01*
X119394Y276317D01*
Y277540D01*
X118121Y277791D01*
Y278528D01*
X119394Y278277D01*
Y279500D01*
X120054Y279369D01*
D02*
G37*
G36*
X122222Y261652D02*
X119639Y261428D01*
X118793Y261363D01*
X119688Y260937D01*
X122222Y259724D01*
Y258824D01*
X117936Y260997D01*
Y262067D01*
X122222Y262515D01*
Y261652D01*
D02*
G37*
G36*
X120076Y258425D02*
Y256383D01*
X119366Y256536D01*
Y258573D01*
X120076Y258425D01*
D02*
G37*
G36*
X434917Y193847D02*
X435081D01*
X435262Y193814D01*
X435475Y193781D01*
X435688Y193732D01*
X435901Y193667D01*
X435934Y193650D01*
X436000Y193634D01*
X436115Y193585D01*
X436246Y193519D01*
X436410Y193454D01*
X436590Y193355D01*
X436951Y193125D01*
X436967Y193109D01*
X437033Y193060D01*
X437115Y192994D01*
X437230Y192896D01*
X437345Y192781D01*
X437492Y192650D01*
X437640Y192486D01*
X437771Y192322D01*
X437787Y192306D01*
X437820Y192240D01*
X437886Y192141D01*
X437968Y192027D01*
X438050Y191879D01*
X438132Y191699D01*
X438214Y191502D01*
X438296Y191305D01*
Y191322D01*
X438312Y191387D01*
X438329Y191469D01*
X438361Y191568D01*
X438460Y191830D01*
X438591Y192092D01*
X438607Y192109D01*
X438624Y192158D01*
X438673Y192224D01*
X438722Y192306D01*
X438886Y192502D01*
X439099Y192683D01*
X439116Y192699D01*
X439149Y192732D01*
X439214Y192765D01*
X439296Y192830D01*
X439395Y192879D01*
X439509Y192945D01*
X439772Y193060D01*
X439788D01*
X439837Y193076D01*
X439919Y193109D01*
X440001Y193125D01*
X440133Y193158D01*
X440247Y193175D01*
X440543Y193191D01*
X440559D01*
X440608D01*
X440690D01*
X440789Y193175D01*
X440920D01*
X441067Y193158D01*
X441395Y193109D01*
X441412D01*
X441477Y193093D01*
X441576Y193076D01*
X441690Y193043D01*
X441838Y192994D01*
X442019Y192945D01*
X442379Y192798D01*
X442396Y192781D01*
X442461Y192748D01*
X442560Y192699D01*
X442691Y192633D01*
X442838Y192535D01*
X443003Y192437D01*
X443166Y192306D01*
X443347Y192158D01*
X443363Y192141D01*
X443429Y192092D01*
X443511Y191994D01*
X443626Y191879D01*
X443757Y191715D01*
X443904Y191535D01*
X444052Y191322D01*
X444200Y191092D01*
X444216Y191059D01*
X444265Y190977D01*
X444331Y190830D01*
X444413Y190649D01*
X444511Y190419D01*
X444610Y190141D01*
X444708Y189846D01*
X444806Y189501D01*
Y189485D01*
X444823Y189452D01*
Y189403D01*
X444839Y189337D01*
X444856Y189239D01*
X444872Y189140D01*
X444888Y189009D01*
X444905Y188878D01*
X444954Y188550D01*
X444987Y188173D01*
X445003Y187746D01*
X445020Y187287D01*
Y183302D01*
X432146Y185893D01*
Y190190D01*
X432162Y190305D01*
X432178Y190551D01*
X432195Y190846D01*
X432228Y191157D01*
X432293Y191453D01*
X432359Y191748D01*
Y191764D01*
X432375Y191781D01*
X432392Y191879D01*
X432441Y192010D01*
X432507Y192191D01*
X432572Y192371D01*
X432670Y192584D01*
X432785Y192781D01*
X432900Y192962D01*
X432916Y192978D01*
X432966Y193043D01*
X433031Y193125D01*
X433130Y193224D01*
X433245Y193339D01*
X433376Y193454D01*
X433540Y193552D01*
X433704Y193650D01*
X433720Y193667D01*
X433786Y193683D01*
X433884Y193716D01*
X433999Y193765D01*
X434146Y193798D01*
X434310Y193831D01*
X434491Y193847D01*
X434688Y193863D01*
X434721D01*
X434802D01*
X434917Y193847D01*
D02*
G37*
%LPC*%
G36*
X134631Y328931D02*
X134548D01*
X134543D01*
X134534D01*
X134515D01*
X134492D01*
X134464Y328926D01*
X134427Y328922D01*
X134353Y328912D01*
X134269Y328898D01*
X134186Y328875D01*
X134107Y328843D01*
X134037Y328801D01*
X134033Y328796D01*
X134014Y328778D01*
X133986Y328745D01*
X133958Y328699D01*
X133931Y328639D01*
X133903Y328564D01*
X133884Y328476D01*
X133880Y328374D01*
Y328346D01*
X133884Y328309D01*
X133889Y328267D01*
X133898Y328216D01*
X133912Y328165D01*
X133931Y328110D01*
X133954Y328054D01*
X133958Y328049D01*
X133968Y328031D01*
X133986Y327998D01*
X134010Y327966D01*
X134042Y327924D01*
X134079Y327878D01*
X134121Y327831D01*
X134167Y327785D01*
X134172Y327780D01*
X134191Y327766D01*
X134218Y327743D01*
X134256Y327715D01*
X134302Y327683D01*
X134358Y327646D01*
X134413Y327608D01*
X134478Y327576D01*
X134487Y327571D01*
X134511Y327562D01*
X134548Y327543D01*
X134594Y327525D01*
X134654Y327502D01*
X134720Y327474D01*
X134794Y327451D01*
X134868Y327428D01*
X134873D01*
X134877Y327423D01*
X134905Y327418D01*
X134947Y327409D01*
X135003Y327395D01*
X135067Y327381D01*
X135137Y327363D01*
X135216Y327353D01*
X135300Y327339D01*
X135304D01*
X135309D01*
X135337Y327335D01*
X135383Y327330D01*
X135439Y327321D01*
X135508Y327316D01*
X135582Y327311D01*
X135661Y327307D01*
X135745D01*
X135750D01*
X135759D01*
X135777D01*
X135801D01*
X135828Y327311D01*
X135861D01*
X135935Y327326D01*
X136019Y327339D01*
X136102Y327363D01*
X136181Y327395D01*
X136251Y327442D01*
X136260Y327446D01*
X136278Y327465D01*
X136302Y327497D01*
X136334Y327543D01*
X136362Y327604D01*
X136390Y327678D01*
X136408Y327766D01*
X136413Y327868D01*
Y327896D01*
X136408Y327933D01*
X136404Y327975D01*
X136395Y328026D01*
X136381Y328082D01*
X136362Y328137D01*
X136334Y328193D01*
X136330Y328198D01*
X136320Y328216D01*
X136302Y328244D01*
X136278Y328281D01*
X136251Y328323D01*
X136214Y328365D01*
X136172Y328411D01*
X136125Y328458D01*
X136121Y328462D01*
X136102Y328476D01*
X136074Y328499D01*
X136037Y328527D01*
X135991Y328560D01*
X135935Y328597D01*
X135875Y328634D01*
X135810Y328666D01*
X135801Y328671D01*
X135777Y328680D01*
X135740Y328699D01*
X135694Y328717D01*
X135634Y328741D01*
X135569Y328764D01*
X135499Y328792D01*
X135420Y328815D01*
X135411Y328819D01*
X135383Y328824D01*
X135346Y328834D01*
X135290Y328847D01*
X135225Y328861D01*
X135151Y328875D01*
X135072Y328889D01*
X134989Y328903D01*
X134984D01*
X134979D01*
X134951Y328908D01*
X134905Y328912D01*
X134849Y328917D01*
X134784Y328922D01*
X134710Y328926D01*
X134631Y328931D01*
D02*
G37*
G36*
X121468Y326476D02*
Y326073D01*
X121472Y326035D01*
X121477Y325985D01*
X121482Y325924D01*
X121495Y325864D01*
X121509Y325799D01*
X121533Y325734D01*
X121537Y325725D01*
X121547Y325706D01*
X121561Y325674D01*
X121584Y325632D01*
X121607Y325590D01*
X121639Y325539D01*
X121677Y325493D01*
X121718Y325446D01*
X121723Y325442D01*
X121741Y325428D01*
X121765Y325405D01*
X121797Y325381D01*
X121839Y325349D01*
X121885Y325321D01*
X121941Y325293D01*
X121997Y325265D01*
X122006Y325261D01*
X122025Y325256D01*
X122057Y325242D01*
X122099Y325228D01*
X122150Y325219D01*
X122205Y325205D01*
X122270Y325200D01*
X122335Y325196D01*
X122340D01*
X122349D01*
X122368D01*
X122391Y325200D01*
X122447Y325205D01*
X122507Y325223D01*
X122512D01*
X122521Y325228D01*
X122535Y325237D01*
X122558Y325247D01*
X122605Y325275D01*
X122655Y325321D01*
X122660Y325326D01*
X122665Y325335D01*
X122679Y325349D01*
X122693Y325372D01*
X122711Y325400D01*
X122725Y325432D01*
X122744Y325469D01*
X122758Y325516D01*
Y325520D01*
X122762Y325539D01*
X122772Y325562D01*
X122781Y325599D01*
X122785Y325646D01*
X122795Y325701D01*
X122799Y325762D01*
Y326212D01*
X121468Y326476D01*
D02*
G37*
G36*
Y323340D02*
Y322936D01*
X121472Y322899D01*
X121477Y322848D01*
X121482Y322787D01*
X121495Y322727D01*
X121509Y322662D01*
X121533Y322597D01*
X121537Y322588D01*
X121547Y322569D01*
X121561Y322537D01*
X121584Y322495D01*
X121607Y322453D01*
X121639Y322402D01*
X121677Y322356D01*
X121718Y322310D01*
X121723Y322305D01*
X121741Y322291D01*
X121765Y322268D01*
X121797Y322245D01*
X121839Y322212D01*
X121885Y322184D01*
X121941Y322157D01*
X121997Y322129D01*
X122006Y322124D01*
X122025Y322119D01*
X122057Y322106D01*
X122099Y322092D01*
X122150Y322082D01*
X122205Y322068D01*
X122270Y322064D01*
X122335Y322059D01*
X122340D01*
X122349D01*
X122368D01*
X122391Y322064D01*
X122447Y322068D01*
X122507Y322087D01*
X122512D01*
X122521Y322092D01*
X122535Y322101D01*
X122558Y322110D01*
X122605Y322138D01*
X122655Y322184D01*
X122660Y322189D01*
X122665Y322198D01*
X122679Y322212D01*
X122693Y322235D01*
X122711Y322263D01*
X122725Y322296D01*
X122744Y322333D01*
X122758Y322379D01*
Y322384D01*
X122762Y322402D01*
X122772Y322426D01*
X122781Y322463D01*
X122785Y322509D01*
X122795Y322565D01*
X122799Y322625D01*
Y323075D01*
X121468Y323340D01*
D02*
G37*
G36*
X126437Y321915D02*
Y321641D01*
X126442Y321604D01*
Y321553D01*
X126446Y321498D01*
X126456Y321437D01*
X126479Y321317D01*
Y321307D01*
X126488Y321289D01*
X126497Y321261D01*
X126511Y321219D01*
X126530Y321178D01*
X126549Y321131D01*
X126576Y321085D01*
X126604Y321043D01*
X126609Y321038D01*
X126618Y321024D01*
X126637Y321006D01*
X126660Y320978D01*
X126692Y320950D01*
X126725Y320922D01*
X126767Y320894D01*
X126808Y320871D01*
X126813Y320867D01*
X126831Y320862D01*
X126855Y320853D01*
X126892Y320839D01*
X126934Y320830D01*
X126980Y320820D01*
X127036Y320815D01*
X127091Y320811D01*
X127101D01*
X127124D01*
X127156Y320820D01*
X127198Y320830D01*
X127244Y320843D01*
X127291Y320871D01*
X127337Y320904D01*
X127374Y320950D01*
X127379Y320955D01*
X127388Y320973D01*
X127402Y321006D01*
X127421Y321052D01*
X127439Y321112D01*
X127453Y321187D01*
X127463Y321275D01*
X127467Y321377D01*
Y321711D01*
X126437Y321915D01*
D02*
G37*
G36*
X130135Y320913D02*
X130052D01*
X130047D01*
X130038D01*
X130019D01*
X129996D01*
X129968Y320908D01*
X129931Y320904D01*
X129857Y320894D01*
X129773Y320881D01*
X129690Y320857D01*
X129611Y320825D01*
X129541Y320783D01*
X129537Y320778D01*
X129518Y320760D01*
X129490Y320727D01*
X129462Y320681D01*
X129435Y320621D01*
X129407Y320546D01*
X129388Y320458D01*
X129384Y320356D01*
Y320328D01*
X129388Y320291D01*
X129393Y320250D01*
X129402Y320198D01*
X129416Y320147D01*
X129435Y320092D01*
X129458Y320036D01*
X129462Y320031D01*
X129472Y320013D01*
X129490Y319980D01*
X129513Y319948D01*
X129546Y319906D01*
X129583Y319860D01*
X129625Y319813D01*
X129671Y319767D01*
X129676Y319762D01*
X129694Y319748D01*
X129722Y319725D01*
X129759Y319697D01*
X129806Y319665D01*
X129861Y319628D01*
X129917Y319591D01*
X129982Y319558D01*
X129991Y319553D01*
X130015Y319544D01*
X130052Y319526D01*
X130098Y319507D01*
X130158Y319484D01*
X130223Y319456D01*
X130298Y319433D01*
X130372Y319410D01*
X130377D01*
X130381Y319405D01*
X130409Y319400D01*
X130451Y319391D01*
X130506Y319377D01*
X130571Y319363D01*
X130641Y319345D01*
X130720Y319335D01*
X130803Y319321D01*
X130808D01*
X130813D01*
X130841Y319317D01*
X130887Y319312D01*
X130943Y319303D01*
X131012Y319298D01*
X131086Y319294D01*
X131165Y319289D01*
X131249D01*
X131253D01*
X131263D01*
X131281D01*
X131305D01*
X131332Y319294D01*
X131365D01*
X131439Y319307D01*
X131523Y319321D01*
X131606Y319345D01*
X131685Y319377D01*
X131755Y319424D01*
X131764Y319428D01*
X131782Y319447D01*
X131806Y319479D01*
X131838Y319526D01*
X131866Y319586D01*
X131894Y319660D01*
X131912Y319748D01*
X131917Y319850D01*
Y319878D01*
X131912Y319915D01*
X131908Y319957D01*
X131898Y320008D01*
X131885Y320064D01*
X131866Y320120D01*
X131838Y320175D01*
X131833Y320180D01*
X131824Y320198D01*
X131806Y320226D01*
X131782Y320263D01*
X131755Y320305D01*
X131717Y320347D01*
X131676Y320393D01*
X131629Y320440D01*
X131625Y320444D01*
X131606Y320458D01*
X131578Y320481D01*
X131541Y320509D01*
X131495Y320542D01*
X131439Y320579D01*
X131379Y320616D01*
X131314Y320649D01*
X131305Y320653D01*
X131281Y320662D01*
X131244Y320681D01*
X131198Y320700D01*
X131137Y320723D01*
X131072Y320746D01*
X131003Y320774D01*
X130924Y320797D01*
X130915Y320802D01*
X130887Y320806D01*
X130850Y320815D01*
X130794Y320830D01*
X130729Y320843D01*
X130655Y320857D01*
X130576Y320871D01*
X130492Y320885D01*
X130488D01*
X130483D01*
X130455Y320890D01*
X130409Y320894D01*
X130353Y320899D01*
X130288Y320904D01*
X130214Y320908D01*
X130135Y320913D01*
D02*
G37*
G36*
X125676Y315749D02*
Y314793D01*
X127370Y314927D01*
X125676Y315749D01*
D02*
G37*
G36*
X407868Y293221D02*
D01*
X403150Y292770D01*
Y291526D01*
X407868Y289188D01*
X403150D01*
X407868D01*
Y293221D01*
D02*
G37*
G36*
Y286015D02*
Y283521D01*
X406197Y283845D01*
X403150Y286015D01*
Y285017D01*
X404592Y284020D01*
X405326Y283545D01*
X404610Y283371D01*
X403150Y282956D01*
Y282031D01*
X406209Y282956D01*
X407868Y282620D01*
Y282031D01*
Y286015D01*
D02*
G37*
G36*
Y280738D02*
D01*
Y280588D01*
X407104Y280738D01*
Y278749D01*
X403150Y279542D01*
Y278641D01*
X407868Y277697D01*
Y280738D01*
D02*
G37*
G36*
Y277349D02*
D01*
Y274296D01*
X406353Y274596D01*
Y275095D01*
X406347Y275305D01*
X406329Y275492D01*
X406299Y275666D01*
X406287Y275738D01*
X406269Y275810D01*
X406257Y275876D01*
X406245Y275930D01*
X406227Y275978D01*
X406215Y276021D01*
X406203Y276051D01*
X406197Y276075D01*
X406191Y276087D01*
Y276093D01*
X406125Y276243D01*
X406053Y276381D01*
X405975Y276501D01*
X405902Y276604D01*
X405842Y276688D01*
X405794Y276748D01*
X405770Y276766D01*
X405758Y276784D01*
X405746Y276790D01*
Y276796D01*
X405638Y276892D01*
X405530Y276976D01*
X405422Y277048D01*
X405326Y277108D01*
X405235Y277150D01*
X405169Y277186D01*
X405145Y277199D01*
X405127Y277204D01*
X405115Y277210D01*
X405109D01*
X404971Y277259D01*
X404839Y277289D01*
X404706Y277313D01*
X404592Y277331D01*
X404496Y277343D01*
X404454D01*
X404418Y277349D01*
X407868D01*
X403150D01*
X404352D01*
X404268Y277343D01*
X404184Y277337D01*
X404111Y277319D01*
X404045Y277307D01*
X403985Y277289D01*
X403943Y277271D01*
X403919Y277265D01*
X403907Y277259D01*
X403829Y277222D01*
X403751Y277180D01*
X403685Y277132D01*
X403631Y277084D01*
X403583Y277042D01*
X403553Y277006D01*
X403528Y276982D01*
X403522Y276976D01*
X403462Y276898D01*
X403408Y276814D01*
X403360Y276730D01*
X403324Y276652D01*
X403294Y276573D01*
X403270Y276519D01*
X403264Y276495D01*
X403258Y276477D01*
X403252Y276471D01*
Y276465D01*
X403216Y276345D01*
X403192Y276213D01*
X403174Y276081D01*
X403162Y275960D01*
X403156Y275852D01*
X403150Y275804D01*
Y274356D01*
X407868Y273412D01*
X403150D01*
X407868D01*
Y277349D01*
D02*
G37*
G36*
Y273286D02*
D01*
Y270233D01*
X406353Y270533D01*
Y271032D01*
X406347Y271242D01*
X406329Y271429D01*
X406299Y271603D01*
X406287Y271675D01*
X406269Y271747D01*
X406257Y271814D01*
X406245Y271868D01*
X406227Y271916D01*
X406215Y271958D01*
X406203Y271988D01*
X406197Y272012D01*
X406191Y272024D01*
Y272030D01*
X406125Y272180D01*
X406053Y272318D01*
X405975Y272439D01*
X405902Y272541D01*
X405842Y272625D01*
X405794Y272685D01*
X405770Y272703D01*
X405758Y272721D01*
X405746Y272727D01*
Y272733D01*
X405638Y272829D01*
X405530Y272913D01*
X405422Y272985D01*
X405326Y273046D01*
X405235Y273088D01*
X405169Y273124D01*
X405145Y273136D01*
X405127Y273142D01*
X405115Y273148D01*
X405109D01*
X404971Y273196D01*
X404839Y273226D01*
X404706Y273250D01*
X404592Y273268D01*
X404496Y273280D01*
X404454D01*
X404418Y273286D01*
X407868D01*
X403150D01*
X404352D01*
X404268Y273280D01*
X404184Y273274D01*
X404111Y273256D01*
X404045Y273244D01*
X403985Y273226D01*
X403943Y273208D01*
X403919Y273202D01*
X403907Y273196D01*
X403829Y273160D01*
X403751Y273118D01*
X403685Y273070D01*
X403631Y273022D01*
X403583Y272979D01*
X403553Y272943D01*
X403528Y272919D01*
X403522Y272913D01*
X403462Y272835D01*
X403408Y272751D01*
X403360Y272667D01*
X403324Y272589D01*
X403294Y272511D01*
X403270Y272457D01*
X403264Y272432D01*
X403258Y272414D01*
X403252Y272409D01*
Y272403D01*
X403216Y272282D01*
X403192Y272150D01*
X403174Y272018D01*
X403162Y271898D01*
X403156Y271790D01*
X403150Y271741D01*
Y270293D01*
X407147Y269494D01*
D01*
X407868Y269349D01*
Y269494D01*
Y273286D01*
D02*
G37*
G36*
X403150Y269494D02*
Y268604D01*
X406197Y267991D01*
X406299Y267967D01*
X406389Y267943D01*
X406467Y267919D01*
X406533Y267901D01*
X406588Y267877D01*
X406630Y267865D01*
X406660Y267853D01*
X406666Y267847D01*
X406732Y267811D01*
X406798Y267781D01*
X406852Y267739D01*
X406894Y267709D01*
X406936Y267679D01*
X406960Y267655D01*
X406978Y267636D01*
X406984Y267631D01*
X407026Y267583D01*
X407068Y267528D01*
X407098Y267480D01*
X407123Y267432D01*
X407140Y267390D01*
X407153Y267360D01*
X407165Y267336D01*
Y267330D01*
X407195Y267198D01*
X407207Y267132D01*
X407213Y267078D01*
Y267023D01*
X407219Y266982D01*
Y266879D01*
X407213Y266819D01*
X407207Y266765D01*
X407201Y266723D01*
X407195Y266687D01*
X407189Y266657D01*
X407183Y266639D01*
Y266633D01*
X407153Y266549D01*
X407117Y266483D01*
X407098Y266459D01*
X407086Y266441D01*
X407074Y266435D01*
Y266428D01*
X407008Y266381D01*
X406948Y266350D01*
X406924Y266338D01*
X406900Y266326D01*
X406888Y266320D01*
X406882D01*
X406792Y266302D01*
X406708Y266290D01*
X406678Y266284D01*
X406648D01*
X406630D01*
X406624D01*
X406491Y266290D01*
X406425Y266296D01*
X406359Y266308D01*
X406305Y266314D01*
X406263Y266320D01*
X406239Y266326D01*
X406227D01*
X403150Y266939D01*
Y266056D01*
X406209Y265443D01*
X406311Y265425D01*
X406401Y265407D01*
X406491Y265395D01*
X406564Y265389D01*
X406630D01*
X406678Y265383D01*
X403150D01*
X406720D01*
X406822Y265389D01*
X406918Y265395D01*
X407008Y265407D01*
X407080Y265419D01*
X407140Y265431D01*
X407189Y265443D01*
X407219Y265455D01*
X407231D01*
X407315Y265491D01*
X407387Y265527D01*
X407453Y265569D01*
X407513Y265611D01*
X407555Y265653D01*
X407591Y265683D01*
X407615Y265707D01*
X407621Y265713D01*
X407675Y265786D01*
X407729Y265864D01*
X407772Y265936D01*
X407808Y266008D01*
X407832Y266074D01*
X407850Y266122D01*
X407862Y266158D01*
X407868Y266170D01*
X407898Y266278D01*
X407916Y266392D01*
X407934Y266501D01*
X407940Y266609D01*
X407946Y266699D01*
X407952Y266735D01*
Y265383D01*
D01*
Y266831D01*
X407946Y266982D01*
X407934Y267126D01*
X407922Y267252D01*
X407898Y267360D01*
X407880Y267456D01*
X407874Y267492D01*
X407868Y267522D01*
X407862Y267546D01*
X407856Y267564D01*
X407850Y267577D01*
Y267583D01*
X407808Y267709D01*
X407760Y267823D01*
X407705Y267925D01*
X407657Y268009D01*
X407609Y268081D01*
X407573Y268135D01*
X407549Y268171D01*
X407537Y268183D01*
X407453Y268274D01*
X407363Y268358D01*
X407267Y268430D01*
X407183Y268496D01*
X407104Y268544D01*
X407044Y268580D01*
X407020Y268592D01*
X407002Y268604D01*
X406996Y268610D01*
X406990D01*
X406864Y268670D01*
X406726Y268724D01*
X406600Y268772D01*
X406473Y268809D01*
X406371Y268839D01*
X406323Y268851D01*
X406287Y268857D01*
X406251Y268863D01*
X406227Y268869D01*
X406215Y268875D01*
X406209D01*
X403863Y269349D01*
D01*
X403150Y269494D01*
D02*
G37*
G36*
X407952Y264998D02*
X403072D01*
D01*
X403222D01*
X403204Y264914D01*
X403186Y264830D01*
X403180Y264800D01*
X403174Y264776D01*
X403168Y264758D01*
Y264752D01*
X403150Y264650D01*
X403138Y264601D01*
X403132Y264559D01*
X403126Y264523D01*
Y264493D01*
X403120Y264475D01*
Y264469D01*
X403108Y264361D01*
X403102Y264307D01*
X403096Y264259D01*
Y264223D01*
X403090Y264187D01*
Y264163D01*
X403078Y264049D01*
Y263995D01*
X403072Y263946D01*
Y264019D01*
Y263850D01*
X403078Y263658D01*
X403090Y263478D01*
X403114Y263321D01*
X403126Y263249D01*
X403132Y263189D01*
X403144Y263129D01*
X403156Y263075D01*
X403168Y263033D01*
X403180Y262997D01*
X403186Y262967D01*
X403192Y262943D01*
X403198Y262931D01*
Y262925D01*
X403246Y262787D01*
X403306Y262660D01*
X403360Y262552D01*
X403414Y262462D01*
X403462Y262390D01*
X403499Y262336D01*
X403522Y262300D01*
X403535Y262288D01*
X403613Y262204D01*
X403697Y262125D01*
X403781Y262065D01*
X403853Y262011D01*
X403919Y261975D01*
X403967Y261945D01*
X404003Y261927D01*
X404009Y261921D01*
X404015D01*
X404117Y261879D01*
X404214Y261849D01*
X404304Y261831D01*
X404388Y261819D01*
X404460Y261807D01*
X404520Y261801D01*
X404556D01*
X404562D01*
X404568D01*
X404652Y261807D01*
X404737Y261813D01*
X404809Y261825D01*
X404869Y261843D01*
X404917Y261855D01*
X404959Y261867D01*
X404983Y261873D01*
X404989Y261879D01*
X405055Y261915D01*
X405115Y261951D01*
X405169Y261987D01*
X405217Y262017D01*
X405253Y262047D01*
X405283Y262071D01*
X405302Y262089D01*
X405307Y262095D01*
X405398Y262204D01*
X405440Y262252D01*
X405476Y262300D01*
X405500Y262342D01*
X405524Y262372D01*
X405536Y262396D01*
X405542Y262402D01*
X405608Y262528D01*
X405638Y262582D01*
X405668Y262636D01*
X405692Y262678D01*
X405710Y262714D01*
X405716Y262738D01*
X405722Y262744D01*
X405782Y262877D01*
X405812Y262937D01*
X405836Y262985D01*
X405860Y263033D01*
X405878Y263063D01*
X405884Y263087D01*
X405890Y263093D01*
X405921Y263159D01*
X405950Y263213D01*
X405981Y263267D01*
X406005Y263309D01*
X406029Y263351D01*
X406041Y263375D01*
X406053Y263393D01*
X406059Y263400D01*
X406125Y263496D01*
X406161Y263532D01*
X406191Y263562D01*
X406215Y263586D01*
X406239Y263604D01*
X406251Y263616D01*
X406257Y263622D01*
X406299Y263652D01*
X406341Y263670D01*
X406425Y263694D01*
X406461Y263700D01*
X406491Y263706D01*
X406509D01*
X406516D01*
X406564D01*
X406612Y263694D01*
X406654Y263688D01*
X406690Y263676D01*
X406720Y263664D01*
X406744Y263652D01*
X406762Y263646D01*
X406768Y263640D01*
X406810Y263616D01*
X406846Y263586D01*
X406912Y263520D01*
X406936Y263496D01*
X406954Y263472D01*
X406966Y263454D01*
X406972Y263448D01*
X407002Y263393D01*
X407032Y263339D01*
X407056Y263285D01*
X407080Y263231D01*
X407092Y263183D01*
X407104Y263147D01*
X407117Y263123D01*
Y263111D01*
X407134Y263033D01*
X407147Y262949D01*
X407153Y262865D01*
X407159Y262792D01*
X407165Y262726D01*
Y262504D01*
X407159Y262444D01*
Y262354D01*
X407153Y262318D01*
Y262288D01*
X407134Y262161D01*
X407128Y262101D01*
X407123Y262047D01*
X407117Y262005D01*
X407111Y261969D01*
X407104Y261945D01*
Y261939D01*
X407074Y261813D01*
X407062Y261759D01*
X407050Y261705D01*
X407038Y261663D01*
X407026Y261627D01*
X407020Y261602D01*
Y261596D01*
X406984Y261476D01*
X406966Y261422D01*
X406948Y261374D01*
X406936Y261332D01*
X406924Y261302D01*
X406918Y261284D01*
Y261278D01*
X407754Y261110D01*
X407820Y261344D01*
X407844Y261452D01*
X407868Y261554D01*
X407886Y261639D01*
X407892Y261705D01*
X407898Y261729D01*
X407904Y261747D01*
Y261765D01*
X407934Y262029D01*
X407940Y262155D01*
X407946Y262270D01*
X407952Y262366D01*
Y262510D01*
X407946Y262696D01*
X407934Y262865D01*
X407916Y263021D01*
X407898Y263153D01*
X407886Y263213D01*
X407880Y263261D01*
X407868Y263309D01*
X407862Y263345D01*
X407856Y263375D01*
X407850Y263400D01*
X407844Y263411D01*
Y263418D01*
X407796Y263568D01*
X407748Y263700D01*
X407693Y263820D01*
X407639Y263922D01*
X407597Y264001D01*
X407561Y264061D01*
X407543Y264085D01*
X407531Y264103D01*
X407525Y264109D01*
Y264115D01*
X407441Y264217D01*
X407357Y264307D01*
X407273Y264385D01*
X407195Y264445D01*
X407123Y264493D01*
X407068Y264529D01*
X407032Y264553D01*
X407026Y264559D01*
X407020D01*
X406906Y264614D01*
X406792Y264650D01*
X406678Y264680D01*
X406576Y264698D01*
X406485Y264710D01*
X406449D01*
X406413Y264716D01*
X406389D01*
X406371D01*
X406359D01*
X406353D01*
X406269Y264710D01*
X406191Y264704D01*
X406119Y264692D01*
X406059Y264674D01*
X406011Y264656D01*
X405969Y264644D01*
X405944Y264638D01*
X405938Y264632D01*
X405872Y264596D01*
X405806Y264559D01*
X405752Y264523D01*
X405704Y264487D01*
X405668Y264457D01*
X405638Y264433D01*
X405620Y264415D01*
X405614Y264409D01*
X405518Y264307D01*
X405476Y264253D01*
X405440Y264205D01*
X405416Y264163D01*
X405392Y264133D01*
X405380Y264109D01*
X405374Y264103D01*
X405295Y263977D01*
X405265Y263916D01*
X405235Y263868D01*
X405211Y263820D01*
X405193Y263784D01*
X405187Y263760D01*
X405181Y263754D01*
X405115Y263622D01*
X405091Y263562D01*
X405061Y263508D01*
X405043Y263466D01*
X405025Y263430D01*
X405019Y263405D01*
X405013Y263400D01*
X404953Y263279D01*
X404923Y263231D01*
X404899Y263183D01*
X404875Y263147D01*
X404857Y263117D01*
X404851Y263099D01*
X404845Y263093D01*
X404779Y263003D01*
X404742Y262967D01*
X404712Y262937D01*
X404688Y262913D01*
X404670Y262895D01*
X404658Y262883D01*
X404652Y262877D01*
X404610Y262853D01*
X404574Y262835D01*
X404496Y262810D01*
X404460Y262805D01*
X404436Y262799D01*
X404418D01*
X404412D01*
X404328Y262805D01*
X404256Y262828D01*
X404232Y262835D01*
X404208Y262847D01*
X404196Y262853D01*
X404190D01*
X404147Y262877D01*
X404117Y262901D01*
X404057Y262961D01*
X404033Y262985D01*
X404015Y263009D01*
X404009Y263021D01*
X404003Y263027D01*
X403949Y263123D01*
X403913Y263225D01*
X403901Y263261D01*
X403889Y263297D01*
X403883Y263321D01*
Y263327D01*
X403865Y263400D01*
X403853Y263478D01*
X403847Y263550D01*
X403841Y263616D01*
X403835Y263676D01*
Y263868D01*
X403841Y263910D01*
Y263952D01*
X403847Y263988D01*
Y264019D01*
X403853Y264037D01*
Y264043D01*
X403865Y264151D01*
X403871Y264193D01*
X403877Y264241D01*
X403883Y264271D01*
Y264301D01*
X403889Y264319D01*
Y264325D01*
X403907Y264427D01*
X403913Y264475D01*
X403925Y264517D01*
X403931Y264553D01*
X403937Y264578D01*
X403943Y264596D01*
Y264601D01*
X403967Y264698D01*
X403973Y264734D01*
X403985Y264770D01*
X403991Y264800D01*
X403997Y264824D01*
X404003Y264836D01*
Y264842D01*
X403222Y264998D01*
X407952D01*
D02*
G37*
G36*
X408661Y258268D02*
X402362D01*
Y258268D01*
X408661D01*
Y258268D01*
D02*
G37*
%LPD*%
G36*
X406209Y290913D02*
X404015Y291977D01*
X406209Y292151D01*
Y290913D01*
D02*
G37*
G36*
X407868Y290108D02*
X406936Y290559D01*
Y292211D01*
X407868Y292284D01*
Y290108D01*
D02*
G37*
G36*
X404574Y276399D02*
X404658Y276393D01*
X404731Y276375D01*
X404797Y276363D01*
X404851Y276345D01*
X404893Y276327D01*
X404917Y276321D01*
X404929Y276315D01*
X405001Y276279D01*
X405073Y276243D01*
X405133Y276207D01*
X405187Y276165D01*
X405229Y276135D01*
X405259Y276105D01*
X405283Y276087D01*
X405289Y276081D01*
X405343Y276021D01*
X405392Y275960D01*
X405434Y275894D01*
X405464Y275840D01*
X405494Y275786D01*
X405512Y275744D01*
X405524Y275720D01*
X405530Y275708D01*
X405560Y275624D01*
X405578Y275540D01*
X405596Y275462D01*
X405602Y275383D01*
X405608Y275317D01*
X405614Y275269D01*
Y274746D01*
X403889Y275089D01*
Y275672D01*
X403895Y275750D01*
X403907Y275822D01*
X403913Y275882D01*
X403925Y275930D01*
X403937Y275960D01*
X403943Y275984D01*
Y275991D01*
X403961Y276051D01*
X403985Y276099D01*
X404003Y276141D01*
X404027Y276177D01*
X404045Y276207D01*
X404063Y276225D01*
X404069Y276237D01*
X404075Y276243D01*
X404142Y276303D01*
X404202Y276339D01*
X404232Y276351D01*
X404250Y276363D01*
X404262Y276369D01*
X404268D01*
X404346Y276393D01*
X404418Y276399D01*
X404448Y276405D01*
X404472D01*
X404484D01*
X404490D01*
X404574Y276399D01*
D02*
G37*
G36*
Y272336D02*
X404658Y272330D01*
X404731Y272312D01*
X404797Y272300D01*
X404851Y272282D01*
X404893Y272264D01*
X404917Y272258D01*
X404929Y272252D01*
X405001Y272216D01*
X405073Y272180D01*
X405133Y272144D01*
X405187Y272102D01*
X405229Y272072D01*
X405259Y272042D01*
X405283Y272024D01*
X405289Y272018D01*
X405343Y271958D01*
X405392Y271898D01*
X405434Y271831D01*
X405464Y271777D01*
X405494Y271723D01*
X405512Y271681D01*
X405524Y271657D01*
X405530Y271645D01*
X405560Y271561D01*
X405578Y271477D01*
X405596Y271399D01*
X405602Y271321D01*
X405608Y271255D01*
X405614Y271206D01*
Y270684D01*
X403889Y271026D01*
Y271609D01*
X403895Y271687D01*
X403907Y271759D01*
X403913Y271819D01*
X403925Y271868D01*
X403937Y271898D01*
X403943Y271922D01*
Y271928D01*
X403961Y271988D01*
X403985Y272036D01*
X404003Y272078D01*
X404027Y272114D01*
X404045Y272144D01*
X404063Y272162D01*
X404069Y272174D01*
X404075Y272180D01*
X404142Y272240D01*
X404202Y272276D01*
X404232Y272288D01*
X404250Y272300D01*
X404262Y272306D01*
X404268D01*
X404346Y272330D01*
X404418Y272336D01*
X404448Y272342D01*
X404472D01*
X404484D01*
X404490D01*
X404574Y272336D01*
D02*
G37*
%LPC*%
G36*
X163383Y284112D02*
X158665D01*
Y280175D01*
D01*
Y283228D01*
X160179Y282928D01*
Y282429D01*
X160185Y282219D01*
X160203Y282033D01*
X160233Y281858D01*
X160245Y281786D01*
X160263Y281714D01*
X160275Y281648D01*
X160287Y281594D01*
X160306Y281546D01*
X160318Y281504D01*
X160329Y281474D01*
X160336Y281450D01*
X160342Y281438D01*
Y281432D01*
X160408Y281281D01*
X160480Y281143D01*
X160558Y281023D01*
X160630Y280921D01*
X160690Y280837D01*
X160738Y280777D01*
X160762Y280758D01*
X160774Y280740D01*
X160786Y280734D01*
Y280728D01*
X160894Y280632D01*
X161003Y280548D01*
X161111Y280476D01*
X161207Y280416D01*
X161297Y280374D01*
X161363Y280338D01*
X161387Y280326D01*
X161405Y280320D01*
X161417Y280314D01*
X161423D01*
X161562Y280266D01*
X161694Y280236D01*
X161826Y280211D01*
X161940Y280193D01*
X162036Y280182D01*
X162078D01*
X162115Y280175D01*
X158665D01*
X163383D01*
X162181D01*
X162265Y280182D01*
X162349Y280188D01*
X162421Y280205D01*
X162487Y280218D01*
X162547Y280236D01*
X162589Y280254D01*
X162613Y280260D01*
X162625Y280266D01*
X162703Y280302D01*
X162782Y280344D01*
X162848Y280392D01*
X162902Y280440D01*
X162950Y280482D01*
X162980Y280518D01*
X163004Y280542D01*
X163010Y280548D01*
X163070Y280626D01*
X163124Y280710D01*
X163172Y280795D01*
X163208Y280873D01*
X163238Y280951D01*
X163262Y281005D01*
X163268Y281029D01*
X163274Y281047D01*
X163280Y281053D01*
Y281059D01*
X163317Y281179D01*
X163340Y281311D01*
X163358Y281444D01*
X163371Y281564D01*
X163377Y281672D01*
X163383Y281720D01*
Y283168D01*
X158665Y284112D01*
X163383D01*
D02*
G37*
G36*
Y280073D02*
X158665D01*
Y276293D01*
D01*
Y276678D01*
X159831Y277002D01*
X159915Y277026D01*
X159993Y277056D01*
X160059Y277080D01*
X160119Y277098D01*
X160167Y277116D01*
X160203Y277128D01*
X160227Y277134D01*
X160233Y277140D01*
X160293Y277165D01*
X160354Y277183D01*
X160402Y277206D01*
X160444Y277225D01*
X160480Y277243D01*
X160504Y277255D01*
X160522Y277261D01*
X160528Y277267D01*
X160612Y277315D01*
X160672Y277363D01*
X160696Y277381D01*
X160714Y277399D01*
X160720Y277405D01*
X160726Y277411D01*
X160780Y277465D01*
X160822Y277519D01*
X160846Y277555D01*
X160858Y277567D01*
Y277573D01*
X160882Y277465D01*
X160913Y277363D01*
X160936Y277273D01*
X160967Y277194D01*
X160997Y277128D01*
X161021Y277080D01*
X161033Y277050D01*
X161039Y277038D01*
X161093Y276954D01*
X161147Y276876D01*
X161201Y276810D01*
X161255Y276750D01*
X161297Y276702D01*
X161339Y276666D01*
X161363Y276642D01*
X161369Y276636D01*
X161447Y276575D01*
X161525Y276527D01*
X161598Y276479D01*
X161664Y276443D01*
X161724Y276419D01*
X161772Y276401D01*
X161802Y276389D01*
X161814Y276383D01*
X161910Y276353D01*
X162006Y276329D01*
X162096Y276317D01*
X162175Y276305D01*
X162247Y276299D01*
X162301Y276293D01*
X158665D01*
X162349D01*
X162451Y276299D01*
X162541Y276311D01*
X162625Y276329D01*
X162691Y276347D01*
X162745Y276365D01*
X162788Y276383D01*
X162818Y276395D01*
X162824Y276401D01*
X162896Y276443D01*
X162956Y276491D01*
X163010Y276539D01*
X163058Y276588D01*
X163094Y276636D01*
X163118Y276672D01*
X163136Y276696D01*
X163142Y276702D01*
X163184Y276780D01*
X163226Y276858D01*
X163256Y276936D01*
X163280Y277008D01*
X163298Y277074D01*
X163311Y277122D01*
X163322Y277158D01*
Y277170D01*
X163340Y277273D01*
X163358Y277381D01*
X163371Y277483D01*
X163377Y277573D01*
X163383Y277657D01*
Y279130D01*
X158665Y280073D01*
X163383D01*
D02*
G37*
G36*
Y275938D02*
X158665D01*
Y267416D01*
X159596Y266966D01*
Y265313D01*
X158665Y265241D01*
Y264303D01*
X163383Y264754D01*
Y265998D01*
X158665Y268336D01*
D01*
Y268510D01*
X159824Y268336D01*
D01*
X162197Y267979D01*
X163383Y267801D01*
Y268871D01*
X161994Y269586D01*
X161285Y269922D01*
X162042Y269976D01*
X163383Y270115D01*
Y271076D01*
X158665Y272248D01*
Y272957D01*
X159392Y272813D01*
Y273853D01*
X162655Y273198D01*
Y272248D01*
Y272152D01*
X163383Y272002D01*
Y274995D01*
X162655Y275139D01*
Y274093D01*
X159392Y274754D01*
Y275800D01*
X158665Y275938D01*
X163383D01*
D02*
G37*
G36*
Y267801D02*
Y265998D01*
D01*
Y267801D01*
D02*
G37*
G36*
X158665Y263822D02*
Y262939D01*
X160618Y262548D01*
Y262410D01*
X160612Y262320D01*
X160606Y262278D01*
X160600Y262242D01*
X160594Y262218D01*
X160588Y262194D01*
X160582Y262181D01*
Y262175D01*
X160552Y262103D01*
X160510Y262043D01*
X160492Y262019D01*
X160474Y262001D01*
X160468Y261995D01*
X160462Y261989D01*
X160426Y261959D01*
X160390Y261929D01*
X160311Y261881D01*
X160275Y261863D01*
X160245Y261851D01*
X160227Y261839D01*
X160221D01*
X160161Y261815D01*
X160095Y261791D01*
X160035Y261773D01*
X159975Y261755D01*
X159921Y261737D01*
X159879Y261731D01*
X159849Y261719D01*
X159837D01*
X158665Y261430D01*
Y260427D01*
X159831Y260751D01*
X159915Y260775D01*
X159993Y260805D01*
X160059Y260829D01*
X160119Y260847D01*
X160167Y260865D01*
X160203Y260877D01*
X160227Y260883D01*
X160233Y260889D01*
X160293Y260913D01*
X160354Y260931D01*
X160402Y260956D01*
X160444Y260974D01*
X160480Y260992D01*
X160504Y261004D01*
X160522Y261010D01*
X160528Y261016D01*
X160612Y261064D01*
X160672Y261112D01*
X160696Y261130D01*
X160714Y261148D01*
X160720Y261154D01*
X160726Y261160D01*
X160780Y261214D01*
X160822Y261268D01*
X160846Y261304D01*
X160858Y261316D01*
Y261322D01*
X160882Y261214D01*
X160913Y261112D01*
X160936Y261022D01*
X160967Y260944D01*
X160997Y260877D01*
X161021Y260829D01*
X161033Y260799D01*
X161039Y260787D01*
X161093Y260703D01*
X161147Y260625D01*
X161201Y260559D01*
X161255Y260499D01*
X161297Y260451D01*
X161339Y260415D01*
X161363Y260390D01*
X161369Y260384D01*
X161447Y260324D01*
X161525Y260276D01*
X161598Y260228D01*
X161664Y260192D01*
X161724Y260168D01*
X161772Y260150D01*
X161802Y260138D01*
X161814Y260132D01*
X161910Y260102D01*
X162006Y260078D01*
X162096Y260066D01*
X162175Y260054D01*
X162247Y260048D01*
X162301Y260042D01*
X158665D01*
X162349D01*
X162451Y260048D01*
X162541Y260060D01*
X162625Y260078D01*
X162691Y260096D01*
X162745Y260114D01*
X162788Y260132D01*
X162818Y260144D01*
X162824Y260150D01*
X162896Y260192D01*
X162956Y260240D01*
X163010Y260288D01*
X163058Y260336D01*
X163094Y260384D01*
X163118Y260421D01*
X163136Y260445D01*
X163142Y260451D01*
X163184Y260529D01*
X163226Y260607D01*
X163256Y260685D01*
X163280Y260757D01*
X163298Y260823D01*
X163311Y260871D01*
X163322Y260907D01*
Y260919D01*
X163340Y261022D01*
X163358Y261130D01*
X163371Y261232D01*
X163377Y261322D01*
X163383Y261406D01*
Y260042D01*
D01*
Y262879D01*
X158665Y263822D01*
D02*
G37*
G36*
X163383Y259243D02*
X160324Y258317D01*
X158665Y258654D01*
Y259243D01*
X163383D01*
X158665D01*
Y255258D01*
D01*
Y257752D01*
X160336Y257428D01*
X163383Y255258D01*
Y256256D01*
X161940Y257253D01*
X161207Y257728D01*
X161922Y257902D01*
X163383Y258317D01*
Y259243D01*
D02*
G37*
G36*
X157874Y250787D02*
D01*
X164173D01*
X157874D01*
D02*
G37*
%LPD*%
G36*
X162643Y282435D02*
Y281852D01*
X162637Y281774D01*
X162625Y281702D01*
X162619Y281642D01*
X162607Y281594D01*
X162595Y281564D01*
X162589Y281540D01*
Y281534D01*
X162571Y281474D01*
X162547Y281426D01*
X162529Y281383D01*
X162505Y281347D01*
X162487Y281317D01*
X162469Y281299D01*
X162463Y281287D01*
X162457Y281281D01*
X162391Y281221D01*
X162331Y281185D01*
X162301Y281173D01*
X162283Y281161D01*
X162271Y281155D01*
X162265D01*
X162187Y281131D01*
X162115Y281125D01*
X162084Y281119D01*
X162060D01*
X162048D01*
X162042D01*
X161958Y281125D01*
X161874Y281131D01*
X161802Y281149D01*
X161736Y281161D01*
X161682Y281179D01*
X161640Y281197D01*
X161616Y281203D01*
X161604Y281209D01*
X161531Y281245D01*
X161459Y281281D01*
X161399Y281317D01*
X161345Y281359D01*
X161303Y281389D01*
X161273Y281419D01*
X161249Y281438D01*
X161243Y281444D01*
X161189Y281504D01*
X161141Y281564D01*
X161099Y281630D01*
X161069Y281684D01*
X161039Y281738D01*
X161021Y281780D01*
X161009Y281804D01*
X161003Y281816D01*
X160973Y281900D01*
X160954Y281984D01*
X160936Y282063D01*
X160931Y282141D01*
X160924Y282207D01*
X160918Y282255D01*
Y282778D01*
X162643Y282435D01*
D02*
G37*
G36*
X160618Y278799D02*
Y278661D01*
X160612Y278571D01*
X160606Y278529D01*
X160600Y278493D01*
X160594Y278469D01*
X160588Y278445D01*
X160582Y278433D01*
Y278427D01*
X160552Y278354D01*
X160510Y278294D01*
X160492Y278270D01*
X160474Y278252D01*
X160468Y278246D01*
X160462Y278240D01*
X160426Y278210D01*
X160390Y278180D01*
X160311Y278132D01*
X160275Y278114D01*
X160245Y278102D01*
X160227Y278090D01*
X160221D01*
X160161Y278066D01*
X160095Y278042D01*
X160035Y278024D01*
X159975Y278006D01*
X159921Y277988D01*
X159879Y277982D01*
X159849Y277970D01*
X159837D01*
X158665Y277681D01*
Y279190D01*
X160618Y278799D01*
D02*
G37*
G36*
X162643Y278397D02*
Y277964D01*
X162637Y277832D01*
X162625Y277717D01*
X162607Y277621D01*
X162583Y277543D01*
X162559Y277483D01*
X162541Y277441D01*
X162529Y277417D01*
X162523Y277411D01*
X162475Y277351D01*
X162415Y277309D01*
X162355Y277273D01*
X162295Y277255D01*
X162241Y277243D01*
X162199Y277231D01*
X162169D01*
X162156D01*
X162084Y277237D01*
X162012Y277243D01*
X161952Y277255D01*
X161898Y277267D01*
X161850Y277285D01*
X161820Y277297D01*
X161796Y277303D01*
X161790Y277309D01*
X161736Y277339D01*
X161682Y277375D01*
X161640Y277411D01*
X161598Y277447D01*
X161568Y277483D01*
X161544Y277507D01*
X161531Y277525D01*
X161525Y277531D01*
X161489Y277585D01*
X161453Y277645D01*
X161429Y277705D01*
X161405Y277760D01*
X161387Y277814D01*
X161375Y277850D01*
X161363Y277874D01*
Y277886D01*
X161333Y278042D01*
X161321Y278120D01*
X161315Y278192D01*
Y278258D01*
X161309Y278306D01*
Y278661D01*
X162643Y278397D01*
D02*
G37*
G36*
X161351Y270878D02*
X162397Y270650D01*
X161682Y270602D01*
X160071Y270439D01*
Y269886D01*
X161676Y269045D01*
X162397Y268666D01*
X161333Y268853D01*
X158665Y269291D01*
Y271497D01*
X161351Y270878D01*
D02*
G37*
G36*
X162517Y265547D02*
X160324Y265373D01*
Y266611D01*
X162517Y265547D01*
D02*
G37*
G36*
X162643Y262145D02*
Y261713D01*
X162637Y261580D01*
X162625Y261466D01*
X162607Y261370D01*
X162583Y261292D01*
X162559Y261232D01*
X162541Y261190D01*
X162529Y261166D01*
X162523Y261160D01*
X162475Y261100D01*
X162415Y261058D01*
X162355Y261022D01*
X162295Y261004D01*
X162241Y260992D01*
X162199Y260980D01*
X162169D01*
X162156D01*
X162084Y260985D01*
X162012Y260992D01*
X161952Y261004D01*
X161898Y261016D01*
X161850Y261034D01*
X161820Y261046D01*
X161796Y261052D01*
X161790Y261058D01*
X161736Y261088D01*
X161682Y261124D01*
X161640Y261160D01*
X161598Y261196D01*
X161568Y261232D01*
X161544Y261256D01*
X161531Y261274D01*
X161525Y261280D01*
X161489Y261334D01*
X161453Y261394D01*
X161429Y261454D01*
X161405Y261508D01*
X161387Y261562D01*
X161375Y261599D01*
X161363Y261623D01*
Y261635D01*
X161333Y261791D01*
X161321Y261869D01*
X161315Y261941D01*
Y262007D01*
X161309Y262055D01*
Y262410D01*
X162643Y262145D01*
D02*
G37*
%LPC*%
G36*
X407868Y250452D02*
X403150D01*
X404081D01*
X404009Y250446D01*
X403943Y250440D01*
X403883Y250428D01*
X403829Y250416D01*
X403787Y250398D01*
X403751Y250386D01*
X403727Y250380D01*
X403721Y250374D01*
X403661Y250338D01*
X403601Y250302D01*
X403552Y250260D01*
X403511Y250218D01*
X403474Y250182D01*
X403450Y250151D01*
X403432Y250127D01*
X403426Y250121D01*
X403384Y250055D01*
X403342Y249983D01*
X403306Y249905D01*
X403282Y249839D01*
X403258Y249773D01*
X403240Y249725D01*
X403234Y249689D01*
X403228Y249683D01*
Y249677D01*
X403204Y249569D01*
X403180Y249460D01*
X403168Y249346D01*
X403162Y249238D01*
X403156Y249148D01*
X403150Y249106D01*
Y247531D01*
X407868Y246582D01*
X403150D01*
X407868D01*
Y248042D01*
X407862Y248210D01*
X407856Y248366D01*
X407844Y248505D01*
X407826Y248625D01*
X407820Y248673D01*
X407814Y248721D01*
X407808Y248757D01*
X407802Y248793D01*
X407796Y248817D01*
Y248835D01*
X407790Y248847D01*
Y248853D01*
X407754Y248979D01*
X407718Y249088D01*
X407681Y249190D01*
X407645Y249274D01*
X407615Y249340D01*
X407591Y249394D01*
X407573Y249424D01*
X407567Y249436D01*
X407513Y249520D01*
X407459Y249599D01*
X407405Y249665D01*
X407357Y249725D01*
X407315Y249767D01*
X407285Y249803D01*
X407261Y249821D01*
X407255Y249827D01*
X407189Y249881D01*
X407128Y249929D01*
X407068Y249965D01*
X407014Y250001D01*
X406966Y250025D01*
X406930Y250043D01*
X406906Y250055D01*
X406900Y250061D01*
X406768Y250115D01*
X406702Y250133D01*
X406648Y250151D01*
X406606Y250164D01*
X406569Y250169D01*
X406545Y250175D01*
X406539D01*
X406419Y250194D01*
X406365Y250200D01*
X406317D01*
X406281Y250206D01*
X406251D01*
X406233D01*
X406227D01*
X406119Y250200D01*
X406077Y250194D01*
X406029Y250182D01*
X405999Y250175D01*
X405969Y250164D01*
X405950Y250157D01*
X405944D01*
X405848Y250115D01*
X405806Y250091D01*
X405770Y250073D01*
X405740Y250049D01*
X405716Y250037D01*
X405704Y250025D01*
X405698Y250019D01*
X405620Y249953D01*
X405560Y249881D01*
X405542Y249851D01*
X405524Y249827D01*
X405518Y249809D01*
X405512Y249803D01*
X405464Y249707D01*
X405428Y249611D01*
X405416Y249574D01*
X405410Y249545D01*
X405404Y249520D01*
Y249514D01*
X405374Y249587D01*
X405343Y249659D01*
X405313Y249725D01*
X405283Y249779D01*
X405253Y249821D01*
X405229Y249857D01*
X405217Y249881D01*
X405211Y249887D01*
X405163Y249947D01*
X405109Y250007D01*
X405055Y250055D01*
X405013Y250097D01*
X404971Y250133D01*
X404941Y250157D01*
X404917Y250175D01*
X404911Y250182D01*
X404779Y250266D01*
X404712Y250302D01*
X404652Y250326D01*
X404604Y250350D01*
X404562Y250368D01*
X404538Y250374D01*
X404526Y250380D01*
X404448Y250404D01*
X404370Y250422D01*
X404292Y250434D01*
X404226Y250446D01*
X404166D01*
X404123Y250452D01*
X407868D01*
D02*
G37*
G36*
Y242957D02*
X403150D01*
Y238973D01*
D01*
X406209Y239898D01*
X407868Y239562D01*
Y240463D01*
X406197Y240788D01*
X403150Y242957D01*
X407868D01*
D02*
G37*
G36*
X407104Y237681D02*
Y235691D01*
X403150Y236485D01*
Y237681D01*
Y235583D01*
X407868Y234640D01*
Y237530D01*
X407104Y237681D01*
D02*
G37*
G36*
X407868Y234291D02*
X403150D01*
X404352D01*
X404268Y234285D01*
X404184Y234279D01*
X404111Y234261D01*
X404045Y234249D01*
X403985Y234231D01*
X403943Y234213D01*
X403919Y234207D01*
X403907Y234201D01*
X403829Y234165D01*
X403751Y234123D01*
X403685Y234075D01*
X403631Y234027D01*
X403583Y233985D01*
X403552Y233948D01*
X403528Y233925D01*
X403522Y233918D01*
X403462Y233840D01*
X403408Y233756D01*
X403360Y233672D01*
X403324Y233594D01*
X403294Y233516D01*
X403270Y233462D01*
X403264Y233438D01*
X403258Y233420D01*
X403252Y233414D01*
Y233408D01*
X403216Y233287D01*
X403192Y233155D01*
X403174Y233023D01*
X403162Y232903D01*
X403156Y232795D01*
X403150Y232747D01*
Y230354D01*
D01*
Y231298D01*
X407868Y230354D01*
Y231238D01*
X406353Y231539D01*
Y232037D01*
X406347Y232248D01*
X406329Y232434D01*
X406299Y232608D01*
X406287Y232680D01*
X406269Y232752D01*
X406257Y232819D01*
X406245Y232873D01*
X406227Y232921D01*
X406215Y232963D01*
X406203Y232993D01*
X406197Y233017D01*
X406191Y233029D01*
Y233035D01*
X406125Y233185D01*
X406053Y233324D01*
X405975Y233444D01*
X405902Y233546D01*
X405842Y233630D01*
X405794Y233690D01*
X405770Y233708D01*
X405758Y233726D01*
X405746Y233732D01*
Y233738D01*
X405638Y233834D01*
X405530Y233918D01*
X405422Y233991D01*
X405326Y234051D01*
X405235Y234093D01*
X405169Y234129D01*
X405145Y234141D01*
X405127Y234147D01*
X405115Y234153D01*
X405109D01*
X404971Y234201D01*
X404839Y234231D01*
X404706Y234255D01*
X404592Y234273D01*
X404496Y234285D01*
X404454D01*
X404418Y234291D01*
X407868D01*
D02*
G37*
G36*
Y230228D02*
D01*
Y227175D01*
X406353Y227476D01*
Y227975D01*
X406347Y228185D01*
X406329Y228371D01*
X406299Y228545D01*
X406287Y228618D01*
X406269Y228690D01*
X406257Y228756D01*
X406245Y228810D01*
X406227Y228858D01*
X406215Y228900D01*
X406203Y228930D01*
X406197Y228954D01*
X406191Y228966D01*
Y228972D01*
X406125Y229122D01*
X406053Y229261D01*
X405975Y229381D01*
X405902Y229483D01*
X405842Y229567D01*
X405794Y229627D01*
X405770Y229645D01*
X405758Y229663D01*
X405746Y229669D01*
Y229675D01*
X405638Y229772D01*
X405530Y229856D01*
X405422Y229928D01*
X405326Y229988D01*
X405235Y230030D01*
X405169Y230066D01*
X405145Y230078D01*
X405127Y230084D01*
X405115Y230090D01*
X405109D01*
X404971Y230138D01*
X404839Y230168D01*
X404706Y230192D01*
X404592Y230210D01*
X404496Y230222D01*
X404454D01*
X404418Y230228D01*
X407868D01*
X403150D01*
X404352D01*
X404268Y230222D01*
X404184Y230216D01*
X404111Y230198D01*
X404045Y230186D01*
X403985Y230168D01*
X403943Y230150D01*
X403919Y230144D01*
X403907Y230138D01*
X403829Y230102D01*
X403751Y230060D01*
X403685Y230012D01*
X403631Y229964D01*
X403583Y229922D01*
X403552Y229886D01*
X403528Y229862D01*
X403522Y229856D01*
X403462Y229778D01*
X403408Y229693D01*
X403360Y229609D01*
X403324Y229531D01*
X403294Y229453D01*
X403270Y229399D01*
X403264Y229375D01*
X403258Y229357D01*
X403252Y229351D01*
Y229345D01*
X403216Y229225D01*
X403192Y229092D01*
X403174Y228960D01*
X403162Y228840D01*
X403156Y228732D01*
X403150Y228684D01*
Y227235D01*
X407147Y226436D01*
D01*
X407868Y226292D01*
Y226436D01*
Y230228D01*
D02*
G37*
G36*
X403150Y226436D02*
Y225438D01*
Y225547D01*
X406197Y224934D01*
X406299Y224909D01*
X406389Y224885D01*
X406467Y224861D01*
X406533Y224843D01*
X406588Y224819D01*
X406630Y224807D01*
X406660Y224795D01*
X406666Y224789D01*
X406732Y224753D01*
X406798Y224723D01*
X406852Y224681D01*
X406894Y224651D01*
X406936Y224621D01*
X406960Y224597D01*
X406978Y224579D01*
X406984Y224573D01*
X407026Y224525D01*
X407068Y224471D01*
X407098Y224423D01*
X407123Y224375D01*
X407140Y224332D01*
X407153Y224303D01*
X407164Y224278D01*
Y224272D01*
X407195Y224140D01*
X407207Y224074D01*
X407213Y224020D01*
Y223966D01*
X407219Y223924D01*
Y223822D01*
X407213Y223762D01*
X407207Y223708D01*
X407201Y223665D01*
X407195Y223629D01*
X407189Y223599D01*
X407183Y223581D01*
Y223575D01*
X407153Y223491D01*
X407117Y223425D01*
X407098Y223401D01*
X407086Y223383D01*
X407074Y223377D01*
Y223371D01*
X407008Y223323D01*
X406948Y223293D01*
X406924Y223281D01*
X406900Y223269D01*
X406888Y223263D01*
X406882D01*
X406792Y223245D01*
X406708Y223233D01*
X406678Y223227D01*
X406648D01*
X406630D01*
X406624D01*
X406491Y223233D01*
X406425Y223239D01*
X406359Y223251D01*
X406305Y223257D01*
X406263Y223263D01*
X406239Y223269D01*
X406227D01*
X403150Y223882D01*
Y224399D01*
Y222998D01*
X406209Y222385D01*
X406311Y222367D01*
X406401Y222349D01*
X406491Y222337D01*
X406564Y222331D01*
X406630D01*
X406678Y222325D01*
X403150D01*
X406720D01*
X406822Y222331D01*
X406918Y222337D01*
X407008Y222349D01*
X407080Y222361D01*
X407140Y222373D01*
X407189Y222385D01*
X407219Y222397D01*
X407231D01*
X407315Y222433D01*
X407387Y222469D01*
X407453Y222512D01*
X407513Y222554D01*
X407555Y222596D01*
X407591Y222626D01*
X407615Y222650D01*
X407621Y222656D01*
X407675Y222728D01*
X407729Y222806D01*
X407771Y222878D01*
X407808Y222950D01*
X407832Y223016D01*
X407850Y223064D01*
X407862Y223100D01*
X407868Y223113D01*
X407898Y223221D01*
X407916Y223335D01*
X407934Y223443D01*
X407940Y223551D01*
X407946Y223641D01*
X407952Y223677D01*
Y222397D01*
Y223822D01*
Y223774D01*
X407946Y223924D01*
X407934Y224068D01*
X407922Y224194D01*
X407898Y224303D01*
X407880Y224399D01*
X407874Y224435D01*
X407868Y224465D01*
X407862Y224489D01*
X407856Y224507D01*
X407850Y224519D01*
Y224525D01*
X407808Y224651D01*
X407760Y224765D01*
X407705Y224867D01*
X407657Y224952D01*
X407609Y225024D01*
X407573Y225078D01*
X407549Y225114D01*
X407537Y225126D01*
X407453Y225216D01*
X407363Y225300D01*
X407267Y225372D01*
X407183Y225438D01*
X407104Y225486D01*
X407044Y225522D01*
X407020Y225535D01*
X407002Y225547D01*
X406996Y225553D01*
X406990D01*
X406864Y225613D01*
X406726Y225667D01*
X406600Y225715D01*
X406473Y225751D01*
X406371Y225781D01*
X406323Y225793D01*
X406287Y225799D01*
X406251Y225805D01*
X406227Y225811D01*
X406215Y225817D01*
X406209D01*
X403863Y226292D01*
D01*
X403150Y226436D01*
D02*
G37*
G36*
X407952Y221940D02*
X403072D01*
Y218052D01*
Y220793D01*
X403078Y220600D01*
X403090Y220420D01*
X403114Y220264D01*
X403126Y220192D01*
X403132Y220131D01*
X403144Y220071D01*
X403156Y220017D01*
X403168Y219975D01*
X403180Y219939D01*
X403186Y219909D01*
X403192Y219885D01*
X403198Y219873D01*
Y219867D01*
X403246Y219729D01*
X403306Y219603D01*
X403360Y219495D01*
X403414Y219404D01*
X403462Y219332D01*
X403498Y219278D01*
X403522Y219242D01*
X403535Y219230D01*
X403613Y219146D01*
X403697Y219068D01*
X403781Y219008D01*
X403853Y218954D01*
X403919Y218917D01*
X403967Y218887D01*
X404003Y218869D01*
X404009Y218863D01*
X404015D01*
X404117Y218821D01*
X404214Y218791D01*
X404304Y218773D01*
X404388Y218761D01*
X404460Y218749D01*
X404520Y218743D01*
X404556D01*
X404562D01*
X404568D01*
X404652Y218749D01*
X404737Y218755D01*
X404809Y218767D01*
X404869Y218785D01*
X404917Y218797D01*
X404959Y218809D01*
X404983Y218815D01*
X404989Y218821D01*
X405055Y218857D01*
X405115Y218894D01*
X405169Y218930D01*
X405217Y218960D01*
X405253Y218990D01*
X405283Y219014D01*
X405301Y219032D01*
X405307Y219038D01*
X405398Y219146D01*
X405440Y219194D01*
X405476Y219242D01*
X405500Y219284D01*
X405524Y219314D01*
X405536Y219338D01*
X405542Y219344D01*
X405608Y219470D01*
X405638Y219525D01*
X405668Y219579D01*
X405692Y219621D01*
X405710Y219657D01*
X405716Y219681D01*
X405722Y219687D01*
X405782Y219819D01*
X405812Y219879D01*
X405836Y219927D01*
X405860Y219975D01*
X405878Y220005D01*
X405884Y220029D01*
X405890Y220035D01*
X405921Y220101D01*
X405950Y220156D01*
X405981Y220210D01*
X406005Y220252D01*
X406029Y220294D01*
X406041Y220318D01*
X406053Y220336D01*
X406059Y220342D01*
X406125Y220438D01*
X406161Y220474D01*
X406191Y220504D01*
X406215Y220528D01*
X406239Y220546D01*
X406251Y220558D01*
X406257Y220564D01*
X406299Y220594D01*
X406341Y220612D01*
X406425Y220636D01*
X406461Y220642D01*
X406491Y220648D01*
X406509D01*
X406516D01*
X406564D01*
X406612Y220636D01*
X406654Y220630D01*
X406690Y220618D01*
X406720Y220606D01*
X406744Y220594D01*
X406762Y220588D01*
X406768Y220582D01*
X406810Y220558D01*
X406846Y220528D01*
X406912Y220462D01*
X406936Y220438D01*
X406954Y220414D01*
X406966Y220396D01*
X406972Y220390D01*
X407002Y220336D01*
X407032Y220282D01*
X407056Y220228D01*
X407080Y220174D01*
X407092Y220126D01*
X407104Y220090D01*
X407117Y220065D01*
Y220053D01*
X407134Y219975D01*
X407147Y219891D01*
X407153Y219807D01*
X407159Y219735D01*
X407164Y219669D01*
Y219446D01*
X407159Y219386D01*
Y219296D01*
X407153Y219260D01*
Y219230D01*
X407134Y219104D01*
X407128Y219044D01*
X407123Y218990D01*
X407117Y218948D01*
X407110Y218912D01*
X407104Y218887D01*
Y218881D01*
X407074Y218755D01*
X407062Y218701D01*
X407050Y218647D01*
X407038Y218605D01*
X407026Y218569D01*
X407020Y218545D01*
Y218539D01*
X406984Y218419D01*
X406966Y218365D01*
X406948Y218317D01*
X406936Y218274D01*
X406924Y218244D01*
X406918Y218226D01*
Y218220D01*
X407754Y218052D01*
X407820Y218286D01*
X407844Y218395D01*
X407868Y218497D01*
X407886Y218581D01*
X407892Y218647D01*
X407898Y218671D01*
X407904Y218689D01*
Y218707D01*
X407934Y218972D01*
X407940Y219098D01*
X407946Y219212D01*
X407952Y219308D01*
Y219452D01*
X407946Y219639D01*
X407934Y219807D01*
X407916Y219963D01*
X407898Y220095D01*
X407886Y220156D01*
X407880Y220204D01*
X407868Y220252D01*
X407862Y220288D01*
X407856Y220318D01*
X407850Y220342D01*
X407844Y220354D01*
Y220360D01*
X407796Y220510D01*
X407748Y220642D01*
X407693Y220763D01*
X407639Y220865D01*
X407597Y220943D01*
X407561Y221003D01*
X407543Y221027D01*
X407531Y221045D01*
X407525Y221051D01*
Y221057D01*
X407441Y221159D01*
X407357Y221249D01*
X407273Y221327D01*
X407195Y221388D01*
X407123Y221436D01*
X407068Y221472D01*
X407032Y221496D01*
X407026Y221502D01*
X407020D01*
X406906Y221556D01*
X406792Y221592D01*
X406678Y221622D01*
X406576Y221640D01*
X406485Y221652D01*
X406449D01*
X406413Y221658D01*
X406389D01*
X406371D01*
X406359D01*
X406353D01*
X406269Y221652D01*
X406191Y221646D01*
X406119Y221634D01*
X406059Y221616D01*
X406011Y221598D01*
X405969Y221586D01*
X405944Y221580D01*
X405938Y221574D01*
X405872Y221538D01*
X405806Y221502D01*
X405752Y221466D01*
X405704Y221430D01*
X405668Y221400D01*
X405638Y221376D01*
X405620Y221358D01*
X405614Y221352D01*
X405518Y221249D01*
X405476Y221195D01*
X405440Y221147D01*
X405416Y221105D01*
X405392Y221075D01*
X405380Y221051D01*
X405374Y221045D01*
X405295Y220919D01*
X405265Y220859D01*
X405235Y220811D01*
X405211Y220763D01*
X405193Y220726D01*
X405187Y220703D01*
X405181Y220696D01*
X405115Y220564D01*
X405091Y220504D01*
X405061Y220450D01*
X405043Y220408D01*
X405025Y220372D01*
X405019Y220348D01*
X405013Y220342D01*
X404953Y220222D01*
X404923Y220174D01*
X404899Y220126D01*
X404875Y220090D01*
X404857Y220059D01*
X404851Y220041D01*
X404845Y220035D01*
X404779Y219945D01*
X404742Y219909D01*
X404712Y219879D01*
X404688Y219855D01*
X404670Y219837D01*
X404658Y219825D01*
X404652Y219819D01*
X404610Y219795D01*
X404574Y219777D01*
X404496Y219753D01*
X404460Y219747D01*
X404436Y219741D01*
X404418D01*
X404412D01*
X404328Y219747D01*
X404256Y219771D01*
X404232Y219777D01*
X404208Y219789D01*
X404196Y219795D01*
X404190D01*
X404147Y219819D01*
X404117Y219843D01*
X404057Y219903D01*
X404033Y219927D01*
X404015Y219951D01*
X404009Y219963D01*
X404003Y219969D01*
X403949Y220065D01*
X403913Y220168D01*
X403901Y220204D01*
X403889Y220240D01*
X403883Y220264D01*
Y220270D01*
X403865Y220342D01*
X403853Y220420D01*
X403847Y220492D01*
X403841Y220558D01*
X403835Y220618D01*
Y220811D01*
X403841Y220853D01*
Y220895D01*
X403847Y220931D01*
Y220961D01*
X403853Y220979D01*
Y220985D01*
X403865Y221093D01*
X403871Y221135D01*
X403877Y221183D01*
X403883Y221213D01*
Y221243D01*
X403889Y221261D01*
Y221267D01*
X403907Y221370D01*
X403913Y221418D01*
X403925Y221460D01*
X403931Y221496D01*
X403937Y221520D01*
X403943Y221538D01*
Y221544D01*
X403967Y221640D01*
X403973Y221676D01*
X403985Y221712D01*
X403991Y221742D01*
X403997Y221766D01*
X404003Y221778D01*
Y221784D01*
X403222Y221940D01*
X407952D01*
D02*
G37*
G36*
X402362Y215354D02*
Y215354D01*
X408661D01*
Y215354D01*
X402362D01*
D02*
G37*
%LPD*%
G36*
X404400Y249484D02*
X404454Y249478D01*
X404496Y249466D01*
X404538Y249454D01*
X404568Y249442D01*
X404586Y249436D01*
X404592Y249430D01*
X404646Y249406D01*
X404694Y249376D01*
X404737Y249346D01*
X404773Y249316D01*
X404809Y249286D01*
X404833Y249262D01*
X404845Y249250D01*
X404851Y249244D01*
X404893Y249196D01*
X404929Y249148D01*
X404989Y249046D01*
X405007Y249004D01*
X405025Y248968D01*
X405031Y248943D01*
X405037Y248938D01*
X405061Y248865D01*
X405073Y248793D01*
X405085Y248721D01*
X405097Y248655D01*
Y248595D01*
X405103Y248553D01*
Y248012D01*
X403853Y248258D01*
Y248895D01*
X403859Y248961D01*
X403865Y249022D01*
X403871Y249076D01*
X403883Y249112D01*
X403889Y249142D01*
X403895Y249160D01*
Y249166D01*
X403925Y249256D01*
X403943Y249286D01*
X403961Y249316D01*
X403973Y249340D01*
X403985Y249358D01*
X403991Y249364D01*
X403997Y249370D01*
X404045Y249418D01*
X404087Y249448D01*
X404123Y249460D01*
X404130Y249466D01*
X404136D01*
X404196Y249484D01*
X404244Y249490D01*
X404280Y249496D01*
X404286D01*
X404292D01*
X404346D01*
X404400Y249484D01*
D02*
G37*
G36*
X406401Y249232D02*
X406455Y249226D01*
X406503Y249214D01*
X406539Y249202D01*
X406569Y249196D01*
X406594Y249184D01*
X406600D01*
X406654Y249160D01*
X406708Y249130D01*
X406750Y249100D01*
X406792Y249070D01*
X406822Y249040D01*
X406846Y249016D01*
X406864Y249004D01*
X406870Y248998D01*
X406912Y248950D01*
X406954Y248895D01*
X407014Y248787D01*
X407038Y248739D01*
X407056Y248703D01*
X407062Y248679D01*
X407068Y248667D01*
X407092Y248589D01*
X407110Y248505D01*
X407123Y248427D01*
X407128Y248348D01*
X407134Y248276D01*
X407140Y248222D01*
Y247597D01*
X405782Y247874D01*
Y248535D01*
X405788Y248607D01*
X405794Y248673D01*
X405800Y248733D01*
X405812Y248775D01*
X405818Y248811D01*
X405824Y248829D01*
Y248835D01*
X405842Y248889D01*
X405860Y248938D01*
X405878Y248979D01*
X405896Y249016D01*
X405914Y249040D01*
X405927Y249058D01*
X405933Y249070D01*
X405938Y249076D01*
X405993Y249136D01*
X406047Y249172D01*
X406083Y249196D01*
X406095Y249202D01*
X406101D01*
X406167Y249226D01*
X406227Y249238D01*
X406251Y249244D01*
X406269D01*
X406281D01*
X406287D01*
X406401Y249232D01*
D02*
G37*
G36*
X404592Y240962D02*
X405326Y240487D01*
X404610Y240313D01*
X403150Y239898D01*
Y241960D01*
X404592Y240962D01*
D02*
G37*
G36*
X404574Y233342D02*
X404658Y233335D01*
X404731Y233317D01*
X404797Y233306D01*
X404851Y233287D01*
X404893Y233269D01*
X404917Y233263D01*
X404929Y233257D01*
X405001Y233221D01*
X405073Y233185D01*
X405133Y233149D01*
X405187Y233107D01*
X405229Y233077D01*
X405259Y233047D01*
X405283Y233029D01*
X405289Y233023D01*
X405343Y232963D01*
X405392Y232903D01*
X405434Y232837D01*
X405464Y232783D01*
X405494Y232729D01*
X405512Y232686D01*
X405524Y232662D01*
X405530Y232650D01*
X405560Y232566D01*
X405578Y232482D01*
X405596Y232404D01*
X405602Y232326D01*
X405608Y232260D01*
X405614Y232212D01*
Y231689D01*
X403889Y232031D01*
Y232614D01*
X403895Y232692D01*
X403907Y232765D01*
X403913Y232825D01*
X403925Y232873D01*
X403937Y232903D01*
X403943Y232927D01*
Y232933D01*
X403961Y232993D01*
X403985Y233041D01*
X404003Y233083D01*
X404027Y233119D01*
X404045Y233149D01*
X404063Y233167D01*
X404069Y233179D01*
X404075Y233185D01*
X404142Y233245D01*
X404202Y233281D01*
X404232Y233293D01*
X404250Y233306D01*
X404262Y233312D01*
X404268D01*
X404346Y233335D01*
X404418Y233342D01*
X404448Y233348D01*
X404472D01*
X404484D01*
X404490D01*
X404574Y233342D01*
D02*
G37*
G36*
Y229279D02*
X404658Y229273D01*
X404731Y229255D01*
X404797Y229243D01*
X404851Y229225D01*
X404893Y229207D01*
X404917Y229201D01*
X404929Y229195D01*
X405001Y229159D01*
X405073Y229122D01*
X405133Y229086D01*
X405187Y229044D01*
X405229Y229014D01*
X405259Y228984D01*
X405283Y228966D01*
X405289Y228960D01*
X405343Y228900D01*
X405392Y228840D01*
X405434Y228774D01*
X405464Y228720D01*
X405494Y228666D01*
X405512Y228624D01*
X405524Y228600D01*
X405530Y228588D01*
X405560Y228503D01*
X405578Y228419D01*
X405596Y228341D01*
X405602Y228263D01*
X405608Y228197D01*
X405614Y228149D01*
Y227626D01*
X403889Y227969D01*
Y228552D01*
X403895Y228630D01*
X403907Y228702D01*
X403913Y228762D01*
X403925Y228810D01*
X403937Y228840D01*
X403943Y228864D01*
Y228870D01*
X403961Y228930D01*
X403985Y228978D01*
X404003Y229020D01*
X404027Y229056D01*
X404045Y229086D01*
X404063Y229104D01*
X404069Y229117D01*
X404075Y229122D01*
X404142Y229183D01*
X404202Y229219D01*
X404232Y229231D01*
X404250Y229243D01*
X404262Y229249D01*
X404268D01*
X404346Y229273D01*
X404418Y229279D01*
X404448Y229285D01*
X404472D01*
X404484D01*
X404490D01*
X404574Y229279D01*
D02*
G37*
G36*
X403204Y221856D02*
X403186Y221772D01*
X403180Y221742D01*
X403174Y221718D01*
X403168Y221700D01*
Y221694D01*
X403150Y221592D01*
X403138Y221544D01*
X403132Y221502D01*
X403126Y221466D01*
Y221436D01*
X403120Y221418D01*
Y221412D01*
X403108Y221304D01*
X403102Y221249D01*
X403096Y221201D01*
Y221165D01*
X403090Y221129D01*
Y221105D01*
X403078Y220991D01*
Y220937D01*
X403072Y220889D01*
Y221940D01*
X403222D01*
X403204Y221856D01*
D02*
G37*
%LPC*%
G36*
X163464Y245319D02*
X158584D01*
D01*
X158782D01*
X158716Y245084D01*
X158692Y244976D01*
X158668Y244874D01*
X158650Y244790D01*
X158644Y244724D01*
X158638Y244700D01*
X158632Y244681D01*
Y244663D01*
X158602Y244399D01*
X158596Y244273D01*
X158590Y244159D01*
X158584Y244062D01*
Y243918D01*
X158590Y243732D01*
X158602Y243564D01*
X158620Y243407D01*
X158638Y243275D01*
X158650Y243215D01*
X158656Y243167D01*
X158668Y243119D01*
X158674Y243083D01*
X158680Y243053D01*
X158686Y243029D01*
X158692Y243017D01*
Y243011D01*
X158740Y242860D01*
X158788Y242728D01*
X158842Y242608D01*
X158896Y242506D01*
X158938Y242428D01*
X158974Y242368D01*
X158992Y242344D01*
X159004Y242325D01*
X159010Y242319D01*
Y242314D01*
X159094Y242211D01*
X159179Y242121D01*
X159263Y242043D01*
X159341Y241983D01*
X159413Y241935D01*
X159467Y241899D01*
X159503Y241875D01*
X159509Y241869D01*
X159515D01*
X159629Y241815D01*
X159743Y241779D01*
X159858Y241749D01*
X159960Y241730D01*
X160050Y241719D01*
X160086D01*
X160122Y241712D01*
X160146D01*
X160164D01*
X160176D01*
X160182D01*
X160266Y241719D01*
X160345Y241724D01*
X160417Y241737D01*
X160477Y241755D01*
X160525Y241773D01*
X160567Y241785D01*
X160591Y241791D01*
X160597Y241797D01*
X160663Y241833D01*
X160729Y241869D01*
X160783Y241905D01*
X160831Y241941D01*
X160867Y241971D01*
X160897Y241995D01*
X160916Y242013D01*
X160922Y242019D01*
X161018Y242121D01*
X161060Y242175D01*
X161096Y242223D01*
X161120Y242265D01*
X161144Y242296D01*
X161156Y242319D01*
X161162Y242325D01*
X161240Y242452D01*
X161270Y242512D01*
X161300Y242560D01*
X161324Y242608D01*
X161342Y242644D01*
X161348Y242668D01*
X161354Y242674D01*
X161420Y242806D01*
X161444Y242866D01*
X161474Y242920D01*
X161492Y242963D01*
X161510Y242999D01*
X161516Y243023D01*
X161522Y243029D01*
X161583Y243149D01*
X161613Y243197D01*
X161637Y243245D01*
X161661Y243281D01*
X161679Y243311D01*
X161685Y243329D01*
X161691Y243335D01*
X161757Y243425D01*
X161793Y243461D01*
X161823Y243492D01*
X161847Y243515D01*
X161865Y243533D01*
X161877Y243546D01*
X161883Y243552D01*
X161925Y243576D01*
X161961Y243594D01*
X162039Y243618D01*
X162075Y243624D01*
X162099Y243630D01*
X162118D01*
X162124D01*
X162208Y243624D01*
X162280Y243600D01*
X162304Y243594D01*
X162328Y243582D01*
X162340Y243576D01*
X162346D01*
X162388Y243552D01*
X162418Y243528D01*
X162478Y243467D01*
X162502Y243443D01*
X162520Y243419D01*
X162526Y243407D01*
X162532Y243401D01*
X162586Y243305D01*
X162622Y243203D01*
X162634Y243167D01*
X162646Y243131D01*
X162652Y243107D01*
Y243101D01*
X162670Y243029D01*
X162682Y242951D01*
X162688Y242878D01*
X162694Y242812D01*
X162700Y242752D01*
Y242560D01*
X162694Y242518D01*
Y242476D01*
X162688Y242440D01*
Y242410D01*
X162682Y242392D01*
Y242386D01*
X162670Y242277D01*
X162664Y242235D01*
X162658Y242187D01*
X162652Y242157D01*
Y242127D01*
X162646Y242109D01*
Y242103D01*
X162628Y242001D01*
X162622Y241953D01*
X162610Y241911D01*
X162604Y241875D01*
X162598Y241851D01*
X162592Y241833D01*
Y241827D01*
X162568Y241730D01*
X162562Y241694D01*
X162550Y241658D01*
X162544Y241628D01*
X162538Y241604D01*
X162532Y241592D01*
Y241586D01*
X163313Y241430D01*
D01*
X163331Y241514D01*
X163349Y241598D01*
X163356Y241628D01*
X163362Y241652D01*
X163367Y241670D01*
Y241676D01*
X163386Y241779D01*
X163398Y241827D01*
X163404Y241869D01*
X163410Y241905D01*
Y241935D01*
X163416Y241953D01*
Y241959D01*
X163428Y242067D01*
X163434Y242121D01*
X163440Y242169D01*
Y242205D01*
X163446Y242241D01*
Y242265D01*
X163458Y242380D01*
Y242434D01*
X163464Y242482D01*
Y242578D01*
X163458Y242770D01*
X163446Y242951D01*
X163422Y243107D01*
X163410Y243179D01*
X163404Y243239D01*
X163392Y243299D01*
X163380Y243353D01*
X163367Y243395D01*
X163356Y243431D01*
X163349Y243461D01*
X163344Y243485D01*
X163338Y243497D01*
Y243503D01*
X163289Y243642D01*
X163229Y243768D01*
X163175Y243876D01*
X163121Y243966D01*
X163073Y244038D01*
X163037Y244092D01*
X163013Y244128D01*
X163001Y244141D01*
X162923Y244225D01*
X162839Y244303D01*
X162754Y244363D01*
X162682Y244417D01*
X162616Y244453D01*
X162568Y244483D01*
X162532Y244501D01*
X162526Y244507D01*
X162520D01*
X162418Y244549D01*
X162322Y244579D01*
X162232Y244597D01*
X162147Y244609D01*
X162075Y244621D01*
X162015Y244627D01*
X161979D01*
X161973D01*
X161967D01*
X161883Y244621D01*
X161799Y244615D01*
X161727Y244603D01*
X161667Y244585D01*
X161619Y244573D01*
X161576Y244561D01*
X161553Y244555D01*
X161547Y244549D01*
X161480Y244513D01*
X161420Y244477D01*
X161366Y244441D01*
X161318Y244411D01*
X161282Y244381D01*
X161252Y244357D01*
X161234Y244339D01*
X161228Y244333D01*
X161138Y244225D01*
X161096Y244177D01*
X161060Y244128D01*
X161036Y244087D01*
X161012Y244056D01*
X161000Y244032D01*
X160994Y244026D01*
X160927Y243900D01*
X160897Y243846D01*
X160867Y243792D01*
X160843Y243750D01*
X160825Y243714D01*
X160819Y243690D01*
X160813Y243684D01*
X160753Y243552D01*
X160723Y243492D01*
X160699Y243443D01*
X160675Y243395D01*
X160657Y243365D01*
X160651Y243341D01*
X160645Y243335D01*
X160615Y243269D01*
X160585Y243215D01*
X160555Y243161D01*
X160531Y243119D01*
X160507Y243077D01*
X160495Y243053D01*
X160483Y243035D01*
X160477Y243029D01*
X160411Y242933D01*
X160374Y242897D01*
X160345Y242866D01*
X160320Y242842D01*
X160296Y242824D01*
X160284Y242812D01*
X160278Y242806D01*
X160236Y242776D01*
X160194Y242758D01*
X160110Y242734D01*
X160074Y242728D01*
X160044Y242722D01*
X160026D01*
X160020D01*
X159972D01*
X159924Y242734D01*
X159882Y242740D01*
X159846Y242752D01*
X159816Y242764D01*
X159792Y242776D01*
X159774Y242782D01*
X159767Y242788D01*
X159725Y242812D01*
X159689Y242842D01*
X159623Y242909D01*
X159599Y242933D01*
X159581Y242957D01*
X159569Y242975D01*
X159563Y242981D01*
X159533Y243035D01*
X159503Y243089D01*
X159479Y243143D01*
X159455Y243197D01*
X159443Y243245D01*
X159431Y243281D01*
X159419Y243305D01*
Y243317D01*
X159401Y243395D01*
X159389Y243479D01*
X159383Y243564D01*
X159377Y243636D01*
X159371Y243702D01*
Y243924D01*
X159377Y243984D01*
Y244074D01*
X159383Y244110D01*
Y244141D01*
X159401Y244267D01*
X159407Y244327D01*
X159413Y244381D01*
X159419Y244423D01*
X159425Y244459D01*
X159431Y244483D01*
Y244489D01*
X159461Y244615D01*
X159473Y244669D01*
X159485Y244724D01*
X159497Y244766D01*
X159509Y244802D01*
X159515Y244826D01*
Y244832D01*
X159551Y244952D01*
X159569Y245006D01*
X159587Y245054D01*
X159599Y245096D01*
X159611Y245126D01*
X159617Y245144D01*
Y245150D01*
X158782Y245319D01*
X163464D01*
D01*
D02*
G37*
G36*
X163386Y240967D02*
X158668D01*
Y238137D01*
X159419Y237986D01*
Y239921D01*
X160729Y239657D01*
Y237812D01*
X161462Y237668D01*
Y239513D01*
X162634Y239279D01*
Y237343D01*
X163386Y237187D01*
D01*
Y240024D01*
X158668Y240967D01*
X163386D01*
D01*
D02*
G37*
G36*
X163452Y236874D02*
D01*
Y234200D01*
X163446Y234362D01*
X163434Y234512D01*
X163416Y234645D01*
X163398Y234765D01*
X163380Y234861D01*
X163367Y234897D01*
X163362Y234933D01*
X163356Y234957D01*
X163349Y234975D01*
X163344Y234987D01*
Y234993D01*
X163301Y235120D01*
X163253Y235240D01*
X163205Y235342D01*
X163157Y235432D01*
X163115Y235510D01*
X163079Y235564D01*
X163055Y235600D01*
X163049Y235606D01*
Y235612D01*
X162977Y235708D01*
X162905Y235799D01*
X162839Y235877D01*
X162773Y235943D01*
X162712Y236003D01*
X162670Y236045D01*
X162640Y236069D01*
X162628Y236081D01*
X162538Y236153D01*
X162454Y236219D01*
X162370Y236280D01*
X162292Y236328D01*
X162226Y236370D01*
X162178Y236400D01*
X162142Y236418D01*
X162136Y236424D01*
X162129D01*
X161937Y236520D01*
X161847Y236556D01*
X161769Y236592D01*
X161703Y236616D01*
X161649Y236634D01*
X161613Y236646D01*
X161607Y236652D01*
X161601D01*
X161498Y236682D01*
X161408Y236706D01*
X161318Y236730D01*
X161240Y236754D01*
X161174Y236766D01*
X161126Y236778D01*
X161096Y236790D01*
X161084D01*
X160994Y236808D01*
X160909Y236820D01*
X160831Y236832D01*
X160765Y236838D01*
X160711Y236850D01*
X160669D01*
X160645Y236856D01*
X160633D01*
X160561Y236862D01*
X160501Y236868D01*
X160441D01*
X160399Y236874D01*
X163452D01*
X160308D01*
X160188Y236868D01*
X160074Y236862D01*
X159966Y236850D01*
X159870Y236832D01*
X159786Y236814D01*
X159725Y236802D01*
X159701Y236796D01*
X159683D01*
X159677Y236790D01*
X159671D01*
X159557Y236754D01*
X159455Y236712D01*
X159365Y236664D01*
X159281Y236616D01*
X159215Y236568D01*
X159167Y236532D01*
X159136Y236508D01*
X159125Y236502D01*
X159040Y236418D01*
X158968Y236334D01*
X158902Y236243D01*
X158848Y236153D01*
X158806Y236075D01*
X158770Y236015D01*
X158764Y235991D01*
X158752Y235973D01*
X158746Y235967D01*
Y235961D01*
X158698Y235829D01*
X158662Y235684D01*
X158638Y235540D01*
X158620Y235408D01*
X158608Y235288D01*
Y235234D01*
X158602Y235192D01*
Y235107D01*
X158608Y234987D01*
X158614Y234873D01*
X158626Y234771D01*
X158638Y234675D01*
X158650Y234597D01*
X158656Y234537D01*
X158662Y234512D01*
X158668Y234494D01*
Y234483D01*
X158692Y234362D01*
X158722Y234248D01*
X158758Y234140D01*
X158788Y234038D01*
X158818Y233954D01*
X158836Y233888D01*
X158848Y233863D01*
X158854Y233845D01*
X158860Y233833D01*
Y233827D01*
X159659D01*
X159617Y233924D01*
X159599Y233972D01*
X159581Y234014D01*
X159569Y234050D01*
X159557Y234080D01*
X159551Y234098D01*
Y234104D01*
X159521Y234212D01*
X159509Y234260D01*
X159497Y234302D01*
X159485Y234338D01*
X159479Y234368D01*
X159473Y234386D01*
Y234392D01*
X159449Y234494D01*
X159443Y234543D01*
X159431Y234585D01*
X159425Y234621D01*
Y234651D01*
X159419Y234669D01*
Y234675D01*
X159407Y234771D01*
Y234819D01*
X159401Y234855D01*
Y234933D01*
X159407Y235053D01*
X159413Y235156D01*
X159431Y235246D01*
X159449Y235324D01*
X159461Y235384D01*
X159479Y235426D01*
X159485Y235450D01*
X159491Y235462D01*
X159527Y235528D01*
X159569Y235588D01*
X159611Y235642D01*
X159647Y235679D01*
X159683Y235715D01*
X159707Y235739D01*
X159725Y235751D01*
X159731Y235757D01*
X159792Y235787D01*
X159846Y235817D01*
X159900Y235841D01*
X159948Y235853D01*
X159996Y235871D01*
X160026Y235877D01*
X160050Y235883D01*
X160056D01*
X160182Y235895D01*
X160236Y235901D01*
X160284D01*
X160327Y235907D01*
X160363D01*
X160381D01*
X160387D01*
X160447D01*
X160507Y235901D01*
X160567D01*
X160627Y235895D01*
X160675Y235889D01*
X160717D01*
X160741Y235883D01*
X160753D01*
X160927Y235853D01*
X161006Y235835D01*
X161078Y235823D01*
X161144Y235805D01*
X161192Y235793D01*
X161222Y235781D01*
X161234D01*
X161420Y235720D01*
X161504Y235690D01*
X161583Y235654D01*
X161649Y235630D01*
X161697Y235606D01*
X161727Y235594D01*
X161739Y235588D01*
X161835Y235540D01*
X161919Y235492D01*
X161997Y235438D01*
X162069Y235390D01*
X162124Y235348D01*
X162165Y235312D01*
X162190Y235288D01*
X162202Y235282D01*
X162274Y235210D01*
X162340Y235132D01*
X162400Y235059D01*
X162448Y234987D01*
X162484Y234927D01*
X162514Y234879D01*
X162532Y234849D01*
X162538Y234837D01*
X162580Y234735D01*
X162616Y234633D01*
X162640Y234530D01*
X162652Y234434D01*
X162664Y234356D01*
X162670Y234290D01*
Y234128D01*
X162658Y234026D01*
X162652Y233936D01*
X162640Y233851D01*
X162628Y233779D01*
X162616Y233731D01*
X162610Y233695D01*
X162604Y233683D01*
X162580Y233587D01*
X162556Y233497D01*
X162532Y233413D01*
X162514Y233341D01*
X162496Y233280D01*
X162478Y233232D01*
X162472Y233208D01*
X162466Y233196D01*
X163283Y233022D01*
D01*
X163338Y233220D01*
X163356Y233311D01*
X163373Y233401D01*
X163386Y233473D01*
X163398Y233527D01*
Y233551D01*
X163404Y233569D01*
Y233581D01*
X163434Y233803D01*
X163440Y233906D01*
X163446Y234002D01*
X163452Y234080D01*
Y233022D01*
X163283D01*
X163452D01*
Y236874D01*
D02*
G37*
G36*
X163464Y232986D02*
X158584D01*
D01*
X160170D01*
X160032Y232980D01*
X159900Y232968D01*
X159774Y232950D01*
X159659Y232926D01*
X159551Y232896D01*
X159455Y232860D01*
X159365Y232830D01*
X159287Y232788D01*
X159215Y232752D01*
X159154Y232721D01*
X159106Y232685D01*
X159064Y232655D01*
X159028Y232631D01*
X159004Y232613D01*
X158992Y232601D01*
X158986Y232595D01*
X158914Y232517D01*
X158854Y232433D01*
X158800Y232343D01*
X158752Y232253D01*
X158716Y232157D01*
X158680Y232060D01*
X158632Y231880D01*
X158620Y231796D01*
X158608Y231712D01*
X158596Y231646D01*
X158590Y231580D01*
X158584Y231532D01*
Y231459D01*
X158590Y231303D01*
X158608Y231153D01*
X158632Y231021D01*
X158656Y230907D01*
X158680Y230810D01*
X158692Y230774D01*
X158704Y230738D01*
X158716Y230714D01*
X158722Y230696D01*
X158728Y230684D01*
Y230678D01*
X158788Y230552D01*
X158848Y230432D01*
X158914Y230330D01*
X158974Y230239D01*
X159028Y230161D01*
X159070Y230107D01*
X159100Y230071D01*
X159112Y230059D01*
X159209Y229963D01*
X159305Y229873D01*
X159401Y229795D01*
X159491Y229729D01*
X159569Y229668D01*
X159629Y229632D01*
X159653Y229614D01*
X159671Y229602D01*
X159677Y229596D01*
X159683D01*
X159804Y229524D01*
X159930Y229464D01*
X160044Y229404D01*
X160152Y229362D01*
X160242Y229320D01*
X160278Y229308D01*
X160315Y229296D01*
X160338Y229284D01*
X160356Y229278D01*
X160369Y229272D01*
X160374D01*
X160513Y229230D01*
X160645Y229188D01*
X160771Y229158D01*
X160885Y229134D01*
X160988Y229110D01*
X161024Y229103D01*
X161060Y229098D01*
X161090Y229092D01*
X161108Y229085D01*
X161120D01*
X161126D01*
X161270Y229062D01*
X161402Y229049D01*
X161529Y229037D01*
X161643Y229025D01*
X161739D01*
D01*
X161775Y229019D01*
X161811D01*
X161835D01*
X161853D01*
X161865D01*
X161871D01*
X162015Y229025D01*
X162147Y229037D01*
X162268Y229055D01*
X162382Y229080D01*
D01*
X162490Y229110D01*
X162586Y229146D01*
X162676Y229182D01*
X162754Y229218D01*
X162827Y229254D01*
X162887Y229290D01*
X162935Y229326D01*
X162977Y229356D01*
X163013Y229380D01*
X163037Y229398D01*
X163049Y229410D01*
X163055Y229416D01*
X163127Y229494D01*
X163187Y229578D01*
X163247Y229668D01*
X163289Y229759D01*
X163331Y229855D01*
X163362Y229951D01*
X163416Y230131D01*
X163428Y230215D01*
X163440Y230299D01*
X163452Y230366D01*
X163458Y230432D01*
X163464Y230480D01*
Y229019D01*
D01*
Y232986D01*
D02*
G37*
G36*
X158668Y229080D02*
Y229019D01*
D01*
Y228280D01*
X160128Y227992D01*
X162087Y227595D01*
X161480Y227457D01*
X158668Y226754D01*
Y225714D01*
X161863Y225071D01*
D01*
X163386Y224764D01*
Y224127D01*
X158923Y225020D01*
X158668Y225071D01*
Y223839D01*
X158674Y223658D01*
X158686Y223496D01*
X158698Y223346D01*
X158716Y223214D01*
X158728Y223160D01*
X158734Y223112D01*
X158740Y223063D01*
X158752Y223027D01*
X158758Y222997D01*
Y222979D01*
X158764Y222967D01*
Y222961D01*
X158806Y222823D01*
X158848Y222691D01*
X158896Y222577D01*
X158938Y222475D01*
X158974Y222396D01*
X159004Y222336D01*
X159016Y222312D01*
X159028Y222294D01*
X159034Y222288D01*
Y222282D01*
X159100Y222174D01*
X159173Y222078D01*
X159239Y221994D01*
X159299Y221922D01*
X159353Y221862D01*
X159401Y221813D01*
X159425Y221789D01*
X159437Y221777D01*
X159521Y221699D01*
X159611Y221633D01*
X159689Y221573D01*
X159762Y221519D01*
X159828Y221477D01*
X159876Y221447D01*
X159906Y221429D01*
X159918Y221423D01*
X160014Y221369D01*
X160104Y221321D01*
X160143Y221303D01*
D01*
X160194Y221279D01*
X160272Y221249D01*
X160338Y221218D01*
X160393Y221200D01*
X160423Y221188D01*
X160435Y221182D01*
X160531Y221152D01*
X160627Y221122D01*
X160711Y221098D01*
X160789Y221080D01*
X160855Y221062D01*
X160903Y221050D01*
X160933Y221044D01*
X160945D01*
D01*
X161036Y221026D01*
X161126Y221014D01*
X161204Y221002D01*
X161270Y220990D01*
X161330Y220984D01*
X161372D01*
D01*
X161396Y220978D01*
X161408D01*
D01*
X161486Y220972D01*
X161553Y220966D01*
X161613D01*
D01*
X161667Y220960D01*
X161709D01*
X161745D01*
X161763D01*
X161769D01*
D01*
X161919Y220966D01*
X162051Y220978D01*
X162184Y221002D01*
X162304Y221032D01*
X162412Y221068D01*
X162508Y221104D01*
X162598Y221146D01*
X162682Y221188D01*
X162749Y221236D01*
X162815Y221279D01*
X162863Y221315D01*
X162905Y221351D01*
X162941Y221381D01*
X162965Y221405D01*
X162977Y221417D01*
X162983Y221423D01*
X163055Y221513D01*
X163115Y221609D01*
X163169Y221717D01*
X163217Y221825D01*
X163253Y221940D01*
X163289Y222054D01*
X163338Y222270D01*
X163349Y222372D01*
X163362Y222468D01*
X163373Y222553D01*
X163380Y222625D01*
X163386Y222691D01*
Y221303D01*
D01*
Y229019D01*
D01*
Y228136D01*
X158668Y229080D01*
D02*
G37*
G36*
X163386Y220383D02*
Y218965D01*
D01*
Y220383D01*
D02*
G37*
G36*
X158668Y221303D02*
Y220383D01*
X159599Y219932D01*
Y218280D01*
X158668Y218207D01*
Y217270D01*
D01*
X163386Y217721D01*
Y218965D01*
X159359Y220960D01*
X158668Y221303D01*
D02*
G37*
G36*
X163386Y216789D02*
X158668D01*
Y215906D01*
X160621Y215515D01*
Y215377D01*
X160615Y215286D01*
X160609Y215245D01*
X160603Y215208D01*
X160597Y215184D01*
X160591Y215160D01*
X160585Y215148D01*
Y215142D01*
X160555Y215070D01*
X160513Y215010D01*
X160495Y214986D01*
X160477Y214968D01*
X160471Y214962D01*
X160465Y214956D01*
X160429Y214926D01*
X160393Y214896D01*
X160315Y214848D01*
X160278Y214830D01*
X160248Y214818D01*
X160230Y214806D01*
X160224D01*
X160164Y214782D01*
X160098Y214758D01*
X160038Y214740D01*
X159978Y214722D01*
X159924Y214704D01*
X159882Y214698D01*
X159852Y214686D01*
X159840D01*
X158668Y214397D01*
Y213393D01*
X159834Y213718D01*
X159918Y213742D01*
X159996Y213772D01*
X160062Y213796D01*
X160122Y213814D01*
X160170Y213832D01*
X160206Y213844D01*
X160230Y213850D01*
X160236Y213856D01*
X160296Y213880D01*
X160356Y213898D01*
X160405Y213922D01*
X160447Y213940D01*
X160483Y213958D01*
X160507Y213970D01*
X160525Y213976D01*
X160531Y213982D01*
X160615Y214030D01*
X160675Y214078D01*
X160699Y214096D01*
X160717Y214115D01*
X160723Y214121D01*
X160729Y214127D01*
X160783Y214181D01*
X160825Y214235D01*
X160849Y214271D01*
X160861Y214283D01*
Y214289D01*
X160885Y214181D01*
X160916Y214078D01*
X160940Y213988D01*
X160969Y213910D01*
X161000Y213844D01*
X161024Y213796D01*
X161036Y213766D01*
X161042Y213754D01*
X161096Y213670D01*
X161150Y213592D01*
X161204Y213526D01*
X161258Y213465D01*
X161300Y213417D01*
X161342Y213381D01*
X161366Y213357D01*
X161372Y213351D01*
X161450Y213291D01*
X161529Y213243D01*
X161601Y213195D01*
X161667Y213159D01*
X161727Y213135D01*
X161775Y213117D01*
X161805Y213105D01*
X161817Y213099D01*
X161913Y213069D01*
X162009Y213045D01*
X162099Y213033D01*
X162178Y213021D01*
X162250Y213015D01*
X162304Y213009D01*
X162352D01*
X162454Y213015D01*
X162544Y213027D01*
X162628Y213045D01*
X162694Y213063D01*
X162749Y213081D01*
X162791Y213099D01*
X162821Y213111D01*
X162827Y213117D01*
X162899Y213159D01*
X162959Y213207D01*
X163013Y213255D01*
X163061Y213303D01*
X163097Y213351D01*
X163121Y213387D01*
X163139Y213411D01*
X163145Y213417D01*
X163187Y213496D01*
X163229Y213574D01*
X163259Y213652D01*
X163283Y213724D01*
X163301Y213790D01*
X163313Y213838D01*
X163326Y213874D01*
Y213886D01*
X163344Y213988D01*
X163362Y214096D01*
X163373Y214199D01*
X163380Y214289D01*
X163386Y214373D01*
Y213009D01*
D01*
Y215845D01*
X158668Y216789D01*
X163386D01*
D01*
D02*
G37*
G36*
Y212209D02*
X158668D01*
Y210719D01*
X160338Y210394D01*
X163386Y208225D01*
D01*
Y212209D01*
D02*
G37*
G36*
X164173Y207874D02*
X157874D01*
X164173D01*
D01*
D02*
G37*
%LPD*%
G36*
X163464Y230552D02*
X163458Y230708D01*
X163440Y230858D01*
X163416Y230991D01*
X163392Y231105D01*
X163362Y231201D01*
X163349Y231237D01*
X163338Y231273D01*
X163326Y231297D01*
X163320Y231315D01*
X163313Y231327D01*
Y231333D01*
X163253Y231459D01*
X163193Y231580D01*
X163127Y231682D01*
X163067Y231772D01*
X163007Y231850D01*
X162965Y231904D01*
X162935Y231940D01*
X162923Y231946D01*
Y231952D01*
X162833Y232048D01*
X162731Y232139D01*
X162640Y232217D01*
X162550Y232289D01*
X162472Y232343D01*
X162412Y232385D01*
X162388Y232403D01*
X162370Y232409D01*
X162364Y232421D01*
X162358D01*
X162238Y232487D01*
X162111Y232553D01*
X161997Y232607D01*
X161889Y232649D01*
X161799Y232692D01*
X161763Y232703D01*
X161727Y232716D01*
X161703Y232728D01*
X161685Y232734D01*
X161673Y232740D01*
X161667D01*
X161529Y232782D01*
X161396Y232824D01*
X161270Y232854D01*
X161156Y232878D01*
X161054Y232902D01*
X161018Y232908D01*
X160982Y232914D01*
X160951Y232920D01*
X160933D01*
X160922Y232926D01*
X160916D01*
X160771Y232944D01*
X160639Y232962D01*
X160513Y232974D01*
X160399Y232980D01*
X160302D01*
X160266Y232986D01*
X163464D01*
Y230552D01*
D02*
G37*
G36*
X160459Y232048D02*
X160555Y232042D01*
X160639Y232036D01*
X160711Y232030D01*
X160771Y232024D01*
X160807Y232018D01*
X160813D01*
X160819D01*
X160927Y232000D01*
X161030Y231982D01*
X161126Y231964D01*
X161210Y231946D01*
X161282Y231928D01*
X161330Y231916D01*
X161366Y231910D01*
X161378Y231904D01*
X161480Y231874D01*
X161571Y231838D01*
X161655Y231808D01*
X161733Y231778D01*
X161793Y231754D01*
X161841Y231730D01*
X161871Y231718D01*
X161883Y231712D01*
X161967Y231670D01*
X162045Y231622D01*
X162118Y231574D01*
X162178Y231532D01*
X162226Y231495D01*
X162262Y231466D01*
X162286Y231447D01*
X162292Y231441D01*
X162352Y231381D01*
X162406Y231321D01*
X162454Y231267D01*
X162490Y231213D01*
X162520Y231165D01*
X162544Y231129D01*
X162556Y231105D01*
X162562Y231099D01*
X162598Y231027D01*
X162622Y230955D01*
X162640Y230883D01*
X162652Y230816D01*
X162658Y230762D01*
X162664Y230714D01*
Y230678D01*
X162658Y230546D01*
X162634Y230432D01*
X162598Y230336D01*
X162562Y230257D01*
X162520Y230197D01*
X162490Y230155D01*
X162466Y230131D01*
X162454Y230125D01*
X162364Y230065D01*
X162262Y230023D01*
X162153Y229993D01*
X162045Y229975D01*
X161949Y229957D01*
X161907D01*
X161871Y229951D01*
X161841D01*
X161817D01*
X161805D01*
X161799D01*
X161691D01*
X161589Y229957D01*
X161492Y229963D01*
X161402Y229969D01*
X161330Y229981D01*
X161270Y229987D01*
X161234Y229993D01*
X161228D01*
X161222D01*
X161114Y230011D01*
X161012Y230023D01*
X160922Y230047D01*
X160837Y230065D01*
X160765Y230083D01*
X160711Y230095D01*
X160675Y230101D01*
X160669Y230107D01*
X160663D01*
X160567Y230137D01*
X160471Y230167D01*
X160387Y230203D01*
X160308Y230233D01*
X160248Y230257D01*
X160200Y230281D01*
X160170Y230293D01*
X160158Y230299D01*
X160074Y230342D01*
X160002Y230390D01*
X159930Y230438D01*
X159870Y230480D01*
X159822Y230516D01*
X159786Y230546D01*
X159762Y230564D01*
X159756Y230570D01*
X159695Y230630D01*
X159641Y230690D01*
X159593Y230750D01*
X159551Y230804D01*
X159521Y230846D01*
X159497Y230889D01*
X159485Y230912D01*
X159479Y230919D01*
X159449Y230991D01*
X159425Y231063D01*
X159407Y231129D01*
X159395Y231195D01*
X159389Y231249D01*
X159383Y231297D01*
Y231333D01*
X159389Y231466D01*
X159413Y231580D01*
X159449Y231676D01*
X159485Y231754D01*
X159521Y231814D01*
X159557Y231856D01*
X159581Y231880D01*
X159587Y231886D01*
X159677Y231940D01*
X159780Y231982D01*
X159888Y232012D01*
X159996Y232030D01*
X160092Y232042D01*
X160140Y232048D01*
X160176Y232054D01*
X160206D01*
X160230D01*
X160242D01*
X160248D01*
X160356D01*
X160459Y232048D01*
D02*
G37*
G36*
X163386Y225576D02*
X162081Y225846D01*
X159996Y226261D01*
X160549Y226375D01*
X163386Y227096D01*
Y225576D01*
D02*
G37*
G36*
X162640Y223400D02*
Y222823D01*
X162628Y222733D01*
X162622Y222655D01*
X162610Y222589D01*
X162598Y222535D01*
X162586Y222493D01*
X162580Y222463D01*
X162574Y222457D01*
X162550Y222390D01*
X162520Y222324D01*
X162490Y222276D01*
X162460Y222228D01*
X162436Y222198D01*
X162412Y222168D01*
X162400Y222156D01*
X162394Y222150D01*
X162346Y222108D01*
X162298Y222072D01*
X162202Y222018D01*
X162160Y222000D01*
X162124Y221988D01*
X162099Y221976D01*
X162093D01*
X161955Y221940D01*
X161889Y221928D01*
X161829Y221922D01*
X161775Y221916D01*
X161727D01*
X161703D01*
X161691D01*
X161625D01*
X161558Y221922D01*
X161486Y221928D01*
X161426D01*
X161366Y221934D01*
X161324Y221940D01*
X161294Y221946D01*
X161282D01*
X161102Y221970D01*
X161024Y221982D01*
X160945Y222000D01*
X160879Y222012D01*
X160831Y222024D01*
X160801Y222030D01*
X160789Y222036D01*
X160693Y222066D01*
X160603Y222096D01*
X160519Y222126D01*
X160447Y222156D01*
X160381Y222186D01*
X160333Y222210D01*
X160302Y222222D01*
X160290Y222228D01*
X160200Y222276D01*
X160116Y222330D01*
X160044Y222378D01*
X159978Y222426D01*
X159924Y222475D01*
X159882Y222511D01*
X159858Y222535D01*
X159846Y222541D01*
X159780Y222619D01*
X159713Y222697D01*
X159665Y222775D01*
X159617Y222847D01*
X159581Y222913D01*
X159557Y222967D01*
X159539Y223003D01*
X159533Y223009D01*
Y223015D01*
X159491Y223124D01*
X159461Y223232D01*
X159443Y223346D01*
X159431Y223448D01*
X159419Y223538D01*
Y223574D01*
X159413Y223604D01*
Y224043D01*
X162640Y223400D01*
D02*
G37*
G36*
X162520Y218514D02*
X160327Y218340D01*
Y219578D01*
X162520Y218514D01*
D02*
G37*
G36*
X162646Y215112D02*
Y214680D01*
X162640Y214547D01*
X162628Y214433D01*
X162610Y214337D01*
X162586Y214259D01*
X162562Y214199D01*
X162544Y214157D01*
X162532Y214133D01*
X162526Y214127D01*
X162478Y214067D01*
X162418Y214024D01*
X162358Y213988D01*
X162298Y213970D01*
X162244Y213958D01*
X162202Y213946D01*
X162171D01*
X162160D01*
X162087Y213952D01*
X162015Y213958D01*
X161955Y213970D01*
X161901Y213982D01*
X161853Y214000D01*
X161823Y214012D01*
X161799Y214018D01*
X161793Y214024D01*
X161739Y214054D01*
X161685Y214090D01*
X161643Y214127D01*
X161601Y214163D01*
X161571Y214199D01*
X161547Y214223D01*
X161535Y214241D01*
X161529Y214247D01*
X161492Y214301D01*
X161456Y214361D01*
X161432Y214421D01*
X161408Y214475D01*
X161390Y214529D01*
X161378Y214565D01*
X161366Y214589D01*
Y214601D01*
X161336Y214758D01*
X161324Y214836D01*
X161318Y214908D01*
Y214974D01*
X161312Y215022D01*
Y215377D01*
X162646Y215112D01*
D02*
G37*
G36*
X160327Y211284D02*
X158668Y211620D01*
Y212209D01*
X163386D01*
X160327Y211284D01*
D02*
G37*
G36*
X163386Y209222D02*
X161943Y210220D01*
X161210Y210695D01*
X161925Y210869D01*
X163386Y211284D01*
Y209222D01*
D02*
G37*
%LPC*%
G36*
X141098Y194474D02*
Y194022D01*
X141103Y193981D01*
X141108Y193923D01*
X141114Y193856D01*
X141129Y193789D01*
X141145Y193716D01*
X141171Y193643D01*
X141176Y193633D01*
X141186Y193612D01*
X141202Y193576D01*
X141228Y193529D01*
X141254Y193482D01*
X141290Y193425D01*
X141332Y193373D01*
X141378Y193322D01*
X141384Y193316D01*
X141404Y193301D01*
X141430Y193275D01*
X141466Y193249D01*
X141513Y193212D01*
X141565Y193181D01*
X141627Y193150D01*
X141690Y193119D01*
X141700Y193114D01*
X141721Y193109D01*
X141757Y193093D01*
X141804Y193078D01*
X141861Y193067D01*
X141923Y193052D01*
X141996Y193046D01*
X142069Y193041D01*
X142074D01*
X142084D01*
X142105D01*
X142131Y193046D01*
X142193Y193052D01*
X142261Y193072D01*
X142266D01*
X142276Y193078D01*
X142292Y193088D01*
X142318Y193098D01*
X142370Y193129D01*
X142427Y193181D01*
X142432Y193186D01*
X142437Y193197D01*
X142453Y193212D01*
X142468Y193238D01*
X142489Y193270D01*
X142505Y193306D01*
X142525Y193347D01*
X142541Y193399D01*
Y193404D01*
X142546Y193425D01*
X142556Y193451D01*
X142567Y193493D01*
X142572Y193545D01*
X142582Y193607D01*
X142588Y193674D01*
Y194178D01*
X141098Y194474D01*
D02*
G37*
G36*
X146127Y187218D02*
Y186767D01*
X146132Y186725D01*
X146137Y186668D01*
X146143Y186600D01*
X146158Y186533D01*
X146174Y186460D01*
X146200Y186388D01*
X146205Y186377D01*
X146215Y186356D01*
X146231Y186320D01*
X146257Y186274D01*
X146283Y186227D01*
X146319Y186170D01*
X146361Y186118D01*
X146407Y186066D01*
X146413Y186061D01*
X146433Y186045D01*
X146459Y186019D01*
X146496Y185993D01*
X146542Y185957D01*
X146594Y185926D01*
X146657Y185895D01*
X146719Y185863D01*
X146729Y185858D01*
X146750Y185853D01*
X146786Y185837D01*
X146833Y185822D01*
X146890Y185812D01*
X146952Y185796D01*
X147025Y185791D01*
X147098Y185786D01*
X147103D01*
X147113D01*
X147134D01*
X147160Y185791D01*
X147222Y185796D01*
X147290Y185817D01*
X147295D01*
X147305Y185822D01*
X147321Y185832D01*
X147347Y185843D01*
X147399Y185874D01*
X147456Y185926D01*
X147461Y185931D01*
X147466Y185941D01*
X147482Y185957D01*
X147497Y185983D01*
X147518Y186014D01*
X147534Y186050D01*
X147554Y186092D01*
X147570Y186144D01*
Y186149D01*
X147575Y186170D01*
X147585Y186196D01*
X147596Y186237D01*
X147601Y186289D01*
X147611Y186351D01*
X147617Y186419D01*
Y186922D01*
X146127Y187218D01*
D02*
G37*
G36*
Y183710D02*
Y183258D01*
X146132Y183217D01*
X146137Y183159D01*
X146143Y183092D01*
X146158Y183025D01*
X146174Y182952D01*
X146200Y182879D01*
X146205Y182869D01*
X146215Y182848D01*
X146231Y182812D01*
X146257Y182765D01*
X146283Y182718D01*
X146319Y182661D01*
X146361Y182609D01*
X146407Y182557D01*
X146413Y182552D01*
X146433Y182537D01*
X146459Y182511D01*
X146496Y182485D01*
X146542Y182448D01*
X146594Y182417D01*
X146657Y182386D01*
X146719Y182355D01*
X146729Y182350D01*
X146750Y182345D01*
X146786Y182329D01*
X146833Y182314D01*
X146890Y182303D01*
X146952Y182288D01*
X147025Y182282D01*
X147098Y182277D01*
X147103D01*
X147113D01*
X147134D01*
X147160Y182282D01*
X147222Y182288D01*
X147290Y182308D01*
X147295D01*
X147305Y182314D01*
X147321Y182324D01*
X147347Y182334D01*
X147399Y182365D01*
X147456Y182417D01*
X147461Y182422D01*
X147466Y182433D01*
X147482Y182448D01*
X147497Y182474D01*
X147518Y182506D01*
X147534Y182542D01*
X147554Y182583D01*
X147570Y182635D01*
Y182641D01*
X147575Y182661D01*
X147585Y182687D01*
X147596Y182729D01*
X147601Y182781D01*
X147611Y182843D01*
X147617Y182910D01*
Y183414D01*
X146127Y183710D01*
D02*
G37*
G36*
X144809Y169972D02*
Y169432D01*
X144814Y169385D01*
X144819Y169323D01*
X144824Y169255D01*
X144835Y169188D01*
X144850Y169115D01*
X144871Y169048D01*
X144876Y169037D01*
X144881Y169017D01*
X144897Y168986D01*
X144918Y168944D01*
X144970Y168851D01*
X145006Y168804D01*
X145042Y168762D01*
X145048Y168757D01*
X145063Y168747D01*
X145084Y168726D01*
X145110Y168700D01*
X145146Y168674D01*
X145183Y168648D01*
X145229Y168622D01*
X145276Y168602D01*
X145281D01*
X145302Y168591D01*
X145328Y168586D01*
X145359Y168576D01*
X145401Y168565D01*
X145447Y168560D01*
X145546Y168550D01*
X145551D01*
X145561D01*
X145577D01*
X145598Y168555D01*
X145650Y168565D01*
X145707Y168586D01*
X145712D01*
X145722Y168591D01*
X145753Y168612D01*
X145800Y168643D01*
X145847Y168695D01*
X145852Y168700D01*
X145857Y168710D01*
X145868Y168726D01*
X145883Y168747D01*
X145899Y168778D01*
X145914Y168814D01*
X145930Y168856D01*
X145946Y168903D01*
Y168908D01*
X145951Y168923D01*
X145956Y168954D01*
X145966Y168991D01*
X145971Y169043D01*
X145977Y169100D01*
X145982Y169162D01*
Y169733D01*
X144809Y169972D01*
D02*
G37*
G36*
X146568Y169614D02*
Y169147D01*
X146573Y169110D01*
Y169058D01*
X146584Y169001D01*
X146594Y168939D01*
X146605Y168877D01*
X146625Y168814D01*
X146631Y168809D01*
X146636Y168788D01*
X146651Y168757D01*
X146667Y168721D01*
X146719Y168633D01*
X146750Y168591D01*
X146786Y168550D01*
X146792Y168544D01*
X146802Y168534D01*
X146823Y168513D01*
X146854Y168487D01*
X146885Y168461D01*
X146921Y168435D01*
X146963Y168410D01*
X147009Y168389D01*
X147015Y168384D01*
X147030Y168378D01*
X147056Y168368D01*
X147092Y168358D01*
X147129Y168347D01*
X147176Y168342D01*
X147222Y168332D01*
X147269D01*
X147274D01*
X147279D01*
X147310Y168337D01*
X147352Y168342D01*
X147404Y168358D01*
X147409D01*
X147414Y168363D01*
X147445Y168373D01*
X147482Y168399D01*
X147523Y168441D01*
X147528Y168446D01*
X147534Y168451D01*
X147544Y168467D01*
X147554Y168487D01*
X147570Y168513D01*
X147585Y168539D01*
X147611Y168617D01*
Y168622D01*
X147617Y168638D01*
X147622Y168664D01*
X147632Y168695D01*
X147637Y168742D01*
X147643Y168793D01*
X147648Y168851D01*
Y169401D01*
X146568Y169614D01*
D02*
G37*
G36*
X440493Y325418D02*
X434507Y324942D01*
X440493Y322039D01*
Y325418D01*
D02*
G37*
G36*
X200478Y158952D02*
X200085D01*
X199845Y157740D01*
X200167D01*
X200211Y157745D01*
X200271D01*
X200336Y157751D01*
X200407Y157762D01*
X200549Y157789D01*
X200560D01*
X200582Y157800D01*
X200615Y157811D01*
X200664Y157827D01*
X200713Y157849D01*
X200768Y157871D01*
X200822Y157903D01*
X200871Y157936D01*
X200877Y157942D01*
X200893Y157953D01*
X200915Y157974D01*
X200948Y158002D01*
X200981Y158040D01*
X201013Y158078D01*
X201046Y158127D01*
X201074Y158176D01*
X201079Y158182D01*
X201084Y158204D01*
X201095Y158231D01*
X201112Y158275D01*
X201123Y158324D01*
X201133Y158379D01*
X201139Y158444D01*
X201144Y158510D01*
Y158520D01*
Y158548D01*
X201133Y158586D01*
X201123Y158635D01*
X201106Y158690D01*
X201074Y158744D01*
X201035Y158799D01*
X200981Y158843D01*
X200975Y158848D01*
X200953Y158859D01*
X200915Y158875D01*
X200861Y158897D01*
X200789Y158919D01*
X200702Y158935D01*
X200598Y158946D01*
X200478Y158952D01*
D02*
G37*
G36*
X196946D02*
X196416D01*
X196105Y157385D01*
X196580D01*
X196624Y157390D01*
X196684Y157396D01*
X196755Y157401D01*
X196826Y157418D01*
X196902Y157434D01*
X196978Y157461D01*
X196989Y157467D01*
X197011Y157478D01*
X197049Y157494D01*
X197099Y157521D01*
X197148Y157549D01*
X197208Y157587D01*
X197262Y157630D01*
X197317Y157680D01*
X197322Y157685D01*
X197339Y157707D01*
X197366Y157734D01*
X197393Y157772D01*
X197432Y157822D01*
X197464Y157876D01*
X197497Y157942D01*
X197530Y158007D01*
X197535Y158018D01*
X197541Y158040D01*
X197557Y158078D01*
X197574Y158127D01*
X197584Y158187D01*
X197601Y158253D01*
X197606Y158329D01*
X197612Y158406D01*
Y158411D01*
Y158422D01*
Y158444D01*
X197606Y158471D01*
X197601Y158537D01*
X197579Y158608D01*
Y158613D01*
X197574Y158624D01*
X197563Y158641D01*
X197552Y158668D01*
X197519Y158722D01*
X197464Y158782D01*
X197459Y158788D01*
X197448Y158793D01*
X197432Y158810D01*
X197404Y158826D01*
X197372Y158848D01*
X197333Y158864D01*
X197290Y158886D01*
X197235Y158903D01*
X197230D01*
X197208Y158908D01*
X197180Y158919D01*
X197137Y158930D01*
X197082Y158935D01*
X197017Y158946D01*
X196946Y158952D01*
D02*
G37*
G36*
X435409Y191256D02*
X435262D01*
X435245D01*
X435229D01*
X435131Y191240D01*
X434999Y191223D01*
X434835Y191174D01*
X434819D01*
X434802Y191157D01*
X434704Y191125D01*
X434589Y191043D01*
X434458Y190911D01*
X434442Y190895D01*
X434425Y190879D01*
X434392Y190830D01*
X434360Y190764D01*
X434310Y190682D01*
X434261Y190600D01*
X434179Y190354D01*
Y190338D01*
X434163Y190288D01*
X434146Y190206D01*
X434114Y190108D01*
X434097Y189960D01*
X434081Y189796D01*
X434064Y189616D01*
Y187878D01*
X437476Y187205D01*
Y188681D01*
X437459Y188796D01*
Y188960D01*
X437427Y189140D01*
X437394Y189337D01*
X437361Y189534D01*
X437295Y189731D01*
X437279Y189747D01*
X437262Y189813D01*
X437213Y189911D01*
X437164Y190026D01*
X437000Y190305D01*
X436902Y190436D01*
X436787Y190567D01*
X436770Y190584D01*
X436738Y190616D01*
X436672Y190682D01*
X436574Y190764D01*
X436475Y190846D01*
X436361Y190928D01*
X436229Y191010D01*
X436082Y191076D01*
X436065Y191092D01*
X436016Y191108D01*
X435934Y191141D01*
X435819Y191174D01*
X435705Y191207D01*
X435557Y191223D01*
X435409Y191256D01*
D02*
G37*
G36*
X440706Y190567D02*
X440690D01*
X440657D01*
X440608D01*
X440543Y190551D01*
X440379Y190518D01*
X440198Y190452D01*
X440182D01*
X440149Y190436D01*
X440051Y190370D01*
X439903Y190272D01*
X439755Y190108D01*
X439739Y190092D01*
X439722Y190059D01*
X439690Y190009D01*
X439641Y189944D01*
X439591Y189846D01*
X439542Y189731D01*
X439493Y189600D01*
X439444Y189452D01*
Y189436D01*
X439427Y189386D01*
X439411Y189288D01*
X439378Y189173D01*
X439362Y189009D01*
X439345Y188829D01*
X439329Y188632D01*
Y186828D01*
X443035Y186074D01*
Y187779D01*
X443019Y187927D01*
X443003Y188124D01*
X442986Y188337D01*
X442953Y188550D01*
X442904Y188779D01*
X442838Y188993D01*
X442822Y189025D01*
X442806Y189091D01*
X442757Y189190D01*
X442691Y189321D01*
X442527Y189616D01*
X442412Y189763D01*
X442297Y189895D01*
X442281Y189911D01*
X442232Y189944D01*
X442166Y190009D01*
X442084Y190092D01*
X441969Y190173D01*
X441854Y190255D01*
X441707Y190338D01*
X441559Y190403D01*
X441543D01*
X441477Y190436D01*
X441395Y190452D01*
X441297Y190485D01*
X441166Y190518D01*
X441018Y190534D01*
X440706Y190567D01*
D02*
G37*
%LPD*%
D10*
X204331Y237598D02*
G03*
X204331Y237598I-15748J0D01*
G01*
X401279Y209252D02*
G03*
X401279Y209252I-16240J0D01*
G01*
X241378Y236850D02*
G03*
X241378Y236850I-15000J0D01*
G01*
X200787Y203937D02*
G03*
X200787Y203543I0J-197D01*
G01*
D02*
G03*
X200787Y203937I0J197D01*
G01*
D02*
G03*
X200787Y203543I0J-197D01*
G01*
X170655Y254514D02*
G03*
X168504Y249320I5194J-5194D01*
G01*
X363878Y279331D02*
G03*
X363878Y279331I-16240J0D01*
G01*
X401279Y302559D02*
G03*
X401279Y302559I-16240J0D01*
G01*
X363878Y232480D02*
G03*
X363878Y232480I-16240J0D01*
G01*
X204331Y274213D02*
G03*
X204331Y274213I-15748J0D01*
G01*
X241378Y275039D02*
G03*
X241378Y275039I-15000J0D01*
G01*
X162598Y248031D02*
G03*
X165287Y249145I0J3802D01*
G01*
X174016Y255906D02*
G03*
X170655Y254514I0J-4752D01*
G01*
X399213Y343583D02*
X434803D01*
Y332795D02*
Y343583D01*
X393622Y332795D02*
X434803D01*
X393622D02*
Y338189D01*
X179134Y250000D02*
X198031D01*
X375590Y196063D02*
X394488D01*
X225000Y203740D02*
X362402D01*
Y153740D02*
Y203740D01*
X225000Y153740D02*
X362402D01*
X225000D02*
Y203740D01*
X277953Y253543D02*
X325197D01*
X277953Y206299D02*
X325197D01*
X272953Y182701D02*
Y201205D01*
Y182701D02*
X314449D01*
Y195614D01*
X256260Y270571D02*
Y293445D01*
X270512Y272697D02*
Y293445D01*
X399213Y353819D02*
X434803D01*
Y343032D02*
Y353819D01*
X393622Y343032D02*
X434803D01*
X393622D02*
Y348425D01*
X404449Y300748D02*
X415236D01*
Y325748D01*
X404449Y300748D02*
Y331339D01*
X409842D01*
X125591Y195374D02*
X133465D01*
X125591Y190453D02*
X135335D01*
X425197Y254331D02*
X441339D01*
Y214567D02*
Y254331D01*
X411417Y214567D02*
X441339D01*
X411417D02*
Y244488D01*
X129528Y198721D02*
Y202854D01*
X150276Y161673D02*
X215079D01*
X150276D02*
Y201673D01*
X215079D01*
Y161673D02*
Y201673D01*
X369488Y168425D02*
X390630D01*
X369488Y157598D02*
Y168307D01*
Y157598D02*
X390551D01*
X390630Y162992D02*
Y168386D01*
X168504Y201969D02*
Y204331D01*
Y206693D02*
Y208661D01*
Y211024D02*
Y212992D01*
Y215354D02*
Y217323D01*
Y219685D02*
Y221654D01*
Y224016D02*
Y225984D01*
Y228346D02*
Y230315D01*
Y232677D02*
Y234646D01*
Y237008D02*
Y238976D01*
Y241339D02*
Y243307D01*
Y245669D02*
Y249320D01*
X277953Y258268D02*
X325197D01*
X277953Y305512D02*
X325197D01*
X338189Y292520D02*
X357087D01*
X436614Y206594D02*
Y210728D01*
X375590Y315748D02*
X394488D01*
X338189Y219291D02*
X357087D01*
X179134Y261811D02*
X198031D01*
X153937Y216535D02*
Y246457D01*
X124016D02*
X153937D01*
X124016Y206693D02*
Y246457D01*
Y206693D02*
X140157D01*
X247933Y280709D02*
X252067D01*
X225000Y308071D02*
Y358071D01*
Y308071D02*
X362402D01*
Y358071D01*
X225000D02*
X362402D01*
X125591Y305217D02*
X133465D01*
X125591Y300295D02*
X135335D01*
X129528Y292421D02*
Y296555D01*
X124016Y249606D02*
X140157D01*
X124016D02*
Y289370D01*
X153937D01*
Y259449D02*
Y289370D01*
X270512Y218366D02*
Y241240D01*
X256260Y218366D02*
Y239114D01*
X247933Y231102D02*
X252067D01*
X247933Y244882D02*
X252067D01*
X247933Y266929D02*
X252067D01*
X314449Y310606D02*
Y329110D01*
X272953D02*
X314449D01*
X272953Y316197D02*
Y329110D01*
X390630Y348425D02*
Y353819D01*
X369488Y343032D02*
X390551D01*
X369488D02*
Y353740D01*
Y353858D02*
X390630D01*
X380059Y335728D02*
Y339862D01*
X433071Y198327D02*
X440945D01*
X431201Y203248D02*
X440945D01*
X380059Y171555D02*
Y175689D01*
X411417Y257480D02*
Y287402D01*
Y257480D02*
X441339D01*
Y297244D01*
X425197D02*
X441339D01*
X417441Y300748D02*
X428228D01*
Y325748D01*
X417441Y300748D02*
Y331339D01*
X422835D01*
X431201Y313878D02*
X440945D01*
X433071Y308957D02*
X440945D01*
X436614Y301476D02*
Y305610D01*
X165287Y249145D02*
X170655Y254514D01*
X175197Y157480D02*
X176772Y155905D01*
X188976Y159055D02*
X190551Y157480D01*
X188976Y155905D02*
X190551Y157480D01*
X175197D02*
X176772Y159055D01*
X175197Y157480D02*
X190551D01*
X174016Y255906D02*
X448032Y255906D01*
X115748Y248031D02*
X162598D01*
X399213Y168386D02*
X434803D01*
Y157598D02*
Y168386D01*
X393622Y157598D02*
X434803D01*
X393622D02*
Y162992D01*
X422835Y180866D02*
X428228D01*
Y211457D01*
X417441Y186457D02*
Y211457D01*
X428228D01*
X409842Y180866D02*
X415236D01*
Y211457D01*
X404449Y186457D02*
Y211457D01*
X415236D01*
X399213Y178622D02*
X434803D01*
Y167835D02*
Y178622D01*
X393622Y167835D02*
X434803D01*
X393622D02*
Y173228D01*
X144423Y354921D02*
X143504D01*
X143964D01*
Y352625D01*
X143504Y352166D01*
X143045D01*
X142586Y352625D01*
X145341Y354462D02*
X145800Y354921D01*
X146719D01*
X147178Y354462D01*
Y354002D01*
X146719Y353543D01*
X146259D01*
X146719D01*
X147178Y353084D01*
Y352625D01*
X146719Y352166D01*
X145800D01*
X145341Y352625D01*
X152231Y165158D02*
X151772Y164699D01*
Y163780D01*
X152231Y163321D01*
X152690D01*
X153150Y163780D01*
Y164699D01*
X153609Y165158D01*
X154068D01*
X154527Y164699D01*
Y163780D01*
X154068Y163321D01*
X151772Y166076D02*
X154527D01*
X153609Y166995D01*
X154527Y167913D01*
X151772D01*
X154527Y168831D02*
Y169750D01*
Y169290D01*
X151772D01*
X152231Y168831D01*
X118307Y204231D02*
X121063D01*
Y202854D01*
X120603Y202395D01*
X119685D01*
X119226Y202854D01*
Y204231D01*
Y203313D02*
X118307Y202395D01*
Y201476D02*
Y200558D01*
Y201017D01*
X121063D01*
X120603Y201476D01*
Y199180D02*
X121063Y198721D01*
Y197803D01*
X120603Y197344D01*
X118767D01*
X118307Y197803D01*
Y198721D01*
X118767Y199180D01*
X120603D01*
X447047Y206366D02*
X444292D01*
Y207743D01*
X444751Y208202D01*
X445669D01*
X446128Y207743D01*
Y206366D01*
Y207284D02*
X447047Y208202D01*
X446588Y209121D02*
X447047Y209580D01*
Y210498D01*
X446588Y210957D01*
X444751D01*
X444292Y210498D01*
Y209580D01*
X444751Y209121D01*
X445210D01*
X445669Y209580D01*
Y210957D01*
X414108Y261220D02*
X413189D01*
X413649D01*
Y258924D01*
X413189Y258465D01*
X412730D01*
X412271Y258924D01*
X416863Y261220D02*
X415026D01*
Y259842D01*
X415944Y260302D01*
X416404D01*
X416863Y259842D01*
Y258924D01*
X416404Y258465D01*
X415485D01*
X415026Y258924D01*
X127100Y245078D02*
X126181D01*
X126641D01*
Y242782D01*
X126181Y242323D01*
X125722D01*
X125263Y242782D01*
X129396Y242323D02*
Y245078D01*
X128018Y243701D01*
X129855D01*
X121063Y195209D02*
X118307D01*
Y193832D01*
X118767Y193373D01*
X120603D01*
X121063Y193832D01*
Y195209D01*
Y190618D02*
X120603Y191536D01*
X119685Y192454D01*
X118767D01*
X118307Y191995D01*
Y191077D01*
X118767Y190618D01*
X119226D01*
X119685Y191077D01*
Y192454D01*
X216208Y235630D02*
Y238385D01*
X217586D01*
X218045Y237926D01*
Y237008D01*
X217586Y236549D01*
X216208D01*
X217126D02*
X218045Y235630D01*
X218963Y238385D02*
X220800D01*
Y237926D01*
X218963Y236089D01*
Y235630D01*
X118307Y296784D02*
X121063D01*
Y295407D01*
X120603Y294947D01*
X119685D01*
X119226Y295407D01*
Y296784D01*
Y295866D02*
X118307Y294947D01*
X121063Y292192D02*
Y294029D01*
X119685D01*
X120144Y293111D01*
Y292652D01*
X119685Y292192D01*
X118767D01*
X118307Y292652D01*
Y293570D01*
X118767Y294029D01*
X242717Y282545D02*
X245472D01*
Y281168D01*
X245013Y280709D01*
X244094D01*
X243635Y281168D01*
Y282545D01*
Y281627D02*
X242717Y280709D01*
Y279790D02*
Y278872D01*
Y279331D01*
X245472D01*
X245013Y279790D01*
X121063Y305052D02*
X118307D01*
Y303674D01*
X118767Y303215D01*
X120603D01*
X121063Y303674D01*
Y305052D01*
X120603Y302297D02*
X121063Y301838D01*
Y300919D01*
X120603Y300460D01*
X120144D01*
X119685Y300919D01*
Y301378D01*
Y300919D01*
X119226Y300460D01*
X118767D01*
X118307Y300919D01*
Y301838D01*
X118767Y302297D01*
X261549Y284448D02*
Y281693D01*
X262927D01*
X263386Y282153D01*
Y283989D01*
X262927Y284448D01*
X261549D01*
X264304Y281693D02*
X265223D01*
X264763D01*
Y284448D01*
X264304Y283989D01*
X414108Y218307D02*
X413189D01*
X413649D01*
Y216011D01*
X413189Y215552D01*
X412730D01*
X412271Y216011D01*
X416863Y215552D02*
X415026D01*
X416863Y217388D01*
Y217847D01*
X416404Y218307D01*
X415485D01*
X415026Y217847D01*
X308334Y187204D02*
Y184908D01*
X308793Y184449D01*
X309712D01*
X310171Y184908D01*
Y187204D01*
X312926Y184449D02*
X311089D01*
X312926Y186286D01*
Y186745D01*
X312467Y187204D01*
X311548D01*
X311089Y186745D01*
X275329Y326968D02*
Y324672D01*
X275788Y324213D01*
X276706D01*
X277165Y324672D01*
Y326968D01*
X278084Y324213D02*
X279002D01*
X278543D01*
Y326968D01*
X278084Y326509D01*
X365454Y172245D02*
Y175000D01*
X366831D01*
X367290Y174540D01*
Y173622D01*
X366831Y173163D01*
X365454D01*
X366372D02*
X367290Y172245D01*
X368209D02*
X369127D01*
X368668D01*
Y175000D01*
X368209Y174540D01*
X372341Y172245D02*
X370505D01*
X372341Y174081D01*
Y174540D01*
X371882Y175000D01*
X370964D01*
X370505Y174540D01*
X366307Y336418D02*
Y339173D01*
X367684D01*
X368143Y338714D01*
Y337795D01*
X367684Y337336D01*
X366307D01*
X367225D02*
X368143Y336418D01*
X369062D02*
X369980D01*
X369521D01*
Y339173D01*
X369062Y338714D01*
X371358Y336418D02*
X372276D01*
X371817D01*
Y339173D01*
X371358Y338714D01*
X242717Y247178D02*
X245472D01*
Y245800D01*
X245013Y245341D01*
X244094D01*
X243635Y245800D01*
Y247178D01*
Y246259D02*
X242717Y245341D01*
X245013Y244423D02*
X245472Y243964D01*
Y243045D01*
X245013Y242586D01*
X244554D01*
X244094Y243045D01*
X243635Y242586D01*
X243176D01*
X242717Y243045D01*
Y243964D01*
X243176Y244423D01*
X243635D01*
X244094Y243964D01*
X244554Y244423D01*
X245013D01*
X244094Y243964D02*
Y243045D01*
X242717Y233398D02*
X245472D01*
Y232021D01*
X245013Y231561D01*
X244094D01*
X243635Y232021D01*
Y233398D01*
Y232480D02*
X242717Y231561D01*
X245472Y228806D02*
X245013Y229725D01*
X244094Y230643D01*
X243176D01*
X242717Y230184D01*
Y229266D01*
X243176Y228806D01*
X243635D01*
X244094Y229266D01*
Y230643D01*
X447047Y301248D02*
X444292D01*
Y302625D01*
X444751Y303084D01*
X445669D01*
X446129Y302625D01*
Y301248D01*
Y302166D02*
X447047Y303084D01*
Y305380D02*
X444292D01*
X445669Y304002D01*
Y305839D01*
X242717Y269225D02*
X245472D01*
Y267847D01*
X245013Y267388D01*
X244094D01*
X243635Y267847D01*
Y269225D01*
Y268307D02*
X242717Y267388D01*
X245013Y266470D02*
X245472Y266011D01*
Y265092D01*
X245013Y264633D01*
X244554D01*
X244094Y265092D01*
Y265552D01*
Y265092D01*
X243635Y264633D01*
X243176D01*
X242717Y265092D01*
Y266011D01*
X243176Y266470D01*
X233137Y273819D02*
Y276574D01*
X234515D01*
X234974Y276115D01*
Y275197D01*
X234515Y274738D01*
X233137D01*
X234056D02*
X234974Y273819D01*
X237729D02*
X235892D01*
X237729Y275656D01*
Y276115D01*
X237270Y276574D01*
X236351D01*
X235892Y276115D01*
X187533Y352166D02*
Y354921D01*
X188452Y354002D01*
X189370Y354921D01*
Y352166D01*
X190288D02*
X191207D01*
X190748D01*
Y354921D01*
X190288Y354462D01*
X298885Y231693D02*
Y228937D01*
X300722D01*
X303018D02*
Y231693D01*
X301640Y230315D01*
X303477D01*
X378019Y243503D02*
Y240749D01*
X379856D01*
X380774Y243044D02*
X381233Y243503D01*
X382152D01*
X382611Y243044D01*
Y242585D01*
X382152Y242126D01*
X381693D01*
X382152D01*
X382611Y241667D01*
Y241208D01*
X382152Y240749D01*
X381233D01*
X380774Y241208D01*
X299279Y282874D02*
Y280119D01*
X301116D01*
X303871D02*
X302034D01*
X303871Y281955D01*
Y282414D01*
X303412Y282874D01*
X302493D01*
X302034Y282414D01*
X378478Y271456D02*
Y268701D01*
X380315D01*
X381233D02*
X382152D01*
X381693D01*
Y271456D01*
X381233Y270997D01*
X127165Y287992D02*
X126247D01*
X126706D01*
Y285696D01*
X126247Y285237D01*
X125788D01*
X125329Y285696D01*
X128084Y285237D02*
X129002D01*
X128543D01*
Y287992D01*
X128084Y287532D01*
X226642Y202559D02*
Y199804D01*
Y201181D01*
X228478D01*
Y202559D01*
Y199804D01*
X231233Y202099D02*
X230774Y202559D01*
X229856D01*
X229397Y202099D01*
Y201640D01*
X229856Y201181D01*
X230774D01*
X231233Y200722D01*
Y200263D01*
X230774Y199804D01*
X229856D01*
X229397Y200263D01*
X233988Y199804D02*
X232152D01*
X233988Y201640D01*
Y202099D01*
X233529Y202559D01*
X232611D01*
X232152Y202099D01*
X226707Y312401D02*
Y309646D01*
Y311024D01*
X228544D01*
Y312401D01*
Y309646D01*
X231299Y311942D02*
X230840Y312401D01*
X229921D01*
X229462Y311942D01*
Y311483D01*
X229921Y311024D01*
X230840D01*
X231299Y310564D01*
Y310105D01*
X230840Y309646D01*
X229921D01*
X229462Y310105D01*
X232217Y309646D02*
X233135D01*
X232676D01*
Y312401D01*
X232217Y311942D01*
X261090Y230118D02*
Y227363D01*
X262468D01*
X262927Y227822D01*
Y229659D01*
X262468Y230118D01*
X261090D01*
X265223Y227363D02*
Y230118D01*
X263845Y228740D01*
X265682D01*
X444292Y309121D02*
X447047D01*
Y310499D01*
X446588Y310958D01*
X444751D01*
X444292Y310499D01*
Y309121D01*
X447047Y313713D02*
Y311877D01*
X445210Y313713D01*
X444751D01*
X444292Y313254D01*
Y312336D01*
X444751Y311877D01*
X385498Y208334D02*
X385958Y207874D01*
X386876D01*
X387335Y208334D01*
Y210170D01*
X386876Y210630D01*
X385958D01*
X385498Y210170D01*
X384580Y208334D02*
X384121Y207874D01*
X383203D01*
X382744Y208334D01*
Y208793D01*
X383203Y209252D01*
X382744Y209711D01*
Y210170D01*
X383203Y210630D01*
X384121D01*
X384580Y210170D01*
Y209711D01*
X384121Y209252D01*
X384580Y208793D01*
Y208334D01*
X384121Y209252D02*
X383203D01*
X347179Y233399D02*
X346720Y233858D01*
X345801D01*
X345342Y233399D01*
Y231562D01*
X345801Y231103D01*
X346720D01*
X347179Y231562D01*
X348097Y233858D02*
X349934D01*
Y233399D01*
X348097Y231562D01*
Y231103D01*
X249541Y211155D02*
X249082Y211614D01*
X248163D01*
X247704Y211155D01*
Y209318D01*
X248163Y208859D01*
X249082D01*
X249541Y209318D01*
X252296Y211614D02*
X251378Y211155D01*
X250459Y210236D01*
Y209318D01*
X250918Y208859D01*
X251837D01*
X252296Y209318D01*
Y209777D01*
X251837Y210236D01*
X250459D01*
X188124Y238517D02*
X187664Y238976D01*
X186746D01*
X186287Y238517D01*
Y236680D01*
X186746Y236221D01*
X187664D01*
X188124Y236680D01*
X190878Y238976D02*
X189042D01*
Y237598D01*
X189960Y238058D01*
X190419D01*
X190878Y237598D01*
Y236680D01*
X190419Y236221D01*
X189501D01*
X189042Y236680D01*
X384580Y303477D02*
X384121Y303937D01*
X383203D01*
X382744Y303477D01*
Y301641D01*
X383203Y301182D01*
X384121D01*
X384580Y301641D01*
X386876Y301182D02*
Y303937D01*
X385498Y302559D01*
X387335D01*
X348097Y278412D02*
X348556Y277953D01*
X349475D01*
X349934Y278412D01*
Y280249D01*
X349475Y280708D01*
X348556D01*
X348097Y280249D01*
X347179Y278412D02*
X346719Y277953D01*
X345801D01*
X345342Y278412D01*
Y278871D01*
X345801Y279331D01*
X346260D01*
X345801D01*
X345342Y279790D01*
Y280249D01*
X345801Y280708D01*
X346719D01*
X347179Y280249D01*
X249541Y302493D02*
X249082Y302952D01*
X248163D01*
X247704Y302493D01*
Y300657D01*
X248163Y300197D01*
X249082D01*
X249541Y300657D01*
X252296Y300197D02*
X250459D01*
X252296Y302034D01*
Y302493D01*
X251837Y302952D01*
X250918D01*
X250459Y302493D01*
X188583Y275131D02*
X188124Y275590D01*
X187205D01*
X186746Y275131D01*
Y273294D01*
X187205Y272835D01*
X188124D01*
X188583Y273294D01*
X189501Y272835D02*
X190419D01*
X189960D01*
Y275590D01*
X189501Y275131D01*
D11*
X226378Y254173D02*
Y253780D01*
Y254173D01*
X156693Y291732D02*
G03*
X156693Y291339I0J-197D01*
G01*
D02*
G03*
X156693Y291732I0J197D01*
G01*
X226378Y258110D02*
Y257716D01*
Y258110D01*
X370669Y232087D02*
X390158D01*
X370472Y251378D02*
X389961D01*
X140945Y305512D02*
Y359449D01*
X176378D01*
Y305512D02*
Y359449D01*
X370472Y279724D02*
X389961D01*
X370669Y260433D02*
X390158D01*
D12*
X409842Y329921D02*
G03*
X408268Y331496I-1575J0D01*
G01*
X422835Y329921D02*
G03*
X421260Y331496I-1575J0D01*
G01*
Y180709D02*
G03*
X422835Y182283I0J1575D01*
G01*
X408268Y180709D02*
G03*
X409842Y182283I0J1575D01*
G01*
X244630Y290850D02*
G03*
X232283Y296850I-13134J-11322D01*
G01*
X207874Y221260D02*
G03*
X220221Y215260I13134J11322D01*
G01*
X149213Y159449D02*
Y203543D01*
X138189Y159449D02*
Y203543D01*
X149213D01*
X138189Y159449D02*
X149213D01*
X385827Y180709D02*
X401968D01*
X385827Y190551D02*
X401968D01*
Y180709D02*
Y190551D01*
X385827Y180709D02*
Y190551D01*
Y321654D02*
X401968D01*
X385827Y331496D02*
X401968D01*
Y321654D02*
Y331496D01*
X385827Y321654D02*
Y331496D01*
X118504Y309449D02*
X138189D01*
X118504Y337008D02*
X138189D01*
Y309449D02*
Y337008D01*
X118504Y309449D02*
Y337008D01*
X401968Y331496D02*
X408268D01*
X421260D01*
X408268Y180709D02*
X421260D01*
X401968D02*
X408268D01*
X241575Y290850D02*
X244630D01*
Y294000D01*
X207874Y221260D02*
X210929D01*
X207874Y218110D02*
Y221260D01*
X222654Y215204D02*
X225319D01*
X223987Y216537D02*
Y213871D01*
X226652Y217203D02*
Y214538D01*
X227985Y213205D01*
X229318Y214538D01*
Y217203D01*
X223047Y297094D02*
X225713D01*
X224380Y298427D02*
Y295761D01*
X227046Y299093D02*
Y296427D01*
X228379Y295094D01*
X229712Y296427D01*
Y299093D01*
D13*
X448425Y348841D02*
G03*
X439786Y357480I-8640J0D01*
G01*
X439786Y153543D02*
G03*
X448425Y162183I0J8640D01*
G01*
X116164Y162183D02*
G03*
X124803Y153543I8640J0D01*
G01*
X124803Y357480D02*
G03*
X116164Y348841I0J-8640D01*
G01*
X124803Y153543D02*
X439786Y153543D01*
X116164Y348841D02*
X116164Y162183D01*
X124803Y357480D02*
X439786Y357480D01*
X448425Y162183D02*
X448425Y348841D01*
D14*
X444292Y198492D02*
X447047D01*
Y199869D01*
X446588Y200328D01*
X444751D01*
X444292Y199869D01*
Y198492D01*
Y203083D02*
Y201247D01*
X445669D01*
X445210Y202165D01*
Y202624D01*
X445669Y203083D01*
X446588D01*
X447047Y202624D01*
Y201706D01*
X446588Y201247D01*
M02*
