G04*
G04 #@! TF.GenerationSoftware,Altium Limited,Altium Designer,26.1.1 (7)*
G04*
G04 Layer_Color=16711935*
%FSLAX25Y25*%
%MOIN*%
G70*
G04*
G04 #@! TF.SameCoordinates,A27177A8-F1D2-4F34-B952-3273C0BAAD6C*
G04*
G04*
G04 #@! TF.FilePolarity,Negative*
G04*
G01*
G75*
%ADD31C,0.07591*%
%ADD32R,0.07591X0.07591*%
%ADD33R,0.05524X0.05524*%
%ADD34C,0.05524*%
%ADD35C,0.05328*%
%ADD36R,0.05328X0.05328*%
%ADD37C,0.15918*%
%ADD38C,0.08674*%
%ADD39O,0.05131X0.09068*%
%ADD40O,0.05131X0.11036*%
%ADD41R,0.08772X0.08772*%
%ADD42C,0.08772*%
%ADD43C,0.06312*%
%ADD44R,0.06312X0.06312*%
%ADD45R,0.07591X0.07591*%
%ADD46C,0.07887*%
%ADD47R,0.07887X0.07887*%
%ADD48C,0.10544*%
%ADD49C,0.19461*%
%ADD50C,0.22296*%
%ADD51C,0.14973*%
D31*
X429213Y338189D02*
D03*
X419213D02*
D03*
X409213D02*
D03*
X429213Y348425D02*
D03*
X419213D02*
D03*
X409213D02*
D03*
X409842Y305748D02*
D03*
Y315748D02*
D03*
X375039Y162992D02*
D03*
Y348425D02*
D03*
X422835Y315748D02*
D03*
Y305748D02*
D03*
X409213Y173228D02*
D03*
X419213D02*
D03*
X429213D02*
D03*
X409842Y196457D02*
D03*
Y206457D02*
D03*
X422835D02*
D03*
Y196457D02*
D03*
X429213Y162992D02*
D03*
X419213D02*
D03*
X409213D02*
D03*
D32*
X399213Y338189D02*
D03*
Y348425D02*
D03*
X385039Y162992D02*
D03*
Y348425D02*
D03*
X399213Y173228D02*
D03*
Y162992D02*
D03*
D33*
X188583Y230709D02*
D03*
Y281102D02*
D03*
D34*
Y244488D02*
D03*
Y267323D02*
D03*
D35*
X385039Y202362D02*
D03*
Y309449D02*
D03*
X347638Y286221D02*
D03*
Y225590D02*
D03*
D36*
X385039Y216142D02*
D03*
X347638Y272441D02*
D03*
X385039Y295669D02*
D03*
X347638Y239370D02*
D03*
D37*
X243701Y178740D02*
D03*
X343701D02*
D03*
X343701Y333071D02*
D03*
X243701D02*
D03*
D38*
X215591Y300000D02*
D03*
X205748D02*
D03*
X184488D02*
D03*
X194331D02*
D03*
D39*
X182921Y352232D02*
D03*
X216921D02*
D03*
D40*
X216929Y338583D02*
D03*
X182913D02*
D03*
D41*
X307087Y195614D02*
D03*
X280315Y316197D02*
D03*
D42*
X293701Y195614D02*
D03*
X280315D02*
D03*
X300394Y187740D02*
D03*
X287008D02*
D03*
Y324071D02*
D03*
X293701Y316197D02*
D03*
X307087D02*
D03*
X300394Y324071D02*
D03*
D43*
X226378Y236850D02*
D03*
X236378D02*
D03*
X226378Y226850D02*
D03*
Y285039D02*
D03*
X216378Y275039D02*
D03*
X226378D02*
D03*
D44*
Y246850D02*
D03*
Y265039D02*
D03*
D45*
X409842Y325748D02*
D03*
X422835D02*
D03*
X409842Y186457D02*
D03*
X422835D02*
D03*
D46*
X425197Y224803D02*
D03*
Y267717D02*
D03*
X140157Y236221D02*
D03*
Y279134D02*
D03*
D47*
X425197Y244488D02*
D03*
X140157Y259449D02*
D03*
Y216535D02*
D03*
X425197Y287402D02*
D03*
D48*
X200787Y195276D02*
D03*
X182677D02*
D03*
X164567D02*
D03*
Y168071D02*
D03*
X182677D02*
D03*
X200787D02*
D03*
D49*
X158661Y329134D02*
D03*
D50*
Y305512D02*
D03*
D51*
X294094Y346457D02*
D03*
X127165Y346063D02*
D03*
X127559Y164961D02*
D03*
X294094Y165354D02*
D03*
M02*
